<?xml version="1.0" encoding="utf-8"?>
<!-- Generator: Adobe Illustrator 21.0.0, SVG Export Plug-In . SVG Version: 6.00 Build 0)  -->
<svg version="1.1" xmlns="http://www.w3.org/2000/svg" xmlns:xlink="http://www.w3.org/1999/xlink" x="0px" y="0px"
	 viewBox="0 0 24 24" style="enable-background:new 0 0 24 24;" xml:space="preserve">
<style type="text/css">
	.st0{fill:#FFFFFF;}
	.st1{fill:#333333;}
	.st2{fill-rule:evenodd;clip-rule:evenodd;fill:#FF0000;}
</style>
<g id="Layer_1">
	<g>
		<path class="st0" d="M17.985,2.481c1.333,0,2.586,0.525,3.53,1.477c1.954,1.973,1.954,5.182-0.013,7.168L12,21.072l-9.515-9.959
			c-1.954-1.972-1.954-5.182,0-7.155c0.943-0.952,2.197-1.477,3.53-1.477c1.317,0,2.558,0.513,3.497,1.444l1.713,2.101L12,6.977
			l0.775-0.95l1.713-2.101C15.428,2.993,16.668,2.481,17.985,2.481 M17.985,1.481c-1.535,0-3.069,0.591-4.24,1.773L12,5.394
			l-1.745-2.14c-1.171-1.182-2.706-1.773-4.24-1.773s-3.069,0.591-4.24,1.773c-2.342,2.364-2.342,6.198,0,8.562L12,22.519
			l10.226-10.703c2.342-2.364,2.342-6.198,0-8.562C21.055,2.072,19.52,1.481,17.985,1.481L17.985,1.481z"/>
	</g>
</g>
<g id="Layer_2">
</g>
<g id="Layer_3">
</g>
</svg>
