<?xml version="1.0" encoding="utf-8"?>
<!-- Generator: Adobe Illustrator 21.0.0, SVG Export Plug-In . SVG Version: 6.00 Build 0)  -->
<svg version="1.1" id="Layer_1" xmlns="http://www.w3.org/2000/svg" xmlns:xlink="http://www.w3.org/1999/xlink" x="0px" y="0px"
	 viewBox="0 0 276 48" style="enable-background:new 0 0 276 48;" xml:space="preserve">
<style type="text/css">
	.st0{fill:#FFFFFF;}
	.st1{fill:none;stroke:#231F20;stroke-width:0.5;stroke-linejoin:round;}
	.st2{enable-background:new    ;}
	.st3{fill:#231F20;}
	.st4{fill:none;stroke:#231F20;stroke-width:0.5;stroke-linecap:round;stroke-linejoin:round;}
</style>
<g id="Layer_1-2">
	<rect class="st0" width="276" height="48"/>
	<polyline class="st1" points="1.1,45.9 73.1,45.9 73.1,18.7 1.1,18.7 1.1,45.9 	"/>
	<g class="st2">
		<path class="st3" d="M7,26.8H6.3v2.2c0,0.3,0,0.6,0.4,0.6c0.1,0,0.2,0,0.3,0V30c-0.2,0-0.3,0-0.5,0c-0.9,0-0.9-0.5-0.9-1.3v-2H5
			v-0.5h0.6v-1.1h0.6v1.1H7V26.8z"/>
		<path class="st3" d="M8.3,25.6H7.7v-0.8h0.6V25.6z M8.3,30H7.7v-3.7h0.6V30z"/>
		<path class="st3" d="M10.9,26.8h-0.7v2.2c0,0.3,0,0.6,0.4,0.6c0.1,0,0.2,0,0.3,0V30c-0.2,0-0.3,0-0.5,0c-0.9,0-0.9-0.5-0.9-1.3v-2
			H8.9v-0.5h0.6v-1.1h0.6v1.1h0.7V26.8z"/>
		<path class="st3" d="M12.2,30h-0.6v-5.2h0.6V30z"/>
		<path class="st3" d="M14.8,30.1c-1.1,0-1.8-0.7-1.8-1.9c0-1.2,0.7-2,1.7-2c1.2,0,1.7,1,1.7,2.1v0.1h-2.8l0,0
			c0,0.8,0.4,1.3,1.2,1.3c0.5,0,0.8-0.2,1-0.8h0.6C16.2,29.7,15.6,30.1,14.8,30.1z M14.7,26.7c-0.6,0-1,0.4-1.1,1.1h2.2
			C15.7,27.1,15.3,26.7,14.7,26.7z"/>
	</g>
	<g class="st2">
		<path class="st3" d="M18,27.1h-0.8v-0.8H18V27.1z M18,30h-0.8v-0.8H18V30z"/>
	</g>
	<g class="st2">
		<path class="st3" d="M23.9,26.4c-0.1-0.7-0.5-1.1-1.3-1.1c-0.7,0-1.2,0.3-1.2,0.9c0,0.6,0.6,0.7,1.4,0.9c0.8,0.2,1.9,0.4,1.9,1.5
			c0,1.1-1,1.6-2,1.6c-1.2,0-2.1-0.6-2.1-1.8h0.7c0,0.9,0.7,1.3,1.5,1.3c0.6,0,1.3-0.2,1.3-0.9c0-0.7-0.7-0.8-1.5-1
			c-0.8-0.2-1.8-0.3-1.8-1.4c0-1.1,0.9-1.5,1.9-1.5c1.1,0,1.8,0.5,1.9,1.6H23.9z"/>
		<path class="st3" d="M27.1,26.8h-0.7v2.2c0,0.3,0,0.6,0.4,0.6c0.1,0,0.2,0,0.3,0V30c-0.2,0-0.3,0-0.5,0c-0.9,0-0.9-0.5-0.9-1.3v-2
			h-0.6v-0.5h0.6v-1.1h0.6v1.1h0.7V26.8z"/>
	</g>
	<g class="st2">
		<path class="st3" d="M29.7,26.8c-0.1,0-0.1,0-0.2,0c-1,0-1.2,0.8-1.2,1.6V30h-0.6v-3.7h0.6v0.8c0.3-0.6,0.7-0.9,1.4-0.9V26.8z"/>
	</g>
	<g class="st2">
		<path class="st3" d="M30.9,25.6h-0.6v-0.8h0.6V25.6z M30.9,30h-0.6v-3.7h0.6V30z"/>
		<path class="st3" d="M32.4,26.8c0.3-0.5,0.7-0.7,1.3-0.7c0.9,0,1.2,0.5,1.2,1.4V30h-0.6v-2.2c0-0.6,0-1.1-0.8-1.1
			c-0.8,0-1.1,0.6-1.1,1.3v2h-0.6v-3.7h0.6V26.8z"/>
		<path class="st3" d="M39.1,29.6c0,0.6-0.1,0.9-0.2,1.2c-0.3,0.4-0.8,0.7-1.5,0.7c-0.8,0-1.5-0.3-1.6-1.1h0.6
			c0.1,0.4,0.4,0.6,1,0.6c0.8,0,1.1-0.4,1.1-1.2l0-0.5c-0.2,0.5-0.6,0.7-1.2,0.7c-1,0-1.6-0.7-1.6-1.9c0-1,0.6-2,1.7-2
			c0.5,0,0.9,0.2,1.2,0.6v-0.5h0.6V29.6z M36.3,28.2c0,0.8,0.4,1.4,1.1,1.4c0.7,0,1.1-0.6,1.1-1.5c0-0.8-0.4-1.4-1.1-1.4
			C36.8,26.7,36.3,27.2,36.3,28.2z"/>
	</g>
	<g class="st2">
		<path class="st3" d="M8.7,39.5c-0.1,0.1-0.3,0.1-0.4,0.1c-0.3,0-0.5-0.2-0.5-0.6c-0.4,0.4-0.8,0.6-1.4,0.6c-0.7,0-1.2-0.4-1.2-1.1
			c0-0.7,0.4-1.1,1.3-1.2c0.9-0.1,1.2-0.1,1.2-0.6c0-0.4-0.3-0.6-0.8-0.6c-0.6,0-0.9,0.2-0.9,0.8H5.3c0-0.8,0.6-1.3,1.6-1.3
			c0.5,0,0.9,0.1,1.2,0.4c0.3,0.3,0.3,0.6,0.3,1c0,0.6,0,1.1,0,1.7c0,0.3,0.1,0.4,0.3,0.4c0.1,0,0.1,0,0.2,0V39.5z M6.9,37.8
			c-0.4,0.1-1.1,0.1-1.1,0.7c0,0.4,0.3,0.6,0.7,0.6c0.6,0,1.1-0.4,1.1-0.9v-0.7C7.5,37.8,7.2,37.8,6.9,37.8z"/>
	</g>
	<g class="st2">
		<path class="st3" d="M11.2,36.3c-0.1,0-0.1,0-0.2,0c-1,0-1.2,0.8-1.2,1.6v1.6H9.3v-3.7h0.6v0.8c0.3-0.6,0.7-0.9,1.4-0.9V36.3z"/>
	</g>
	<g class="st2">
		<path class="st3" d="M13.6,36.3h-0.7v2.2c0,0.3,0,0.6,0.4,0.6c0.1,0,0.2,0,0.3,0v0.5c-0.2,0-0.3,0-0.5,0c-0.9,0-0.9-0.5-0.9-1.3
			v-2h-0.6v-0.5h0.6v-1.1h0.6v1.1h0.7V36.3z"/>
		<path class="st3" d="M14.9,35.1h-0.6v-0.8h0.6V35.1z M14.9,39.5h-0.6v-3.7h0.6V39.5z"/>
		<path class="st3" d="M18,36.9c0-0.5-0.4-0.7-0.9-0.7c-0.5,0-0.8,0.2-0.8,0.5c0,0.4,0.5,0.5,1,0.6c0.6,0.1,1.4,0.3,1.4,1.1
			c0,0.7-0.6,1.2-1.6,1.2c-1,0-1.6-0.5-1.6-1.3h0.6c0,0.6,0.4,0.8,1,0.8c0.6,0,0.9-0.2,0.9-0.6c0-0.4-0.4-0.5-0.9-0.6
			c-0.6-0.2-1.5-0.2-1.5-1.1c0-0.7,0.6-1.1,1.4-1.1c0.8,0,1.5,0.4,1.5,1.2H18z"/>
		<path class="st3" d="M21.1,36.3h-0.7v2.2c0,0.3,0,0.6,0.4,0.6c0.1,0,0.2,0,0.3,0v0.5c-0.2,0-0.3,0-0.5,0c-0.9,0-0.9-0.5-0.9-1.3
			v-2h-0.6v-0.5h0.6v-1.1h0.6v1.1h0.7V36.3z"/>
	</g>
	<g class="st2">
		<path class="st3" d="M22.7,36.6h-0.8v-0.8h0.8V36.6z M22.7,39.5h-0.8v-0.8h0.8V39.5z"/>
	</g>
	<g class="st2">
		<path class="st3" d="M28.6,35.9c-0.1-0.7-0.5-1.1-1.3-1.1c-0.7,0-1.2,0.3-1.2,0.9c0,0.6,0.6,0.7,1.4,0.9c0.8,0.2,1.9,0.4,1.9,1.5
			c0,1.1-1,1.6-2,1.6c-1.2,0-2.1-0.6-2.1-1.8h0.7c0,0.9,0.7,1.3,1.5,1.3c0.6,0,1.3-0.2,1.3-0.9c0-0.7-0.7-0.8-1.5-1
			c-0.8-0.2-1.8-0.3-1.8-1.4c0-1.1,0.9-1.5,1.9-1.5c1.1,0,1.8,0.5,1.9,1.6H28.6z"/>
		<path class="st3" d="M31.8,36.3H31v2.2c0,0.3,0,0.6,0.4,0.6c0.1,0,0.2,0,0.3,0v0.5c-0.2,0-0.3,0-0.5,0c-0.9,0-0.9-0.5-0.9-1.3v-2
			h-0.6v-0.5h0.6v-1.1H31v1.1h0.7V36.3z"/>
	</g>
	<g class="st2">
		<path class="st3" d="M34.4,36.3c-0.1,0-0.1,0-0.2,0c-1,0-1.2,0.8-1.2,1.6v1.6h-0.6v-3.7H33v0.8c0.3-0.6,0.7-0.9,1.4-0.9V36.3z"/>
	</g>
	<g class="st2">
		<path class="st3" d="M35.6,35.1H35v-0.8h0.6V35.1z M35.6,39.5H35v-3.7h0.6V39.5z"/>
		<path class="st3" d="M37.2,36.4c0.3-0.5,0.7-0.7,1.3-0.7c0.9,0,1.2,0.5,1.2,1.4v2.5h-0.6v-2.2c0-0.6,0-1.1-0.8-1.1
			c-0.8,0-1.1,0.6-1.1,1.3v2h-0.6v-3.7h0.6V36.4z"/>
		<path class="st3" d="M43.9,39.1c0,0.6-0.1,0.9-0.2,1.2c-0.3,0.4-0.8,0.7-1.5,0.7c-0.8,0-1.5-0.3-1.6-1.1h0.6
			c0.1,0.4,0.4,0.6,1,0.6c0.8,0,1.1-0.4,1.1-1.2l0-0.5c-0.2,0.5-0.6,0.7-1.2,0.7c-1,0-1.6-0.7-1.6-1.9c0-1,0.6-2,1.7-2
			c0.5,0,0.9,0.2,1.2,0.6v-0.5h0.6V39.1z M41.1,37.7c0,0.8,0.4,1.4,1.1,1.4c0.7,0,1.1-0.6,1.1-1.5c0-0.8-0.4-1.4-1.1-1.4
			C41.5,36.2,41.1,36.8,41.1,37.7z"/>
	</g>
	<path class="st1" d="M1.1,0.7h72l0,0H1.1 M1.1,18.7h72v-18h-72V18.7"/>
	<g class="st2">
		<path class="st3" d="M24.8,12.4h-1.2l-0.4-1.2h-1.9l-0.4,1.2h-1.2l2-5.2h1.2L24.8,12.4z M22.2,8.5l-0.7,1.9h1.4L22.2,8.5z"/>
		<path class="st3" d="M26.2,12.4h-1V7.2h1V12.4z"/>
	</g>
	<g class="st2">
		<path class="st3" d="M28,9.1c0.3-0.4,0.7-0.5,1.2-0.5c1,0,1.6,0.9,1.6,1.9c0,1.2-0.7,2-1.7,2c-0.5,0-0.9-0.2-1.2-0.6l0,0.5h-1V7.2
			h1V9.1z M28,10.5c0,0.7,0.3,1.2,0.9,1.2c0.5,0,0.9-0.5,0.9-1.2c0-0.7-0.3-1.1-0.9-1.1C28.3,9.3,28,9.8,28,10.5z"/>
	</g>
	<g class="st2">
		<path class="st3" d="M34.8,12.4h-1v-0.5c-0.3,0.4-0.7,0.6-1.2,0.6c-0.8,0-1.3-0.4-1.3-1.3V8.6h1v2.1c0,0.5,0,0.8,0.6,0.8
			c0.6,0,0.8-0.5,0.8-1.1V8.6h1V12.4z"/>
		<path class="st3" d="M40.3,12.4v-2.2c0-0.4-0.1-0.8-0.6-0.8c-0.5,0-0.7,0.4-0.7,0.9v2.1h-1v-2.3c0-0.4-0.1-0.7-0.6-0.7
			c-0.6,0-0.7,0.5-0.7,1v2h-1V8.6h1v0.5c0.3-0.4,0.7-0.6,1.2-0.6c0.5,0,0.9,0.2,1.1,0.6c0.3-0.4,0.7-0.6,1.2-0.6
			c0.8,0,1.3,0.5,1.3,1.3v2.5H40.3z"/>
		<path class="st3" d="M44.3,7.2h2.1c1.6,0,2.5,0.9,2.5,2.6c0,1.7-0.9,2.6-2.5,2.6h-2.1V7.2z M46.2,11.4c1,0,1.5-0.6,1.5-1.6
			c0-1-0.5-1.6-1.5-1.6h-0.8v3.3H46.2z"/>
	</g>
	<g class="st2">
		<path class="st3" d="M53.5,8.2h-1.6v4.2h-1.1V8.2h-1.6v-1h4.2V8.2z"/>
	</g>
	<g class="st2">
		<path class="st3" d="M58.6,9.8c0,1.6-1,2.7-2.5,2.7c-1.5,0-2.6-1.1-2.6-2.7c0-1.6,1-2.7,2.6-2.7C57.6,7.1,58.6,8.2,58.6,9.8z
			 M54.7,9.8c0,1.1,0.5,1.8,1.4,1.8c0.9,0,1.4-0.7,1.4-1.8C57.5,8.7,57,8,56.1,8C55.2,8,54.7,8.7,54.7,9.8z"/>
	</g>
	<polyline class="st1" points="181.1,45.9 275.6,45.9 275.6,18.7 181.1,18.7 181.1,45.9 	"/>
	<g class="st2">
		<path class="st3" d="M187,26.8h-0.7v2.2c0,0.3,0,0.6,0.4,0.6c0.1,0,0.2,0,0.3,0V30c-0.2,0-0.3,0-0.5,0c-0.9,0-0.9-0.5-0.9-1.3v-2
			H185v-0.5h0.6v-1.1h0.6v1.1h0.7V26.8z"/>
		<path class="st3" d="M188.3,25.6h-0.6v-0.8h0.6V25.6z M188.3,30h-0.6v-3.7h0.6V30z"/>
		<path class="st3" d="M190.9,26.8h-0.7v2.2c0,0.3,0,0.6,0.4,0.6c0.1,0,0.2,0,0.3,0V30c-0.2,0-0.3,0-0.5,0c-0.9,0-0.9-0.5-0.9-1.3
			v-2h-0.6v-0.5h0.6v-1.1h0.6v1.1h0.7V26.8z"/>
		<path class="st3" d="M192.2,30h-0.6v-5.2h0.6V30z"/>
		<path class="st3" d="M194.8,30.1c-1.1,0-1.8-0.7-1.8-1.9c0-1.2,0.7-2,1.7-2c1.2,0,1.7,1,1.7,2.1v0.1h-2.8l0,0
			c0,0.8,0.4,1.3,1.2,1.3c0.5,0,0.8-0.2,1-0.8h0.6C196.2,29.7,195.6,30.1,194.8,30.1z M194.7,26.7c-0.6,0-1,0.4-1.1,1.1h2.2
			C195.7,27.1,195.3,26.7,194.7,26.7z"/>
	</g>
	<g class="st2">
		<path class="st3" d="M198,27.1h-0.8v-0.8h0.8V27.1z M198,30h-0.8v-0.8h0.8V30z"/>
	</g>
	<g class="st2">
		<path class="st3" d="M203.9,26.4c-0.1-0.7-0.5-1.1-1.3-1.1c-0.7,0-1.2,0.3-1.2,0.9c0,0.6,0.6,0.7,1.4,0.9c0.8,0.2,1.9,0.4,1.9,1.5
			c0,1.1-1,1.6-2,1.6c-1.2,0-2.1-0.6-2.1-1.8h0.7c0,0.9,0.7,1.3,1.5,1.3c0.6,0,1.3-0.2,1.3-0.9c0-0.7-0.7-0.8-1.5-1
			c-0.8-0.2-1.8-0.3-1.8-1.4c0-1.1,0.9-1.5,1.9-1.5c1.1,0,1.8,0.5,1.9,1.6H203.9z"/>
		<path class="st3" d="M207,26.8h-0.7v2.2c0,0.3,0,0.6,0.4,0.6c0.1,0,0.2,0,0.3,0V30c-0.2,0-0.3,0-0.5,0c-0.9,0-0.9-0.5-0.9-1.3v-2
			h-0.6v-0.5h0.6v-1.1h0.6v1.1h0.7V26.8z"/>
	</g>
	<g class="st2">
		<path class="st3" d="M209.7,26.8c-0.1,0-0.1,0-0.2,0c-1,0-1.2,0.8-1.2,1.6V30h-0.6v-3.7h0.6v0.8c0.3-0.6,0.7-0.9,1.4-0.9V26.8z"/>
	</g>
	<g class="st2">
		<path class="st3" d="M210.9,25.6h-0.6v-0.8h0.6V25.6z M210.9,30h-0.6v-3.7h0.6V30z"/>
		<path class="st3" d="M212.4,26.8c0.3-0.5,0.7-0.7,1.3-0.7c0.9,0,1.2,0.5,1.2,1.4V30h-0.6v-2.2c0-0.6,0-1.1-0.8-1.1
			c-0.8,0-1.1,0.6-1.1,1.3v2h-0.6v-3.7h0.6V26.8z"/>
		<path class="st3" d="M219.1,29.6c0,0.6-0.1,0.9-0.2,1.2c-0.3,0.4-0.8,0.7-1.5,0.7c-0.8,0-1.5-0.3-1.6-1.1h0.6
			c0.1,0.4,0.4,0.6,1,0.6c0.8,0,1.1-0.4,1.1-1.2l0-0.5c-0.2,0.5-0.6,0.7-1.2,0.7c-1,0-1.6-0.7-1.6-1.9c0-1,0.6-2,1.7-2
			c0.5,0,0.9,0.2,1.2,0.6v-0.5h0.6V29.6z M216.3,28.2c0,0.8,0.4,1.4,1.1,1.4c0.7,0,1.1-0.6,1.1-1.5c0-0.8-0.4-1.4-1.1-1.4
			C216.8,26.7,216.3,27.2,216.3,28.2z"/>
	</g>
	<g class="st2">
		<path class="st3" d="M186,36.3c0.3-0.5,0.7-0.6,1.3-0.6c1,0,1.7,0.8,1.7,2c0,1.2-0.7,2-1.7,2c-0.6,0-0.9-0.2-1.3-0.6v2h-0.6v-5.2
			h0.6V36.3z M186,37.6c0,0.9,0.5,1.5,1.2,1.5c0.7,0,1.1-0.6,1.1-1.5c0-0.9-0.4-1.5-1.2-1.5C186.4,36.2,186,36.7,186,37.6z"/>
		<path class="st3" d="M191.3,39.7c-1.1,0-1.8-0.7-1.8-1.9c0-1.2,0.7-2,1.7-2c1.2,0,1.7,1,1.7,2.1v0.1h-2.8l0,0
			c0,0.8,0.4,1.3,1.2,1.3c0.5,0,0.8-0.2,1-0.8h0.6C192.7,39.2,192.2,39.7,191.3,39.7z M191.2,36.2c-0.6,0-1,0.4-1.1,1.1h2.2
			C192.2,36.6,191.8,36.2,191.2,36.2z"/>
		<path class="st3" d="M195.5,36.3c-0.1,0-0.1,0-0.2,0c-1,0-1.2,0.8-1.2,1.6v1.6h-0.6v-3.7h0.6v0.8c0.3-0.6,0.7-0.9,1.4-0.9V36.3z"
			/>
	</g>
	<g class="st2">
		<path class="st3" d="M197.7,34.9c-0.1,0-0.2,0-0.3,0c-0.4,0-0.5,0.1-0.5,0.5v0.4h0.7v0.5h-0.7v3.2h-0.6v-3.2h-0.6v-0.5h0.6v-0.5
			c0-0.7,0.4-1,1-1c0.2,0,0.2,0,0.4,0V34.9z"/>
	</g>
	<g class="st2">
		<path class="st3" d="M201.4,37.6c0,1.3-0.7,2-1.8,2c-1.1,0-1.8-0.7-1.8-2s0.7-2,1.8-2S201.4,36.4,201.4,37.6z M198.4,37.7
			c0,0.9,0.4,1.5,1.2,1.5c0.7,0,1.2-0.6,1.2-1.5c0-0.9-0.5-1.5-1.2-1.5S198.4,36.8,198.4,37.7z"/>
	</g>
	<g class="st2">
		<path class="st3" d="M204.1,36.3c-0.1,0-0.1,0-0.2,0c-1,0-1.2,0.8-1.2,1.6v1.6h-0.6v-3.7h0.6v0.8c0.3-0.6,0.7-0.9,1.4-0.9V36.3z"
			/>
	</g>
	<g class="st2">
		<path class="st3" d="M205.3,36.3c0.3-0.4,0.7-0.6,1.2-0.6c0.5,0,0.8,0.2,1,0.6c0.3-0.4,0.7-0.7,1.2-0.7c0.8,0,1.2,0.5,1.2,1.2v2.6
			h-0.6v-2.4c0-0.5-0.1-0.9-0.7-0.9c-0.7,0-1,0.5-1,1.2v2.1H207v-2.4c0-0.5-0.1-0.9-0.7-0.9c-0.8,0-1,0.6-1,1.3v2h-0.6v-3.7h0.6
			V36.3z"/>
		<path class="st3" d="M212.4,39.7c-1.1,0-1.8-0.7-1.8-1.9c0-1.2,0.7-2,1.7-2c1.2,0,1.7,1,1.7,2.1v0.1h-2.8l0,0
			c0,0.8,0.4,1.3,1.2,1.3c0.5,0,0.8-0.2,1-0.8h0.6C213.9,39.2,213.3,39.7,212.4,39.7z M212.4,36.2c-0.6,0-1,0.4-1.1,1.1h2.2
			C213.4,36.6,213,36.2,212.4,36.2z"/>
		<path class="st3" d="M216.7,36.3c-0.1,0-0.1,0-0.2,0c-1,0-1.2,0.8-1.2,1.6v1.6h-0.6v-3.7h0.6v0.8c0.3-0.6,0.7-0.9,1.4-0.9V36.3z"
			/>
		<path class="st3" d="M219.3,36.9c0-0.5-0.4-0.7-0.9-0.7c-0.5,0-0.8,0.2-0.8,0.5c0,0.4,0.5,0.5,1,0.6c0.6,0.1,1.5,0.3,1.5,1.1
			c0,0.7-0.6,1.2-1.6,1.2c-1,0-1.6-0.5-1.6-1.3h0.6c0,0.6,0.4,0.8,1,0.8c0.6,0,0.9-0.2,0.9-0.6c0-0.4-0.4-0.5-0.9-0.6
			c-0.6-0.2-1.5-0.2-1.5-1.1c0-0.7,0.6-1.1,1.4-1.1c0.8,0,1.5,0.4,1.5,1.2H219.3z"/>
	</g>
	<g class="st2">
		<path class="st3" d="M221.8,36.6H221v-0.8h0.8V36.6z M221.8,39.5H221v-0.8h0.8V39.5z"/>
	</g>
	<g class="st2">
		<path class="st3" d="M228.8,39.5H228l-0.6-1.6h-2.2l-0.6,1.6H224l2-5.2h0.8L228.8,39.5z M226.4,35l-0.9,2.4h1.8L226.4,35z"/>
		<path class="st3" d="M231.1,36.3c-0.1,0-0.1,0-0.2,0c-1,0-1.2,0.8-1.2,1.6v1.6h-0.6v-3.7h0.6v0.8c0.3-0.6,0.7-0.9,1.4-0.9V36.3z"
			/>
	</g>
	<g class="st2">
		<path class="st3" d="M233.6,36.3c-0.1,0-0.1,0-0.2,0c-1,0-1.2,0.8-1.2,1.6v1.6h-0.6v-3.7h0.6v0.8c0.3-0.6,0.7-0.9,1.4-0.9V36.3z"
			/>
	</g>
	<g class="st2">
		<path class="st3" d="M237.3,39.5c-0.1,0.1-0.3,0.1-0.4,0.1c-0.3,0-0.5-0.2-0.5-0.6c-0.4,0.4-0.8,0.6-1.4,0.6
			c-0.7,0-1.2-0.4-1.2-1.1c0-0.7,0.4-1.1,1.3-1.2c0.9-0.1,1.2-0.1,1.2-0.6c0-0.4-0.3-0.6-0.8-0.6c-0.6,0-0.9,0.2-0.9,0.8h-0.6
			c0-0.8,0.6-1.3,1.6-1.3c0.5,0,0.9,0.1,1.2,0.4c0.3,0.3,0.3,0.6,0.3,1c0,0.6,0,1.1,0,1.7c0,0.3,0.1,0.4,0.3,0.4c0.1,0,0.1,0,0.2,0
			V39.5z M235.4,37.8c-0.4,0.1-1.1,0.1-1.1,0.7c0,0.4,0.3,0.6,0.7,0.6c0.6,0,1.1-0.4,1.1-0.9v-0.7C236,37.8,235.7,37.8,235.4,37.8z"
			/>
	</g>
	<g class="st2">
		<path class="st3" d="M239.1,40c-0.2,0.5-0.4,1-1.1,1c-0.2,0-0.3,0-0.5-0.1v-0.6c0.2,0.1,0.3,0.1,0.4,0.1c0.2,0,0.4-0.1,0.4-0.3
			l0.3-0.7l-1.5-3.7h0.7l1.1,3l1.1-3h0.6L239.1,40z"/>
		<path class="st3" d="M246.7,37.6c0,1.3-0.7,2-1.8,2c-1.1,0-1.8-0.7-1.8-2s0.7-2,1.8-2S246.7,36.4,246.7,37.6z M243.7,37.7
			c0,0.9,0.4,1.5,1.2,1.5c0.7,0,1.2-0.6,1.2-1.5c0-0.9-0.5-1.5-1.2-1.5S243.7,36.8,243.7,37.7z"/>
		<path class="st3" d="M249.1,34.9c-0.1,0-0.2,0-0.3,0c-0.4,0-0.5,0.1-0.5,0.5v0.4h0.7v0.5h-0.7v3.2h-0.6v-3.2H247v-0.5h0.6v-0.5
			c0-0.7,0.4-1,1-1c0.2,0,0.2,0,0.4,0V34.9z"/>
		<path class="st3" d="M254.7,35.9c-0.1-0.7-0.5-1.1-1.3-1.1c-0.7,0-1.2,0.3-1.2,0.9c0,0.6,0.6,0.7,1.4,0.9c0.8,0.2,1.9,0.4,1.9,1.5
			c0,1.1-1,1.6-2,1.6c-1.2,0-2.1-0.6-2.1-1.8h0.7c0,0.9,0.7,1.3,1.5,1.3c0.6,0,1.3-0.2,1.3-0.9c0-0.7-0.7-0.8-1.5-1
			c-0.8-0.2-1.8-0.3-1.8-1.4c0-1.1,0.9-1.5,1.9-1.5c1.1,0,1.8,0.5,1.9,1.6H254.7z"/>
		<path class="st3" d="M257.9,36.3h-0.7v2.2c0,0.3,0,0.6,0.4,0.6c0.1,0,0.2,0,0.3,0v0.5c-0.2,0-0.3,0-0.5,0c-0.9,0-0.9-0.5-0.9-1.3
			v-2h-0.6v-0.5h0.6v-1.1h0.6v1.1h0.7V36.3z"/>
	</g>
	<g class="st2">
		<path class="st3" d="M260.5,36.3c-0.1,0-0.1,0-0.2,0c-1,0-1.2,0.8-1.2,1.6v1.6h-0.6v-3.7h0.6v0.8c0.3-0.6,0.7-0.9,1.4-0.9V36.3z"
			/>
	</g>
	<g class="st2">
		<path class="st3" d="M261.7,35.1h-0.6v-0.8h0.6V35.1z M261.7,39.5h-0.6v-3.7h0.6V39.5z"/>
		<path class="st3" d="M263.3,36.4c0.3-0.5,0.7-0.7,1.3-0.7c0.9,0,1.2,0.5,1.2,1.4v2.5h-0.6v-2.2c0-0.6,0-1.1-0.8-1.1
			c-0.8,0-1.1,0.6-1.1,1.3v2h-0.6v-3.7h0.6V36.4z"/>
		<path class="st3" d="M270,39.1c0,0.6-0.1,0.9-0.2,1.2c-0.3,0.4-0.8,0.7-1.5,0.7c-0.8,0-1.5-0.3-1.6-1.1h0.6c0.1,0.4,0.4,0.6,1,0.6
			c0.8,0,1.1-0.4,1.1-1.2l0-0.5c-0.2,0.5-0.6,0.7-1.2,0.7c-1,0-1.6-0.7-1.6-1.9c0-1,0.6-2,1.7-2c0.5,0,0.9,0.2,1.2,0.6v-0.5h0.6
			V39.1z M267.2,37.7c0,0.8,0.4,1.4,1.1,1.4c0.7,0,1.1-0.6,1.1-1.5c0-0.8-0.4-1.4-1.1-1.4C267.6,36.2,267.2,36.8,267.2,37.7z"/>
	</g>
	<path class="st1" d="M181.1,0.7h94.5l0,0H181.1 M181.1,18.7h94.5v-18h-94.5V18.7"/>
	<g class="st2">
		<path class="st3" d="M214,8.2h-1.6v4.2h-1.1V8.2h-1.6v-1h4.2V8.2z"/>
	</g>
	<g class="st2">
		<path class="st3" d="M216.3,9.5c-0.2,0-0.3,0-0.4,0c-0.7,0-1,0.5-1,1.2v1.7h-1V8.6h1v0.7c0.2-0.5,0.7-0.8,1.2-0.8
			c0.1,0,0.1,0,0.2,0V9.5z"/>
		<path class="st3" d="M219.2,12.4c-0.1-0.1-0.1-0.2-0.1-0.4c-0.3,0.3-0.8,0.5-1.2,0.5c-0.8,0-1.3-0.4-1.3-1.1c0-1,0.9-1.1,1.6-1.2
			c0.7-0.1,0.9-0.1,0.9-0.4c0-0.3-0.2-0.5-0.7-0.5c-0.5,0-0.7,0.1-0.7,0.6h-1c0.1-0.8,0.7-1.3,1.7-1.3c0.8,0,1.6,0.2,1.6,1.2v1.6
			c0,0.3,0,0.7,0.1,1H219.2z M218.4,10.7c-0.4,0.1-0.8,0.1-0.8,0.6c0,0.3,0.2,0.5,0.6,0.5c0.5,0,0.9-0.3,0.9-0.8v-0.4
			C218.8,10.7,218.6,10.7,218.4,10.7z"/>
	</g>
	<g class="st2">
		<path class="st3" d="M222.7,12.4c-1.2,0-1.9-0.8-1.9-1.9c0-1.2,0.8-2,1.9-2c1,0,1.7,0.5,1.8,1.4h-1c-0.1-0.4-0.3-0.6-0.7-0.6
			c-0.6,0-0.9,0.4-0.9,1.2c0,0.7,0.3,1.2,0.9,1.2c0.4,0,0.7-0.3,0.8-0.8h1C224.3,11.9,223.7,12.4,222.7,12.4z"/>
	</g>
	<g class="st2">
		<path class="st3" d="M227.1,10l1.6,2.4h-1.2l-1-1.7l-0.4,0.4v1.3h-1V7.2h1V10l1.3-1.3h1.2L227.1,10z"/>
		<path class="st3" d="M231.2,7.2h2.1c1.6,0,2.5,0.9,2.5,2.6c0,1.7-0.9,2.6-2.5,2.6h-2.1V7.2z M233.1,11.4c1,0,1.5-0.6,1.5-1.6
			c0-1-0.5-1.6-1.5-1.6h-0.8v3.3H233.1z"/>
	</g>
	<g class="st2">
		<path class="st3" d="M240.4,8.2h-1.6v4.2h-1.1V8.2h-1.6v-1h4.2V8.2z"/>
	</g>
	<g class="st2">
		<path class="st3" d="M245.6,9.8c0,1.6-1,2.7-2.5,2.7c-1.5,0-2.6-1.1-2.6-2.7c0-1.6,1-2.7,2.6-2.7C244.5,7.1,245.6,8.2,245.6,9.8z
			 M241.6,9.8c0,1.1,0.5,1.8,1.4,1.8c0.9,0,1.4-0.7,1.4-1.8c0-1.1-0.5-1.8-1.4-1.8C242.2,8,241.6,8.7,241.6,9.8z"/>
	</g>
	<path class="st4" d="M172.6,26.1l8.5-2.8l-8.5-2.8 M181.1,23.3h-108"/>
	<g class="st2">
		<path class="st3" d="M83.8,38.1h-1v-5.8h-2v-0.7c1.2,0,2-0.3,2.3-1.5h0.8V38.1z"/>
	</g>
	<g class="st2">
		<path class="st3" d="M162.2,33.7c0-0.4-0.1-0.8-0.2-1.1c-0.2-0.5-0.3-0.9-0.3-1.1c0-0.3,0.1-0.5,0.2-0.7c0.1-0.1,0.3-0.2,0.5-0.2
			c0.2,0,0.3,0.1,0.4,0.2c0.1,0.2,0.2,0.4,0.2,0.6c0,0.2-0.1,0.6-0.2,1c-0.1,0.4-0.2,0.9-0.3,1.2c0.3-0.2,0.6-0.4,0.8-0.7
			c0.4-0.4,0.7-0.7,0.8-0.8c0.2-0.1,0.4-0.2,0.6-0.2c0.2,0,0.3,0.1,0.5,0.2c0.1,0.1,0.2,0.3,0.2,0.4c0,0.2-0.1,0.4-0.3,0.5
			s-0.6,0.3-1.4,0.5c-0.4,0.1-0.8,0.2-1.1,0.3c0.3,0.2,0.6,0.3,1.1,0.3c0.7,0.1,1.1,0.3,1.3,0.5c0.2,0.2,0.3,0.4,0.3,0.6
			c0,0.2-0.1,0.3-0.2,0.4c-0.1,0.1-0.3,0.2-0.4,0.2s-0.4-0.1-0.6-0.2c-0.2-0.1-0.5-0.4-0.8-0.8c-0.2-0.3-0.5-0.5-0.8-0.8
			c0,0.3,0.1,0.7,0.2,1c0.2,0.7,0.3,1.1,0.3,1.3c0,0.2-0.1,0.4-0.2,0.6s-0.3,0.2-0.4,0.2c-0.2,0-0.4-0.1-0.6-0.2
			c-0.1-0.1-0.2-0.3-0.2-0.6c0-0.3,0.1-0.6,0.2-1c0.1-0.4,0.2-0.6,0.2-0.8c0-0.1,0.1-0.4,0.1-0.6c-0.3,0.2-0.6,0.5-0.9,0.7
			c-0.4,0.5-0.7,0.7-0.9,0.9c-0.1,0.1-0.3,0.1-0.4,0.1c-0.2,0-0.3-0.1-0.5-0.2s-0.2-0.3-0.2-0.4c0-0.1,0.1-0.3,0.2-0.4
			c0.1-0.2,0.3-0.3,0.5-0.4c0.1-0.1,0.5-0.2,1-0.3c0.3-0.1,0.7-0.2,1-0.3c-0.3-0.1-0.7-0.3-1.1-0.3c-0.7-0.1-1.1-0.3-1.3-0.4
			c-0.2-0.2-0.4-0.4-0.4-0.7c0-0.1,0.1-0.3,0.2-0.4c0.1-0.1,0.3-0.2,0.4-0.2c0.2,0,0.4,0.1,0.6,0.2c0.2,0.1,0.5,0.4,0.8,0.7
			C161.6,33.2,161.9,33.5,162.2,33.7z"/>
	</g>
</g>
</svg>
