<?xml version="1.0" encoding="utf-8"?>
<!-- Generator: Adobe Illustrator 21.0.0, SVG Export Plug-In . SVG Version: 6.00 Build 0)  -->
<svg version="1.1" xmlns="http://www.w3.org/2000/svg" xmlns:xlink="http://www.w3.org/1999/xlink" x="0px" y="0px"
	 viewBox="0 0 210 210" style="enable-background:new 0 0 210 210;" xml:space="preserve">
<style type="text/css">
	.st0{fill:none;}
	.st1{clip-path:url(#SVGID_2_);fill:#1E1E1E;}
	.st2{clip-path:url(#SVGID_4_);fill:#1E1E1E;}
	.st3{clip-path:url(#SVGID_6_);fill:#1E1E1E;}
	.st4{clip-path:url(#SVGID_8_);fill:#1E1E1E;}
	.st5{fill:url(#SVGID_9_);}
</style>
<pattern  width="210" height="210" patternUnits="userSpaceOnUse" id="Nueva_muestra_de_motivo_5" viewBox="206.25 -408.75 210 210" style="overflow:visible;">
	<g>
		<rect x="206.25" y="-408.75" class="st0" width="210" height="210"/>
		<g>
			<defs>
				<rect id="SVGID_1_" x="210" y="-210" width="210" height="210"/>
			</defs>
			<clipPath id="SVGID_2_">
				<use xlink:href="#SVGID_1_"  style="overflow:visible;"/>
			</clipPath>
			<path class="st1" d="M219.58-187.525l-17.656-17.94l-9.481,11.061l17.609,17.042L219.58-187.525z M202.076-201.034l13.344,13.56
				l-5.472,5.837l-13.391-12.958L202.076-201.034z"/>
			<path class="st1" d="M407.082-209.758l-9.63-9.349l-6.969,6.984l-14.949-14.965l-10.152,9.518l7.05,7.553l-7.289,7.541
				l17.23,17.087L407.082-209.758z M376.568-209.982l-6.95-7.447l5.848-5.482l15.02,15.035l7-7.016l5.308,5.151l-20.415,20.132
				l-13.021-12.913L376.568-209.982z"/>
			<path class="st1" d="M347.121-225l-9.621-9.621L312.379-209.5l9.621,9.621L347.121-225z M337.5-230.379l5.379,5.379L322-204.121
				l-5.379-5.379L337.5-230.379z"/>
			<path class="st1" d="M339.612-172.491l-46.655-47.441l-9.529,10.482L330-162.879L339.612-172.491z M293.043-215.567
				l42.345,43.059L330-167.121l-42.428-42.428L293.043-215.567z"/>
			<path class="st1" d="M234.621-202.5L217-220.121l-9.621,9.621L225-192.879L234.621-202.5z M217-215.879l13.379,13.379
				L225-197.121L211.621-210.5L217-215.879z"/>
			<path class="st1" d="M429.58-187.525l-17.656-17.94l-9.481,11.061l17.609,17.042L429.58-187.525z M412.076-201.034l13.344,13.56
				l-5.472,5.837l-13.391-12.958L412.076-201.034z"/>
			<path class="st1" d="M279.621-202.5L270-212.121l-7.5,7.5l-15-15L237.879-210l24.621,24.621L279.621-202.5z M247.5-215.379l15,15
				l7.5-7.5l5.379,5.379L262.5-189.621L242.121-210L247.5-215.379z"/>
			<path class="st1" d="M369.665-187.526l-10.217-9.579l-7.198,7.446l-5.147-5.324L362.121-210l-9.618-9.618l-24.749,24.612
				l24.484,24.622L369.665-187.526z M352.497-215.382l5.382,5.382l-14.982,14.982l9.354,9.676l7.302-7.554l5.783,5.421
				l-13.073,12.858l-20.266-20.378L352.497-215.382z"/>
		</g>
		<g>
			<defs>
				<rect id="SVGID_3_" y="-210" width="210" height="210"/>
			</defs>
			<clipPath id="SVGID_4_">
				<use xlink:href="#SVGID_3_"  style="overflow:visible;"/>
			</clipPath>
			<path class="st2" d="M219.58-187.525l-17.656-17.94l-9.481,11.061l17.609,17.042L219.58-187.525z M202.076-201.034l13.344,13.56
				l-5.472,5.837l-13.391-12.958L202.076-201.034z"/>
			<path class="st2" d="M234.621-202.5L217-220.121l-9.621,9.621L225-192.879L234.621-202.5z M217-215.879l13.379,13.379
				L225-197.121L211.621-210.5L217-215.879z"/>
		</g>
		<g>
			<defs>
				<rect id="SVGID_5_" x="210" y="-420" width="210" height="210"/>
			</defs>
			<clipPath id="SVGID_6_">
				<use xlink:href="#SVGID_5_"  style="overflow:visible;"/>
			</clipPath>
			<path class="st3" d="M324.621-337.5L300-362.121l-9.621,9.621L315-327.879L324.621-337.5z M300-357.879l20.379,20.379
				L315-332.121L294.621-352.5L300-357.879z"/>
			<path class="st3" d="M384.621-352.5L375-362.121l-22.5,22.5L339.621-352.5l5.879-5.879l7.5,7.5l9.621-9.621L345.5-377.621
				l-15.5,15.5l-30-30L267.879-360l9.621,9.621l22.5-22.5l52.5,52.5L384.621-352.5z M277.5-354.621L272.121-360L300-387.879l30,30
				l15.5-15.5l12.879,12.879L353-355.121l-7.5-7.5L335.379-352.5l17.121,17.121l22.5-22.5l5.379,5.379L352.5-324.621l-52.5-52.5
				L277.5-354.621z"/>
			<path class="st3" d="M294.621-337.5L285-347.121l-7.5,7.5l-23-23L244.879-353l32.621,32.621L294.621-337.5z M254.5-358.379l23,23
				l7.5-7.5l5.379,5.379L277.5-324.621L249.121-353L254.5-358.379z"/>
			<path class="st3" d="M300-312.879l15,15l9.621-9.621L300-332.121L267.879-300l9.621,9.621L300-312.879z M300-327.879
				l20.379,20.379L315-302.121l-15-15l-22.5,22.5L272.121-300L300-327.879z"/>
			<path class="st3" d="M354.621-307.5L345-317.121l-30,30l-15-15l-9.621,9.621L315-267.879L354.621-307.5z M300-297.879l15,15
				l30-30l5.379,5.379L315-272.121L294.621-292.5L300-297.879z"/>
			<path class="st3" d="M302.121-270L285-287.121l-9.621,9.621l17.121,17.121L302.121-270z M285-282.879L297.879-270l-5.379,5.379
				L279.621-277.5L285-282.879z"/>
			<path class="st3" d="M399.621-292.5L367.5-324.621L357.879-315L390-282.879L399.621-292.5z M367.5-320.379l27.879,27.879
				L390-287.121L362.121-315L367.5-320.379z"/>
			<path class="st3" d="M399.621-262.5L360-302.121L335.379-277.5l9.621,9.621l15-15l5.379,5.379l-15,15l9.621,9.621l15-15l15,15
				L399.621-262.5z M360-257.121l-5.379-5.379l15-15L360-287.121l-15,15l-5.379-5.379L360-297.879l35.379,35.379L390-257.121l-15-15
				L360-257.121z"/>
			<path class="st3" d="M384.621-247.5L375-257.121l-15,15l-30-30l-9.621,9.621L360-222.879L384.621-247.5z M330-267.879l30,30
				l15-15l5.379,5.379L360-227.121L324.621-262.5L330-267.879z"/>
			<path class="st3" d="M279.621-262.5L270-272.121L245.379-247.5l9.621,9.621L279.621-262.5z M270-267.879l5.379,5.379L255-242.121
				l-5.379-5.379L270-267.879z"/>
			<path class="st3" d="M339.621-322.5L330-332.121l-9.621,9.621l9.621,9.621L339.621-322.5z M330-327.879l5.379,5.379L330-317.121
				l-5.379-5.379L330-327.879z"/>
			<path class="st3" d="M317.121-255l-9.621-9.621L297.879-255l9.621,9.621L317.121-255z M307.5-260.379l5.379,5.379l-5.379,5.379
				L302.121-255L307.5-260.379z"/>
			<path class="st3" d="M332.121-240l-9.621-9.621l-15,15l-22.5-22.5l-9.621,9.621l32.121,32.121L332.121-240z M285-252.879
				l22.5,22.5l15-15l5.379,5.379L307.5-219.621L279.621-247.5L285-252.879z"/>
			<path class="st3" d="M414.621-352.5L405-362.121L372.879-330l9.621,9.621L414.621-352.5z M405-357.879l5.379,5.379L382.5-324.621
				L377.121-330L405-357.879z"/>
			<path class="st3" d="M347.121-225l-9.621-9.621L312.379-209.5l9.621,9.621L347.121-225z M337.5-230.379l5.379,5.379L322-204.121
				l-5.379-5.379L337.5-230.379z"/>
			<path class="st3" d="M287.121-225L270-242.121L252.879-225l9.621,9.621l7.5-7.5l7.5,7.5L287.121-225z M262.5-219.621L257.121-225
				L270-237.879L282.879-225l-5.379,5.379l-7.5-7.5L262.5-219.621z"/>
			<path class="st3" d="M399.641-367.412l-25.157-23.858l-16.616,16.259l9.664,9.664l7.083-7.506l15.4,15.228L399.641-367.412z
				 M367.469-369.652l-5.336-5.336l12.384-12.117l20.843,19.768l-5.374,5.464l-15.445-15.273L367.469-369.652z"/>
			<path class="st3" d="M294.621-397.5L285-407.121l-9.621,9.621l9.621,9.621L294.621-397.5z M285-402.879l5.379,5.379L285-392.121
				l-5.379-5.379L285-402.879z"/>
			<path class="st3" d="M226.621-299.5L217-309.121L185.379-277.5l9.621,9.621L226.621-299.5z M217-304.879l5.379,5.379L195-272.121
				l-5.379-5.379L217-304.879z"/>
			<path class="st3" d="M204.621-352.5L195-362.121L162.879-330l9.621,9.621L204.621-352.5z M195-357.879l5.379,5.379L172.5-324.621
				L167.121-330L195-357.879z"/>
			<path class="st3" d="M212.104-314.983l-7.482-7.732l7.556-7.304l-9.702-9.055l-24.608,24.062L195-297.879L212.104-314.983z
				 M202.524-334.926l5.298,4.945l-7.444,7.196l7.518,7.768L195-302.121l-12.866-12.867L202.524-334.926z"/>
			<path class="st3" d="M234.621-382L225-391.621l-15,15l-22.5-22.5l-9.621,9.621L210-357.379L234.621-382z M187.5-394.879
				l22.5,22.5l15-15l5.379,5.379L210-361.621L182.121-389.5L187.5-394.879z"/>
			<path class="st3" d="M219.621-232.5l-9.639-9.639l-7.482,7.732l-5.396-5.576l12.904-12.905l14.982,14.732l9.648-9.327
				L210-272.121L170.379-232.5l9.621,9.621l7.5-7.5l15,15L219.621-232.5z M180-227.121l-5.379-5.379L210-267.879l20.36,20.361
				l-5.352,5.173l-15.018-14.768l-17.096,17.095l9.605,9.924l7.518-7.768l5.361,5.361L202.5-219.621l-15-15L180-227.121z"/>
			<path class="st3" d="M249.621-367.5L240-377.121L207.879-345l9.621,9.621L249.621-367.5z M240-372.879l5.379,5.379L217.5-339.621
				L212.121-345L240-372.879z"/>
			<path class="st3" d="M249.621-337.5L240-347.121L215.379-322.5l9.621,9.621L249.621-337.5z M240-342.879l5.379,5.379L225-317.121
				l-5.379-5.379L240-342.879z"/>
			<path class="st3" d="M255-312.879l7.5,7.5l9.621-9.621L255-332.121L230.379-307.5l9.621,9.621L255-312.879z M255-327.879
				L267.879-315l-5.379,5.379l-7.5-7.5l-15,15l-5.379-5.379L255-327.879z"/>
			<path class="st3" d="M249.121-263l-14.5-14.5l7.5-7.5l-9.621-9.621L215.379-277.5l24.121,24.121L249.121-263z M232.5-290.379
				l5.379,5.379l-7.5,7.5l14.5,14.5l-5.379,5.379L219.621-277.5L232.5-290.379z"/>
			<path class="st3" d="M272.121-285L255-302.121l-9.621,9.621l7.5,7.5l-7.5,7.5l9.621,9.621L272.121-285z M257.121-285l-7.5-7.5
				l5.379-5.379L267.879-285L255-272.121l-5.379-5.379L257.121-285z"/>
			<path class="st3" d="M249.621-232.5L240-242.121L223.379-225.5l9.621,9.621L249.621-232.5z M240-237.879l5.379,5.379L233-220.121
				l-5.379-5.379L240-237.879z"/>
			<path class="st3" d="M414.621-352.5L405-362.121L372.879-330l9.621,9.621L414.621-352.5z M405-357.879l5.379,5.379L382.5-324.621
				L377.121-330L405-357.879z"/>
			<path class="st3" d="M219.58-397.525l-17.656-17.94l-9.481,11.061l17.609,17.042L219.58-397.525z M202.076-411.034l13.344,13.56
				l-5.472,5.837l-13.391-12.958L202.076-411.034z"/>
			<path class="st3" d="M339.612-172.491l-46.655-47.441l-9.529,10.482L330-162.879L339.612-172.491z M293.043-215.567
				l42.345,43.059L330-167.121l-42.428-42.428L293.043-215.567z"/>
			<path class="st3" d="M407.082-209.758l-9.63-9.349l-6.969,6.984l-14.949-14.965l-10.152,9.518l7.05,7.553l-7.289,7.541
				l17.23,17.087L407.082-209.758z M376.568-209.982l-6.95-7.447l5.848-5.482l15.02,15.035l7-7.016l5.308,5.151l-20.415,20.132
				l-13.021-12.913L376.568-209.982z"/>
			<path class="st3" d="M407.082-419.758l-9.63-9.349l-6.969,6.984l-14.949-14.965l-10.152,9.518l7.05,7.553l-7.289,7.541
				l17.23,17.087L407.082-419.758z M376.568-419.982l-6.95-7.447l5.848-5.482l15.02,15.035l7-7.016l5.308,5.151l-20.415,20.132
				l-13.021-12.913L376.568-419.982z"/>
			<path class="st3" d="M279.621-202.5L270-212.121l-7.5,7.5l-15-15L237.879-210l24.621,24.621L279.621-202.5z M247.5-215.379l15,15
				l7.5-7.5l5.379,5.379L262.5-189.621L242.121-210L247.5-215.379z"/>
			<path class="st3" d="M369.665-187.526l-10.217-9.579l-7.198,7.446l-5.147-5.324L362.121-210l-9.618-9.618l-24.749,24.612
				l24.484,24.622L369.665-187.526z M352.497-215.382l5.382,5.382l-14.982,14.982l9.354,9.676l7.302-7.554l5.783,5.421
				l-13.073,12.858l-20.266-20.378L352.497-215.382z"/>
			<path class="st3" d="M347.121-435l-9.621-9.621L312.379-419.5l9.621,9.621L347.121-435z M337.5-440.379l5.379,5.379L322-414.121
				l-5.379-5.379L337.5-440.379z"/>
			<path class="st3" d="M339.612-382.491l-46.655-47.441l-9.529,10.482L330-372.879L339.612-382.491z M293.043-425.567
				l42.345,43.059L330-377.121l-42.428-42.428L293.043-425.567z"/>
			<path class="st3" d="M234.621-412.5L217-430.121l-9.621,9.621L225-402.879L234.621-412.5z M217-425.879l13.379,13.379
				L225-407.121L211.621-420.5L217-425.879z"/>
			<path class="st3" d="M234.621-202.5L217-220.121l-9.621,9.621L225-192.879L234.621-202.5z M217-215.879l13.379,13.379
				L225-197.121L211.621-210.5L217-215.879z"/>
			<path class="st3" d="M436.621-299.5L427-309.121L395.379-277.5l9.621,9.621L436.621-299.5z M427-304.879l5.379,5.379L405-272.121
				l-5.379-5.379L427-304.879z"/>
			<path class="st3" d="M414.621-352.5L405-362.121L372.879-330l9.621,9.621L414.621-352.5z M405-357.879l5.379,5.379L382.5-324.621
				L377.121-330L405-357.879z"/>
			<path class="st3" d="M422.104-314.983l-7.482-7.732l7.556-7.304l-9.702-9.055l-24.608,24.062L405-297.879L422.104-314.983z
				 M412.524-334.926l5.298,4.945l-7.444,7.196l7.518,7.768L405-302.121l-12.866-12.867L412.524-334.926z"/>
			<path class="st3" d="M444.621-382L435-391.621l-15,15l-22.5-22.5l-9.621,9.621L420-357.379L444.621-382z M397.5-394.879
				l22.5,22.5l15-15l5.379,5.379L420-361.621L392.121-389.5L397.5-394.879z"/>
			<path class="st3" d="M429.621-232.5l-9.639-9.639l-7.482,7.732l-5.396-5.576l12.904-12.905l14.982,14.732l9.648-9.327
				L420-272.121L380.379-232.5l9.621,9.621l7.5-7.5l15,15L429.621-232.5z M390-227.121l-5.379-5.379L420-267.879l20.36,20.361
				l-5.352,5.173l-15.018-14.768l-17.096,17.095l9.605,9.924l7.518-7.768l5.361,5.361L412.5-219.621l-15-15L390-227.121z"/>
			<path class="st3" d="M459.621-367.5L450-377.121L417.879-345l9.621,9.621L459.621-367.5z M450-372.879l5.379,5.379L427.5-339.621
				L422.121-345L450-372.879z"/>
			<path class="st3" d="M429.58-397.525l-17.656-17.94l-9.481,11.061l17.609,17.042L429.58-397.525z M412.076-411.034l13.344,13.56
				l-5.472,5.837l-13.391-12.958L412.076-411.034z"/>
			<path class="st3" d="M444.621-412.5L427-430.121l-9.621,9.621L435-402.879L444.621-412.5z M427-425.879l13.379,13.379
				L435-407.121L421.621-420.5L427-425.879z"/>
			<path class="st3" d="M444.621-202.5L427-220.121l-9.621,9.621L435-192.879L444.621-202.5z M427-215.879l13.379,13.379
				L435-197.121L421.621-210.5L427-215.879z"/>
			<path class="st3" d="M279.621-412.5L270-422.121l-7.5,7.5l-15-15L237.879-420l24.621,24.621L279.621-412.5z M247.5-425.379l15,15
				l7.5-7.5l5.379,5.379L262.5-399.621L242.121-420L247.5-425.379z"/>
			<path class="st3" d="M369.665-397.526l-10.217-9.579l-7.198,7.446l-5.147-5.324L362.121-420l-9.618-9.618l-24.749,24.612
				l24.484,24.622L369.665-397.526z M352.497-425.382l5.382,5.382l-14.982,14.982l9.354,9.676l7.302-7.554l5.783,5.421
				l-13.073,12.858l-20.266-20.378L352.497-425.382z"/>
			<path class="st3" d="M279.621-382.5L270-392.121l-7.5,7.5l-22.5-22.5l-9.621,9.621l32.121,32.121L279.621-382.5z M240-402.879
				l22.5,22.5l7.5-7.5l5.379,5.379L262.5-369.621L234.621-397.5L240-402.879z"/>
		</g>
		<g>
			<defs>
				<rect id="SVGID_7_" y="-420" width="210" height="210"/>
			</defs>
			<clipPath id="SVGID_8_">
				<use xlink:href="#SVGID_7_"  style="overflow:visible;"/>
			</clipPath>
			<path class="st4" d="M226.621-299.5L217-309.121L185.379-277.5l9.621,9.621L226.621-299.5z M217-304.879l5.379,5.379L195-272.121
				l-5.379-5.379L217-304.879z"/>
			<path class="st4" d="M212.104-314.983l-7.482-7.732l7.556-7.304l-9.702-9.055l-24.608,24.062L195-297.879L212.104-314.983z
				 M202.524-334.926l5.298,4.945l-7.444,7.196l7.518,7.768L195-302.121l-12.866-12.867L202.524-334.926z"/>
			<path class="st4" d="M234.621-382L225-391.621l-15,15l-22.5-22.5l-9.621,9.621L210-357.379L234.621-382z M187.5-394.879
				l22.5,22.5l15-15l5.379,5.379L210-361.621L182.121-389.5L187.5-394.879z"/>
			<path class="st4" d="M219.621-232.5l-9.639-9.639l-7.482,7.732l-5.396-5.576l12.904-12.905l14.982,14.732l9.648-9.327
				L210-272.121L170.379-232.5l9.621,9.621l7.5-7.5l15,15L219.621-232.5z M180-227.121l-5.379-5.379L210-267.879l20.36,20.361
				l-5.352,5.173l-15.018-14.768l-17.096,17.095l9.605,9.924l7.518-7.768l5.361,5.361L202.5-219.621l-15-15L180-227.121z"/>
			<path class="st4" d="M249.621-367.5L240-377.121L207.879-345l9.621,9.621L249.621-367.5z M240-372.879l5.379,5.379L217.5-339.621
				L212.121-345L240-372.879z"/>
			<path class="st4" d="M219.58-397.525l-17.656-17.94l-9.481,11.061l17.609,17.042L219.58-397.525z M202.076-411.034l13.344,13.56
				l-5.472,5.837l-13.391-12.958L202.076-411.034z"/>
			<path class="st4" d="M234.621-412.5L217-430.121l-9.621,9.621L225-402.879L234.621-412.5z M217-425.879l13.379,13.379
				L225-407.121L211.621-420.5L217-425.879z"/>
			<path class="st4" d="M234.621-202.5L217-220.121l-9.621,9.621L225-192.879L234.621-202.5z M217-215.879l13.379,13.379
				L225-197.121L211.621-210.5L217-215.879z"/>
		</g>
	</g>
</pattern>
<g id="PATTERN">
	<pattern  id="SVGID_9_" xlink:href="#Nueva_muestra_de_motivo_5" patternTransform="matrix(1 0 0 1 -85 -85)">
	</pattern>
	<rect class="st5" width="210" height="210"/>
</g>
<g id="OBJECTS">
</g>
<g id="DESIGNED_BY_FREEPIK">
	<g>
	</g>
	<g>
	</g>
	<g>
	</g>
	<g>
	</g>
	<g>
	</g>
	<g>
	</g>
	<g>
	</g>
	<g>
	</g>
	<g>
	</g>
	<g>
	</g>
	<g>
	</g>
	<g>
	</g>
	<g>
	</g>
	<g>
	</g>
	<g>
	</g>
</g>
</svg>
