<?xml version="1.0" encoding="utf-8"?>
<!-- Generator: Adobe Illustrator 21.0.0, SVG Export Plug-In . SVG Version: 6.00 Build 0)  -->
<svg version="1.1" id="Layer_1" xmlns="http://www.w3.org/2000/svg" xmlns:xlink="http://www.w3.org/1999/xlink" x="0px" y="0px"
	 viewBox="0 0 377 340" style="enable-background:new 0 0 377 340;" xml:space="preserve">
<style type="text/css">
	.st0{fill:#FFFFFF;}
	.st1{fill:none;stroke:#231F20;stroke-width:0.5;stroke-linejoin:round;}
	.st2{enable-background:new    ;}
	.st3{fill:#231F20;}
	.st4{fill:none;stroke:#231F20;stroke-width:0.5;stroke-linecap:round;stroke-linejoin:round;}
	.st5{fill:none;stroke:#231F20;stroke-width:0.5;stroke-linecap:round;stroke-linejoin:round;stroke-dasharray:4,2;}
</style>
<title>img4</title>
<g id="Layer_2">
	<g id="Layer_1-2">
		<rect class="st0" width="377" height="340"/>
		<polyline class="st1" points="139.5,54.3 139.5,31.8 0.4,31.8 0.4,54.3 139.5,54.3 		"/>
		<g class="st2">
			<path class="st3" d="M9.3,43.1H8.9l-0.2-0.6c-0.4,0.5-0.9,0.8-1.7,0.8c-1.5,0-2.5-1.1-2.5-2.7c0-1.5,0.9-2.7,2.5-2.7
				c1,0,2.1,0.6,2.2,1.7H8.6c-0.1-0.7-0.7-1.1-1.5-1.1c-1.1,0-1.8,0.8-1.8,2.1c0,1.3,0.7,2.1,1.8,2.1c1.1,0,1.6-0.7,1.6-1.7H7.1
				v-0.6h2.3V43.1z"/>
			<path class="st3" d="M11.8,43.2c-1.1,0-1.8-0.7-1.8-1.9c0-1.2,0.7-2,1.7-2c1.2,0,1.7,1,1.7,2.1v0.1h-2.8l0,0
				c0,0.8,0.4,1.3,1.2,1.3c0.5,0,0.8-0.2,1-0.8h0.6C13.3,42.7,12.7,43.2,11.8,43.2z M11.8,39.7c-0.6,0-1,0.4-1.1,1.1h2.2
				C12.8,40.1,12.4,39.7,11.8,39.7z"/>
			<path class="st3" d="M15.8,39.8H15V42c0,0.3,0,0.6,0.4,0.6c0.1,0,0.2,0,0.3,0v0.5c-0.2,0-0.3,0-0.5,0c-0.9,0-0.9-0.5-0.9-1.3v-2
				h-0.6v-0.5h0.6v-1.1H15v1.1h0.7V39.8z"/>
			<path class="st3" d="M20.7,43.1H20l-0.6-1.6h-2.2l-0.6,1.6h-0.7l2-5.2h0.8L20.7,43.1z M18.3,38.6l-0.9,2.4h1.8L18.3,38.6z"/>
			<path class="st3" d="M21.8,43.1h-0.6v-5.2h0.6V43.1z"/>
		</g>
		<g class="st2">
			<path class="st3" d="M23.4,39.8c0.3-0.4,0.7-0.6,1.2-0.6c1,0,1.7,0.8,1.7,2c0,1.2-0.7,2-1.7,2c-0.5,0-1-0.2-1.2-0.7v0.5h-0.6
				v-5.2h0.6V39.8z M23.3,41.2c0,0.9,0.4,1.4,1.2,1.4c0.7,0,1.1-0.6,1.1-1.5c0-0.9-0.4-1.4-1.1-1.4C23.6,39.7,23.3,40.5,23.3,41.2z"
				/>
		</g>
		<g class="st2">
			<path class="st3" d="M30,43.1h-0.6v-0.6c-0.3,0.5-0.7,0.7-1.3,0.7c-0.8,0-1.2-0.4-1.2-1.3v-2.6h0.6v2.4c0,0.5,0.2,0.9,0.8,0.9
				c0.8,0,1.1-0.6,1.1-1.3v-2H30V43.1z"/>
			<path class="st3" d="M31.5,39.9c0.3-0.4,0.7-0.6,1.2-0.6c0.5,0,0.8,0.2,1,0.6c0.3-0.4,0.7-0.7,1.2-0.7c0.8,0,1.2,0.5,1.2,1.2v2.6
				h-0.6v-2.4c0-0.5-0.1-0.9-0.7-0.9c-0.7,0-1,0.5-1,1.2v2.1h-0.6v-2.4c0-0.5-0.1-0.9-0.7-0.9c-0.8,0-1,0.6-1,1.3v2h-0.6v-3.7h0.6
				V39.9z"/>
			<path class="st3" d="M39.7,41.1c0,1.2,0.3,2.3,1,3.3h-0.5c-0.7-1.1-1.1-2-1.1-3.3c0-1.2,0.4-2.3,1.1-3.3h0.5
				C40,38.8,39.7,39.9,39.7,41.1z"/>
		</g>
		<g class="st2">
			<path class="st3" d="M42.7,40.7l1.6,2.4h-0.8l-1.3-2l-0.6,0.5v1.4H41v-5.2h0.6V41l1.7-1.6h0.8L42.7,40.7z"/>
		</g>
		<g class="st2">
			<path class="st3" d="M46.2,43.2c-1.1,0-1.8-0.7-1.8-1.9c0-1.2,0.7-2,1.7-2c1.2,0,1.7,1,1.7,2.1v0.1h-2.8l0,0
				c0,0.8,0.4,1.3,1.2,1.3c0.5,0,0.8-0.2,1-0.8h0.6C47.6,42.7,47.1,43.2,46.2,43.2z M46.2,39.7c-0.6,0-1,0.4-1.1,1.1h2.2
				C47.2,40.1,46.8,39.7,46.2,39.7z"/>
		</g>
		<g class="st2">
			<path class="st3" d="M49.9,43.5c-0.2,0.5-0.4,1-1.1,1c-0.2,0-0.3,0-0.5-0.1V44c0.2,0.1,0.3,0.1,0.4,0.1c0.2,0,0.4-0.1,0.4-0.3
				l0.3-0.7L48,39.3h0.7l1.1,3l1.1-3h0.6L49.9,43.5z"/>
		</g>
		<g class="st2">
			<path class="st3" d="M52.9,40.1h-0.8v-0.8h0.8V40.1z M52.9,43.1h-0.8v-0.8h0.8V43.1z"/>
		</g>
		<g class="st2">
			<path class="st3" d="M58.8,39.4c-0.1-0.7-0.5-1.1-1.3-1.1c-0.7,0-1.2,0.3-1.2,0.9c0,0.6,0.6,0.7,1.4,0.9c0.8,0.2,1.9,0.4,1.9,1.5
				c0,1.1-1,1.6-2,1.6c-1.2,0-2.1-0.6-2.1-1.8h0.7c0,0.9,0.7,1.3,1.5,1.3c0.6,0,1.3-0.2,1.3-0.9c0-0.7-0.7-0.8-1.5-1
				c-0.8-0.2-1.8-0.3-1.8-1.4c0-1.1,0.9-1.5,1.9-1.5c1.1,0,1.8,0.5,1.9,1.6H58.8z"/>
			<path class="st3" d="M62,39.8h-0.7V42c0,0.3,0,0.6,0.4,0.6c0.1,0,0.2,0,0.3,0v0.5c-0.2,0-0.3,0-0.5,0c-0.9,0-0.9-0.5-0.9-1.3v-2
				H60v-0.5h0.6v-1.1h0.6v1.1H62V39.8z"/>
		</g>
		<g class="st2">
			<path class="st3" d="M64.6,39.9c-0.1,0-0.1,0-0.2,0c-1,0-1.2,0.8-1.2,1.6v1.6h-0.6v-3.7h0.6v0.8c0.3-0.6,0.7-0.9,1.4-0.9V39.9z"
				/>
		</g>
		<g class="st2">
			<path class="st3" d="M65.8,38.7h-0.6v-0.8h0.6V38.7z M65.8,43.1h-0.6v-3.7h0.6V43.1z"/>
			<path class="st3" d="M67.4,39.9c0.3-0.5,0.7-0.7,1.3-0.7c0.9,0,1.2,0.5,1.2,1.4v2.5h-0.6v-2.2c0-0.6,0-1.1-0.8-1.1
				c-0.8,0-1.1,0.6-1.1,1.3v2h-0.6v-3.7h0.6V39.9z"/>
			<path class="st3" d="M74.1,42.7c0,0.6-0.1,0.9-0.2,1.2c-0.3,0.4-0.8,0.7-1.5,0.7c-0.8,0-1.5-0.3-1.6-1.1h0.6
				c0.1,0.4,0.4,0.6,1,0.6c0.8,0,1.1-0.4,1.1-1.2l0-0.5c-0.2,0.5-0.6,0.7-1.2,0.7c-1,0-1.6-0.7-1.6-1.9c0-1,0.6-2,1.7-2
				c0.5,0,0.9,0.2,1.2,0.6v-0.5h0.6V42.7z M71.3,41.2c0,0.8,0.4,1.4,1.1,1.4c0.7,0,1.1-0.6,1.1-1.5c0-0.8-0.4-1.4-1.1-1.4
				C71.7,39.8,71.3,40.3,71.3,41.2z"/>
			<path class="st3" d="M74.9,44.4h-0.5c0.6-1,1-2.1,1-3.3c0-1.2-0.3-2.4-1-3.3h0.5c0.8,1,1.1,2.2,1.1,3.3
				C76,42.4,75.6,43.3,74.9,44.4z"/>
		</g>
		<g class="st2">
			<path class="st3" d="M79.8,40.1H79v-0.8h0.8V40.1z M79.8,43.1H79v-0.8h0.8V43.1z"/>
		</g>
		<g class="st2">
			<path class="st3" d="M86.9,43.1h-0.8l-0.6-1.6h-2.2l-0.6,1.6H82l2-5.2h0.8L86.9,43.1z M84.4,38.6l-0.9,2.4h1.8L84.4,38.6z"/>
			<path class="st3" d="M87.9,43.1h-0.6v-5.2h0.6V43.1z"/>
		</g>
		<g class="st2">
			<path class="st3" d="M89.5,39.8c0.3-0.4,0.7-0.6,1.2-0.6c1,0,1.7,0.8,1.7,2c0,1.2-0.7,2-1.7,2c-0.5,0-1-0.2-1.2-0.7v0.5h-0.6
				v-5.2h0.6V39.8z M89.5,41.2c0,0.9,0.4,1.4,1.2,1.4c0.7,0,1.1-0.6,1.1-1.5c0-0.9-0.4-1.4-1.1-1.4C89.8,39.7,89.5,40.5,89.5,41.2z"
				/>
		</g>
		<g class="st2">
			<path class="st3" d="M96.1,43.1h-0.6v-0.6c-0.3,0.5-0.7,0.7-1.3,0.7c-0.8,0-1.2-0.4-1.2-1.3v-2.6h0.6v2.4c0,0.5,0.2,0.9,0.8,0.9
				c0.8,0,1.1-0.6,1.1-1.3v-2h0.6V43.1z"/>
			<path class="st3" d="M97.6,39.9c0.3-0.4,0.7-0.6,1.2-0.6c0.5,0,0.8,0.2,1,0.6c0.3-0.4,0.7-0.7,1.2-0.7c0.8,0,1.2,0.5,1.2,1.2v2.6
				h-0.6v-2.4c0-0.5-0.1-0.9-0.7-0.9c-0.7,0-1,0.5-1,1.2v2.1h-0.6v-2.4c0-0.5-0.1-0.9-0.7-0.9c-0.8,0-1,0.6-1,1.3v2h-0.6v-3.7h0.6
				V39.9z"/>
			<path class="st3" d="M105,37.9c1.7,0,2.6,0.8,2.6,2.5c0,1.7-0.7,2.6-2.4,2.6h-1.8v-5.2H105z M104,42.5h1c1.3,0,1.8-0.6,1.8-2
				c0-1.4-0.5-2-1.9-2h-1V42.5z"/>
		</g>
		<g class="st2">
			<path class="st3" d="M112,38.5h-1.7v4.6h-0.7v-4.6h-1.7v-0.6h4.1V38.5z"/>
		</g>
		<g class="st2">
			<path class="st3" d="M117,40.4c0,1.5-0.8,2.7-2.5,2.7c-1.7,0-2.5-1.3-2.5-2.8c0-1.6,1-2.6,2.5-2.6C116.1,37.8,117,38.9,117,40.4z
				 M112.7,40.5c0,1.3,0.7,2.1,1.8,2.1c1.1,0,1.8-0.8,1.8-2.1c0-1.3-0.7-2.1-1.8-2.1C113.3,38.4,112.7,39.4,112.7,40.5z"/>
		</g>
		<polyline class="st1" points="139.5,31.8 139.5,27.2 0.4,27.2 0.4,31.8 139.5,31.8 		"/>
		<rect x="0.4" y="0.3" class="st4" width="139.1" height="26.8"/>
		<g class="st2">
			<path class="st3" d="M47.1,8.8l-0.7,0.6l0.7,0.6v0.6L46,9.7V9.1l1.1-0.9V8.8z M48.5,8.8l-0.7,0.6l0.7,0.6v0.6l-1.1-0.9V9.1
				l1.1-0.9V8.8z"/>
		</g>
		<g class="st2">
			<path class="st3" d="M49.8,7.5l0.9,3.1l0.8-3.1H52l0.8,3.1l0.8-3.1h0.6l-1.2,3.7h-0.7l-0.8-3l-0.8,3h-0.7l-1.2-3.7H49.8z"/>
		</g>
		<g class="st2">
			<path class="st3" d="M56.4,11.4c-1.1,0-1.8-0.7-1.8-1.9c0-1.2,0.7-2,1.7-2c1.2,0,1.7,1,1.7,2.1v0.1h-2.8l0,0
				c0,0.8,0.4,1.3,1.2,1.3c0.5,0,0.8-0.2,1-0.8H58C57.9,11,57.3,11.4,56.4,11.4z M56.4,7.9c-0.6,0-1,0.4-1.1,1.1h2.2
				C57.4,8.4,57,7.9,56.4,7.9z"/>
			<path class="st3" d="M59.3,8.1c0.3-0.4,0.7-0.6,1.2-0.6c1,0,1.7,0.8,1.7,2c0,1.2-0.7,2-1.7,2c-0.5,0-1-0.2-1.2-0.7v0.5h-0.6V6.1
				h0.6V8.1z M59.3,9.4c0,0.9,0.4,1.4,1.2,1.4c0.7,0,1.1-0.6,1.1-1.5c0-0.9-0.4-1.4-1.1-1.4C59.6,8,59.3,8.7,59.3,9.4z"/>
			<path class="st3" d="M67.2,8.6c0-0.5-0.4-0.7-0.9-0.7c-0.5,0-0.8,0.2-0.8,0.5c0,0.4,0.5,0.5,1,0.6c0.6,0.1,1.4,0.3,1.4,1.1
				c0,0.7-0.6,1.2-1.6,1.2c-1,0-1.6-0.5-1.6-1.3h0.6c0,0.6,0.4,0.8,1,0.8c0.6,0,0.9-0.2,0.9-0.6c0-0.4-0.4-0.5-0.9-0.6
				c-0.6-0.2-1.5-0.2-1.5-1.1c0-0.7,0.6-1.1,1.4-1.1c0.8,0,1.5,0.4,1.5,1.2H67.2z"/>
			<path class="st3" d="M70.2,11.4c-1.1,0-1.8-0.7-1.8-1.9c0-1.2,0.7-2,1.7-2c1.2,0,1.7,1,1.7,2.1v0.1h-2.8l0,0
				c0,0.8,0.4,1.3,1.2,1.3c0.5,0,0.8-0.2,1-0.8h0.6C71.7,11,71.1,11.4,70.2,11.4z M70.2,7.9c-0.6,0-1,0.4-1.1,1.1h2.2
				C71.2,8.4,70.8,7.9,70.2,7.9z"/>
		</g>
		<g class="st2">
			<path class="st3" d="M74.5,8.1c-0.1,0-0.1,0-0.2,0c-1,0-1.2,0.8-1.2,1.6v1.6h-0.6V7.5h0.6v0.8c0.3-0.6,0.7-0.9,1.4-0.9V8.1z"/>
		</g>
		<g class="st2">
			<path class="st3" d="M75.5,7.5l1.1,3.1l1-3.1h0.6l-1.4,3.7h-0.7l-1.4-3.7H75.5z"/>
			<path class="st3" d="M79.5,6.9h-0.6V6.1h0.6V6.9z M79.5,11.3h-0.6V7.5h0.6V11.3z"/>
			<path class="st3" d="M82,11.4c-1.2,0-1.8-0.8-1.8-1.9c0-1.2,0.7-2,1.8-2c0.9,0,1.5,0.5,1.6,1.3H83C82.9,8.2,82.6,8,82,8
				c-0.7,0-1.2,0.6-1.2,1.5c0,0.9,0.4,1.5,1.1,1.5c0.6,0,0.9-0.3,1-1h0.6C83.5,10.8,82.9,11.4,82,11.4z"/>
			<path class="st3" d="M85.9,11.4c-1.1,0-1.8-0.7-1.8-1.9c0-1.2,0.7-2,1.7-2c1.2,0,1.7,1,1.7,2.1v0.1h-2.8l0,0
				c0,0.8,0.4,1.3,1.2,1.3c0.5,0,0.8-0.2,1-0.8h0.6C87.3,11,86.8,11.4,85.9,11.4z M85.9,7.9c-0.6,0-1,0.4-1.1,1.1h2.2
				C86.9,8.4,86.5,7.9,85.9,7.9z"/>
			<path class="st3" d="M89.3,9.1v0.6l-1.1,0.9V9.9l0.7-0.5l-0.7-0.6V8.2L89.3,9.1z M90.7,9.1v0.6l-1.1,0.9V9.9l0.7-0.6l-0.7-0.6
				V8.2L90.7,9.1z"/>
		</g>
		<g class="st2">
			<path class="st3" d="M48.9,20.8h-1.2l-0.4-1.2h-1.9l-0.4,1.2h-1.2l2-5.2h1.2L48.9,20.8z M46.3,16.9l-0.7,1.9H47L46.3,16.9z"/>
			<path class="st3" d="M50.2,20.8h-1v-5.2h1V20.8z"/>
		</g>
		<g class="st2">
			<path class="st3" d="M52.1,17.5c0.3-0.4,0.7-0.5,1.2-0.5c1,0,1.6,0.9,1.6,1.9c0,1.2-0.7,2-1.7,2c-0.5,0-0.9-0.2-1.2-0.6l0,0.5h-1
				v-5.2h1V17.5z M52,18.9c0,0.7,0.3,1.2,0.9,1.2c0.5,0,0.9-0.5,0.9-1.2c0-0.7-0.3-1.1-0.9-1.1C52.4,17.8,52,18.2,52,18.9z"/>
		</g>
		<g class="st2">
			<path class="st3" d="M58.8,20.8h-1v-0.5c-0.3,0.4-0.7,0.6-1.2,0.6c-0.8,0-1.3-0.4-1.3-1.3v-2.5h1v2.1c0,0.5,0,0.8,0.6,0.8
				c0.6,0,0.8-0.5,0.8-1.1v-1.9h1V20.8z"/>
			<path class="st3" d="M64.3,20.8v-2.2c0-0.4-0.1-0.8-0.6-0.8c-0.5,0-0.7,0.4-0.7,0.9v2.1h-1v-2.3c0-0.4-0.1-0.7-0.6-0.7
				c-0.6,0-0.7,0.5-0.7,1v2h-1v-3.7h1v0.5c0.3-0.4,0.7-0.6,1.2-0.6c0.5,0,0.9,0.2,1.1,0.6c0.3-0.4,0.7-0.6,1.2-0.6
				c0.8,0,1.3,0.5,1.3,1.3v2.5H64.3z"/>
			<path class="st3" d="M71.1,17.2c0-0.5-0.4-0.8-1-0.8c-0.5,0-0.8,0.2-0.8,0.6c0,0.4,0.6,0.5,1.6,0.8c0.9,0.3,1.5,0.6,1.5,1.5
				c0,1.2-1.1,1.7-2.1,1.7c-1.4,0-2.2-0.7-2.2-1.8h1.1c0,0.7,0.5,1,1.2,1c0.6,0,1-0.3,1-0.7c0-0.4-0.3-0.5-1.4-0.8
				c-0.8-0.2-1.6-0.4-1.6-1.5c0-0.9,0.8-1.5,2-1.5c1.1,0,2,0.5,2,1.6H71.1z"/>
			<path class="st3" d="M74.7,20.9c-1.2,0-1.9-0.8-1.9-2c0-1.2,0.8-2,1.9-2c1.1,0,1.8,0.8,1.8,2.1v0.1h-2.7c0,0.6,0.3,1,0.9,1
				c0.4,0,0.6-0.2,0.8-0.5h1C76.2,20.5,75.5,20.9,74.7,20.9z M74.6,17.7c-0.5,0-0.8,0.3-0.8,0.8h1.6C75.4,18.1,75.2,17.7,74.6,17.7z
				"/>
		</g>
		<g class="st2">
			<path class="st3" d="M79.5,18c-0.2,0-0.3,0-0.4,0c-0.7,0-1,0.5-1,1.2v1.7h-1v-3.7h1v0.7c0.2-0.5,0.7-0.8,1.2-0.8
				c0.1,0,0.1,0,0.2,0V18z"/>
		</g>
		<g class="st2">
			<path class="st3" d="M83.3,17.1l-1.3,3.7h-1.2l-1.3-3.7h1.1l0.8,2.6l0.8-2.6H83.3z"/>
			<path class="st3" d="M84.8,16.5h-1v-0.9h1V16.5z M84.8,20.8h-1v-3.7h1V20.8z"/>
			<path class="st3" d="M87.4,20.9c-1.2,0-1.9-0.8-1.9-1.9c0-1.2,0.8-2,1.9-2c1,0,1.7,0.5,1.8,1.4h-1c-0.1-0.4-0.3-0.6-0.7-0.6
				c-0.6,0-0.9,0.4-0.9,1.2c0,0.7,0.3,1.2,0.9,1.2c0.4,0,0.7-0.3,0.8-0.8h1C89,20.3,88.4,20.9,87.4,20.9z"/>
			<path class="st3" d="M91.5,20.9c-1.2,0-1.9-0.8-1.9-2c0-1.2,0.8-2,1.9-2c1.1,0,1.8,0.8,1.8,2.1v0.1h-2.7c0,0.6,0.3,1,0.9,1
				c0.4,0,0.6-0.2,0.8-0.5h1C93.1,20.5,92.4,20.9,91.5,20.9z M91.5,17.7c-0.5,0-0.8,0.3-0.8,0.8h1.6C92.3,18.1,92,17.7,91.5,17.7z"
				/>
		</g>
		<polyline class="st4" points="123.9,249.2 123.9,222 16.3,222 16.3,249.2 123.9,249.2 		"/>
		<g class="st2">
			<path class="st3" d="M24.9,233.3h-0.8l-0.6-1.6h-2.2l-0.6,1.6h-0.7l2-5.2h0.8L24.9,233.3z M22.5,228.8l-0.9,2.4h1.8L22.5,228.8z"
				/>
			<path class="st3" d="M27.3,230.1c-0.1,0-0.1,0-0.2,0c-1,0-1.2,0.8-1.2,1.6v1.6h-0.6v-3.7h0.6v0.8c0.3-0.6,0.7-0.9,1.4-0.9V230.1z
				"/>
			<path class="st3" d="M29.4,230.1h-0.7v2.2c0,0.3,0,0.6,0.4,0.6c0.1,0,0.2,0,0.3,0v0.5c-0.2,0-0.3,0-0.5,0c-0.9,0-0.9-0.5-0.9-1.3
				v-2h-0.6v-0.5H28v-1.1h0.6v1.1h0.7V230.1z"/>
			<path class="st3" d="M30.7,228.9h-0.6v-0.8h0.6V228.9z M30.7,233.3h-0.6v-3.7h0.6V233.3z"/>
			<path class="st3" d="M33.8,230.6c0-0.5-0.4-0.7-0.9-0.7c-0.5,0-0.8,0.2-0.8,0.5c0,0.4,0.5,0.5,1,0.6c0.6,0.1,1.4,0.3,1.4,1.1
				c0,0.7-0.6,1.2-1.6,1.2c-1,0-1.6-0.5-1.6-1.3H32c0,0.6,0.4,0.8,1,0.8c0.6,0,0.9-0.2,0.9-0.6c0-0.4-0.4-0.5-0.9-0.6
				c-0.6-0.2-1.5-0.2-1.5-1.1c0-0.7,0.6-1.1,1.4-1.1c0.8,0,1.5,0.4,1.5,1.2H33.8z"/>
			<path class="st3" d="M36.9,230.1h-0.7v2.2c0,0.3,0,0.6,0.4,0.6c0.1,0,0.2,0,0.3,0v0.5c-0.2,0-0.3,0-0.5,0c-0.9,0-0.9-0.5-0.9-1.3
				v-2h-0.6v-0.5h0.6v-1.1h0.6v1.1h0.7V230.1z"/>
			<path class="st3" d="M38.5,230.4h-0.8v-0.8h0.8V230.4z M38.5,233.3h-0.8v-0.8h0.8V233.3z"/>
			<path class="st3" d="M44.7,229.6c-0.1-0.7-0.5-1.1-1.3-1.1c-0.7,0-1.2,0.3-1.2,0.9c0,0.6,0.6,0.7,1.4,0.9
				c0.8,0.2,1.9,0.4,1.9,1.5c0,1.1-1,1.6-2,1.6c-1.2,0-2.1-0.6-2.1-1.8h0.7c0,0.9,0.7,1.3,1.5,1.3c0.6,0,1.3-0.2,1.3-0.9
				c0-0.7-0.7-0.8-1.5-1c-0.8-0.2-1.8-0.3-1.8-1.4c0-1.1,0.9-1.5,1.9-1.5c1.1,0,1.8,0.5,1.9,1.6H44.7z"/>
			<path class="st3" d="M47.9,230.1h-0.7v2.2c0,0.3,0,0.6,0.4,0.6c0.1,0,0.2,0,0.3,0v0.5c-0.2,0-0.3,0-0.5,0c-0.9,0-0.9-0.5-0.9-1.3
				v-2h-0.6v-0.5h0.6v-1.1h0.6v1.1h0.7V230.1z"/>
			<path class="st3" d="M50.5,230.1c-0.1,0-0.1,0-0.2,0c-1,0-1.2,0.8-1.2,1.6v1.6h-0.6v-3.7h0.6v0.8c0.3-0.6,0.7-0.9,1.4-0.9V230.1z
				"/>
			<path class="st3" d="M51.6,228.9H51v-0.8h0.6V228.9z M51.6,233.3H51v-3.7h0.6V233.3z"/>
			<path class="st3" d="M53.2,230.1c0.3-0.5,0.7-0.7,1.3-0.7c0.9,0,1.2,0.5,1.2,1.4v2.5h-0.6v-2.2c0-0.6,0-1.1-0.8-1.1
				c-0.8,0-1.1,0.6-1.1,1.3v2h-0.6v-3.7h0.6V230.1z"/>
			<path class="st3" d="M59.9,232.9c0,0.6-0.1,0.9-0.2,1.2c-0.3,0.4-0.8,0.7-1.5,0.7c-0.8,0-1.5-0.3-1.6-1.1h0.6
				c0.1,0.4,0.4,0.6,1,0.6c0.8,0,1.1-0.4,1.1-1.2l0-0.5c-0.2,0.5-0.6,0.7-1.2,0.7c-1,0-1.6-0.7-1.6-1.9c0-1,0.6-2,1.7-2
				c0.5,0,0.9,0.2,1.2,0.6v-0.5h0.6V232.9z M57.1,231.4c0,0.8,0.4,1.4,1.1,1.4c0.7,0,1.1-0.6,1.1-1.5c0-0.8-0.4-1.4-1.1-1.4
				C57.5,230,57.1,230.5,57.1,231.4z"/>
		</g>
		<g class="st2">
			<path class="st3" d="M24.3,238.3h-1.7v4.6h-0.7v-4.6h-1.7v-0.6h4.1V238.3z"/>
			<path class="st3" d="M25.5,238.4h-0.6v-0.8h0.6V238.4z M25.5,242.8h-0.6v-3.7h0.6V242.8z"/>
			<path class="st3" d="M28,239.6h-0.7v2.2c0,0.3,0,0.6,0.4,0.6c0.1,0,0.2,0,0.3,0v0.5c-0.2,0-0.3,0-0.5,0c-0.9,0-0.9-0.5-0.9-1.3
				v-2H26v-0.5h0.6V238h0.6v1.1H28V239.6z"/>
			<path class="st3" d="M29.4,242.8h-0.6v-5.2h0.6V242.8z"/>
			<path class="st3" d="M31.9,242.9c-1.1,0-1.8-0.7-1.8-1.9c0-1.2,0.7-2,1.7-2c1.2,0,1.7,1,1.7,2.1v0.1h-2.8l0,0
				c0,0.8,0.4,1.3,1.2,1.3c0.5,0,0.8-0.2,1-0.8h0.6C33.3,242.5,32.8,242.9,31.9,242.9z M31.8,239.5c-0.6,0-1,0.4-1.1,1.1h2.2
				C32.9,239.9,32.5,239.5,31.8,239.5z"/>
			<path class="st3" d="M35.1,239.9h-0.8v-0.8h0.8V239.9z M35.1,242.8h-0.8V242h0.8V242.8z"/>
			<path class="st3" d="M41.3,239.2c-0.1-0.7-0.5-1.1-1.3-1.1c-0.7,0-1.2,0.3-1.2,0.9c0,0.6,0.6,0.7,1.4,0.9
				c0.8,0.2,1.9,0.4,1.9,1.5c0,1.1-1,1.6-2,1.6c-1.2,0-2.1-0.6-2.1-1.8h0.7c0,0.9,0.7,1.3,1.5,1.3c0.6,0,1.3-0.2,1.3-0.9
				c0-0.7-0.7-0.8-1.5-1c-0.8-0.2-1.8-0.3-1.8-1.4c0-1.1,0.9-1.5,1.9-1.5c1.1,0,1.8,0.5,1.9,1.6H41.3z"/>
			<path class="st3" d="M44.5,239.6h-0.7v2.2c0,0.3,0,0.6,0.4,0.6c0.1,0,0.2,0,0.3,0v0.5c-0.2,0-0.3,0-0.5,0c-0.9,0-0.9-0.5-0.9-1.3
				v-2h-0.6v-0.5h0.6V238h0.6v1.1h0.7V239.6z"/>
			<path class="st3" d="M47.2,239.6c-0.1,0-0.1,0-0.2,0c-1,0-1.2,0.8-1.2,1.6v1.6h-0.6v-3.7h0.6v0.8c0.3-0.6,0.7-0.9,1.4-0.9V239.6z
				"/>
			<path class="st3" d="M48.3,238.4h-0.6v-0.8h0.6V238.4z M48.3,242.8h-0.6v-3.7h0.6V242.8z"/>
			<path class="st3" d="M49.8,239.7c0.3-0.5,0.7-0.7,1.3-0.7c0.9,0,1.2,0.5,1.2,1.4v2.5h-0.6v-2.2c0-0.6,0-1.1-0.8-1.1
				c-0.8,0-1.1,0.6-1.1,1.3v2h-0.6v-3.7h0.6V239.7z"/>
			<path class="st3" d="M56.5,242.4c0,0.6-0.1,0.9-0.2,1.2c-0.3,0.4-0.8,0.7-1.5,0.7c-0.8,0-1.5-0.3-1.6-1.1h0.6
				c0.1,0.4,0.4,0.6,1,0.6c0.8,0,1.1-0.4,1.1-1.2l0-0.5c-0.2,0.5-0.6,0.7-1.2,0.7c-1,0-1.6-0.7-1.6-1.9c0-1,0.6-2,1.7-2
				c0.5,0,0.9,0.2,1.2,0.6v-0.5h0.6V242.4z M53.7,241c0,0.8,0.4,1.4,1.1,1.4c0.7,0,1.1-0.6,1.1-1.5c0-0.8-0.4-1.4-1.1-1.4
				C54.1,239.5,53.7,240.1,53.7,241z"/>
		</g>
		<rect x="16.3" y="204" class="st4" width="107.7" height="18"/>
		<g class="st2">
			<path class="st3" d="M54.2,215.3H53l-0.4-1.2h-1.9l-0.4,1.2h-1.2l2-5.2h1.2L54.2,215.3z M51.6,211.4l-0.7,1.9h1.4L51.6,211.4z"/>
			<path class="st3" d="M55.5,215.3h-1v-5.2h1V215.3z"/>
			<path class="st3" d="M57.4,212c0.3-0.4,0.7-0.5,1.2-0.5c1,0,1.6,0.9,1.6,1.9c0,1.2-0.7,2-1.7,2c-0.5,0-0.9-0.2-1.2-0.6l0,0.5h-1
				v-5.2h1V212z M57.3,213.4c0,0.7,0.3,1.2,0.9,1.2c0.5,0,0.9-0.5,0.9-1.2c0-0.7-0.3-1.1-0.9-1.1C57.7,212.3,57.3,212.7,57.3,213.4z
				"/>
			<path class="st3" d="M64.3,215.3h-1v-0.5c-0.3,0.4-0.7,0.6-1.2,0.6c-0.8,0-1.3-0.4-1.3-1.3v-2.5h1v2.1c0,0.5,0,0.8,0.6,0.8
				c0.6,0,0.8-0.5,0.8-1.1v-1.9h1V215.3z"/>
			<path class="st3" d="M69.8,215.3v-2.2c0-0.4-0.1-0.8-0.6-0.8c-0.5,0-0.7,0.4-0.7,0.9v2.1h-1V213c0-0.4-0.1-0.7-0.6-0.7
				c-0.6,0-0.7,0.5-0.7,1v2h-1v-3.7h1v0.5c0.3-0.4,0.7-0.6,1.2-0.6c0.5,0,0.9,0.2,1.1,0.6c0.3-0.4,0.7-0.6,1.2-0.6
				c0.8,0,1.3,0.5,1.3,1.3v2.5H69.8z"/>
			<path class="st3" d="M73.8,210.1h2.1c1.6,0,2.5,0.9,2.5,2.6c0,1.7-0.9,2.6-2.5,2.6h-2.1V210.1z M75.7,214.3c1,0,1.5-0.6,1.5-1.6
				c0-1-0.5-1.6-1.5-1.6h-0.8v3.3H75.7z"/>
			<path class="st3" d="M83,211.1h-1.6v4.2h-1.1v-4.2h-1.6v-1H83V211.1z"/>
			<path class="st3" d="M88.4,212.7c0,1.6-1,2.7-2.5,2.7c-1.5,0-2.6-1.1-2.6-2.7c0-1.6,1-2.7,2.6-2.7
				C87.4,210,88.4,211.1,88.4,212.7z M84.5,212.7c0,1.1,0.5,1.8,1.4,1.8c0.9,0,1.4-0.7,1.4-1.8c0-1.1-0.5-1.8-1.4-1.8
				C85,210.9,84.5,211.6,84.5,212.7z"/>
		</g>
		<polyline class="st4" points="123.9,338.8 123.9,312 16.3,312 16.3,338.8 123.9,338.8 		"/>
		<g class="st2">
			<path class="st3" d="M24.3,318.4h-1.7v4.6h-0.7v-4.6h-1.7v-0.6h4.1V318.4z"/>
			<path class="st3" d="M25.5,318.5h-0.6v-0.8h0.6V318.5z M25.5,322.9h-0.6v-3.7h0.6V322.9z"/>
			<path class="st3" d="M28,319.7h-0.7v2.2c0,0.3,0,0.6,0.4,0.6c0.1,0,0.2,0,0.3,0v0.5c-0.2,0-0.3,0-0.5,0c-0.9,0-0.9-0.5-0.9-1.3
				v-2H26v-0.5h0.6v-1.1h0.6v1.1H28V319.7z"/>
			<path class="st3" d="M29.4,322.9h-0.6v-5.2h0.6V322.9z"/>
			<path class="st3" d="M31.9,323.1c-1.1,0-1.8-0.7-1.8-1.9c0-1.2,0.7-2,1.7-2c1.2,0,1.7,1,1.7,2.1v0.1h-2.8l0,0
				c0,0.8,0.4,1.3,1.2,1.3c0.5,0,0.8-0.2,1-0.8h0.6C33.3,322.6,32.8,323.1,31.9,323.1z M31.8,319.6c-0.6,0-1,0.4-1.1,1.1h2.2
				C32.9,320,32.5,319.6,31.8,319.6z"/>
			<path class="st3" d="M35.1,320h-0.8v-0.8h0.8V320z M35.1,322.9h-0.8v-0.8h0.8V322.9z"/>
			<path class="st3" d="M41.3,319.3c-0.1-0.7-0.5-1.1-1.3-1.1c-0.7,0-1.2,0.3-1.2,0.9c0,0.6,0.6,0.7,1.4,0.9
				c0.8,0.2,1.9,0.4,1.9,1.5c0,1.1-1,1.6-2,1.6c-1.2,0-2.1-0.6-2.1-1.8h0.7c0,0.9,0.7,1.3,1.5,1.3c0.6,0,1.3-0.2,1.3-0.9
				c0-0.7-0.7-0.8-1.5-1c-0.8-0.2-1.8-0.3-1.8-1.4c0-1.1,0.9-1.5,1.9-1.5c1.1,0,1.8,0.5,1.9,1.6H41.3z"/>
			<path class="st3" d="M44.5,319.7h-0.7v2.2c0,0.3,0,0.6,0.4,0.6c0.1,0,0.2,0,0.3,0v0.5c-0.2,0-0.3,0-0.5,0c-0.9,0-0.9-0.5-0.9-1.3
				v-2h-0.6v-0.5h0.6v-1.1h0.6v1.1h0.7V319.7z"/>
			<path class="st3" d="M47.2,319.8c-0.1,0-0.1,0-0.2,0c-1,0-1.2,0.8-1.2,1.6v1.6h-0.6v-3.7h0.6v0.8c0.3-0.6,0.7-0.9,1.4-0.9V319.8z
				"/>
			<path class="st3" d="M48.3,318.5h-0.6v-0.8h0.6V318.5z M48.3,322.9h-0.6v-3.7h0.6V322.9z"/>
			<path class="st3" d="M49.8,319.8c0.3-0.5,0.7-0.7,1.3-0.7c0.9,0,1.2,0.5,1.2,1.4v2.5h-0.6v-2.2c0-0.6,0-1.1-0.8-1.1
				c-0.8,0-1.1,0.6-1.1,1.3v2h-0.6v-3.7h0.6V319.8z"/>
			<path class="st3" d="M56.5,322.5c0,0.6-0.1,0.9-0.2,1.2c-0.3,0.4-0.8,0.7-1.5,0.7c-0.8,0-1.5-0.3-1.6-1.1h0.6
				c0.1,0.4,0.4,0.6,1,0.6c0.8,0,1.1-0.4,1.1-1.2l0-0.5c-0.2,0.5-0.6,0.7-1.2,0.7c-1,0-1.6-0.7-1.6-1.9c0-1,0.6-2,1.7-2
				c0.5,0,0.9,0.2,1.2,0.6v-0.5h0.6V322.5z M53.7,321.1c0,0.8,0.4,1.4,1.1,1.4c0.7,0,1.1-0.6,1.1-1.5c0-0.8-0.4-1.4-1.1-1.4
				C54.1,319.6,53.7,320.2,53.7,321.1z"/>
		</g>
		<g class="st2">
			<path class="st3" d="M22.9,327.3c1,0,1.7,0.4,1.7,1.5c0,1.2-0.8,1.6-1.8,1.6h-1.4v2.1h-0.7v-5.2H22.9z M21.5,329.8h1.3
				c0.7,0,1.2-0.2,1.2-0.9c0-0.8-0.6-0.9-1.3-0.9h-1.2V329.8z"/>
			<path class="st3" d="M26.9,332.6c-1.1,0-1.8-0.7-1.8-1.9c0-1.2,0.7-2,1.7-2c1.2,0,1.7,1,1.7,2.1v0.1h-2.8l0,0
				c0,0.8,0.4,1.3,1.2,1.3c0.5,0,0.8-0.2,1-0.8h0.6C28.3,332.2,27.8,332.6,26.9,332.6z M26.9,329.1c-0.6,0-1,0.4-1.1,1.1h2.2
				C27.9,329.6,27.5,329.1,26.9,329.1z"/>
			<path class="st3" d="M31.2,329.3c-0.1,0-0.1,0-0.2,0c-1,0-1.2,0.8-1.2,1.6v1.6h-0.6v-3.7h0.6v0.8c0.3-0.6,0.7-0.9,1.4-0.9V329.3z
				"/>
			<path class="st3" d="M33.3,327.8c-0.1,0-0.2,0-0.3,0c-0.4,0-0.5,0.1-0.5,0.5v0.4h0.7v0.5h-0.7v3.2h-0.6v-3.2h-0.6v-0.5h0.6v-0.5
				c0-0.7,0.4-1,1-1c0.2,0,0.2,0,0.4,0V327.8z"/>
			<path class="st3" d="M37.2,330.6c0,1.3-0.7,2-1.8,2c-1.1,0-1.8-0.7-1.8-2s0.7-2,1.8-2C36.6,328.6,37.2,329.3,37.2,330.6z
				 M34.2,330.6c0,0.9,0.4,1.5,1.2,1.5c0.7,0,1.2-0.6,1.2-1.5c0-0.9-0.4-1.5-1.2-1.5S34.2,329.7,34.2,330.6z"/>
			<path class="st3" d="M39.9,329.3c-0.1,0-0.1,0-0.2,0c-1,0-1.2,0.8-1.2,1.6v1.6h-0.6v-3.7h0.6v0.8c0.3-0.6,0.7-0.9,1.4-0.9V329.3z
				"/>
			<path class="st3" d="M41,329.3c0.3-0.4,0.7-0.6,1.2-0.6c0.5,0,0.8,0.2,1,0.6c0.3-0.4,0.7-0.7,1.2-0.7c0.8,0,1.2,0.5,1.2,1.2v2.6
				H45v-2.4c0-0.5-0.1-0.9-0.7-0.9c-0.7,0-1,0.5-1,1.2v2.1h-0.6v-2.4c0-0.5-0.1-0.9-0.7-0.9c-0.8,0-1,0.6-1,1.3v2h-0.6v-3.7H41
				V329.3z"/>
			<path class="st3" d="M48.1,332.6c-1.1,0-1.8-0.7-1.8-1.9c0-1.2,0.7-2,1.7-2c1.2,0,1.7,1,1.7,2.1v0.1H47l0,0
				c0,0.8,0.4,1.3,1.2,1.3c0.5,0,0.8-0.2,1-0.8h0.6C49.6,332.2,49,332.6,48.1,332.6z M48.1,329.1c-0.6,0-1,0.4-1.1,1.1h2.2
				C49.1,329.6,48.7,329.1,48.1,329.1z"/>
			<path class="st3" d="M52.4,329.3c-0.1,0-0.1,0-0.2,0c-1,0-1.2,0.8-1.2,1.6v1.6h-0.6v-3.7H51v0.8c0.3-0.6,0.7-0.9,1.4-0.9V329.3z"
				/>
			<path class="st3" d="M55,329.8c0-0.5-0.4-0.7-0.9-0.7c-0.5,0-0.8,0.2-0.8,0.5c0,0.4,0.5,0.5,1,0.6c0.6,0.1,1.4,0.3,1.4,1.1
				c0,0.7-0.6,1.2-1.6,1.2c-1,0-1.6-0.5-1.6-1.3h0.6c0,0.6,0.4,0.8,1,0.8c0.6,0,0.9-0.2,0.9-0.6c0-0.4-0.4-0.5-0.9-0.6
				c-0.6-0.2-1.5-0.2-1.5-1.1c0-0.7,0.6-1.1,1.4-1.1c0.8,0,1.5,0.4,1.5,1.2H55z"/>
			<path class="st3" d="M57.4,329.5h-0.8v-0.8h0.8V329.5z M57.4,332.5h-0.8v-0.8h0.8V332.5z"/>
			<path class="st3" d="M64.8,332.5H64l-0.6-1.6h-2.2l-0.6,1.6H60l2-5.2h0.8L64.8,332.5z M62.4,328l-0.9,2.4h1.8L62.4,328z"/>
			<path class="st3" d="M67.2,329.3c-0.1,0-0.1,0-0.2,0c-1,0-1.2,0.8-1.2,1.6v1.6h-0.6v-3.7h0.6v0.8c0.3-0.6,0.7-0.9,1.4-0.9V329.3z
				"/>
			<path class="st3" d="M69.6,329.3c-0.1,0-0.1,0-0.2,0c-1,0-1.2,0.8-1.2,1.6v1.6h-0.6v-3.7h0.6v0.8c0.3-0.6,0.7-0.9,1.4-0.9V329.3z
				"/>
			<path class="st3" d="M73.4,332.5c-0.1,0.1-0.3,0.1-0.4,0.1c-0.3,0-0.5-0.2-0.5-0.6c-0.4,0.4-0.8,0.6-1.4,0.6
				c-0.7,0-1.2-0.4-1.2-1.1c0-0.7,0.4-1.1,1.3-1.2c0.9-0.1,1.2-0.1,1.2-0.6c0-0.4-0.3-0.6-0.8-0.6c-0.6,0-0.9,0.2-0.9,0.8H70
				c0-0.8,0.6-1.3,1.6-1.3c0.5,0,0.9,0.1,1.2,0.4c0.3,0.3,0.3,0.6,0.3,1c0,0.6,0,1.1,0,1.7c0,0.3,0.1,0.4,0.3,0.4c0.1,0,0.1,0,0.2,0
				V332.5z M71.5,330.8c-0.4,0.1-1.1,0.1-1.1,0.7c0,0.4,0.3,0.6,0.7,0.6c0.6,0,1.1-0.4,1.1-0.9v-0.7
				C72.1,330.7,71.8,330.7,71.5,330.8z"/>
			<path class="st3" d="M75.4,332.9c-0.2,0.5-0.4,1-1.1,1c-0.2,0-0.3,0-0.5-0.1v-0.6c0.2,0.1,0.3,0.1,0.4,0.1c0.2,0,0.4-0.1,0.4-0.3
				l0.3-0.7l-1.5-3.7h0.7l1.1,3l1.1-3H77L75.4,332.9z"/>
			<path class="st3" d="M83,330.6c0,1.3-0.7,2-1.8,2c-1.1,0-1.8-0.7-1.8-2s0.7-2,1.8-2C82.3,328.6,83,329.3,83,330.6z M80,330.6
				c0,0.9,0.4,1.5,1.2,1.5c0.7,0,1.2-0.6,1.2-1.5c0-0.9-0.4-1.5-1.2-1.5S80,329.7,80,330.6z"/>
			<path class="st3" d="M85.4,327.8c-0.1,0-0.2,0-0.3,0c-0.4,0-0.5,0.1-0.5,0.5v0.4h0.7v0.5h-0.7v3.2H84v-3.2h-0.6v-0.5H84v-0.5
				c0-0.7,0.4-1,1-1c0.2,0,0.2,0,0.4,0V327.8z"/>
			<path class="st3" d="M91,328.8c-0.1-0.7-0.5-1.1-1.3-1.1c-0.7,0-1.2,0.3-1.2,0.9c0,0.6,0.6,0.7,1.4,0.9c0.8,0.2,1.9,0.4,1.9,1.5
				c0,1.1-1,1.6-2,1.6c-1.2,0-2.1-0.6-2.1-1.8h0.7c0,0.9,0.7,1.3,1.5,1.3c0.6,0,1.3-0.2,1.3-0.9c0-0.7-0.7-0.8-1.5-1
				c-0.8-0.2-1.8-0.3-1.8-1.4c0-1.1,0.9-1.5,1.9-1.5c1.1,0,1.8,0.5,1.9,1.6H91z"/>
			<path class="st3" d="M94.2,329.2h-0.7v2.2c0,0.3,0,0.6,0.4,0.6c0.1,0,0.2,0,0.3,0v0.5c-0.2,0-0.3,0-0.5,0c-0.9,0-0.9-0.5-0.9-1.3
				v-2h-0.6v-0.5h0.6v-1.1h0.6v1.1h0.7V329.2z"/>
			<path class="st3" d="M96.8,329.3c-0.1,0-0.1,0-0.2,0c-1,0-1.2,0.8-1.2,1.6v1.6h-0.6v-3.7h0.6v0.8c0.3-0.6,0.7-0.9,1.4-0.9V329.3z
				"/>
			<path class="st3" d="M97.9,328.1h-0.6v-0.8h0.6V328.1z M97.9,332.5h-0.6v-3.7h0.6V332.5z"/>
			<path class="st3" d="M99.5,329.3c0.3-0.5,0.7-0.7,1.3-0.7c0.9,0,1.2,0.5,1.2,1.4v2.5h-0.6v-2.2c0-0.6,0-1.1-0.8-1.1
				c-0.8,0-1.1,0.6-1.1,1.3v2h-0.6v-3.7h0.6V329.3z"/>
			<path class="st3" d="M106.2,332.1c0,0.6-0.1,0.9-0.2,1.2c-0.3,0.4-0.8,0.7-1.5,0.7c-0.8,0-1.5-0.3-1.6-1.1h0.6
				c0.1,0.4,0.4,0.6,1,0.6c0.8,0,1.1-0.4,1.1-1.2l0-0.5c-0.2,0.5-0.6,0.7-1.2,0.7c-1,0-1.6-0.7-1.6-1.9c0-1,0.6-2,1.7-2
				c0.5,0,0.9,0.2,1.2,0.6v-0.5h0.6V332.1z M103.4,330.6c0,0.8,0.4,1.4,1.1,1.4c0.7,0,1.1-0.6,1.1-1.5c0-0.8-0.4-1.4-1.1-1.4
				C103.8,329.2,103.4,329.7,103.4,330.6z"/>
		</g>
		<rect x="16.3" y="294" class="st4" width="107.7" height="18"/>
		<g class="st2">
			<path class="st3" d="M54.5,301.1H53v4.2h-1.1v-4.2h-1.6v-1h4.2V301.1z"/>
			<path class="st3" d="M56.8,302.4c-0.2,0-0.3,0-0.4,0c-0.7,0-1,0.5-1,1.2v1.7h-1v-3.7h1v0.7c0.2-0.5,0.7-0.8,1.2-0.8
				c0.1,0,0.1,0,0.2,0V302.4z"/>
			<path class="st3" d="M59.6,305.3c-0.1-0.1-0.1-0.2-0.1-0.4c-0.3,0.3-0.8,0.5-1.2,0.5c-0.8,0-1.3-0.4-1.3-1.1c0-1,0.9-1.1,1.6-1.2
				c0.7-0.1,0.9-0.1,0.9-0.4c0-0.3-0.2-0.5-0.7-0.5c-0.5,0-0.7,0.1-0.7,0.6h-1c0.1-0.8,0.7-1.3,1.7-1.3c0.8,0,1.6,0.2,1.6,1.2v1.6
				c0,0.3,0,0.7,0.1,1H59.6z M58.8,303.7c-0.4,0.1-0.8,0.1-0.8,0.6c0,0.3,0.2,0.5,0.6,0.5c0.5,0,0.9-0.3,0.9-0.8v-0.4
				C59.3,303.6,59,303.6,58.8,303.7z"/>
			<path class="st3" d="M63.1,305.4c-1.2,0-1.9-0.8-1.9-1.9c0-1.2,0.8-2,1.9-2c1,0,1.7,0.5,1.8,1.4h-1c-0.1-0.4-0.3-0.6-0.7-0.6
				c-0.6,0-0.9,0.4-0.9,1.2c0,0.7,0.3,1.2,0.9,1.2c0.4,0,0.7-0.3,0.8-0.8h1C64.8,304.8,64.1,305.4,63.1,305.4z"/>
			<path class="st3" d="M67.7,302.9l1.6,2.4H68l-1-1.7l-0.4,0.4v1.3h-1v-5.2h1v2.8l1.3-1.3h1.2L67.7,302.9z"/>
			<path class="st3" d="M71.8,300.1h2.1c1.6,0,2.5,0.9,2.5,2.6c0,1.7-0.9,2.6-2.5,2.6h-2.1V300.1z M73.7,304.3c1,0,1.5-0.6,1.5-1.6
				c0-1-0.5-1.6-1.5-1.6h-0.8v3.3H73.7z"/>
			<path class="st3" d="M81,301.1h-1.6v4.2h-1.1v-4.2h-1.6v-1H81V301.1z"/>
			<path class="st3" d="M86.4,302.7c0,1.6-1,2.7-2.5,2.7c-1.5,0-2.6-1.1-2.6-2.7c0-1.6,1-2.7,2.6-2.7
				C85.4,300,86.4,301.1,86.4,302.7z M82.5,302.7c0,1.1,0.5,1.8,1.4,1.8c0.9,0,1.4-0.7,1.4-1.8c0-1.1-0.5-1.8-1.4-1.8
				C83,300.9,82.5,301.6,82.5,302.7z"/>
		</g>
		<line class="st4" x1="70.3" y1="261.5" x2="70.3" y2="294"/>
		<polyline class="st3" points="70.3,249.7 73.1,255.7 70.3,262 67.1,255.7 70.3,249.7 		"/>
		<polyline class="st4" points="70.3,249.7 73.1,255.7 70.3,262 67.1,255.7 70.3,249.7 		"/>
		<polyline class="st4" points="67.5,285.9 70.3,294 72.8,285.9 		"/>
		<g class="st2">
			<path class="st3" d="M60.6,281.8c0-0.4-0.1-0.8-0.2-1.1c-0.2-0.5-0.3-0.9-0.3-1.1c0-0.3,0.1-0.5,0.2-0.7c0.1-0.1,0.3-0.2,0.5-0.2
				c0.2,0,0.3,0.1,0.4,0.2c0.1,0.2,0.2,0.4,0.2,0.6c0,0.2-0.1,0.6-0.2,1c-0.1,0.4-0.2,0.9-0.3,1.2c0.3-0.2,0.6-0.4,0.8-0.7
				c0.4-0.4,0.7-0.7,0.8-0.8c0.2-0.1,0.4-0.2,0.6-0.2c0.2,0,0.3,0.1,0.5,0.2c0.1,0.1,0.2,0.3,0.2,0.4c0,0.2-0.1,0.4-0.3,0.5
				s-0.6,0.3-1.4,0.5c-0.4,0.1-0.8,0.2-1.1,0.3c0.3,0.2,0.6,0.3,1.1,0.3c0.7,0.1,1.1,0.3,1.3,0.5c0.2,0.2,0.3,0.4,0.3,0.6
				c0,0.2-0.1,0.3-0.2,0.4c-0.1,0.1-0.3,0.2-0.4,0.2s-0.4-0.1-0.6-0.2c-0.2-0.1-0.5-0.4-0.8-0.8c-0.2-0.3-0.5-0.5-0.8-0.8
				c0,0.3,0.1,0.7,0.2,1c0.2,0.7,0.3,1.1,0.3,1.3c0,0.2-0.1,0.4-0.2,0.6s-0.3,0.2-0.4,0.2c-0.2,0-0.4-0.1-0.6-0.2
				c-0.1-0.1-0.2-0.3-0.2-0.6c0-0.3,0.1-0.6,0.2-1c0.1-0.4,0.2-0.6,0.2-0.8c0-0.1,0.1-0.4,0.1-0.6c-0.3,0.2-0.6,0.5-0.9,0.7
				c-0.4,0.5-0.7,0.7-0.9,0.9c-0.1,0.1-0.3,0.1-0.4,0.1c-0.2,0-0.3-0.1-0.5-0.2s-0.2-0.3-0.2-0.4c0-0.1,0.1-0.3,0.2-0.4
				c0.1-0.2,0.3-0.3,0.5-0.4c0.1-0.1,0.5-0.2,1-0.3c0.3-0.1,0.7-0.2,1-0.3c-0.3-0.1-0.7-0.3-1.1-0.3c-0.7-0.1-1.1-0.3-1.3-0.4
				c-0.2-0.2-0.4-0.4-0.4-0.7c0-0.1,0.1-0.3,0.2-0.4c0.1-0.1,0.3-0.2,0.4-0.2c0.2,0,0.4,0.1,0.6,0.2c0.2,0.1,0.5,0.4,0.8,0.7
				S60.3,281.6,60.6,281.8z"/>
		</g>
		<polyline class="st4" points="274.9,222 274.9,186 274.9,222 		"/>
		<polyline class="st4" points="274.9,222 274.9,204 202.9,204 202.9,222 274.9,222 		"/>
		<g class="st2">
			<path class="st3" d="M211,210.7h-1.7v4.6h-0.7v-4.6h-1.7v-0.6h4.1V210.7z"/>
			<path class="st3" d="M212.1,210.9h-0.6v-0.8h0.6V210.9z M212.1,215.3h-0.6v-3.7h0.6V215.3z"/>
			<path class="st3" d="M214.7,212.1h-0.7v2.2c0,0.3,0,0.6,0.4,0.6c0.1,0,0.2,0,0.3,0v0.5c-0.2,0-0.3,0-0.5,0
				c-0.9,0-0.9-0.5-0.9-1.3v-2h-0.6v-0.5h0.6v-1.1h0.6v1.1h0.7V212.1z"/>
			<path class="st3" d="M216,215.3h-0.6v-5.2h0.6V215.3z"/>
			<path class="st3" d="M218.5,215.4c-1.1,0-1.8-0.7-1.8-1.9c0-1.2,0.7-2,1.7-2c1.2,0,1.7,1,1.7,2.1v0.1h-2.8l0,0
				c0,0.8,0.4,1.3,1.2,1.3c0.5,0,0.8-0.2,1-0.8h0.6C220,215,219.4,215.4,218.5,215.4z M218.5,211.9c-0.6,0-1,0.4-1.1,1.1h2.2
				C219.5,212.4,219.1,211.9,218.5,211.9z"/>
			<path class="st3" d="M221.8,212.4H221v-0.8h0.8V212.4z M221.8,215.3H221v-0.8h0.8V215.3z"/>
			<path class="st3" d="M228,211.6c-0.1-0.7-0.5-1.1-1.3-1.1c-0.7,0-1.2,0.3-1.2,0.9c0,0.6,0.6,0.7,1.4,0.9c0.8,0.2,1.9,0.4,1.9,1.5
				c0,1.1-1,1.6-2,1.6c-1.2,0-2.1-0.6-2.1-1.8h0.7c0,0.9,0.7,1.3,1.5,1.3c0.6,0,1.3-0.2,1.3-0.9c0-0.7-0.7-0.8-1.5-1
				c-0.8-0.2-1.8-0.3-1.8-1.4c0-1.1,0.9-1.5,1.9-1.5c1.1,0,1.8,0.5,1.9,1.6H228z"/>
			<path class="st3" d="M231.2,212.1h-0.7v2.2c0,0.3,0,0.6,0.4,0.6c0.1,0,0.2,0,0.3,0v0.5c-0.2,0-0.3,0-0.5,0
				c-0.9,0-0.9-0.5-0.9-1.3v-2h-0.6v-0.5h0.6v-1.1h0.6v1.1h0.7V212.1z"/>
			<path class="st3" d="M233.8,212.1c-0.1,0-0.1,0-0.2,0c-1,0-1.2,0.8-1.2,1.6v1.6h-0.6v-3.7h0.6v0.8c0.3-0.6,0.7-0.9,1.4-0.9V212.1
				z"/>
			<path class="st3" d="M234.9,210.9h-0.6v-0.8h0.6V210.9z M234.9,215.3h-0.6v-3.7h0.6V215.3z"/>
			<path class="st3" d="M236.5,212.1c0.3-0.5,0.7-0.7,1.3-0.7c0.9,0,1.2,0.5,1.2,1.4v2.5h-0.6v-2.2c0-0.6,0-1.1-0.8-1.1
				c-0.8,0-1.1,0.6-1.1,1.3v2h-0.6v-3.7h0.6V212.1z"/>
			<path class="st3" d="M243.1,214.9c0,0.6-0.1,0.9-0.2,1.2c-0.3,0.4-0.8,0.7-1.5,0.7c-0.8,0-1.5-0.3-1.6-1.1h0.6
				c0.1,0.4,0.4,0.6,1,0.6c0.8,0,1.1-0.4,1.1-1.2l0-0.5c-0.2,0.5-0.6,0.7-1.2,0.7c-1,0-1.6-0.7-1.6-1.9c0-1,0.6-2,1.7-2
				c0.5,0,0.9,0.2,1.2,0.6v-0.5h0.6V214.9z M240.4,213.4c0,0.8,0.4,1.4,1.1,1.4c0.7,0,1.1-0.6,1.1-1.5c0-0.8-0.4-1.4-1.1-1.4
				C240.8,212,240.4,212.5,240.4,213.4z"/>
		</g>
		<rect x="202.9" y="186" class="st4" width="72" height="18"/>
		<g class="st2">
			<path class="st3" d="M232.3,197.3h-1.2l-0.4-1.2h-1.9l-0.4,1.2h-1.2l2-5.2h1.2L232.3,197.3z M229.8,193.4l-0.7,1.9h1.4
				L229.8,193.4z"/>
			<path class="st3" d="M233.7,197.3h-1v-5.2h1V197.3z"/>
			<path class="st3" d="M235.5,194c0.3-0.4,0.7-0.5,1.2-0.5c1,0,1.6,0.9,1.6,1.9c0,1.2-0.7,2-1.7,2c-0.5,0-0.9-0.2-1.2-0.6l0,0.5h-1
				v-5.2h1V194z M235.5,195.4c0,0.7,0.3,1.2,0.9,1.2c0.5,0,0.9-0.5,0.9-1.2c0-0.7-0.3-1.1-0.9-1.1
				C235.8,194.3,235.5,194.7,235.5,195.4z"/>
			<path class="st3" d="M242.5,197.3h-1v-0.5c-0.3,0.4-0.7,0.6-1.2,0.6c-0.8,0-1.3-0.4-1.3-1.3v-2.5h1v2.1c0,0.5,0,0.8,0.6,0.8
				c0.6,0,0.8-0.5,0.8-1.1v-1.9h1V197.3z"/>
			<path class="st3" d="M248,197.3v-2.2c0-0.4-0.1-0.8-0.6-0.8c-0.5,0-0.7,0.4-0.7,0.9v2.1h-1V195c0-0.4-0.1-0.7-0.6-0.7
				c-0.6,0-0.7,0.5-0.7,1v2h-1v-3.7h1v0.5c0.3-0.4,0.7-0.6,1.2-0.6c0.5,0,0.9,0.2,1.1,0.6c0.3-0.4,0.7-0.6,1.2-0.6
				c0.8,0,1.3,0.5,1.3,1.3v2.5H248z"/>
		</g>
		<polyline class="st4" points="274.9,312 274.9,276 274.9,312 		"/>
		<polyline class="st4" points="274.9,312 274.9,294 202.9,294 202.9,312 274.9,312 		"/>
		<g class="st2">
			<path class="st3" d="M211,300.7h-1.7v4.6h-0.7v-4.6h-1.7v-0.6h4.1V300.7z"/>
			<path class="st3" d="M212.1,300.9h-0.6v-0.8h0.6V300.9z M212.1,305.3h-0.6v-3.7h0.6V305.3z"/>
			<path class="st3" d="M214.7,302.1h-0.7v2.2c0,0.3,0,0.6,0.4,0.6c0.1,0,0.2,0,0.3,0v0.5c-0.2,0-0.3,0-0.5,0
				c-0.9,0-0.9-0.5-0.9-1.3v-2h-0.6v-0.5h0.6v-1.1h0.6v1.1h0.7V302.1z"/>
			<path class="st3" d="M216,305.3h-0.6v-5.2h0.6V305.3z"/>
			<path class="st3" d="M218.5,305.4c-1.1,0-1.8-0.7-1.8-1.9c0-1.2,0.7-2,1.7-2c1.2,0,1.7,1,1.7,2.1v0.1h-2.8l0,0
				c0,0.8,0.4,1.3,1.2,1.3c0.5,0,0.8-0.2,1-0.8h0.6C220,305,219.4,305.4,218.5,305.4z M218.5,301.9c-0.6,0-1,0.4-1.1,1.1h2.2
				C219.5,302.4,219.1,301.9,218.5,301.9z"/>
			<path class="st3" d="M221.8,302.4H221v-0.8h0.8V302.4z M221.8,305.3H221v-0.8h0.8V305.3z"/>
			<path class="st3" d="M228,301.6c-0.1-0.7-0.5-1.1-1.3-1.1c-0.7,0-1.2,0.3-1.2,0.9c0,0.6,0.6,0.7,1.4,0.9c0.8,0.2,1.9,0.4,1.9,1.5
				c0,1.1-1,1.6-2,1.6c-1.2,0-2.1-0.6-2.1-1.8h0.7c0,0.9,0.7,1.3,1.5,1.3c0.6,0,1.3-0.2,1.3-0.9c0-0.7-0.7-0.8-1.5-1
				c-0.8-0.2-1.8-0.3-1.8-1.4c0-1.1,0.9-1.5,1.9-1.5c1.1,0,1.8,0.5,1.9,1.6H228z"/>
			<path class="st3" d="M231.2,302.1h-0.7v2.2c0,0.3,0,0.6,0.4,0.6c0.1,0,0.2,0,0.3,0v0.5c-0.2,0-0.3,0-0.5,0
				c-0.9,0-0.9-0.5-0.9-1.3v-2h-0.6v-0.5h0.6v-1.1h0.6v1.1h0.7V302.1z"/>
			<path class="st3" d="M233.8,302.1c-0.1,0-0.1,0-0.2,0c-1,0-1.2,0.8-1.2,1.6v1.6h-0.6v-3.7h0.6v0.8c0.3-0.6,0.7-0.9,1.4-0.9V302.1
				z"/>
			<path class="st3" d="M234.9,300.9h-0.6v-0.8h0.6V300.9z M234.9,305.3h-0.6v-3.7h0.6V305.3z"/>
			<path class="st3" d="M236.5,302.1c0.3-0.5,0.7-0.7,1.3-0.7c0.9,0,1.2,0.5,1.2,1.4v2.5h-0.6v-2.2c0-0.6,0-1.1-0.8-1.1
				c-0.8,0-1.1,0.6-1.1,1.3v2h-0.6v-3.7h0.6V302.1z"/>
			<path class="st3" d="M243.1,304.9c0,0.6-0.1,0.9-0.2,1.2c-0.3,0.4-0.8,0.7-1.5,0.7c-0.8,0-1.5-0.3-1.6-1.1h0.6
				c0.1,0.4,0.4,0.6,1,0.6c0.8,0,1.1-0.4,1.1-1.2l0-0.5c-0.2,0.5-0.6,0.7-1.2,0.7c-1,0-1.6-0.7-1.6-1.9c0-1,0.6-2,1.7-2
				c0.5,0,0.9,0.2,1.2,0.6v-0.5h0.6V304.9z M240.4,303.4c0,0.8,0.4,1.4,1.1,1.4c0.7,0,1.1-0.6,1.1-1.5c0-0.8-0.4-1.4-1.1-1.4
				C240.8,302,240.4,302.5,240.4,303.4z"/>
		</g>
		<rect x="202.9" y="276" class="st4" width="72" height="18"/>
		<g class="st2">
			<path class="st3" d="M232.7,283.1h-1.6v4.2H230v-4.2h-1.6v-1h4.2V283.1z"/>
			<path class="st3" d="M234.9,284.4c-0.2,0-0.3,0-0.4,0c-0.7,0-1,0.5-1,1.2v1.7h-1v-3.7h1v0.7c0.2-0.5,0.7-0.8,1.2-0.8
				c0.1,0,0.1,0,0.2,0V284.4z"/>
			<path class="st3" d="M237.8,287.3c-0.1-0.1-0.1-0.2-0.1-0.4c-0.3,0.3-0.8,0.5-1.2,0.5c-0.8,0-1.3-0.4-1.3-1.1
				c0-1,0.9-1.1,1.6-1.2c0.7-0.1,0.9-0.1,0.9-0.4c0-0.3-0.2-0.5-0.7-0.5c-0.5,0-0.7,0.1-0.7,0.6h-1c0.1-0.8,0.7-1.3,1.7-1.3
				c0.8,0,1.6,0.2,1.6,1.2v1.6c0,0.3,0,0.7,0.1,1H237.8z M237,285.7c-0.4,0.1-0.8,0.1-0.8,0.6c0,0.3,0.2,0.5,0.6,0.5
				c0.5,0,0.9-0.3,0.9-0.8v-0.4C237.4,285.6,237.2,285.6,237,285.7z"/>
			<path class="st3" d="M241.3,287.4c-1.2,0-1.9-0.8-1.9-1.9c0-1.2,0.8-2,1.9-2c1,0,1.7,0.5,1.8,1.4h-1c-0.1-0.4-0.3-0.6-0.7-0.6
				c-0.6,0-0.9,0.4-0.9,1.2c0,0.7,0.3,1.2,0.9,1.2c0.4,0,0.7-0.3,0.8-0.8h1C242.9,286.8,242.3,287.4,241.3,287.4z"/>
			<path class="st3" d="M245.9,284.9l1.6,2.4h-1.2l-1-1.7l-0.4,0.4v1.3h-1v-5.2h1v2.8l1.3-1.3h1.2L245.9,284.9z"/>
		</g>
		<polyline class="st4" points="376.6,222 376.6,186 376.6,222 		"/>
		<polyline class="st4" points="376.6,222 376.6,204 304.6,204 304.6,222 376.6,222 		"/>
		<g class="st2">
			<path class="st3" d="M309.8,210.1l2.7,4.2v-4.2h0.7v5.2h-0.8l-2.7-4.1v4.1H309v-5.2H309.8z"/>
			<path class="st3" d="M317.5,215.3c-0.1,0.1-0.3,0.1-0.4,0.1c-0.3,0-0.5-0.2-0.5-0.6c-0.4,0.4-0.8,0.6-1.4,0.6
				c-0.7,0-1.2-0.4-1.2-1.1c0-0.7,0.4-1.1,1.3-1.2c0.9-0.1,1.2-0.1,1.2-0.6c0-0.4-0.3-0.6-0.8-0.6c-0.6,0-0.9,0.2-0.9,0.8h-0.6
				c0-0.8,0.6-1.3,1.6-1.3c0.5,0,0.9,0.1,1.2,0.4c0.3,0.3,0.3,0.6,0.3,1c0,0.6,0,1.1,0,1.7c0,0.3,0.1,0.4,0.3,0.4c0.1,0,0.1,0,0.2,0
				V215.3z M315.7,213.6c-0.4,0.1-1.1,0.1-1.1,0.7c0,0.4,0.3,0.6,0.7,0.6c0.6,0,1.1-0.4,1.1-0.9v-0.7
				C316.3,213.5,315.9,213.5,315.7,213.6z"/>
			<path class="st3" d="M318.6,212.1c0.3-0.4,0.7-0.6,1.2-0.6c0.5,0,0.8,0.2,1,0.6c0.3-0.4,0.7-0.7,1.2-0.7c0.8,0,1.2,0.5,1.2,1.2
				v2.6h-0.6v-2.4c0-0.5-0.1-0.9-0.7-0.9c-0.7,0-1,0.5-1,1.2v2.1h-0.6v-2.4c0-0.5-0.1-0.9-0.7-0.9c-0.8,0-1,0.6-1,1.3v2h-0.6v-3.7
				h0.6V212.1z"/>
			<path class="st3" d="M325.8,215.4c-1.1,0-1.8-0.7-1.8-1.9c0-1.2,0.7-2,1.7-2c1.2,0,1.7,1,1.7,2.1v0.1h-2.8l0,0
				c0,0.8,0.4,1.3,1.2,1.3c0.5,0,0.8-0.2,1-0.8h0.6C327.3,215,326.7,215.4,325.8,215.4z M325.8,211.9c-0.6,0-1,0.4-1.1,1.1h2.2
				C326.8,212.4,326.4,211.9,325.8,211.9z"/>
			<path class="st3" d="M329.1,212.4h-0.8v-0.8h0.8V212.4z M329.1,215.3h-0.8v-0.8h0.8V215.3z"/>
			<path class="st3" d="M335.3,211.6c-0.1-0.7-0.5-1.1-1.3-1.1c-0.7,0-1.2,0.3-1.2,0.9c0,0.6,0.6,0.7,1.4,0.9
				c0.8,0.2,1.9,0.4,1.9,1.5c0,1.1-1,1.6-2,1.6c-1.2,0-2.1-0.6-2.1-1.8h0.7c0,0.9,0.7,1.3,1.5,1.3c0.6,0,1.3-0.2,1.3-0.9
				c0-0.7-0.7-0.8-1.5-1c-0.8-0.2-1.8-0.3-1.8-1.4c0-1.1,0.9-1.5,1.9-1.5c1.1,0,1.8,0.5,1.9,1.6H335.3z"/>
			<path class="st3" d="M338.5,212.1h-0.7v2.2c0,0.3,0,0.6,0.4,0.6c0.1,0,0.2,0,0.3,0v0.5c-0.2,0-0.3,0-0.5,0
				c-0.9,0-0.9-0.5-0.9-1.3v-2h-0.6v-0.5h0.6v-1.1h0.6v1.1h0.7V212.1z"/>
			<path class="st3" d="M341.1,212.1c-0.1,0-0.1,0-0.2,0c-1,0-1.2,0.8-1.2,1.6v1.6h-0.6v-3.7h0.6v0.8c0.3-0.6,0.7-0.9,1.4-0.9V212.1
				z"/>
			<path class="st3" d="M342.2,210.9h-0.6v-0.8h0.6V210.9z M342.2,215.3h-0.6v-3.7h0.6V215.3z"/>
			<path class="st3" d="M343.8,212.1c0.3-0.5,0.7-0.7,1.3-0.7c0.9,0,1.2,0.5,1.2,1.4v2.5h-0.6v-2.2c0-0.6,0-1.1-0.8-1.1
				c-0.8,0-1.1,0.6-1.1,1.3v2h-0.6v-3.7h0.6V212.1z"/>
			<path class="st3" d="M350.4,214.9c0,0.6-0.1,0.9-0.2,1.2c-0.3,0.4-0.8,0.7-1.5,0.7c-0.8,0-1.5-0.3-1.6-1.1h0.6
				c0.1,0.4,0.4,0.6,1,0.6c0.8,0,1.1-0.4,1.1-1.2l0-0.5c-0.2,0.5-0.6,0.7-1.2,0.7c-1,0-1.6-0.7-1.6-1.9c0-1,0.6-2,1.7-2
				c0.5,0,0.9,0.2,1.2,0.6v-0.5h0.6V214.9z M347.7,213.4c0,0.8,0.4,1.4,1.1,1.4c0.7,0,1.1-0.6,1.1-1.5c0-0.8-0.4-1.4-1.1-1.4
				C348.1,212,347.7,212.5,347.7,213.4z"/>
		</g>
		<rect x="304.6" y="186" class="st4" width="72" height="18"/>
		<g class="st2">
			<path class="st3" d="M336.1,197.3h-1.2l-0.4-1.2h-1.9l-0.4,1.2H331l2-5.2h1.2L336.1,197.3z M333.5,193.4l-0.7,1.9h1.4
				L333.5,193.4z"/>
			<path class="st3" d="M338.8,194.4c-0.2,0-0.3,0-0.4,0c-0.7,0-1,0.5-1,1.2v1.7h-1v-3.7h1v0.7c0.2-0.5,0.7-0.8,1.2-0.8
				c0.1,0,0.1,0,0.2,0V194.4z"/>
			<path class="st3" d="M341.3,194.2h-0.8v1.8c0,0.4,0,0.5,0.4,0.5c0.1,0,0.2,0,0.3,0v0.8c-0.3,0-0.4,0-0.6,0
				c-0.9,0-1.2-0.2-1.2-1.1v-1.9h-0.6v-0.7h0.6v-1.1h1v1.1h0.8V194.2z"/>
			<path class="st3" d="M342.8,193h-1v-0.9h1V193z M342.8,197.3h-1v-3.7h1V197.3z"/>
			<path class="st3" d="M345.9,194.6c-0.1-0.4-0.3-0.5-0.7-0.5c-0.4,0-0.6,0.1-0.6,0.4c0,0.3,0.3,0.4,0.9,0.5
				c0.7,0.1,1.5,0.3,1.5,1.2c0,0.8-0.6,1.3-1.7,1.3c-0.9,0-1.7-0.4-1.8-1.3h1c0,0.4,0.3,0.6,0.8,0.6c0.4,0,0.7-0.2,0.7-0.5
				c0-0.3-0.3-0.4-0.8-0.5c-0.7-0.2-1.5-0.3-1.5-1.1c0-0.7,0.6-1.1,1.6-1.1c0.9,0,1.6,0.3,1.6,1.2H345.9z"/>
			<path class="st3" d="M349.6,194.2h-0.8v1.8c0,0.4,0,0.5,0.4,0.5c0.1,0,0.2,0,0.3,0v0.8c-0.3,0-0.4,0-0.6,0
				c-0.9,0-1.2-0.2-1.2-1.1v-1.9h-0.6v-0.7h0.6v-1.1h1v1.1h0.8V194.2z"/>
		</g>
		<path class="st4" d="M296.1,206.8l8.5-2.8l-8.5-2.8 M275,204h29.7"/>
		<g class="st2">
			<path class="st3" d="M296.3,198.7h-1v-5.8h-2v-0.7c1.2,0,2-0.3,2.3-1.5h0.8V198.7z"/>
		</g>
		<g class="st2">
			<path class="st3" d="M283.3,209.8c0-0.4-0.1-0.8-0.2-1.1c-0.2-0.5-0.3-0.9-0.3-1.1c0-0.3,0.1-0.5,0.2-0.7
				c0.1-0.1,0.3-0.2,0.5-0.2c0.2,0,0.3,0.1,0.4,0.2c0.1,0.2,0.2,0.4,0.2,0.6c0,0.2-0.1,0.6-0.2,1s-0.2,0.9-0.3,1.2
				c0.3-0.2,0.6-0.4,0.8-0.7c0.4-0.4,0.7-0.7,0.8-0.8c0.2-0.1,0.4-0.2,0.6-0.2c0.2,0,0.3,0.1,0.5,0.2c0.1,0.1,0.2,0.3,0.2,0.4
				c0,0.2-0.1,0.4-0.3,0.5s-0.6,0.3-1.4,0.5c-0.4,0.1-0.8,0.2-1.1,0.3c0.3,0.2,0.6,0.3,1.1,0.3c0.7,0.1,1.1,0.3,1.3,0.5
				c0.2,0.2,0.3,0.4,0.3,0.6c0,0.2-0.1,0.3-0.2,0.4c-0.1,0.1-0.3,0.2-0.4,0.2s-0.3-0.1-0.6-0.2s-0.5-0.4-0.8-0.8
				c-0.2-0.3-0.5-0.5-0.8-0.8c0,0.3,0.1,0.7,0.2,1c0.2,0.7,0.3,1.1,0.3,1.3c0,0.2-0.1,0.4-0.2,0.6s-0.3,0.2-0.4,0.2
				c-0.2,0-0.4-0.1-0.6-0.2c-0.1-0.1-0.2-0.3-0.2-0.6c0-0.3,0.1-0.6,0.2-1c0.1-0.4,0.2-0.6,0.2-0.8c0-0.1,0.1-0.4,0.1-0.6
				c-0.3,0.2-0.6,0.5-0.9,0.7c-0.4,0.5-0.7,0.7-0.9,0.9c-0.1,0.1-0.3,0.1-0.4,0.1c-0.2,0-0.3-0.1-0.5-0.2s-0.2-0.3-0.2-0.4
				c0-0.1,0.1-0.3,0.2-0.4s0.3-0.3,0.5-0.4c0.1-0.1,0.5-0.2,1-0.3c0.3-0.1,0.7-0.2,1-0.3c-0.3-0.1-0.7-0.3-1.1-0.3
				c-0.7-0.1-1.1-0.3-1.3-0.4c-0.2-0.2-0.4-0.4-0.4-0.7c0-0.1,0.1-0.3,0.2-0.4c0.1-0.1,0.3-0.2,0.4-0.2c0.2,0,0.4,0.1,0.6,0.2
				c0.2,0.1,0.5,0.4,0.8,0.7C282.7,209.3,283,209.6,283.3,209.8z"/>
		</g>
		<path class="st4" d="M236.1,267.9l2.8,8.1l2.8-8.1 M238.9,222v54"/>
		<g class="st2">
			<path class="st3" d="M230.6,234.7h-1v-5.8h-2v-0.7c1.2,0,2-0.3,2.3-1.5h0.8V234.7z"/>
		</g>
		<g class="st2">
			<path class="st3" d="M229.3,263.8c0-0.4-0.1-0.8-0.2-1.1c-0.2-0.5-0.3-0.9-0.3-1.1c0-0.3,0.1-0.5,0.2-0.7
				c0.1-0.1,0.3-0.2,0.5-0.2c0.2,0,0.3,0.1,0.4,0.2c0.1,0.2,0.2,0.4,0.2,0.6c0,0.2-0.1,0.6-0.2,1s-0.2,0.9-0.3,1.2
				c0.3-0.2,0.6-0.4,0.8-0.7c0.4-0.4,0.7-0.7,0.8-0.8c0.2-0.1,0.4-0.2,0.6-0.2c0.2,0,0.3,0.1,0.5,0.2c0.1,0.1,0.2,0.3,0.2,0.4
				c0,0.2-0.1,0.4-0.3,0.5s-0.6,0.3-1.4,0.5c-0.4,0.1-0.8,0.2-1.1,0.3c0.3,0.2,0.6,0.3,1.1,0.3c0.7,0.1,1.1,0.3,1.3,0.5
				c0.2,0.2,0.3,0.4,0.3,0.6c0,0.2-0.1,0.3-0.2,0.4c-0.1,0.1-0.3,0.2-0.4,0.2s-0.3-0.1-0.6-0.2s-0.5-0.4-0.8-0.8
				c-0.2-0.3-0.5-0.5-0.8-0.8c0,0.3,0.1,0.7,0.2,1c0.2,0.7,0.3,1.1,0.3,1.3c0,0.2-0.1,0.4-0.2,0.6s-0.3,0.2-0.4,0.2
				c-0.2,0-0.4-0.1-0.6-0.2c-0.1-0.1-0.2-0.3-0.2-0.6c0-0.3,0.1-0.6,0.2-1c0.1-0.4,0.2-0.6,0.2-0.8c0-0.1,0.1-0.4,0.1-0.6
				c-0.3,0.2-0.6,0.5-0.9,0.7c-0.4,0.5-0.7,0.7-0.9,0.9c-0.1,0.1-0.3,0.1-0.4,0.1c-0.2,0-0.3-0.1-0.5-0.2s-0.2-0.3-0.2-0.4
				c0-0.1,0.1-0.3,0.2-0.4s0.3-0.3,0.5-0.4c0.1-0.1,0.5-0.2,1-0.3c0.3-0.1,0.7-0.2,1-0.3c-0.3-0.1-0.7-0.3-1.1-0.3
				c-0.7-0.1-1.1-0.3-1.3-0.4c-0.2-0.2-0.4-0.4-0.4-0.7c0-0.1,0.1-0.3,0.2-0.4c0.1-0.1,0.3-0.2,0.4-0.2c0.2,0,0.4,0.1,0.6,0.2
				c0.2,0.1,0.5,0.4,0.8,0.7C228.7,263.3,229,263.6,229.3,263.8z"/>
		</g>
		<path class="st4" d="M343.4,230.5l-2.8-8.5l-2.8,8.5 M264.8,294h75.9v-72"/>
		<g class="st2">
			<path class="st3" d="M326.3,236.6c0-0.4-0.1-0.8-0.2-1.1c-0.2-0.5-0.3-0.9-0.3-1.1c0-0.3,0.1-0.5,0.2-0.7
				c0.1-0.1,0.3-0.2,0.5-0.2c0.2,0,0.3,0.1,0.4,0.2c0.1,0.2,0.2,0.4,0.2,0.6c0,0.2-0.1,0.6-0.2,1c-0.1,0.4-0.2,0.9-0.3,1.2
				c0.3-0.2,0.6-0.4,0.8-0.7c0.4-0.4,0.7-0.7,0.8-0.8c0.2-0.1,0.4-0.2,0.6-0.2c0.2,0,0.3,0.1,0.5,0.2c0.1,0.1,0.2,0.3,0.2,0.4
				c0,0.2-0.1,0.4-0.3,0.5s-0.6,0.3-1.4,0.5c-0.4,0.1-0.8,0.2-1.1,0.3c0.3,0.2,0.6,0.3,1.1,0.3c0.7,0.1,1.1,0.3,1.3,0.5
				c0.2,0.2,0.3,0.4,0.3,0.6c0,0.2-0.1,0.3-0.2,0.4c-0.1,0.1-0.3,0.2-0.4,0.2s-0.4-0.1-0.6-0.2c-0.2-0.1-0.5-0.4-0.8-0.8
				c-0.2-0.3-0.5-0.5-0.8-0.8c0,0.3,0.1,0.7,0.2,1c0.2,0.7,0.3,1.1,0.3,1.3c0,0.2-0.1,0.4-0.2,0.6s-0.3,0.2-0.4,0.2
				c-0.2,0-0.4-0.1-0.6-0.2c-0.1-0.1-0.2-0.3-0.2-0.6c0-0.3,0.1-0.6,0.2-1c0.1-0.4,0.2-0.6,0.2-0.8c0-0.1,0.1-0.4,0.1-0.6
				c-0.3,0.2-0.6,0.5-0.9,0.7c-0.4,0.5-0.7,0.7-0.9,0.9c-0.1,0.1-0.3,0.1-0.4,0.1c-0.2,0-0.3-0.1-0.5-0.2s-0.2-0.3-0.2-0.4
				c0-0.1,0.1-0.3,0.2-0.4c0.1-0.2,0.3-0.3,0.5-0.4c0.1-0.1,0.5-0.2,1-0.3c0.3-0.1,0.7-0.2,1-0.3c-0.3-0.1-0.7-0.3-1.1-0.3
				c-0.7-0.1-1.1-0.3-1.3-0.4c-0.2-0.2-0.4-0.4-0.4-0.7c0-0.1,0.1-0.3,0.2-0.4c0.1-0.1,0.3-0.2,0.4-0.2c0.2,0,0.4,0.1,0.6,0.2
				c0.2,0.1,0.5,0.4,0.8,0.7C325.7,236.2,326,236.4,326.3,236.6z"/>
		</g>
		<g class="st2">
			<path class="st3" d="M283.3,285.8c0-0.4-0.1-0.8-0.2-1.1c-0.2-0.5-0.3-0.9-0.3-1.1c0-0.3,0.1-0.5,0.2-0.7
				c0.1-0.1,0.3-0.2,0.5-0.2c0.2,0,0.3,0.1,0.4,0.2c0.1,0.2,0.2,0.4,0.2,0.6c0,0.2-0.1,0.6-0.2,1s-0.2,0.9-0.3,1.2
				c0.3-0.2,0.6-0.4,0.8-0.7c0.4-0.4,0.7-0.7,0.8-0.8c0.2-0.1,0.4-0.2,0.6-0.2c0.2,0,0.3,0.1,0.5,0.2c0.1,0.1,0.2,0.3,0.2,0.4
				c0,0.2-0.1,0.4-0.3,0.5s-0.6,0.3-1.4,0.5c-0.4,0.1-0.8,0.2-1.1,0.3c0.3,0.2,0.6,0.3,1.1,0.3c0.7,0.1,1.1,0.3,1.3,0.5
				c0.2,0.2,0.3,0.4,0.3,0.6c0,0.2-0.1,0.3-0.2,0.4c-0.1,0.1-0.3,0.2-0.4,0.2s-0.3-0.1-0.6-0.2s-0.5-0.4-0.8-0.8
				c-0.2-0.3-0.5-0.5-0.8-0.8c0,0.3,0.1,0.7,0.2,1c0.2,0.7,0.3,1.1,0.3,1.3c0,0.2-0.1,0.4-0.2,0.6s-0.3,0.2-0.4,0.2
				c-0.2,0-0.4-0.1-0.6-0.2c-0.1-0.1-0.2-0.3-0.2-0.6c0-0.3,0.1-0.6,0.2-1c0.1-0.4,0.2-0.6,0.2-0.8c0-0.1,0.1-0.4,0.1-0.6
				c-0.3,0.2-0.6,0.5-0.9,0.7c-0.4,0.5-0.7,0.7-0.9,0.9c-0.1,0.1-0.3,0.1-0.4,0.1c-0.2,0-0.3-0.1-0.5-0.2s-0.2-0.3-0.2-0.4
				c0-0.1,0.1-0.3,0.2-0.4s0.3-0.3,0.5-0.4c0.1-0.1,0.5-0.2,1-0.3c0.3-0.1,0.7-0.2,1-0.3c-0.3-0.1-0.7-0.3-1.1-0.3
				c-0.7-0.1-1.1-0.3-1.3-0.4c-0.2-0.2-0.4-0.4-0.4-0.7c0-0.1,0.1-0.3,0.2-0.4c0.1-0.1,0.3-0.2,0.4-0.2c0.2,0,0.4,0.1,0.6,0.2
				c0.2,0.1,0.5,0.4,0.8,0.7C282.7,285.3,283,285.6,283.3,285.8z"/>
		</g>
		<polyline class="st4" points="221.8,132 221.8,100.9 122.9,100.9 122.9,132 221.8,132 		"/>
		<g class="st2">
			<path class="st3" d="M127.6,106.4l1,4.3l1.2-4.3h0.7l1.2,4.3l1.1-4.3h0.7l-1.4,5.2h-0.7l-1.2-4.3l-1.2,4.3h-0.7l-1.3-5.2H127.6z"
				/>
			<path class="st3" d="M135.8,108.3c-0.1,0-0.1,0-0.2,0c-1,0-1.2,0.8-1.2,1.6v1.6h-0.6v-3.7h0.6v0.8c0.3-0.6,0.7-0.9,1.4-0.9V108.3
				z"/>
			<path class="st3" d="M136.9,107.1h-0.6v-0.8h0.6V107.1z M136.9,111.5h-0.6v-3.7h0.6V111.5z"/>
			<path class="st3" d="M139.5,108.3h-0.7v2.2c0,0.3,0,0.6,0.4,0.6c0.1,0,0.2,0,0.3,0v0.5c-0.2,0-0.3,0-0.5,0
				c-0.9,0-0.9-0.5-0.9-1.3v-2h-0.6v-0.5h0.6v-1.1h0.6v1.1h0.7V108.3z"/>
			<path class="st3" d="M141.7,111.7c-1.1,0-1.8-0.7-1.8-1.9c0-1.2,0.7-2,1.7-2c1.2,0,1.7,1,1.7,2.1v0.1h-2.8l0,0
				c0,0.8,0.4,1.3,1.2,1.3c0.5,0,0.8-0.2,1-0.8h0.6C143.2,111.2,142.6,111.7,141.7,111.7z M141.7,108.2c-0.6,0-1,0.4-1.1,1.1h2.2
				C142.7,108.6,142.3,108.2,141.7,108.2z"/>
			<path class="st3" d="M145.9,106.4c1.7,0,2.6,0.8,2.6,2.5c0,1.7-0.7,2.6-2.4,2.6h-1.8v-5.2H145.9z M144.9,110.9h1
				c1.3,0,1.8-0.6,1.8-2c0-1.4-0.5-2-1.9-2h-1V110.9z"/>
			<path class="st3" d="M152.9,107h-1.7v4.6h-0.7V107h-1.7v-0.6h4.1V107z"/>
			<path class="st3" d="M158.1,108.9c0,1.5-0.8,2.7-2.5,2.7c-1.7,0-2.5-1.3-2.5-2.8c0-1.6,1-2.6,2.5-2.6
				C157.2,106.2,158.1,107.4,158.1,108.9z M153.8,108.9c0,1.3,0.7,2.1,1.8,2.1c1.1,0,1.8-0.8,1.8-2.1c0-1.3-0.7-2.1-1.8-2.1
				C154.4,106.8,153.8,107.8,153.8,108.9z"/>
			<path class="st3" d="M161.4,109.6c0,1.2,0.3,2.3,1,3.3h-0.5c-0.7-1.1-1.1-2-1.1-3.3c0-1.2,0.4-2.3,1.1-3.3h0.5
				C161.7,107.2,161.4,108.4,161.4,109.6z"/>
			<path class="st3" d="M167,111.5h-0.8l-0.6-1.6h-2.2l-0.6,1.6h-0.7l2-5.2h0.8L167,111.5z M164.6,107l-0.9,2.4h1.8L164.6,107z"/>
			<path class="st3" d="M168.1,111.5h-0.6v-5.2h0.6V111.5z"/>
			<path class="st3" d="M169.7,108.3c0.3-0.4,0.7-0.6,1.2-0.6c1,0,1.7,0.8,1.7,2c0,1.2-0.7,2-1.7,2c-0.5,0-1-0.2-1.2-0.7v0.5H169
				v-5.2h0.6V108.3z M169.6,109.7c0,0.9,0.4,1.4,1.2,1.4c0.7,0,1.1-0.6,1.1-1.5c0-0.9-0.4-1.4-1.1-1.4
				C169.9,108.2,169.6,108.9,169.6,109.7z"/>
			<path class="st3" d="M176.4,111.5h-0.6v-0.6c-0.3,0.5-0.7,0.7-1.3,0.7c-0.8,0-1.2-0.4-1.2-1.3v-2.6h0.6v2.4
				c0,0.5,0.2,0.9,0.8,0.9c0.8,0,1.1-0.6,1.1-1.3v-2h0.6V111.5z"/>
			<path class="st3" d="M178,108.3c0.3-0.4,0.7-0.6,1.2-0.6c0.5,0,0.8,0.2,1,0.6c0.3-0.4,0.7-0.7,1.2-0.7c0.8,0,1.2,0.5,1.2,1.2v2.6
				H182v-2.4c0-0.5-0.1-0.9-0.7-0.9c-0.7,0-1,0.5-1,1.2v2.1h-0.6v-2.4c0-0.5-0.1-0.9-0.7-0.9c-0.8,0-1,0.6-1,1.3v2h-0.6v-3.7h0.6
				V108.3z"/>
			<path class="st3" d="M183.5,112.9H183c0.6-1,1-2.1,1-3.3c0-1.2-0.3-2.4-1-3.3h0.5c0.8,1,1.1,2.2,1.1,3.3
				C184.6,110.9,184.2,111.8,183.5,112.9z"/>
			<path class="st3" d="M188.4,108.6h-0.8v-0.8h0.8V108.6z M188.4,111.5h-0.8v-0.8h0.8V111.5z"/>
		</g>
		<g class="st2">
			<path class="st3" d="M131.6,121.4h-0.8l-0.6-1.6h-2.2l-0.6,1.6h-0.7l2-5.2h0.8L131.6,121.4z M129.2,116.9l-0.9,2.4h1.8
				L129.2,116.9z"/>
			<path class="st3" d="M132.6,121.4H132v-5.2h0.6V121.4z"/>
			<path class="st3" d="M134.2,118.2c0.3-0.4,0.7-0.6,1.2-0.6c1,0,1.7,0.8,1.7,2c0,1.2-0.7,2-1.7,2c-0.5,0-1-0.2-1.2-0.7v0.5h-0.6
				v-5.2h0.6V118.2z M134.2,119.6c0,0.9,0.4,1.4,1.2,1.4c0.7,0,1.1-0.6,1.1-1.5c0-0.9-0.4-1.4-1.1-1.4
				C134.5,118.1,134.2,118.8,134.2,119.6z"/>
			<path class="st3" d="M141,121.4h-0.6v-0.6c-0.3,0.5-0.7,0.7-1.3,0.7c-0.8,0-1.2-0.4-1.2-1.3v-2.6h0.6v2.4c0,0.5,0.2,0.9,0.8,0.9
				c0.8,0,1.1-0.6,1.1-1.3v-2h0.6V121.4z"/>
			<path class="st3" d="M142.5,118.2c0.3-0.4,0.7-0.6,1.2-0.6c0.5,0,0.8,0.2,1,0.6c0.3-0.4,0.7-0.7,1.2-0.7c0.8,0,1.2,0.5,1.2,1.2
				v2.6h-0.6v-2.4c0-0.5-0.1-0.9-0.7-0.9c-0.7,0-1,0.5-1,1.2v2.1h-0.6V119c0-0.5-0.1-0.9-0.7-0.9c-0.8,0-1,0.6-1,1.3v2h-0.6v-3.7
				h0.6V118.2z"/>
			<path class="st3" d="M149.9,116.3c1.7,0,2.6,0.8,2.6,2.5c0,1.7-0.7,2.6-2.4,2.6h-1.8v-5.2H149.9z M148.9,120.8h1
				c1.3,0,1.8-0.6,1.8-2c0-1.4-0.5-2-1.9-2h-1V120.8z"/>
			<path class="st3" d="M156.9,116.8h-1.7v4.6h-0.7v-4.6h-1.7v-0.6h4.1V116.8z"/>
			<path class="st3" d="M162.1,118.8c0,1.5-0.8,2.7-2.5,2.7c-1.7,0-2.5-1.3-2.5-2.8c0-1.6,1-2.6,2.5-2.6
				C161.3,116.1,162.1,117.3,162.1,118.8z M157.9,118.8c0,1.3,0.7,2.1,1.8,2.1c1.1,0,1.8-0.8,1.8-2.1c0-1.3-0.7-2.1-1.8-2.1
				C158.4,116.7,157.9,117.7,157.9,118.8z"/>
		</g>
		<polyline class="st4" points="221.8,100.9 221.8,96.3 122.9,96.3 122.9,100.9 221.8,100.9 		"/>
		<rect x="122.9" y="78.3" class="st4" width="98.8" height="18"/>
		<g class="st2">
			<path class="st3" d="M145.6,89.6h-1.2l-0.4-1.2h-1.9l-0.4,1.2h-1.2l2-5.2h1.2L145.6,89.6z M143.1,85.8l-0.7,1.9h1.4L143.1,85.8z"
				/>
			<path class="st3" d="M147,89.6h-1v-5.2h1V89.6z"/>
			<path class="st3" d="M148.8,86.4c0.3-0.4,0.7-0.5,1.2-0.5c1,0,1.6,0.9,1.6,1.9c0,1.2-0.7,2-1.7,2c-0.5,0-0.9-0.2-1.2-0.6l0,0.5
				h-1v-5.2h1V86.4z M148.8,87.8c0,0.7,0.3,1.2,0.9,1.2c0.5,0,0.9-0.5,0.9-1.2c0-0.7-0.3-1.1-0.9-1.1
				C149.1,86.6,148.8,87.1,148.8,87.8z"/>
			<path class="st3" d="M155.8,89.6h-1v-0.5c-0.3,0.4-0.7,0.6-1.2,0.6c-0.8,0-1.3-0.4-1.3-1.3v-2.5h1V88c0,0.5,0,0.8,0.6,0.8
				c0.6,0,0.8-0.5,0.8-1.1v-1.9h1V89.6z"/>
			<path class="st3" d="M161.3,89.6v-2.2c0-0.4-0.1-0.8-0.6-0.8c-0.5,0-0.7,0.4-0.7,0.9v2.1h-1v-2.3c0-0.4-0.1-0.7-0.6-0.7
				c-0.6,0-0.7,0.5-0.7,1v2h-1v-3.7h1v0.5c0.3-0.4,0.7-0.6,1.2-0.6c0.5,0,0.9,0.2,1.1,0.6c0.3-0.4,0.7-0.6,1.2-0.6
				c0.8,0,1.3,0.5,1.3,1.3v2.5H161.3z"/>
			<path class="st3" d="M169.8,89.6h-1.2l-0.4-1.2h-1.9l-0.4,1.2h-1.2l2-5.2h1.2L169.8,89.6z M167.2,85.8l-0.7,1.9h1.4L167.2,85.8z"
				/>
			<path class="st3" d="M172.3,87c-0.1-0.4-0.3-0.5-0.7-0.5c-0.4,0-0.6,0.1-0.6,0.4c0,0.3,0.3,0.4,0.9,0.5c0.7,0.1,1.5,0.3,1.5,1.2
				c0,0.8-0.6,1.3-1.7,1.3c-0.9,0-1.7-0.4-1.8-1.3h1c0,0.4,0.3,0.6,0.8,0.6c0.4,0,0.7-0.2,0.7-0.5c0-0.3-0.3-0.4-0.8-0.5
				c-0.7-0.2-1.5-0.3-1.5-1.1c0-0.7,0.6-1.1,1.6-1.1c0.9,0,1.6,0.3,1.6,1.2H172.3z"/>
			<path class="st3" d="M176.2,87c-0.1-0.4-0.3-0.5-0.7-0.5c-0.4,0-0.6,0.1-0.6,0.4c0,0.3,0.3,0.4,0.9,0.5c0.7,0.1,1.5,0.3,1.5,1.2
				c0,0.8-0.6,1.3-1.7,1.3c-0.9,0-1.7-0.4-1.8-1.3h1c0,0.4,0.3,0.6,0.8,0.6c0.4,0,0.7-0.2,0.7-0.5c0-0.3-0.3-0.4-0.8-0.5
				c-0.7-0.2-1.5-0.3-1.5-1.1c0-0.7,0.6-1.1,1.6-1.1c0.9,0,1.6,0.3,1.6,1.2H176.2z"/>
			<path class="st3" d="M179.6,89.8c-1.2,0-1.9-0.8-1.9-2c0-1.2,0.8-2,1.9-2c1.1,0,1.8,0.8,1.8,2.1V88h-2.7c0,0.6,0.3,1,0.9,1
				c0.4,0,0.6-0.2,0.8-0.5h1C181.2,89.3,180.5,89.8,179.6,89.8z M179.6,86.5c-0.5,0-0.8,0.3-0.8,0.8h1.6
				C180.4,86.9,180.1,86.5,179.6,86.5z"/>
			<path class="st3" d="M186.8,89.6v-2.2c0-0.4-0.1-0.8-0.6-0.8c-0.5,0-0.7,0.4-0.7,0.9v2.1h-1v-2.3c0-0.4-0.1-0.7-0.6-0.7
				c-0.6,0-0.7,0.5-0.7,1v2h-1v-3.7h1v0.5c0.3-0.4,0.7-0.6,1.2-0.6c0.5,0,0.9,0.2,1.1,0.6c0.3-0.4,0.7-0.6,1.2-0.6
				c0.8,0,1.3,0.5,1.3,1.3v2.5H186.8z"/>
			<path class="st3" d="M189.6,86.4c0.3-0.4,0.7-0.5,1.2-0.5c1,0,1.6,0.9,1.6,1.9c0,1.2-0.7,2-1.7,2c-0.5,0-0.9-0.2-1.2-0.6l0,0.5
				h-1v-5.2h1V86.4z M189.6,87.8c0,0.7,0.3,1.2,0.9,1.2c0.5,0,0.9-0.5,0.9-1.2c0-0.7-0.3-1.1-0.9-1.1
				C189.9,86.6,189.6,87.1,189.6,87.8z"/>
			<path class="st3" d="M194.1,89.6h-1v-5.2h1V89.6z"/>
			<path class="st3" d="M196.7,89.8c-1.2,0-1.9-0.8-1.9-2c0-1.2,0.8-2,1.9-2c1.1,0,1.8,0.8,1.8,2.1V88h-2.7c0,0.6,0.3,1,0.9,1
				c0.4,0,0.6-0.2,0.8-0.5h1C198.2,89.3,197.5,89.8,196.7,89.8z M196.6,86.5c-0.5,0-0.8,0.3-0.8,0.8h1.6
				C197.4,86.9,197.2,86.5,196.6,86.5z"/>
			<path class="st3" d="M201.5,86.8c-0.2,0-0.3,0-0.4,0c-0.7,0-1,0.5-1,1.2v1.7h-1v-3.7h1v0.7c0.2-0.5,0.7-0.8,1.2-0.8
				c0.1,0,0.1,0,0.2,0V86.8z"/>
		</g>
		<polyline class="st5" points="139.5,27.2 238.9,27.2 238.9,186 		"/>
		<polyline class="st4" points="236.1,177.9 238.9,186 241.8,177.9 		"/>
		<line class="st5" x1="70.3" y1="54.5" x2="70.3" y2="204"/>
		<polyline class="st4" points="67.5,195.9 70.3,204 72.8,195.9 		"/>
		<polyline class="st5" points="139.7,40.9 172.4,40.9 172.4,78 		"/>
		<polyline class="st4" points="169.5,69.9 172.4,78.3 175.2,69.9 		"/>
		<polyline class="st5" points="172.4,132 172.4,204 202.3,204 		"/>
		<polyline class="st4" points="194.5,206.8 202.9,204 194.5,201.2 		"/>
		<polyline class="st5" points="172.4,132 172.4,294 202.3,294 		"/>
		<polyline class="st4" points="194.5,296.8 202.9,294 194.5,291.2 		"/>
		<polyline class="st5" points="147.6,132 147.6,226.6 125.1,226.6 		"/>
		<polyline class="st4" points="132.1,223.8 123.9,226.6 132.1,229.4 		"/>
		<polyline class="st5" points="147.6,132 147.6,316.6 125.6,316.6 		"/>
		<polyline class="st4" points="132.1,313.8 123.9,316.6 132.1,319.1 		"/>
		<polyline class="st5" points="222.3,104.8 235.8,104.8 236.5,103.1 237.9,102.3 239.6,102.3 241.4,103.1 241.8,104.8 340.6,104.8 
			340.6,186 		"/>
		<polyline class="st4" points="337.8,177.9 340.6,186 343.4,177.9 		"/>
	</g>
</g>
</svg>
