<?xml version="1.0" encoding="utf-8"?>
<!-- Generator: Adobe Illustrator 21.0.0, SVG Export Plug-In . SVG Version: 6.00 Build 0)  -->
<svg version="1.1" id="Layer_1" xmlns="http://www.w3.org/2000/svg" xmlns:xlink="http://www.w3.org/1999/xlink" x="0px" y="0px"
	 viewBox="0 0 310 123" style="enable-background:new 0 0 310 123;" xml:space="preserve">
<style type="text/css">
	.st0{fill:#FFFFFF;}
	.st1{fill:none;stroke:#231F20;stroke-width:0.5;stroke-linejoin:round;}
	.st2{enable-background:new    ;}
	.st3{fill:#231F20;}
	.st4{fill:none;stroke:#231F20;stroke-width:0.5;stroke-linecap:round;stroke-linejoin:round;}
	.st5{fill:none;stroke:#231F20;stroke-width:0.5;stroke-linecap:round;stroke-linejoin:round;stroke-dasharray:4,2;}
</style>
<title>img5</title>
<g id="Layer_2">
	<g id="Layer_1-2">
		<rect class="st0" width="310" height="123"/>
		<polyline class="st1" points="72.7,81.7 72.7,54.9 1,54.9 1,81.7 72.7,81.7 		"/>
		<g class="st2">
			<path class="st3" d="M7,62.9H6.2v2.2c0,0.3,0,0.6,0.4,0.6c0.1,0,0.2,0,0.3,0v0.5c-0.2,0-0.3,0-0.5,0c-0.9,0-0.9-0.5-0.9-1.3v-2H5
				v-0.5h0.6v-1.1h0.6v1.1H7V62.9z"/>
			<path class="st3" d="M11.1,64.3c0,1.3-0.7,2-1.8,2c-1.1,0-1.8-0.7-1.8-2s0.7-2,1.8-2C10.4,62.3,11.1,63,11.1,64.3z M8.1,64.3
				c0,0.9,0.4,1.5,1.2,1.5c0.7,0,1.2-0.6,1.2-1.5c0-0.9-0.4-1.5-1.2-1.5S8.1,63.4,8.1,64.3z"/>
			<path class="st3" d="M14,63.5l1.8,2.7h-0.8l-1.4-2.1l-1.4,2.1h-0.8l1.8-2.7L11.4,61h0.8l1.3,2l1.3-2h0.8L14,63.5z"/>
			<path class="st3" d="M16.8,63c0.3-0.4,0.7-0.6,1.2-0.6c0.5,0,0.8,0.2,1,0.6c0.3-0.4,0.7-0.7,1.2-0.7c0.8,0,1.2,0.5,1.2,1.2v2.6
				h-0.6v-2.4c0-0.5-0.1-0.9-0.7-0.9c-0.7,0-1,0.5-1,1.2v2.1h-0.6v-2.4c0-0.5-0.1-0.9-0.7-0.9c-0.8,0-1,0.6-1,1.3v2h-0.6v-3.7h0.6
				V63z"/>
			<path class="st3" d="M23.1,66.2h-0.6V61h0.6V66.2z"/>
			<path class="st3" d="M27.7,61.6h-2.9v1.6h2.7v0.6h-2.7v1.8h2.9v0.6h-3.6V61h3.6V61.6z"/>
			<path class="st3" d="M29.1,66.2h-0.6V61h0.6V66.2z"/>
			<path class="st3" d="M31.6,66.3c-1.1,0-1.8-0.7-1.8-1.9c0-1.2,0.7-2,1.7-2c1.2,0,1.7,1,1.7,2.1v0.1h-2.8l0,0
				c0,0.8,0.4,1.3,1.2,1.3c0.5,0,0.8-0.2,1-0.8h0.6C33.1,65.9,32.5,66.3,31.6,66.3z M31.6,62.8c-0.6,0-1,0.4-1.1,1.1h2.2
				C32.6,63.3,32.2,62.8,31.6,62.8z"/>
			<path class="st3" d="M34.6,63c0.3-0.4,0.7-0.6,1.2-0.6c0.5,0,0.8,0.2,1,0.6c0.3-0.4,0.7-0.7,1.2-0.7c0.8,0,1.2,0.5,1.2,1.2v2.6
				h-0.6v-2.4c0-0.5-0.1-0.9-0.7-0.9c-0.7,0-1,0.5-1,1.2v2.1h-0.6v-2.4c0-0.5-0.1-0.9-0.7-0.9c-0.8,0-1,0.6-1,1.3v2H34v-3.7h0.6V63z
				"/>
			<path class="st3" d="M41.7,66.3c-1.1,0-1.8-0.7-1.8-1.9c0-1.2,0.7-2,1.7-2c1.2,0,1.7,1,1.7,2.1v0.1h-2.8l0,0
				c0,0.8,0.4,1.3,1.2,1.3c0.5,0,0.8-0.2,1-0.8h0.6C43.2,65.9,42.6,66.3,41.7,66.3z M41.7,62.8c-0.6,0-1,0.4-1.1,1.1h2.2
				C42.7,63.3,42.3,62.8,41.7,62.8z"/>
			<path class="st3" d="M44.6,63c0.3-0.5,0.7-0.7,1.3-0.7c0.9,0,1.2,0.5,1.2,1.4v2.5h-0.6V64c0-0.6,0-1.1-0.8-1.1
				c-0.8,0-1.1,0.6-1.1,1.3v2h-0.6v-3.7h0.6V63z"/>
			<path class="st3" d="M49.7,62.9h-0.7v2.2c0,0.3,0,0.6,0.4,0.6c0.1,0,0.2,0,0.3,0v0.5c-0.2,0-0.3,0-0.5,0c-0.9,0-0.9-0.5-0.9-1.3
				v-2h-0.6v-0.5h0.6v-1.1h0.6v1.1h0.7V62.9z"/>
		</g>
		<g class="st2">
			<path class="st3" d="M7.3,72.2c-0.1,0-0.1,0-0.2,0c-1,0-1.2,0.8-1.2,1.6v1.6H5.4v-3.7h0.6v0.8c0.3-0.6,0.7-0.9,1.4-0.9V72.2z"/>
			<path class="st3" d="M9.2,75.5c-1.1,0-1.8-0.7-1.8-1.9c0-1.2,0.7-2,1.7-2c1.2,0,1.7,1,1.7,2.1v0.1H8.1l0,0c0,0.8,0.4,1.3,1.2,1.3
				c0.5,0,0.8-0.2,1-0.8h0.6C10.7,75,10.1,75.5,9.2,75.5z M9.2,72c-0.6,0-1,0.4-1.1,1.1h2.2C10.2,72.4,9.8,72,9.2,72z"/>
			<path class="st3" d="M14.9,75.3c-0.1,0.1-0.3,0.1-0.4,0.1c-0.3,0-0.5-0.2-0.5-0.6c-0.4,0.4-0.8,0.6-1.4,0.6
				c-0.7,0-1.2-0.4-1.2-1.1c0-0.7,0.4-1.1,1.3-1.2c0.9-0.1,1.2-0.1,1.2-0.6c0-0.4-0.3-0.6-0.8-0.6c-0.6,0-0.9,0.2-0.9,0.8h-0.6
				c0-0.8,0.6-1.3,1.6-1.3c0.5,0,0.9,0.1,1.2,0.4c0.3,0.3,0.3,0.6,0.3,1c0,0.6,0,1.1,0,1.7c0,0.3,0.1,0.4,0.3,0.4c0.1,0,0.1,0,0.2,0
				V75.3z M13,73.6c-0.4,0.1-1.1,0.1-1.1,0.7c0,0.4,0.3,0.6,0.7,0.6c0.6,0,1.1-0.4,1.1-0.9v-0.7C13.6,73.6,13.3,73.6,13,73.6z"/>
			<path class="st3" d="M18.8,75.3h-0.6v-0.6c-0.2,0.4-0.7,0.7-1.2,0.7c-1.1,0-1.7-0.8-1.7-2c0-1.1,0.6-2,1.7-2
				c0.5,0,0.9,0.2,1.2,0.6v-1.9h0.6V75.3z M15.9,73.5c0,0.9,0.4,1.5,1.2,1.5c0.7,0,1.1-0.6,1.1-1.5c0-0.7-0.3-1.4-1.2-1.4
				C16.4,72,15.9,72.6,15.9,73.5z"/>
			<path class="st3" d="M21.9,72.7l1.8,2.7h-0.8l-1.4-2.1L20,75.3h-0.8l1.8-2.7l-1.7-2.5h0.8l1.3,2l1.3-2h0.8L21.9,72.7z"/>
			<path class="st3" d="M24.8,72.2c0.3-0.4,0.7-0.6,1.2-0.6c0.5,0,0.8,0.2,1,0.6c0.3-0.4,0.7-0.7,1.2-0.7c0.8,0,1.2,0.5,1.2,1.2v2.6
				h-0.6V73c0-0.5-0.1-0.9-0.7-0.9c-0.7,0-1,0.5-1,1.2v2.1h-0.6V73c0-0.5-0.1-0.9-0.7-0.9c-0.8,0-1,0.6-1,1.3v2h-0.6v-3.7h0.6V72.2z
				"/>
			<path class="st3" d="M31,75.3h-0.6v-5.2H31V75.3z"/>
		</g>
		<polyline class="st1" points="72.7,54.9 72.7,28.1 1,28.1 1,54.9 72.7,54.9 		"/>
		<g class="st2">
			<path class="st3" d="M7,35.8H6.2v2.2c0,0.3,0,0.6,0.4,0.6c0.1,0,0.2,0,0.3,0V39c-0.2,0-0.3,0-0.5,0c-0.9,0-0.9-0.5-0.9-1.3v-2H5
				v-0.5h0.6v-1.1h0.6v1.1H7V35.8z"/>
			<path class="st3" d="M8.3,34.6H7.7v-0.8h0.6V34.6z M8.3,39H7.7v-3.7h0.6V39z"/>
			<path class="st3" d="M10.9,35.8h-0.7v2.2c0,0.3,0,0.6,0.4,0.6c0.1,0,0.2,0,0.3,0V39c-0.2,0-0.3,0-0.5,0c-0.9,0-0.9-0.5-0.9-1.3
				v-2H8.9v-0.5h0.6v-1.1h0.6v1.1h0.7V35.8z"/>
			<path class="st3" d="M12.2,39h-0.6v-5.2h0.6V39z"/>
			<path class="st3" d="M14.7,39.1c-1.1,0-1.8-0.7-1.8-1.9c0-1.2,0.7-2,1.7-2c1.2,0,1.7,1,1.7,2.1v0.1h-2.8l0,0
				c0,0.8,0.4,1.3,1.2,1.3c0.5,0,0.8-0.2,1-0.8h0.6C16.2,38.7,15.6,39.1,14.7,39.1z M14.7,35.7c-0.6,0-1,0.4-1.1,1.1h2.2
				C15.7,36.1,15.3,35.7,14.7,35.7z"/>
			<path class="st3" d="M18,36.1h-0.8v-0.8H18V36.1z M18,39h-0.8v-0.8H18V39z"/>
			<path class="st3" d="M24.2,35.4c-0.1-0.7-0.5-1.1-1.3-1.1c-0.7,0-1.2,0.3-1.2,0.9c0,0.6,0.6,0.7,1.4,0.9c0.8,0.2,1.9,0.4,1.9,1.5
				c0,1.1-1,1.6-2,1.6c-1.2,0-2.1-0.6-2.1-1.8h0.7c0,0.9,0.7,1.3,1.5,1.3c0.6,0,1.3-0.2,1.3-0.9c0-0.7-0.7-0.8-1.5-1
				c-0.8-0.2-1.8-0.3-1.8-1.4c0-1.1,0.9-1.5,1.9-1.5c1.1,0,1.8,0.5,1.9,1.6H24.2z"/>
			<path class="st3" d="M27.4,35.8h-0.7v2.2c0,0.3,0,0.6,0.4,0.6c0.1,0,0.2,0,0.3,0V39c-0.2,0-0.3,0-0.5,0C26,39,26,38.6,26,37.8v-2
				h-0.6v-0.5H26v-1.1h0.6v1.1h0.7V35.8z"/>
			<path class="st3" d="M30,35.8c-0.1,0-0.1,0-0.2,0c-1,0-1.2,0.8-1.2,1.6V39H28v-3.7h0.6v0.8c0.3-0.6,0.7-0.9,1.4-0.9V35.8z"/>
			<path class="st3" d="M31.1,34.6h-0.6v-0.8h0.6V34.6z M31.1,39h-0.6v-3.7h0.6V39z"/>
			<path class="st3" d="M32.7,35.8c0.3-0.5,0.7-0.7,1.3-0.7c0.9,0,1.2,0.5,1.2,1.4V39h-0.6v-2.2c0-0.6,0-1.1-0.8-1.1
				c-0.8,0-1.1,0.6-1.1,1.3v2h-0.6v-3.7h0.6V35.8z"/>
			<path class="st3" d="M39.4,38.6c0,0.6-0.1,0.9-0.2,1.2c-0.3,0.4-0.8,0.7-1.5,0.7c-0.8,0-1.5-0.3-1.6-1.1h0.6
				c0.1,0.4,0.4,0.6,1,0.6c0.8,0,1.1-0.4,1.1-1.2l0-0.5c-0.2,0.5-0.6,0.7-1.2,0.7c-1,0-1.6-0.7-1.6-1.9c0-1,0.6-2,1.7-2
				c0.5,0,0.9,0.2,1.2,0.6v-0.5h0.6V38.6z M36.6,37.2c0,0.8,0.4,1.4,1.1,1.4c0.7,0,1.1-0.6,1.1-1.5c0-0.8-0.4-1.4-1.1-1.4
				C37,35.7,36.6,36.2,36.6,37.2z"/>
		</g>
		<g class="st2">
			<path class="st3" d="M8.7,48.9c-0.1,0.1-0.3,0.1-0.4,0.1c-0.3,0-0.5-0.2-0.5-0.6C7.4,48.8,6.9,49,6.4,49c-0.7,0-1.2-0.4-1.2-1.1
				c0-0.7,0.4-1.1,1.3-1.2c0.9-0.1,1.2-0.1,1.2-0.6c0-0.4-0.3-0.6-0.8-0.6c-0.6,0-0.9,0.2-0.9,0.8H5.3c0-0.8,0.6-1.3,1.6-1.3
				c0.5,0,0.9,0.1,1.2,0.4c0.3,0.3,0.3,0.6,0.3,1c0,0.6,0,1.1,0,1.7c0,0.3,0.1,0.4,0.3,0.4c0.1,0,0.1,0,0.2,0V48.9z M6.9,47.2
				c-0.4,0.1-1.1,0.1-1.1,0.7c0,0.4,0.3,0.6,0.7,0.6c0.6,0,1.1-0.4,1.1-0.9v-0.7C7.5,47.1,7.1,47.1,6.9,47.2z"/>
			<path class="st3" d="M11.2,45.7c-0.1,0-0.1,0-0.2,0c-1,0-1.2,0.8-1.2,1.6v1.6H9.2v-3.7h0.6v0.8c0.3-0.6,0.7-0.9,1.4-0.9V45.7z"/>
			<path class="st3" d="M13.3,45.6h-0.7v2.2c0,0.3,0,0.6,0.4,0.6c0.1,0,0.2,0,0.3,0v0.5c-0.2,0-0.3,0-0.5,0c-0.9,0-0.9-0.5-0.9-1.3
				v-2h-0.6v-0.5h0.6V44h0.6v1.1h0.7V45.6z"/>
			<path class="st3" d="M14.6,44.5H14v-0.8h0.6V44.5z M14.6,48.9H14v-3.7h0.6V48.9z"/>
			<path class="st3" d="M17.7,46.2c0-0.5-0.4-0.7-0.9-0.7c-0.5,0-0.8,0.2-0.8,0.5c0,0.4,0.5,0.5,1,0.6c0.6,0.1,1.4,0.3,1.4,1.1
				c0,0.7-0.6,1.2-1.6,1.2c-1,0-1.6-0.5-1.6-1.3H16c0,0.6,0.4,0.8,1,0.8c0.6,0,0.9-0.2,0.9-0.6c0-0.4-0.4-0.5-0.9-0.6
				c-0.6-0.2-1.5-0.2-1.5-1.1c0-0.7,0.6-1.1,1.4-1.1c0.8,0,1.5,0.4,1.5,1.2H17.7z"/>
			<path class="st3" d="M20.8,45.6h-0.7v2.2c0,0.3,0,0.6,0.4,0.6c0.1,0,0.2,0,0.3,0v0.5c-0.2,0-0.3,0-0.5,0c-0.9,0-0.9-0.5-0.9-1.3
				v-2h-0.6v-0.5h0.6V44h0.6v1.1h0.7V45.6z"/>
			<path class="st3" d="M22.4,45.9h-0.8v-0.8h0.8V45.9z M22.4,48.9h-0.8v-0.8h0.8V48.9z"/>
			<path class="st3" d="M28.6,45.2c-0.1-0.7-0.5-1.1-1.3-1.1c-0.7,0-1.2,0.3-1.2,0.9c0,0.6,0.6,0.7,1.4,0.9c0.8,0.2,1.9,0.4,1.9,1.5
				c0,1.1-1,1.6-2,1.6c-1.2,0-2.1-0.6-2.1-1.8H26c0,0.9,0.7,1.3,1.5,1.3c0.6,0,1.3-0.2,1.3-0.9c0-0.7-0.7-0.8-1.5-1
				c-0.8-0.2-1.8-0.3-1.8-1.4c0-1.1,0.9-1.5,1.9-1.5c1.1,0,1.8,0.5,1.9,1.6H28.6z"/>
			<path class="st3" d="M31.8,45.6h-0.7v2.2c0,0.3,0,0.6,0.4,0.6c0.1,0,0.2,0,0.3,0v0.5c-0.2,0-0.3,0-0.5,0c-0.9,0-0.9-0.5-0.9-1.3
				v-2h-0.6v-0.5h0.6V44h0.6v1.1h0.7V45.6z"/>
			<path class="st3" d="M34.4,45.7c-0.1,0-0.1,0-0.2,0c-1,0-1.2,0.8-1.2,1.6v1.6h-0.6v-3.7h0.6v0.8c0.3-0.6,0.7-0.9,1.4-0.9V45.7z"
				/>
			<path class="st3" d="M35.6,44.5h-0.6v-0.8h0.6V44.5z M35.6,48.9h-0.6v-3.7h0.6V48.9z"/>
			<path class="st3" d="M37.1,45.7c0.3-0.5,0.7-0.7,1.3-0.7c0.9,0,1.2,0.5,1.2,1.4v2.5H39v-2.2c0-0.6,0-1.1-0.8-1.1
				c-0.8,0-1.1,0.6-1.1,1.3v2h-0.6v-3.7h0.6V45.7z"/>
			<path class="st3" d="M43.8,48.5c0,0.6-0.1,0.9-0.2,1.2c-0.3,0.4-0.8,0.7-1.5,0.7c-0.8,0-1.5-0.3-1.6-1.1h0.6
				c0.1,0.4,0.4,0.6,1,0.6c0.8,0,1.1-0.4,1.1-1.2l0-0.5c-0.2,0.5-0.6,0.7-1.2,0.7c-1,0-1.6-0.7-1.6-1.9c0-1,0.6-2,1.7-2
				c0.5,0,0.9,0.2,1.2,0.6v-0.5h0.6V48.5z M41,47c0,0.8,0.4,1.4,1.1,1.4c0.7,0,1.1-0.6,1.1-1.5c0-0.8-0.4-1.4-1.1-1.4
				C41.4,45.6,41,46.1,41,47z"/>
		</g>
		<rect x="1" y="0.9" class="st4" width="71.7" height="27.2"/>
		<g class="st2">
			<path class="st3" d="M22.3,16.8h-1.2l-0.4-1.2h-1.9l-0.4,1.2h-1.2l2-5.2h1.2L22.3,16.8z M19.7,12.9l-0.7,1.9h1.4L19.7,12.9z"/>
			<path class="st3" d="M23.7,16.8h-1v-5.2h1V16.8z"/>
		</g>
		<g class="st2">
			<path class="st3" d="M25.5,13.5c0.3-0.4,0.7-0.5,1.2-0.5c1,0,1.6,0.9,1.6,1.9c0,1.2-0.7,2-1.7,2c-0.5,0-0.9-0.2-1.2-0.6l0,0.5h-1
				v-5.2h1V13.5z M25.5,14.9c0,0.7,0.3,1.2,0.9,1.2c0.5,0,0.9-0.5,0.9-1.2c0-0.7-0.3-1.1-0.9-1.1C25.8,13.7,25.5,14.2,25.5,14.9z"/>
		</g>
		<g class="st2">
			<path class="st3" d="M32.3,16.8h-1v-0.5c-0.3,0.4-0.7,0.6-1.2,0.6c-0.8,0-1.3-0.4-1.3-1.3V13h1v2.1c0,0.5,0,0.8,0.6,0.8
				c0.6,0,0.8-0.5,0.8-1.1V13h1V16.8z"/>
			<path class="st3" d="M37.8,16.8v-2.2c0-0.4-0.1-0.8-0.6-0.8c-0.5,0-0.7,0.4-0.7,0.9v2.1h-1v-2.3c0-0.4-0.1-0.7-0.6-0.7
				c-0.6,0-0.7,0.5-0.7,1v2h-1V13h1v0.5c0.3-0.4,0.7-0.6,1.2-0.6c0.5,0,0.9,0.2,1.1,0.6c0.3-0.4,0.7-0.6,1.2-0.6
				c0.8,0,1.3,0.5,1.3,1.3v2.5H37.8z"/>
			<path class="st3" d="M39.8,11.6h2.1c1.6,0,2.5,0.9,2.5,2.6c0,1.7-0.9,2.6-2.5,2.6h-2.1V11.6z M41.7,15.8c1,0,1.5-0.6,1.5-1.6
				c0-1-0.5-1.6-1.5-1.6h-0.8v3.3H41.7z"/>
		</g>
		<g class="st2">
			<path class="st3" d="M49,12.6h-1.6v4.2h-1.1v-4.2h-1.6v-1H49V12.6z"/>
		</g>
		<g class="st2">
			<path class="st3" d="M54.1,14.2c0,1.6-1,2.7-2.5,2.7c-1.5,0-2.6-1.1-2.6-2.7c0-1.6,1-2.7,2.6-2.7C53.1,11.5,54.1,12.6,54.1,14.2z
				 M50.2,14.2c0,1.1,0.5,1.8,1.4,1.8c0.9,0,1.4-0.7,1.4-1.8c0-1.1-0.5-1.8-1.4-1.8C50.7,12.4,50.2,13.1,50.2,14.2z"/>
		</g>
		<rect x="113.2" y="23.5" class="st4" width="71.6" height="36"/>
		<g class="st2">
			<path class="st3" d="M122.5,43.9h-1.2l-0.4-1.2H119l-0.4,1.2h-1.2l2-5.2h1.2L122.5,43.9z M119.9,40l-0.7,1.9h1.4L119.9,40z"/>
			<path class="st3" d="M123.9,43.9h-1v-5.2h1V43.9z"/>
		</g>
		<g class="st2">
			<path class="st3" d="M125.7,40.7c0.3-0.4,0.7-0.5,1.2-0.5c1,0,1.6,0.9,1.6,1.9c0,1.2-0.7,2-1.7,2c-0.5,0-0.9-0.2-1.2-0.6l0,0.5
				h-1v-5.2h1V40.7z M125.7,42c0,0.7,0.3,1.2,0.9,1.2c0.5,0,0.9-0.5,0.9-1.2c0-0.7-0.3-1.1-0.9-1.1C126,40.9,125.7,41.3,125.7,42z"
				/>
		</g>
		<g class="st2">
			<path class="st3" d="M132.5,43.9h-1v-0.5c-0.3,0.4-0.7,0.6-1.2,0.6c-0.8,0-1.3-0.4-1.3-1.3v-2.5h1v2.1c0,0.5,0,0.8,0.6,0.8
				c0.6,0,0.8-0.5,0.8-1.1v-1.9h1V43.9z"/>
			<path class="st3" d="M138,43.9v-2.2c0-0.4-0.1-0.8-0.6-0.8c-0.5,0-0.7,0.4-0.7,0.9v2.1h-1v-2.3c0-0.4-0.1-0.7-0.6-0.7
				c-0.6,0-0.7,0.5-0.7,1v2h-1v-3.7h1v0.5c0.3-0.4,0.7-0.6,1.2-0.6c0.5,0,0.9,0.2,1.1,0.6c0.3-0.4,0.7-0.6,1.2-0.6
				c0.8,0,1.3,0.5,1.3,1.3v2.5H138z"/>
			<path class="st3" d="M146.5,43.9h-1.2l-0.4-1.2H143l-0.4,1.2h-1.2l2-5.2h1.2L146.5,43.9z M144,40l-0.7,1.9h1.4L144,40z"/>
			<path class="st3" d="M149,41.3c-0.1-0.4-0.3-0.5-0.7-0.5c-0.4,0-0.6,0.1-0.6,0.4c0,0.3,0.3,0.4,0.9,0.5c0.7,0.1,1.5,0.3,1.5,1.2
				c0,0.8-0.6,1.3-1.7,1.3c-0.9,0-1.7-0.4-1.8-1.3h1c0,0.4,0.3,0.6,0.8,0.6c0.4,0,0.7-0.2,0.7-0.5c0-0.3-0.3-0.4-0.8-0.5
				c-0.7-0.2-1.5-0.3-1.5-1.1c0-0.7,0.6-1.1,1.6-1.1c0.9,0,1.6,0.3,1.6,1.2H149z"/>
			<path class="st3" d="M152.9,41.3c-0.1-0.4-0.3-0.5-0.7-0.5c-0.4,0-0.6,0.1-0.6,0.4c0,0.3,0.3,0.4,0.9,0.5
				c0.7,0.1,1.5,0.3,1.5,1.2c0,0.8-0.6,1.3-1.7,1.3c-0.9,0-1.7-0.4-1.8-1.3h1c0,0.4,0.3,0.6,0.8,0.6c0.4,0,0.7-0.2,0.7-0.5
				c0-0.3-0.3-0.4-0.8-0.5c-0.7-0.2-1.5-0.3-1.5-1.1c0-0.7,0.6-1.1,1.6-1.1c0.9,0,1.6,0.3,1.6,1.2H152.9z"/>
			<path class="st3" d="M156.4,44c-1.2,0-1.9-0.8-1.9-2c0-1.2,0.8-2,1.9-2c1.1,0,1.8,0.8,1.8,2.1v0.1h-2.7c0,0.6,0.3,1,0.9,1
				c0.4,0,0.6-0.2,0.8-0.5h1C157.9,43.6,157.2,44,156.4,44z M156.3,40.8c-0.5,0-0.8,0.3-0.8,0.8h1.6
				C157.1,41.2,156.9,40.8,156.3,40.8z"/>
			<path class="st3" d="M163.5,43.9v-2.2c0-0.4-0.1-0.8-0.6-0.8c-0.5,0-0.7,0.4-0.7,0.9v2.1h-1v-2.3c0-0.4-0.1-0.7-0.6-0.7
				c-0.6,0-0.7,0.5-0.7,1v2h-1v-3.7h1v0.5c0.3-0.4,0.7-0.6,1.2-0.6c0.5,0,0.9,0.2,1.1,0.6c0.3-0.4,0.7-0.6,1.2-0.6
				c0.8,0,1.3,0.5,1.3,1.3v2.5H163.5z"/>
		</g>
		<g class="st2">
			<path class="st3" d="M166.4,40.7c0.3-0.4,0.7-0.5,1.2-0.5c1,0,1.6,0.9,1.6,1.9c0,1.2-0.7,2-1.7,2c-0.5,0-0.9-0.2-1.2-0.6l0,0.5
				h-1v-5.2h1V40.7z M166.3,42c0,0.7,0.3,1.2,0.9,1.2c0.5,0,0.9-0.5,0.9-1.2c0-0.7-0.3-1.1-0.9-1.1C166.7,40.9,166.3,41.3,166.3,42z
				"/>
		</g>
		<g class="st2">
			<path class="st3" d="M170.8,43.9h-1v-5.2h1V43.9z"/>
			<path class="st3" d="M173.3,44c-1.2,0-1.9-0.8-1.9-2c0-1.2,0.8-2,1.9-2c1.1,0,1.8,0.8,1.8,2.1v0.1h-2.7c0,0.6,0.3,1,0.9,1
				c0.4,0,0.6-0.2,0.8-0.5h1C174.9,43.6,174.2,44,173.3,44z M173.3,40.8c-0.5,0-0.8,0.3-0.8,0.8h1.6
				C174.1,41.2,173.8,40.8,173.3,40.8z"/>
			<path class="st3" d="M178.2,41.1c-0.2,0-0.3,0-0.4,0c-0.7,0-1,0.5-1,1.2v1.7h-1v-3.7h1v0.7c0.2-0.5,0.7-0.8,1.2-0.8
				c0.1,0,0.1,0,0.2,0V41.1z"/>
		</g>
		<polyline class="st4" points="309,41.5 309,23.5 237.4,23.5 237.4,41.5 309,41.5 		"/>
		<g class="st2">
			<path class="st3" d="M243.3,31.5h-0.7v2.2c0,0.3,0,0.6,0.4,0.6c0.1,0,0.2,0,0.3,0v0.5c-0.2,0-0.3,0-0.5,0c-0.9,0-0.9-0.5-0.9-1.3
				v-2h-0.6V31h0.6v-1.1h0.6V31h0.7V31.5z"/>
			<path class="st3" d="M244.6,30.4H244v-0.8h0.6V30.4z M244.6,34.8H244V31h0.6V34.8z"/>
			<path class="st3" d="M247.2,31.5h-0.7v2.2c0,0.3,0,0.6,0.4,0.6c0.1,0,0.2,0,0.3,0v0.5c-0.2,0-0.3,0-0.5,0c-0.9,0-0.9-0.5-0.9-1.3
				v-2h-0.6V31h0.6v-1.1h0.6V31h0.7V31.5z"/>
			<path class="st3" d="M248.5,34.8h-0.6v-5.2h0.6V34.8z"/>
			<path class="st3" d="M251.1,34.9c-1.1,0-1.8-0.7-1.8-1.9c0-1.2,0.7-2,1.7-2c1.2,0,1.7,1,1.7,2.1v0.1h-2.8l0,0
				c0,0.8,0.4,1.3,1.2,1.3c0.5,0,0.8-0.2,1-0.8h0.6C252.5,34.4,251.9,34.9,251.1,34.9z M251,31.4c-0.6,0-1,0.4-1.1,1.1h2.2
				C252,31.8,251.6,31.4,251,31.4z"/>
		</g>
		<g class="st2">
			<path class="st3" d="M254.3,31.8h-0.8V31h0.8V31.8z M254.3,34.8h-0.8V34h0.8V34.8z"/>
		</g>
		<g class="st2">
			<path class="st3" d="M260.2,31.1c-0.1-0.7-0.5-1.1-1.3-1.1c-0.7,0-1.2,0.3-1.2,0.9c0,0.6,0.6,0.7,1.4,0.9
				c0.8,0.2,1.9,0.4,1.9,1.5c0,1.1-1,1.6-2,1.6c-1.2,0-2.1-0.6-2.1-1.8h0.7c0,0.9,0.7,1.3,1.5,1.3c0.6,0,1.3-0.2,1.3-0.9
				c0-0.7-0.7-0.8-1.5-1c-0.8-0.2-1.8-0.3-1.8-1.4c0-1.1,0.9-1.5,1.9-1.5c1.1,0,1.8,0.5,1.9,1.6H260.2z"/>
			<path class="st3" d="M263.3,31.5h-0.7v2.2c0,0.3,0,0.6,0.4,0.6c0.1,0,0.2,0,0.3,0v0.5c-0.2,0-0.3,0-0.5,0c-0.9,0-0.9-0.5-0.9-1.3
				v-2h-0.6V31h0.6v-1.1h0.6V31h0.7V31.5z"/>
		</g>
		<g class="st2">
			<path class="st3" d="M266,31.6c-0.1,0-0.1,0-0.2,0c-1,0-1.2,0.8-1.2,1.6v1.6H264V31h0.6v0.8c0.3-0.6,0.7-0.9,1.4-0.9V31.6z"/>
		</g>
		<g class="st2">
			<path class="st3" d="M267.2,30.4h-0.6v-0.8h0.6V30.4z M267.2,34.8h-0.6V31h0.6V34.8z"/>
			<path class="st3" d="M268.7,31.6c0.3-0.5,0.7-0.7,1.3-0.7c0.9,0,1.2,0.5,1.2,1.4v2.5h-0.6v-2.2c0-0.6,0-1.1-0.8-1.1
				c-0.8,0-1.1,0.6-1.1,1.3v2h-0.6V31h0.6V31.6z"/>
			<path class="st3" d="M275.4,34.4c0,0.6-0.1,0.9-0.2,1.2c-0.3,0.4-0.8,0.7-1.5,0.7c-0.8,0-1.5-0.3-1.6-1.1h0.6
				c0.1,0.4,0.4,0.6,1,0.6c0.8,0,1.1-0.4,1.1-1.2l0-0.5c-0.2,0.5-0.6,0.7-1.2,0.7c-1,0-1.6-0.7-1.6-1.9c0-1,0.6-2,1.7-2
				c0.5,0,0.9,0.2,1.2,0.6V31h0.6V34.4z M272.6,32.9c0,0.8,0.4,1.4,1.1,1.4c0.7,0,1.1-0.6,1.1-1.5c0-0.8-0.4-1.4-1.1-1.4
				C273,31.5,272.6,32,272.6,32.9z"/>
		</g>
		<rect x="237.4" y="5.5" class="st4" width="71.6" height="18"/>
		<g class="st2">
			<path class="st3" d="M267.1,16.8h-1.2l-0.4-1.2h-1.9l-0.4,1.2H262l2-5.2h1.2L267.1,16.8z M264.5,12.9l-0.7,1.9h1.4L264.5,12.9z"
				/>
			<path class="st3" d="M268.5,16.8h-1v-5.2h1V16.8z"/>
		</g>
		<g class="st2">
			<path class="st3" d="M270.3,13.5c0.3-0.4,0.7-0.5,1.2-0.5c1,0,1.6,0.9,1.6,1.9c0,1.2-0.7,2-1.7,2c-0.5,0-0.9-0.2-1.2-0.6l0,0.5
				h-1v-5.2h1V13.5z M270.3,14.9c0,0.7,0.3,1.2,0.9,1.2c0.5,0,0.9-0.5,0.9-1.2c0-0.7-0.3-1.1-0.9-1.1
				C270.6,13.7,270.3,14.2,270.3,14.9z"/>
		</g>
		<g class="st2">
			<path class="st3" d="M277.1,16.8h-1v-0.5c-0.3,0.4-0.7,0.6-1.2,0.6c-0.8,0-1.3-0.4-1.3-1.3V13h1v2.1c0,0.5,0,0.8,0.6,0.8
				c0.6,0,0.8-0.5,0.8-1.1V13h1V16.8z"/>
			<path class="st3" d="M282.6,16.8v-2.2c0-0.4-0.1-0.8-0.6-0.8c-0.5,0-0.7,0.4-0.7,0.9v2.1h-1v-2.3c0-0.4-0.1-0.7-0.6-0.7
				c-0.6,0-0.7,0.5-0.7,1v2h-1V13h1v0.5c0.3-0.4,0.7-0.6,1.2-0.6c0.5,0,0.9,0.2,1.1,0.6c0.3-0.4,0.7-0.6,1.2-0.6
				c0.8,0,1.3,0.5,1.3,1.3v2.5H282.6z"/>
		</g>
		<polyline class="st4" points="309,121.9 309,103.9 237.4,103.9 237.4,121.9 309,121.9 		"/>
		<g class="st2">
			<path class="st3" d="M242.3,112.1c0.3-0.5,0.7-0.7,1.3-0.7c0.9,0,1.2,0.5,1.2,1.4v2.5h-0.6V113c0-0.6,0-1.1-0.8-1.1
				c-0.8,0-1.1,0.6-1.1,1.3v2h-0.6v-3.7h0.6V112.1z"/>
			<path class="st3" d="M249,115.2c-0.1,0.1-0.3,0.1-0.4,0.1c-0.3,0-0.5-0.2-0.5-0.6c-0.4,0.4-0.8,0.6-1.4,0.6
				c-0.7,0-1.2-0.4-1.2-1.1c0-0.7,0.4-1.1,1.3-1.2c0.9-0.1,1.2-0.1,1.2-0.6c0-0.4-0.3-0.6-0.8-0.6c-0.6,0-0.9,0.2-0.9,0.8h-0.6
				c0-0.8,0.6-1.3,1.6-1.3c0.5,0,0.9,0.1,1.2,0.4c0.3,0.3,0.3,0.6,0.3,1c0,0.6,0,1.1,0,1.7c0,0.3,0.1,0.4,0.3,0.4c0.1,0,0.1,0,0.2,0
				V115.2z M247.2,113.5c-0.4,0.1-1.1,0.1-1.1,0.7c0,0.4,0.3,0.6,0.7,0.6c0.6,0,1.1-0.4,1.1-0.9v-0.7
				C247.8,113.5,247.5,113.5,247.2,113.5z"/>
			<path class="st3" d="M250.2,112c0.3-0.4,0.7-0.6,1.2-0.6c0.5,0,0.8,0.2,1,0.6c0.3-0.4,0.7-0.7,1.2-0.7c0.8,0,1.2,0.5,1.2,1.2v2.6
				h-0.6v-2.4c0-0.5-0.1-0.9-0.7-0.9c-0.7,0-1,0.5-1,1.2v2.1h-0.6v-2.4c0-0.5-0.1-0.9-0.7-0.9c-0.8,0-1,0.6-1,1.3v2h-0.6v-3.7h0.6
				V112z"/>
			<path class="st3" d="M257.4,115.4c-1.1,0-1.8-0.7-1.8-1.9c0-1.2,0.7-2,1.7-2c1.2,0,1.7,1,1.7,2.1v0.1h-2.8l0,0
				c0,0.8,0.4,1.3,1.2,1.3c0.5,0,0.8-0.2,1-0.8h0.6C258.8,114.9,258.3,115.4,257.4,115.4z M257.3,111.9c-0.6,0-1,0.4-1.1,1.1h2.2
				C258.4,112.3,258,111.9,257.3,111.9z"/>
			<path class="st3" d="M260.6,112.3h-0.8v-0.8h0.8V112.3z M260.6,115.2h-0.8v-0.8h0.8V115.2z"/>
			<path class="st3" d="M266.8,111.6c-0.1-0.7-0.5-1.1-1.3-1.1c-0.7,0-1.2,0.3-1.2,0.9c0,0.6,0.6,0.7,1.4,0.9
				c0.8,0.2,1.9,0.4,1.9,1.5c0,1.1-1,1.6-2,1.6c-1.2,0-2.1-0.6-2.1-1.8h0.7c0,0.9,0.7,1.3,1.5,1.3c0.6,0,1.3-0.2,1.3-0.9
				c0-0.7-0.7-0.8-1.5-1c-0.8-0.2-1.8-0.3-1.8-1.4c0-1.1,0.9-1.5,1.9-1.5c1.1,0,1.8,0.5,1.9,1.6H266.8z"/>
			<path class="st3" d="M270,112h-0.7v2.2c0,0.3,0,0.6,0.4,0.6c0.1,0,0.2,0,0.3,0v0.5c-0.2,0-0.3,0-0.5,0c-0.9,0-0.9-0.5-0.9-1.3v-2
				H268v-0.5h0.6v-1.1h0.6v1.1h0.7V112z"/>
			<path class="st3" d="M272.7,112.1c-0.1,0-0.1,0-0.2,0c-1,0-1.2,0.8-1.2,1.6v1.6h-0.6v-3.7h0.6v0.8c0.3-0.6,0.7-0.9,1.4-0.9V112.1
				z"/>
			<path class="st3" d="M273.8,110.8h-0.6v-0.8h0.6V110.8z M273.8,115.2h-0.6v-3.7h0.6V115.2z"/>
			<path class="st3" d="M275.3,112.1c0.3-0.5,0.7-0.7,1.3-0.7c0.9,0,1.2,0.5,1.2,1.4v2.5h-0.6V113c0-0.6,0-1.1-0.8-1.1
				c-0.8,0-1.1,0.6-1.1,1.3v2h-0.6v-3.7h0.6V112.1z"/>
			<path class="st3" d="M282,114.8c0,0.6-0.1,0.9-0.2,1.2c-0.3,0.4-0.8,0.7-1.5,0.7c-0.8,0-1.5-0.3-1.6-1.1h0.6
				c0.1,0.4,0.4,0.6,1,0.6c0.8,0,1.1-0.4,1.1-1.2l0-0.5c-0.2,0.5-0.6,0.7-1.2,0.7c-1,0-1.6-0.7-1.6-1.9c0-1,0.6-2,1.7-2
				c0.5,0,0.9,0.2,1.2,0.6v-0.5h0.6V114.8z M279.2,113.4c0,0.8,0.4,1.4,1.1,1.4c0.7,0,1.1-0.6,1.1-1.5c0-0.8-0.4-1.4-1.1-1.4
				C279.6,111.9,279.2,112.5,279.2,113.4z"/>
		</g>
		<rect x="237.4" y="85.9" class="st4" width="71.6" height="18"/>
		<g class="st2">
			<path class="st3" d="M268.5,97.6h-1.2l-0.4-1.2H265l-0.4,1.2h-1.2l2-5.2h1.2L268.5,97.6z M265.9,93.7l-0.7,1.9h1.4L265.9,93.7z"
				/>
		</g>
		<g class="st2">
			<path class="st3" d="M271.3,94.7c-0.2,0-0.3,0-0.4,0c-0.7,0-1,0.5-1,1.2v1.7h-1v-3.7h1v0.7c0.2-0.5,0.7-0.8,1.2-0.8
				c0.1,0,0.1,0,0.2,0V94.7z"/>
		</g>
		<g class="st2">
			<path class="st3" d="M273.8,94.5h-0.8v1.8c0,0.4,0,0.5,0.4,0.5c0.1,0,0.2,0,0.3,0v0.8c-0.3,0-0.4,0-0.6,0c-0.9,0-1.2-0.2-1.2-1.1
				v-1.9h-0.6v-0.7h0.6v-1.1h1v1.1h0.8V94.5z"/>
			<path class="st3" d="M275.4,93.3h-1v-0.9h1V93.3z M275.4,97.6h-1v-3.7h1V97.6z"/>
			<path class="st3" d="M278.4,94.9c-0.1-0.4-0.3-0.5-0.7-0.5c-0.4,0-0.6,0.1-0.6,0.4c0,0.3,0.3,0.4,0.9,0.5
				c0.7,0.1,1.5,0.3,1.5,1.2c0,0.8-0.6,1.3-1.7,1.3c-0.9,0-1.7-0.4-1.8-1.3h1c0,0.4,0.3,0.6,0.8,0.6c0.4,0,0.7-0.2,0.7-0.5
				c0-0.3-0.3-0.4-0.8-0.5c-0.7-0.2-1.5-0.3-1.5-1.1c0-0.7,0.6-1.1,1.6-1.1c0.9,0,1.6,0.3,1.6,1.2H278.4z"/>
			<path class="st3" d="M282.2,94.5h-0.8v1.8c0,0.4,0,0.5,0.4,0.5c0.1,0,0.2,0,0.3,0v0.8c-0.3,0-0.4,0-0.6,0c-0.9,0-1.2-0.2-1.2-1.1
				v-1.9h-0.6v-0.7h0.6v-1.1h1v1.1h0.8V94.5z"/>
		</g>
		<path class="st4" d="M270.5,77.8l2.5,8.1l2.8-8.1 M273,41.5v44.5"/>
		<g class="st2">
			<path class="st3" d="M265,80.7h-1v-5.8h-2v-0.7c1.2,0,2-0.3,2.3-1.5h0.8V80.7z"/>
		</g>
		<line class="st5" x1="185.4" y1="35.9" x2="237" y2="23.7"/>
		<polyline class="st4" points="229.6,28.1 236.9,23.8 228.3,22.9 		"/>
		<line class="st5" x1="185.1" y1="54.8" x2="237.4" y2="104"/>
		<polyline class="st4" points="228.7,99.2 236.6,103 232.8,95.4 		"/>
		<line class="st5" x1="113.3" y1="41.5" x2="72.6" y2="41.5"/>
		<polyline class="st4" points="81.2,38.7 72.7,41.5 81.2,44.3 		"/>
		<g class="st2">
			<path class="st3" d="M264,51.5c0-0.4-0.1-0.8-0.2-1.1c-0.2-0.5-0.3-0.9-0.3-1.1c0-0.3,0.1-0.5,0.2-0.7c0.1-0.1,0.3-0.2,0.5-0.2
				c0.2,0,0.3,0.1,0.4,0.2c0.1,0.2,0.2,0.4,0.2,0.6c0,0.2-0.1,0.6-0.2,1c-0.1,0.4-0.2,0.9-0.3,1.2c0.3-0.2,0.6-0.4,0.8-0.7
				c0.4-0.4,0.7-0.7,0.8-0.8c0.2-0.1,0.4-0.2,0.6-0.2c0.2,0,0.3,0.1,0.5,0.2c0.1,0.1,0.2,0.3,0.2,0.4c0,0.2-0.1,0.4-0.3,0.5
				s-0.6,0.3-1.4,0.5c-0.4,0.1-0.8,0.2-1.1,0.3c0.3,0.2,0.6,0.3,1.1,0.3c0.7,0.1,1.1,0.3,1.3,0.5c0.2,0.2,0.3,0.4,0.3,0.6
				c0,0.2-0.1,0.3-0.2,0.4c-0.1,0.1-0.3,0.2-0.4,0.2s-0.4-0.1-0.6-0.2c-0.2-0.1-0.5-0.4-0.8-0.8c-0.2-0.3-0.5-0.5-0.8-0.8
				c0,0.3,0.1,0.7,0.2,1c0.2,0.7,0.3,1.1,0.3,1.3c0,0.2-0.1,0.4-0.2,0.6s-0.3,0.2-0.4,0.2c-0.2,0-0.4-0.1-0.6-0.2
				c-0.1-0.1-0.2-0.3-0.2-0.6c0-0.3,0.1-0.6,0.2-1c0.1-0.4,0.2-0.6,0.2-0.8c0-0.1,0.1-0.4,0.1-0.6c-0.3,0.2-0.6,0.5-0.9,0.7
				c-0.4,0.5-0.7,0.7-0.9,0.9c-0.1,0.1-0.3,0.1-0.4,0.1c-0.2,0-0.3-0.1-0.5-0.2s-0.2-0.3-0.2-0.4c0-0.1,0.1-0.3,0.2-0.4
				c0.1-0.2,0.3-0.3,0.5-0.4c0.1-0.1,0.5-0.2,1-0.3c0.3-0.1,0.7-0.2,1-0.3c-0.3-0.1-0.7-0.3-1.1-0.3c-0.7-0.1-1.1-0.3-1.3-0.4
				c-0.2-0.2-0.4-0.4-0.4-0.7c0-0.1,0.1-0.3,0.2-0.4c0.1-0.1,0.3-0.2,0.4-0.2c0.2,0,0.4,0.1,0.6,0.2c0.2,0.1,0.5,0.4,0.8,0.7
				C263.4,51,263.7,51.3,264,51.5z"/>
		</g>
	</g>
</g>
</svg>
