<?xml version="1.0" encoding="utf-8"?>
<!-- Generator: Adobe Illustrator 21.0.0, SVG Export Plug-In . SVG Version: 6.00 Build 0)  -->
<svg version="1.1" xmlns="http://www.w3.org/2000/svg" xmlns:xlink="http://www.w3.org/1999/xlink" x="0px" y="0px"
	 viewBox="0 0 24 24" style="enable-background:new 0 0 24 24;" xml:space="preserve">
<style type="text/css">
	.st0{fill:#79CAC1;}
</style>
<g>
</g>
<g id="Layer_2">
</g>
<g id="Layer_3">
</g>
<g id="Layer_4">
	<path class="st0" d="M15.127,0.687l-1.836,1.074h-1.836c1.346,0.843,2.026,2.488,2.026,4.011c0,3.603-3.046,3.875-3.046,5.67
		c0,1.754,4.079,2.448,4.079,6.255c0,1.564-0.748,2.828-1.904,3.834c-1.564,1.346-3.698,1.781-5.711,1.781
		c-2.543,0-6.214-1.088-6.214-4.242c0-0.639,0.218-1.265,0.503-1.836c1.21-2.448,4.99-3.073,7.424-3.141
		c-0.449-0.585-0.87-1.265-0.87-2.026c0-0.449,0.163-0.748,0.299-1.169c-0.326,0.041-0.639,0.068-0.952,0.068
		c-2.638,0-4.922-1.944-4.922-4.677c0-2.584,1.999-4.786,4.474-5.33c0.829-0.177,1.686-0.272,2.543-0.272H15.127z M9.43,14.937
		C9.199,14.91,8.981,14.91,8.75,14.91c-2.23,0-5.548,0.707-5.548,3.535c0,2.611,2.937,3.617,5.113,3.617
		c2.026,0,4.283-0.816,4.283-3.195C12.598,16.963,10.817,15.902,9.43,14.937z M7.336,1.666c-1.781,0-2.652,1.577-2.652,3.182
		c0,2.067,1.36,5.303,3.78,5.303c1.863,0,2.502-1.346,2.502-3.005C10.967,5.079,9.852,1.666,7.336,1.666z M23.313,5.908h-3.481
		v3.481h-1.74V5.908h-3.481v-1.74h3.481V0.687h1.74v3.481h3.481V5.908z"/>
</g>
</svg>
