<?xml version="1.0" encoding="utf-8"?>
<!-- Generator: Adobe Illustrator 21.0.0, SVG Export Plug-In . SVG Version: 6.00 Build 0)  -->
<svg version="1.1" xmlns="http://www.w3.org/2000/svg" xmlns:xlink="http://www.w3.org/1999/xlink" x="0px" y="0px"
	 viewBox="0 0 24 24" style="enable-background:new 0 0 24 24;" xml:space="preserve">
<style type="text/css">
	.st0{fill:#79CAC1;}
</style>
<g>
</g>
<g id="Layer_2">
</g>
<g id="Layer_3">
	<path class="st0" d="M4.668,7.078H4.643c-1.394,0-2.285-0.954-2.285-2.147c0-1.218,0.929-2.147,2.335-2.147
		c1.419,0,2.298,0.929,2.31,2.147C7.016,6.124,6.112,7.078,4.668,7.078z M6.739,21.216H2.596V8.773h4.143V21.216z M21.642,21.216
		h-4.131v-6.654c0-1.67-0.603-2.812-2.097-2.812c-1.143,0-1.821,0.766-2.122,1.507c-0.1,0.276-0.138,0.64-0.138,1.017v6.943H9.024
		c0.05-11.275,0-12.442,0-12.442h4.131v1.808H13.13c0.54-0.854,1.519-2.097,3.754-2.097c2.724,0,4.758,1.783,4.758,5.6V21.216z"/>
</g>
<g id="Layer_4">
</g>
</svg>
