<?xml version="1.0" encoding="utf-8"?>
<!-- Generator: Adobe Illustrator 21.0.0, SVG Export Plug-In . SVG Version: 6.00 Build 0)  -->
<svg version="1.1" xmlns="http://www.w3.org/2000/svg" xmlns:xlink="http://www.w3.org/1999/xlink" x="0px" y="0px"
	 viewBox="0 0 24 24" style="enable-background:new 0 0 24 24;" xml:space="preserve">
<style type="text/css">
	.st0{fill:#79CAC1;}
</style>
<g>
</g>
<g id="Layer_2">
	<path class="st0" d="M20.646,7.567c0.014,0.193,0.014,0.387,0.014,0.58c0,5.897-4.488,12.692-12.692,12.692
		c-2.527,0-4.875-0.732-6.85-2.003c0.359,0.041,0.704,0.055,1.077,0.055c2.085,0,4.005-0.704,5.538-1.906
		c-1.961-0.041-3.605-1.326-4.171-3.094c0.276,0.041,0.552,0.069,0.843,0.069c0.4,0,0.801-0.055,1.174-0.152
		c-2.044-0.414-3.577-2.21-3.577-4.378c0-0.014,0-0.041,0-0.055c0.594,0.331,1.284,0.539,2.016,0.566
		C2.816,9.141,2.029,7.774,2.029,6.227c0-0.829,0.221-1.588,0.608-2.251c2.196,2.707,5.497,4.475,9.198,4.668
		c-0.069-0.331-0.11-0.677-0.11-1.022c0-2.458,1.989-4.461,4.461-4.461c1.284,0,2.445,0.539,3.259,1.409
		c1.008-0.193,1.975-0.566,2.831-1.077c-0.331,1.036-1.036,1.906-1.961,2.458c0.898-0.097,1.768-0.345,2.569-0.691
		C22.275,6.144,21.516,6.931,20.646,7.567z"/>
</g>
<g id="Layer_3">
</g>
<g id="Layer_4">
</g>
</svg>
