<?xml version="1.0" encoding="utf-8"?>
<!-- Generator: Adobe Illustrator 21.0.0, SVG Export Plug-In . SVG Version: 6.00 Build 0)  -->
<svg version="1.1" id="Layer_1" xmlns="http://www.w3.org/2000/svg" xmlns:xlink="http://www.w3.org/1999/xlink" x="0px" y="0px"
	 viewBox="0 0 271 91" style="enable-background:new 0 0 271 91;" xml:space="preserve">
<style type="text/css">
	.st0{fill:#FFFFFF;}
	.st1{fill:none;stroke:#231F20;stroke-width:0.5;stroke-linejoin:round;}
	.st2{enable-background:new    ;}
	.st3{fill:#231F20;}
	.st4{fill:none;stroke:#231F20;stroke-width:0.5;stroke-linecap:round;stroke-linejoin:round;stroke-dasharray:4,2;}
	.st5{fill:none;stroke:#231F20;stroke-width:0.5;stroke-linecap:round;stroke-linejoin:round;}
</style>
<title>img1</title>
<g id="Layer_2">
	<g id="Layer_1-2">
		<rect class="st0" width="271" height="91"/>
		<polyline class="st1" points="1.1,90.6 99.9,90.6 99.9,32.3 1.1,32.3 1.1,90.6 		"/>
		<g class="st2">
			<path class="st3" d="M8.6,43.2c0,0.6-0.1,0.9-0.2,1.2c-0.3,0.4-0.8,0.7-1.5,0.7c-0.8,0-1.5-0.3-1.6-1.1H6c0.1,0.4,0.4,0.6,1,0.6
				c0.8,0,1.1-0.4,1.1-1.2l0-0.5c-0.2,0.5-0.6,0.7-1.2,0.7c-1,0-1.6-0.7-1.6-1.9c0-1,0.6-2,1.7-2c0.5,0,0.9,0.2,1.2,0.6v-0.5h0.6
				V43.2z M5.9,41.8c0,0.8,0.4,1.4,1.1,1.4c0.7,0,1.1-0.6,1.1-1.5c0-0.8-0.4-1.4-1.1-1.4C6.3,40.3,5.9,40.9,5.9,41.8z"/>
			<path class="st3" d="M11.1,43.8c-1.1,0-1.8-0.7-1.8-1.9c0-1.2,0.7-2,1.7-2c1.2,0,1.7,1,1.7,2.1v0.1H10l0,0c0,0.8,0.4,1.3,1.2,1.3
				c0.5,0,0.8-0.2,1-0.8h0.6C12.6,43.3,12,43.8,11.1,43.8z M11.1,40.3c-0.6,0-1,0.4-1.1,1.1h2.2C12.1,40.7,11.7,40.3,11.1,40.3z"/>
			<path class="st3" d="M15.1,40.4h-0.7v2.2c0,0.3,0,0.6,0.4,0.6c0.1,0,0.2,0,0.3,0v0.5c-0.2,0-0.3,0-0.5,0c-0.9,0-0.9-0.5-0.9-1.3
				v-2h-0.6v-0.5h0.6v-1.1h0.6v1.1h0.7V40.4z"/>
			<path class="st3" d="M20,43.6h-0.8l-0.6-1.6h-2.2l-0.6,1.6h-0.7l2-5.2H18L20,43.6z M17.6,39.1l-0.9,2.4h1.8L17.6,39.1z"/>
			<path class="st3" d="M23.8,43.6h-0.6v-0.6c-0.2,0.4-0.7,0.7-1.2,0.7c-1.1,0-1.7-0.8-1.7-2c0-1.1,0.6-2,1.7-2
				c0.5,0,0.9,0.2,1.2,0.6v-1.9h0.6V43.6z M20.9,41.8c0,0.9,0.4,1.5,1.2,1.5c0.7,0,1.1-0.6,1.1-1.5c0-0.7-0.3-1.4-1.2-1.4
				C21.3,40.3,20.9,40.9,20.9,41.8z"/>
			<path class="st3" d="M28.1,43.6h-0.6v-0.6c-0.2,0.4-0.7,0.7-1.2,0.7c-1.1,0-1.7-0.8-1.7-2c0-1.1,0.6-2,1.7-2
				c0.5,0,0.9,0.2,1.2,0.6v-1.9h0.6V43.6z M25.2,41.8c0,0.9,0.4,1.5,1.2,1.5c0.7,0,1.1-0.6,1.1-1.5c0-0.7-0.3-1.4-1.2-1.4
				C25.6,40.3,25.2,40.9,25.2,41.8z"/>
			<path class="st3" d="M31,40.5c-0.1,0-0.1,0-0.2,0c-1,0-1.2,0.8-1.2,1.6v1.6H29v-3.7h0.6v0.8c0.3-0.6,0.7-0.9,1.4-0.9V40.5z"/>
			<path class="st3" d="M32.9,43.8c-1.1,0-1.8-0.7-1.8-1.9c0-1.2,0.7-2,1.7-2c1.2,0,1.7,1,1.7,2.1v0.1h-2.8l0,0
				c0,0.8,0.4,1.3,1.2,1.3c0.5,0,0.8-0.2,1-0.8h0.6C34.3,43.3,33.8,43.8,32.9,43.8z M32.9,40.3c-0.6,0-1,0.4-1.1,1.1h2.2
				C33.9,40.7,33.5,40.3,32.9,40.3z"/>
			<path class="st3" d="M37.4,41c0-0.5-0.4-0.7-0.9-0.7c-0.5,0-0.8,0.2-0.8,0.5c0,0.4,0.5,0.5,1,0.6c0.6,0.1,1.4,0.3,1.4,1.1
				c0,0.7-0.6,1.2-1.6,1.2c-1,0-1.6-0.5-1.6-1.3h0.6c0,0.6,0.4,0.8,1,0.8c0.6,0,0.9-0.2,0.9-0.6c0-0.4-0.4-0.5-0.9-0.6
				c-0.6-0.2-1.5-0.2-1.5-1.1c0-0.7,0.6-1.1,1.4-1.1c0.8,0,1.5,0.4,1.5,1.2H37.4z"/>
			<path class="st3" d="M41,41c0-0.5-0.4-0.7-0.9-0.7c-0.5,0-0.8,0.2-0.8,0.5c0,0.4,0.5,0.5,1,0.6c0.6,0.1,1.4,0.3,1.4,1.1
				c0,0.7-0.6,1.2-1.6,1.2c-1,0-1.6-0.5-1.6-1.3h0.6c0,0.6,0.4,0.8,1,0.8c0.6,0,0.9-0.2,0.9-0.6c0-0.4-0.4-0.5-0.9-0.6
				c-0.6-0.2-1.5-0.2-1.5-1.1c0-0.7,0.6-1.1,1.4-1.1c0.8,0,1.5,0.4,1.5,1.2H41z"/>
			<path class="st3" d="M44.3,38.5c1.7,0,2.6,0.8,2.6,2.5c0,1.7-0.7,2.6-2.4,2.6h-1.8v-5.2H44.3z M43.3,43.1h1c1.3,0,1.8-0.6,1.8-2
				c0-1.4-0.5-2-1.9-2h-1V43.1z"/>
			<path class="st3" d="M50.9,43.6c-0.1,0.1-0.3,0.1-0.4,0.1c-0.3,0-0.5-0.2-0.5-0.6c-0.4,0.4-0.8,0.6-1.4,0.6
				c-0.7,0-1.2-0.4-1.2-1.1c0-0.7,0.4-1.1,1.3-1.2c0.9-0.1,1.2-0.1,1.2-0.6c0-0.4-0.3-0.6-0.8-0.6c-0.6,0-0.9,0.2-0.9,0.8h-0.6
				c0-0.8,0.6-1.3,1.6-1.3c0.5,0,0.9,0.1,1.2,0.4c0.3,0.3,0.3,0.6,0.3,1c0,0.6,0,1.1,0,1.7c0,0.3,0.1,0.4,0.3,0.4c0.1,0,0.1,0,0.2,0
				V43.6z M49.1,41.9C48.6,42,48,42,48,42.6c0,0.4,0.3,0.6,0.7,0.6c0.6,0,1.1-0.4,1.1-0.9v-0.7C49.7,41.9,49.3,41.9,49.1,41.9z"/>
			<path class="st3" d="M53.1,40.4h-0.7v2.2c0,0.3,0,0.6,0.4,0.6c0.1,0,0.2,0,0.3,0v0.5c-0.2,0-0.3,0-0.5,0c-0.9,0-0.9-0.5-0.9-1.3
				v-2h-0.6v-0.5h0.6v-1.1h0.6v1.1h0.7V40.4z"/>
			<path class="st3" d="M57.1,43.6c-0.1,0.1-0.3,0.1-0.4,0.1c-0.3,0-0.5-0.2-0.5-0.6c-0.4,0.4-0.8,0.6-1.4,0.6
				c-0.7,0-1.2-0.4-1.2-1.1c0-0.7,0.4-1.1,1.3-1.2c0.9-0.1,1.2-0.1,1.2-0.6c0-0.4-0.3-0.6-0.8-0.6c-0.6,0-0.9,0.2-0.9,0.8h-0.6
				c0-0.8,0.6-1.3,1.6-1.3c0.5,0,0.9,0.1,1.2,0.4c0.3,0.3,0.3,0.6,0.3,1c0,0.6,0,1.1,0,1.7c0,0.3,0.1,0.4,0.3,0.4c0.1,0,0.1,0,0.2,0
				V43.6z M55.2,41.9c-0.4,0.1-1.1,0.1-1.1,0.7c0,0.4,0.3,0.6,0.7,0.6c0.6,0,1.1-0.4,1.1-0.9v-0.7C55.8,41.9,55.5,41.9,55.2,41.9z"
				/>
		</g>
		<g class="st2">
			<path class="st3" d="M7.6,50.2c0-0.5-0.4-0.7-0.9-0.7c-0.5,0-0.8,0.2-0.8,0.5c0,0.4,0.5,0.5,1,0.6c0.6,0.1,1.4,0.3,1.4,1.1
				c0,0.7-0.6,1.2-1.6,1.2c-1,0-1.6-0.5-1.6-1.3h0.6c0,0.6,0.4,0.8,1,0.8c0.6,0,0.9-0.2,0.9-0.6c0-0.4-0.4-0.5-0.9-0.6
				c-0.6-0.2-1.5-0.2-1.5-1.1c0-0.7,0.6-1.1,1.4-1.1c0.8,0,1.5,0.4,1.5,1.2H7.6z"/>
			<path class="st3" d="M10.6,52.9c-1.1,0-1.8-0.7-1.8-1.9c0-1.2,0.7-2,1.7-2c1.2,0,1.7,1,1.7,2.1v0.1H9.5l0,0
				c0,0.8,0.4,1.3,1.2,1.3c0.5,0,0.8-0.2,1-0.8h0.6C12,52.5,11.5,52.9,10.6,52.9z M10.6,49.5c-0.6,0-1,0.4-1.1,1.1h2.2
				C11.6,49.9,11.2,49.5,10.6,49.5z"/>
			<path class="st3" d="M14.5,49.6h-0.7v2.2c0,0.3,0,0.6,0.4,0.6c0.1,0,0.2,0,0.3,0v0.5c-0.2,0-0.3,0-0.5,0c-0.9,0-0.9-0.5-0.9-1.3
				v-2h-0.6v-0.5h0.6V48h0.6v1.1h0.7V49.6z"/>
			<path class="st3" d="M19.5,52.8h-0.8l-0.6-1.6H16l-0.6,1.6h-0.7l2-5.2h0.8L19.5,52.8z M17.1,48.3l-0.9,2.4H18L17.1,48.3z"/>
			<path class="st3" d="M23.3,52.8h-0.6v-0.6c-0.2,0.4-0.7,0.7-1.2,0.7c-1.1,0-1.7-0.8-1.7-2c0-1.1,0.6-2,1.7-2
				c0.5,0,0.9,0.2,1.2,0.6v-1.9h0.6V52.8z M20.4,50.9c0,0.9,0.4,1.5,1.2,1.5c0.7,0,1.1-0.6,1.1-1.5c0-0.7-0.3-1.4-1.2-1.4
				C20.8,49.5,20.4,50.1,20.4,50.9z"/>
			<path class="st3" d="M27.6,52.8H27v-0.6c-0.2,0.4-0.7,0.7-1.2,0.7c-1.1,0-1.7-0.8-1.7-2c0-1.1,0.6-2,1.7-2c0.5,0,0.9,0.2,1.2,0.6
				v-1.9h0.6V52.8z M24.7,50.9c0,0.9,0.4,1.5,1.2,1.5c0.7,0,1.1-0.6,1.1-1.5c0-0.7-0.3-1.4-1.2-1.4C25.1,49.5,24.7,50.1,24.7,50.9z"
				/>
			<path class="st3" d="M30.5,49.6c-0.1,0-0.1,0-0.2,0c-1,0-1.2,0.8-1.2,1.6v1.6h-0.6v-3.7h0.6v0.8c0.3-0.6,0.7-0.9,1.4-0.9V49.6z"
				/>
			<path class="st3" d="M32.4,52.9c-1.1,0-1.8-0.7-1.8-1.9c0-1.2,0.7-2,1.7-2c1.2,0,1.7,1,1.7,2.1v0.1h-2.8l0,0
				c0,0.8,0.4,1.3,1.2,1.3c0.5,0,0.8-0.2,1-0.8H34C33.8,52.5,33.2,52.9,32.4,52.9z M32.3,49.5c-0.6,0-1,0.4-1.1,1.1h2.2
				C33.3,49.9,32.9,49.5,32.3,49.5z"/>
			<path class="st3" d="M36.8,50.2c0-0.5-0.4-0.7-0.9-0.7c-0.5,0-0.8,0.2-0.8,0.5c0,0.4,0.5,0.5,1,0.6c0.6,0.1,1.4,0.3,1.4,1.1
				c0,0.7-0.6,1.2-1.6,1.2c-1,0-1.6-0.5-1.6-1.3h0.6c0,0.6,0.4,0.8,1,0.8c0.6,0,0.9-0.2,0.9-0.6c0-0.4-0.4-0.5-0.9-0.6
				c-0.6-0.2-1.5-0.2-1.5-1.1c0-0.7,0.6-1.1,1.4-1.1c0.8,0,1.5,0.4,1.5,1.2H36.8z"/>
			<path class="st3" d="M40.5,50.2c0-0.5-0.4-0.7-0.9-0.7c-0.5,0-0.8,0.2-0.8,0.5c0,0.4,0.5,0.5,1,0.6c0.6,0.1,1.4,0.3,1.4,1.1
				c0,0.7-0.6,1.2-1.6,1.2c-1,0-1.6-0.5-1.6-1.3h0.6c0,0.6,0.4,0.8,1,0.8c0.6,0,0.9-0.2,0.9-0.6c0-0.4-0.4-0.5-0.9-0.6
				c-0.6-0.2-1.5-0.2-1.5-1.1c0-0.7,0.6-1.1,1.4-1.1c0.8,0,1.5,0.4,1.5,1.2H40.5z"/>
			<path class="st3" d="M42.5,50.9c0,1.2,0.3,2.3,1,3.3h-0.5c-0.7-1.1-1.1-2-1.1-3.3c0-1.2,0.4-2.3,1.1-3.3h0.5
				C42.8,48.5,42.5,49.7,42.5,50.9z"/>
			<path class="st3" d="M46,50.2c0-0.5-0.4-0.7-0.9-0.7c-0.5,0-0.8,0.2-0.8,0.5c0,0.4,0.5,0.5,1,0.6c0.6,0.1,1.4,0.3,1.4,1.1
				c0,0.7-0.6,1.2-1.6,1.2c-1,0-1.6-0.5-1.6-1.3h0.6c0,0.6,0.4,0.8,1,0.8c0.6,0,0.9-0.2,0.9-0.6c0-0.4-0.4-0.5-0.9-0.6
				c-0.6-0.2-1.5-0.2-1.5-1.1c0-0.7,0.6-1.1,1.4-1.1c0.8,0,1.5,0.4,1.5,1.2H46z"/>
			<path class="st3" d="M49,49.6h-0.7v2.2c0,0.3,0,0.6,0.4,0.6c0.1,0,0.2,0,0.3,0v0.5c-0.2,0-0.3,0-0.5,0c-0.9,0-0.9-0.5-0.9-1.3v-2
				H47v-0.5h0.6V48h0.6v1.1H49V49.6z"/>
			<path class="st3" d="M51.7,49.6c-0.1,0-0.1,0-0.2,0c-1,0-1.2,0.8-1.2,1.6v1.6h-0.6v-3.7h0.6v0.8c0.3-0.6,0.7-0.9,1.4-0.9V49.6z"
				/>
			<path class="st3" d="M53.6,52.9c-1.1,0-1.8-0.7-1.8-1.9c0-1.2,0.7-2,1.7-2c1.2,0,1.7,1,1.7,2.1v0.1h-2.8l0,0
				c0,0.8,0.4,1.3,1.2,1.3c0.5,0,0.8-0.2,1-0.8h0.6C55,52.5,54.4,52.9,53.6,52.9z M53.5,49.5c-0.6,0-1,0.4-1.1,1.1h2.2
				C54.5,49.9,54.1,49.5,53.5,49.5z"/>
			<path class="st3" d="M57.5,52.9c-1.1,0-1.8-0.7-1.8-1.9c0-1.2,0.7-2,1.7-2c1.2,0,1.7,1,1.7,2.1v0.1h-2.8l0,0
				c0,0.8,0.4,1.3,1.2,1.3c0.5,0,0.8-0.2,1-0.8h0.6C58.9,52.5,58.3,52.9,57.5,52.9z M57.4,49.5c-0.6,0-1,0.4-1.1,1.1h2.2
				C58.4,49.9,58,49.5,57.4,49.5z"/>
			<path class="st3" d="M61.4,49.6h-0.7v2.2c0,0.3,0,0.6,0.4,0.6c0.1,0,0.2,0,0.3,0v0.5c-0.2,0-0.3,0-0.5,0c-0.9,0-0.9-0.5-0.9-1.3
				v-2h-0.6v-0.5H60V48h0.6v1.1h0.7V49.6z"/>
			<path class="st3" d="M63,52.5c0,0.6-0.1,1.2-0.8,1.4v-0.4c0.3-0.1,0.4-0.3,0.4-0.7h-0.4V52H63V52.5z"/>
			<path class="st3" d="M67.7,52.9c-1.2,0-1.8-0.8-1.8-1.9c0-1.2,0.7-2,1.8-2c0.9,0,1.5,0.5,1.6,1.3h-0.6c-0.1-0.5-0.4-0.8-0.9-0.8
				c-0.7,0-1.2,0.6-1.2,1.5c0,0.9,0.4,1.5,1.1,1.5c0.6,0,0.9-0.3,1-1h0.6C69.2,52.3,68.6,52.9,67.7,52.9z"/>
			<path class="st3" d="M70.6,48.4H70v-0.8h0.6V48.4z M70.6,52.8H70v-3.7h0.6V52.8z"/>
			<path class="st3" d="M73.2,49.6h-0.7v2.2c0,0.3,0,0.6,0.4,0.6c0.1,0,0.2,0,0.3,0v0.5c-0.2,0-0.3,0-0.5,0c-0.9,0-0.9-0.5-0.9-1.3
				v-2h-0.6v-0.5h0.6V48h0.6v1.1h0.7V49.6z"/>
			<path class="st3" d="M75.4,53.3c-0.2,0.5-0.4,1-1.1,1c-0.2,0-0.3,0-0.5-0.1v-0.6c0.2,0.1,0.3,0.1,0.4,0.1c0.2,0,0.4-0.1,0.4-0.3
				l0.3-0.7l-1.5-3.7h0.7l1.1,3l1.1-3H77L75.4,53.3z"/>
			<path class="st3" d="M77.9,52.5c0,0.6-0.1,1.2-0.8,1.4v-0.4c0.3-0.1,0.4-0.3,0.4-0.7h-0.4V52h0.8V52.5z"/>
			<path class="st3" d="M83.8,49.5l-2.3,2.8h2.4v0.5h-3.2v-0.5l2.2-2.8h-2.1v-0.5h2.9V49.5z"/>
			<path class="st3" d="M85.1,48.4h-0.6v-0.8h0.6V48.4z M85.1,52.8h-0.6v-3.7h0.6V52.8z"/>
			<path class="st3" d="M86.7,49.6c0.3-0.5,0.7-0.6,1.3-0.6c1,0,1.7,0.8,1.7,2c0,1.2-0.7,2-1.7,2c-0.6,0-0.9-0.2-1.3-0.6v2h-0.6
				v-5.2h0.6V49.6z M86.7,50.9c0,0.9,0.4,1.5,1.2,1.5c0.7,0,1.1-0.6,1.1-1.5c0-0.9-0.4-1.5-1.2-1.5C87.1,49.5,86.7,50,86.7,50.9z"/>
			<path class="st3" d="M90.3,54.2h-0.5c0.6-1,1-2.1,1-3.3c0-1.2-0.3-2.4-1-3.3h0.5c0.8,1,1.1,2.2,1.1,3.3
				C91.4,52.2,91,53.1,90.3,54.2z"/>
		</g>
		<polyline class="st1" points="1.1,32.3 99.9,32.3 99.9,27.8 1.1,27.8 1.1,32.3 		"/>
		<path class="st1" d="M1.1,0.9h98.8l0,0H1.1 M1.1,27.8h98.8V0.9H1.1V27.8"/>
		<g class="st2">
			<path class="st3" d="M27.2,16.8H26l-0.4-1.2h-1.9l-0.4,1.2h-1.2l2-5.2h1.2L27.2,16.8z M24.6,12.9l-0.7,1.9h1.4L24.6,12.9z"/>
			<path class="st3" d="M30.2,16.8v-0.5c-0.2,0.4-0.6,0.6-1.1,0.6c-1,0-1.7-0.8-1.7-2c0-1.2,0.6-2,1.6-2c0.4,0,0.9,0.2,1.1,0.6v-1.9
				h1v5.2H30.2z M29.2,13.8c-0.6,0-0.9,0.4-0.9,1.1c0,0.7,0.3,1.2,0.9,1.2c0.6,0,0.9-0.4,0.9-1.2C30.1,14.2,29.8,13.8,29.2,13.8z"/>
			<path class="st3" d="M34.6,16.8v-0.5c-0.2,0.4-0.6,0.6-1.1,0.6c-1,0-1.7-0.8-1.7-2c0-1.2,0.6-2,1.6-2c0.4,0,0.9,0.2,1.1,0.6v-1.9
				h1v5.2H34.6z M33.7,13.8c-0.6,0-0.9,0.4-0.9,1.1c0,0.7,0.3,1.2,0.9,1.2c0.6,0,0.9-0.4,0.9-1.2C34.6,14.2,34.2,13.8,33.7,13.8z"/>
			<path class="st3" d="M38.8,14c-0.2,0-0.3,0-0.4,0c-0.7,0-1,0.5-1,1.2v1.7h-1v-3.7h1v0.7c0.2-0.5,0.7-0.8,1.2-0.8
				c0.1,0,0.1,0,0.2,0V14z"/>
			<path class="st3" d="M40.8,16.9c-1.2,0-1.9-0.8-1.9-2c0-1.2,0.8-2,1.9-2c1.1,0,1.8,0.8,1.8,2.1v0.1h-2.7c0,0.6,0.3,1,0.9,1
				c0.4,0,0.6-0.2,0.8-0.5h1C42.3,16.5,41.6,16.9,40.8,16.9z M40.8,13.7c-0.5,0-0.8,0.3-0.8,0.8h1.6C41.5,14.1,41.3,13.7,40.8,13.7z
				"/>
			<path class="st3" d="M45.4,14.2c-0.1-0.4-0.3-0.5-0.7-0.5c-0.4,0-0.6,0.1-0.6,0.4c0,0.3,0.3,0.4,0.9,0.5c0.7,0.1,1.5,0.3,1.5,1.2
				c0,0.8-0.6,1.3-1.7,1.3c-0.9,0-1.7-0.4-1.8-1.3h1c0,0.4,0.3,0.6,0.8,0.6c0.4,0,0.7-0.2,0.7-0.5c0-0.3-0.3-0.4-0.8-0.5
				c-0.7-0.2-1.5-0.3-1.5-1.1c0-0.7,0.6-1.1,1.6-1.1c0.9,0,1.6,0.3,1.6,1.2H45.4z"/>
			<path class="st3" d="M49.3,14.2c-0.1-0.4-0.3-0.5-0.7-0.5c-0.4,0-0.6,0.1-0.6,0.4c0,0.3,0.3,0.4,0.9,0.5c0.7,0.1,1.5,0.3,1.5,1.2
				c0,0.8-0.6,1.3-1.7,1.3c-0.9,0-1.7-0.4-1.8-1.3h1c0,0.4,0.3,0.6,0.8,0.6c0.4,0,0.7-0.2,0.7-0.5c0-0.3-0.3-0.4-0.8-0.5
				C47.8,15.1,47,15,47,14.1c0-0.7,0.6-1.1,1.6-1.1c0.9,0,1.6,0.3,1.6,1.2H49.3z"/>
			<path class="st3" d="M56.7,12.6h-2.5v1.2h2.2v0.9h-2.2v2.1h-1.1v-5.2h3.6V12.6z"/>
			<path class="st3" d="M59.7,16.8c-0.1-0.1-0.1-0.2-0.1-0.4c-0.3,0.3-0.8,0.5-1.2,0.5c-0.8,0-1.3-0.4-1.3-1.1c0-1,0.9-1.1,1.6-1.2
				c0.7-0.1,0.9-0.1,0.9-0.4c0-0.3-0.2-0.5-0.7-0.5c-0.5,0-0.7,0.1-0.7,0.6h-1c0.1-0.8,0.7-1.3,1.7-1.3c0.8,0,1.6,0.2,1.6,1.2v1.6
				c0,0.3,0,0.7,0.1,1H59.7z M58.9,15.2c-0.4,0.1-0.8,0.1-0.8,0.6c0,0.3,0.2,0.5,0.6,0.5c0.5,0,0.9-0.3,0.9-0.8V15
				C59.4,15.1,59.2,15.2,58.9,15.2z"/>
			<path class="st3" d="M63.2,16.9c-1.2,0-1.9-0.8-1.9-1.9c0-1.2,0.8-2,1.9-2c1,0,1.7,0.5,1.8,1.4h-1c-0.1-0.4-0.3-0.6-0.7-0.6
				c-0.6,0-0.9,0.4-0.9,1.2c0,0.7,0.3,1.2,0.9,1.2c0.4,0,0.7-0.3,0.8-0.8h1C64.9,16.3,64.2,16.9,63.2,16.9z"/>
			<path class="st3" d="M68,16.8C68,16.7,68,16.6,68,16.5c-0.3,0.3-0.8,0.5-1.2,0.5c-0.8,0-1.3-0.4-1.3-1.1c0-1,0.9-1.1,1.6-1.2
				c0.7-0.1,0.9-0.1,0.9-0.4c0-0.3-0.2-0.5-0.7-0.5c-0.5,0-0.7,0.1-0.7,0.6h-1c0.1-0.8,0.7-1.3,1.7-1.3c0.8,0,1.6,0.2,1.6,1.2v1.6
				c0,0.3,0,0.7,0.1,1H68z M67.2,15.2c-0.4,0.1-0.8,0.1-0.8,0.6c0,0.3,0.2,0.5,0.6,0.5c0.5,0,0.9-0.3,0.9-0.8V15
				C67.7,15.1,67.5,15.2,67.2,15.2z"/>
			<path class="st3" d="M72.4,16.8v-0.5c-0.2,0.4-0.6,0.6-1.1,0.6c-1,0-1.7-0.8-1.7-2c0-1.2,0.6-2,1.6-2c0.4,0,0.9,0.2,1.1,0.6v-1.9
				h1v5.2H72.4z M71.5,13.8c-0.6,0-0.9,0.4-0.9,1.1c0,0.7,0.3,1.2,0.9,1.2c0.6,0,0.9-0.4,0.9-1.2C72.4,14.2,72.1,13.8,71.5,13.8z"/>
			<path class="st3" d="M76,16.9c-1.2,0-1.9-0.8-1.9-2c0-1.2,0.8-2,1.9-2c1.1,0,1.8,0.8,1.8,2.1v0.1h-2.7c0,0.6,0.3,1,0.9,1
				c0.4,0,0.6-0.2,0.8-0.5h1C77.5,16.5,76.8,16.9,76,16.9z M75.9,13.7c-0.5,0-0.8,0.3-0.8,0.8h1.6C76.7,14.1,76.4,13.7,75.9,13.7z"
				/>
		</g>
		<polyline class="st1" points="198.7,90.6 270.4,90.6 270.4,23.2 198.7,23.2 198.7,90.6 		"/>
		<g class="st2">
			<path class="st3" d="M206.3,34.1c0,0.6-0.1,0.9-0.2,1.2c-0.3,0.4-0.8,0.7-1.5,0.7c-0.8,0-1.5-0.3-1.6-1.1h0.6
				c0.1,0.4,0.4,0.6,1,0.6c0.8,0,1.1-0.4,1.1-1.2l0-0.5c-0.2,0.5-0.6,0.7-1.2,0.7c-1,0-1.6-0.7-1.6-1.9c0-1,0.6-2,1.7-2
				c0.5,0,0.9,0.2,1.2,0.6v-0.5h0.6V34.1z M203.5,32.6c0,0.8,0.4,1.4,1.1,1.4c0.7,0,1.1-0.6,1.1-1.5c0-0.8-0.4-1.4-1.1-1.4
				C203.9,31.2,203.5,31.7,203.5,32.6z"/>
			<path class="st3" d="M208.8,34.6c-1.1,0-1.8-0.7-1.8-1.9c0-1.2,0.7-2,1.7-2c1.2,0,1.7,1,1.7,2.1v0.1h-2.8l0,0
				c0,0.8,0.4,1.3,1.2,1.3c0.5,0,0.8-0.2,1-0.8h0.6C210.2,34.2,209.7,34.6,208.8,34.6z M208.7,31.1c-0.6,0-1,0.4-1.1,1.1h2.2
				C209.8,31.6,209.4,31.1,208.7,31.1z"/>
			<path class="st3" d="M212.7,31.2H212v2.2c0,0.3,0,0.6,0.4,0.6c0.1,0,0.2,0,0.3,0v0.5c-0.2,0-0.3,0-0.5,0c-0.9,0-0.9-0.5-0.9-1.3
				v-2h-0.6v-0.5h0.6v-1.1h0.6v1.1h0.7V31.2z"/>
			<path class="st3" d="M216.5,30.8c-0.1-0.7-0.5-1.1-1.3-1.1c-0.7,0-1.2,0.3-1.2,0.9c0,0.6,0.6,0.7,1.4,0.9
				c0.8,0.2,1.9,0.4,1.9,1.5c0,1.1-1,1.6-2,1.6c-1.2,0-2.1-0.6-2.1-1.8h0.7c0,0.9,0.7,1.3,1.5,1.3c0.6,0,1.3-0.2,1.3-0.9
				c0-0.7-0.7-0.8-1.5-1c-0.8-0.2-1.8-0.3-1.8-1.4c0-1.1,0.9-1.5,1.9-1.5c1.1,0,1.8,0.5,1.9,1.6H216.5z"/>
			<path class="st3" d="M219.7,31.2h-0.7v2.2c0,0.3,0,0.6,0.4,0.6c0.1,0,0.2,0,0.3,0v0.5c-0.2,0-0.3,0-0.5,0c-0.9,0-0.9-0.5-0.9-1.3
				v-2h-0.6v-0.5h0.6v-1.1h0.6v1.1h0.7V31.2z"/>
			<path class="st3" d="M222.3,31.3c-0.1,0-0.1,0-0.2,0c-1,0-1.2,0.8-1.2,1.6v1.6h-0.6v-3.7h0.6v0.8c0.3-0.6,0.7-0.9,1.4-0.9V31.3z"
				/>
			<path class="st3" d="M224.2,34.6c-1.1,0-1.8-0.7-1.8-1.9c0-1.2,0.7-2,1.7-2c1.2,0,1.7,1,1.7,2.1v0.1h-2.8l0,0
				c0,0.8,0.4,1.3,1.2,1.3c0.5,0,0.8-0.2,1-0.8h0.6C225.7,34.2,225.1,34.6,224.2,34.6z M224.2,31.1c-0.6,0-1,0.4-1.1,1.1h2.2
				C225.2,31.6,224.8,31.1,224.2,31.1z"/>
			<path class="st3" d="M228.1,34.6c-1.1,0-1.8-0.7-1.8-1.9c0-1.2,0.7-2,1.7-2c1.2,0,1.7,1,1.7,2.1v0.1H227l0,0
				c0,0.8,0.4,1.3,1.2,1.3c0.5,0,0.8-0.2,1-0.8h0.6C229.6,34.2,229,34.6,228.1,34.6z M228.1,31.1c-0.6,0-1,0.4-1.1,1.1h2.2
				C229.1,31.6,228.7,31.1,228.1,31.1z"/>
			<path class="st3" d="M232,31.2h-0.7v2.2c0,0.3,0,0.6,0.4,0.6c0.1,0,0.2,0,0.3,0v0.5c-0.2,0-0.3,0-0.5,0c-0.9,0-0.9-0.5-0.9-1.3
				v-2h-0.6v-0.5h0.6v-1.1h0.6v1.1h0.7V31.2z"/>
			<path class="st3" d="M233.2,32.6c0,1.2,0.3,2.3,1,3.3h-0.5c-0.7-1.1-1.1-2-1.1-3.3c0-1.2,0.4-2.3,1.1-3.3h0.5
				C233.6,30.2,233.2,31.4,233.2,32.6z"/>
			<path class="st3" d="M234.5,35.8h-0.5c0.6-1,1-2.1,1-3.3c0-1.2-0.3-2.4-1-3.3h0.5c0.8,1,1.1,2.2,1.1,3.3
				C235.7,33.8,235.2,34.7,234.5,35.8z"/>
		</g>
		<g class="st2">
			<path class="st3" d="M206.3,43.6c0,0.6-0.1,0.9-0.2,1.2c-0.3,0.4-0.8,0.7-1.5,0.7c-0.8,0-1.5-0.3-1.6-1.1h0.6
				c0.1,0.4,0.4,0.6,1,0.6c0.8,0,1.1-0.4,1.1-1.2l0-0.5c-0.2,0.5-0.6,0.7-1.2,0.7c-1,0-1.6-0.7-1.6-1.9c0-1,0.6-2,1.7-2
				c0.5,0,0.9,0.2,1.2,0.6v-0.5h0.6V43.6z M203.5,42.2c0,0.8,0.4,1.4,1.1,1.4c0.7,0,1.1-0.6,1.1-1.5c0-0.8-0.4-1.4-1.1-1.4
				C203.9,40.7,203.5,41.2,203.5,42.2z"/>
			<path class="st3" d="M208.8,44.1c-1.1,0-1.8-0.7-1.8-1.9c0-1.2,0.7-2,1.7-2c1.2,0,1.7,1,1.7,2.1v0.1h-2.8l0,0
				c0,0.8,0.4,1.3,1.2,1.3c0.5,0,0.8-0.2,1-0.8h0.6C210.2,43.7,209.7,44.1,208.8,44.1z M208.7,40.7c-0.6,0-1,0.4-1.1,1.1h2.2
				C209.8,41.1,209.4,40.7,208.7,40.7z"/>
			<path class="st3" d="M212.7,40.8H212v2.2c0,0.3,0,0.6,0.4,0.6c0.1,0,0.2,0,0.3,0V44c-0.2,0-0.3,0-0.5,0c-0.9,0-0.9-0.5-0.9-1.3
				v-2h-0.6v-0.5h0.6v-1.1h0.6v1.1h0.7V40.8z"/>
			<path class="st3" d="M215.6,44.1c-1.5,0-2.4-1-2.4-2.7c0-1.5,0.9-2.7,2.4-2.7c1,0,2,0.6,2.1,1.7h-0.7c-0.2-0.7-0.7-1.1-1.5-1.1
				c-1.2,0-1.7,1-1.7,2.1c0,1.3,0.7,2.1,1.7,2.1c0.9,0,1.4-0.5,1.5-1.5h0.7C217.8,43.4,216.9,44.1,215.6,44.1z"/>
			<path class="st3" d="M219.3,39.6h-0.6v-0.8h0.6V39.6z M219.3,44h-0.6v-3.7h0.6V44z"/>
			<path class="st3" d="M221.8,40.8h-0.7v2.2c0,0.3,0,0.6,0.4,0.6c0.1,0,0.2,0,0.3,0V44c-0.2,0-0.3,0-0.5,0c-0.9,0-0.9-0.5-0.9-1.3
				v-2h-0.6v-0.5h0.6v-1.1h0.6v1.1h0.7V40.8z"/>
			<path class="st3" d="M224,44.5c-0.2,0.5-0.4,1-1.1,1c-0.2,0-0.3,0-0.5-0.1v-0.6c0.2,0.1,0.3,0.1,0.4,0.1c0.2,0,0.4-0.1,0.4-0.3
				l0.3-0.7l-1.5-3.7h0.7l1.1,3l1.1-3h0.6L224,44.5z"/>
			<path class="st3" d="M226.7,42.1c0,1.2,0.3,2.3,1,3.3h-0.5c-0.7-1.1-1.1-2-1.1-3.3c0-1.2,0.4-2.3,1.1-3.3h0.5
				C227,39.7,226.7,40.9,226.7,42.1z"/>
			<path class="st3" d="M227.9,45.4h-0.5c0.6-1,1-2.1,1-3.3c0-1.2-0.3-2.4-1-3.3h0.5c0.8,1,1.1,2.2,1.1,3.3
				C229.1,43.4,228.7,44.3,227.9,45.4z"/>
		</g>
		<g class="st2">
			<path class="st3" d="M206.3,53.1c0,0.6-0.1,0.9-0.2,1.2c-0.3,0.4-0.8,0.7-1.5,0.7c-0.8,0-1.5-0.3-1.6-1.1h0.6
				c0.1,0.4,0.4,0.6,1,0.6c0.8,0,1.1-0.4,1.1-1.2l0-0.5c-0.2,0.5-0.6,0.7-1.2,0.7c-1,0-1.6-0.7-1.6-1.9c0-1,0.6-2,1.7-2
				c0.5,0,0.9,0.2,1.2,0.6v-0.5h0.6V53.1z M203.5,51.7c0,0.8,0.4,1.4,1.1,1.4c0.7,0,1.1-0.6,1.1-1.5c0-0.8-0.4-1.4-1.1-1.4
				C203.9,50.2,203.5,50.8,203.5,51.7z"/>
			<path class="st3" d="M208.8,53.7c-1.1,0-1.8-0.7-1.8-1.9c0-1.2,0.7-2,1.7-2c1.2,0,1.7,1,1.7,2.1v0.1h-2.8l0,0
				c0,0.8,0.4,1.3,1.2,1.3c0.5,0,0.8-0.2,1-0.8h0.6C210.2,53.2,209.7,53.7,208.8,53.7z M208.7,50.2c-0.6,0-1,0.4-1.1,1.1h2.2
				C209.8,50.6,209.4,50.2,208.7,50.2z"/>
			<path class="st3" d="M212.7,50.3H212v2.2c0,0.3,0,0.6,0.4,0.6c0.1,0,0.2,0,0.3,0v0.5c-0.2,0-0.3,0-0.5,0c-0.9,0-0.9-0.5-0.9-1.3
				v-2h-0.6v-0.5h0.6v-1.1h0.6v1.1h0.7V50.3z"/>
			<path class="st3" d="M217.1,48.9l-3.2,4h3.3v0.6h-4.1V53l3.2-4h-3v-0.6h3.8V48.9z"/>
			<path class="st3" d="M218.5,49.1h-0.6v-0.8h0.6V49.1z M218.5,53.5h-0.6v-3.7h0.6V53.5z"/>
			<path class="st3" d="M220,50.3c0.3-0.5,0.7-0.6,1.3-0.6c1,0,1.7,0.8,1.7,2c0,1.2-0.7,2-1.7,2c-0.6,0-0.9-0.2-1.3-0.6v2h-0.6v-5.2
				h0.6V50.3z M220,51.6c0,0.9,0.4,1.5,1.2,1.5c0.7,0,1.1-0.6,1.1-1.5c0-0.9-0.4-1.5-1.2-1.5C220.5,50.2,220,50.7,220,51.6z"/>
			<path class="st3" d="M224.3,51.6c0,1.2,0.3,2.3,1,3.3h-0.5c-0.7-1.1-1.1-2-1.1-3.3c0-1.2,0.4-2.3,1.1-3.3h0.5
				C224.6,49.2,224.3,50.4,224.3,51.6z"/>
			<path class="st3" d="M225.5,54.9h-0.5c0.6-1,1-2.1,1-3.3c0-1.2-0.3-2.4-1-3.3h0.5c0.8,1,1.1,2.2,1.1,3.3
				C226.7,52.9,226.2,53.8,225.5,54.9z"/>
		</g>
		<g class="st2">
			<path class="st3" d="M205.2,60.4c0-0.5-0.4-0.7-0.9-0.7c-0.5,0-0.8,0.2-0.8,0.5c0,0.4,0.5,0.5,1,0.6c0.6,0.1,1.5,0.3,1.5,1.1
				c0,0.7-0.6,1.2-1.6,1.2c-1,0-1.6-0.5-1.6-1.3h0.6c0,0.6,0.4,0.8,1,0.8c0.6,0,0.9-0.2,0.9-0.6c0-0.4-0.4-0.5-0.9-0.6
				c-0.6-0.2-1.5-0.2-1.5-1.1c0-0.7,0.6-1.1,1.4-1.1c0.8,0,1.5,0.4,1.5,1.2H205.2z"/>
			<path class="st3" d="M208.2,63.2c-1.1,0-1.8-0.7-1.8-1.9c0-1.2,0.7-2,1.7-2c1.2,0,1.7,1,1.7,2.1v0.1h-2.8l0,0
				c0,0.8,0.4,1.3,1.2,1.3c0.5,0,0.8-0.2,1-0.8h0.6C209.7,62.7,209.1,63.2,208.2,63.2z M208.2,59.7c-0.6,0-1,0.4-1.1,1.1h2.2
				C209.2,60.1,208.8,59.7,208.2,59.7z"/>
			<path class="st3" d="M212.2,59.8h-0.7V62c0,0.3,0,0.6,0.4,0.6c0.1,0,0.2,0,0.3,0v0.5c-0.2,0-0.3,0-0.5,0c-0.9,0-0.9-0.5-0.9-1.3
				v-2h-0.6v-0.5h0.6v-1.1h0.6v1.1h0.7V59.8z"/>
			<path class="st3" d="M216,59.4c-0.1-0.7-0.5-1.1-1.3-1.1c-0.7,0-1.2,0.3-1.2,0.9c0,0.6,0.6,0.7,1.4,0.9c0.8,0.2,1.9,0.4,1.9,1.5
				c0,1.1-1,1.6-2,1.6c-1.2,0-2.1-0.6-2.1-1.8h0.7c0,0.9,0.7,1.3,1.5,1.3c0.6,0,1.3-0.2,1.3-0.9c0-0.7-0.7-0.8-1.5-1
				c-0.8-0.2-1.8-0.3-1.8-1.4c0-1.1,0.9-1.5,1.9-1.5c1.1,0,1.8,0.5,1.9,1.6H216z"/>
			<path class="st3" d="M219.2,59.8h-0.7V62c0,0.3,0,0.6,0.4,0.6c0.1,0,0.2,0,0.3,0v0.5c-0.2,0-0.3,0-0.5,0c-0.9,0-0.9-0.5-0.9-1.3
				v-2h-0.6v-0.5h0.6v-1.1h0.6v1.1h0.7V59.8z"/>
			<path class="st3" d="M221.8,59.9c-0.1,0-0.1,0-0.2,0c-1,0-1.2,0.8-1.2,1.6v1.6h-0.6v-3.7h0.6v0.8c0.3-0.6,0.7-0.9,1.4-0.9V59.9z"
				/>
			<path class="st3" d="M223.7,63.2c-1.1,0-1.8-0.7-1.8-1.9c0-1.2,0.7-2,1.7-2c1.2,0,1.7,1,1.7,2.1v0.1h-2.8l0,0
				c0,0.8,0.4,1.3,1.2,1.3c0.5,0,0.8-0.2,1-0.8h0.6C225.1,62.7,224.6,63.2,223.7,63.2z M223.7,59.7c-0.6,0-1,0.4-1.1,1.1h2.2
				C224.7,60.1,224.3,59.7,223.7,59.7z"/>
			<path class="st3" d="M227.6,63.2c-1.1,0-1.8-0.7-1.8-1.9c0-1.2,0.7-2,1.7-2c1.2,0,1.7,1,1.7,2.1v0.1h-2.8l0,0
				c0,0.8,0.4,1.3,1.2,1.3c0.5,0,0.8-0.2,1-0.8h0.6C229,62.7,228.5,63.2,227.6,63.2z M227.5,59.7c-0.6,0-1,0.4-1.1,1.1h2.2
				C228.6,60.1,228.2,59.7,227.5,59.7z"/>
			<path class="st3" d="M231.5,59.8h-0.7V62c0,0.3,0,0.6,0.4,0.6c0.1,0,0.2,0,0.3,0v0.5c-0.2,0-0.3,0-0.5,0c-0.9,0-0.9-0.5-0.9-1.3
				v-2h-0.6v-0.5h0.6v-1.1h0.6v1.1h0.7V59.8z"/>
			<path class="st3" d="M232.7,61.1c0,1.2,0.3,2.3,1,3.3h-0.5c-0.7-1.1-1.1-2-1.1-3.3c0-1.2,0.4-2.3,1.1-3.3h0.5
				C233,58.8,232.7,59.9,232.7,61.1z"/>
			<path class="st3" d="M237.4,63c-0.1,0.1-0.3,0.1-0.4,0.1c-0.3,0-0.5-0.2-0.5-0.6c-0.4,0.4-0.8,0.6-1.4,0.6
				c-0.7,0-1.2-0.4-1.2-1.1c0-0.7,0.4-1.1,1.3-1.2c0.9-0.1,1.2-0.1,1.2-0.6c0-0.4-0.3-0.6-0.8-0.6c-0.6,0-0.9,0.2-0.9,0.8H234
				c0-0.8,0.6-1.3,1.6-1.3c0.5,0,0.9,0.1,1.2,0.4c0.3,0.3,0.3,0.6,0.3,1c0,0.6,0,1.1,0,1.7c0,0.3,0.1,0.4,0.3,0.4c0.1,0,0.1,0,0.2,0
				V63z M235.6,61.3c-0.4,0.1-1.1,0.1-1.1,0.7c0,0.4,0.3,0.6,0.7,0.6c0.6,0,1.1-0.4,1.1-0.9v-0.7C236.2,61.3,235.8,61.3,235.6,61.3z
				"/>
			<path class="st3" d="M239.9,59.9c-0.1,0-0.1,0-0.2,0c-1,0-1.2,0.8-1.2,1.6v1.6h-0.6v-3.7h0.6v0.8c0.3-0.6,0.7-0.9,1.4-0.9V59.9z"
				/>
			<path class="st3" d="M243.4,62.7c0,0.6-0.1,0.9-0.2,1.2c-0.3,0.4-0.8,0.7-1.5,0.7c-0.8,0-1.5-0.3-1.6-1.1h0.6
				c0.1,0.4,0.4,0.6,1,0.6c0.8,0,1.1-0.4,1.1-1.2l0-0.5c-0.2,0.5-0.6,0.7-1.2,0.7c-1,0-1.6-0.7-1.6-1.9c0-1,0.6-2,1.7-2
				c0.5,0,0.9,0.2,1.2,0.6v-0.5h0.6V62.7z M240.6,61.2c0,0.8,0.4,1.4,1.1,1.4c0.7,0,1.1-0.6,1.1-1.5c0-0.8-0.4-1.4-1.1-1.4
				C241,59.8,240.6,60.3,240.6,61.2z"/>
			<path class="st3" d="M244.3,64.4h-0.5c0.6-1,1-2.1,1-3.3c0-1.2-0.3-2.4-1-3.3h0.5c0.8,1,1.1,2.2,1.1,3.3
				C245.4,62.4,245,63.3,244.3,64.4z"/>
		</g>
		<g class="st2">
			<path class="st3" d="M205.2,69.9c0-0.5-0.4-0.7-0.9-0.7c-0.5,0-0.8,0.2-0.8,0.5c0,0.4,0.5,0.5,1,0.6c0.6,0.1,1.5,0.3,1.5,1.1
				c0,0.7-0.6,1.2-1.6,1.2c-1,0-1.6-0.5-1.6-1.3h0.6c0,0.6,0.4,0.8,1,0.8c0.6,0,0.9-0.2,0.9-0.6c0-0.4-0.4-0.5-0.9-0.6
				c-0.6-0.2-1.5-0.2-1.5-1.1c0-0.7,0.6-1.1,1.4-1.1c0.8,0,1.5,0.4,1.5,1.2H205.2z"/>
			<path class="st3" d="M208.2,72.7c-1.1,0-1.8-0.7-1.8-1.9c0-1.2,0.7-2,1.7-2c1.2,0,1.7,1,1.7,2.1v0.1h-2.8l0,0
				c0,0.8,0.4,1.3,1.2,1.3c0.5,0,0.8-0.2,1-0.8h0.6C209.7,72.3,209.1,72.7,208.2,72.7z M208.2,69.2c-0.6,0-1,0.4-1.1,1.1h2.2
				C209.2,69.7,208.8,69.2,208.2,69.2z"/>
			<path class="st3" d="M212.2,69.4h-0.7v2.2c0,0.3,0,0.6,0.4,0.6c0.1,0,0.2,0,0.3,0v0.5c-0.2,0-0.3,0-0.5,0c-0.9,0-0.9-0.5-0.9-1.3
				v-2h-0.6v-0.5h0.6v-1.1h0.6v1.1h0.7V69.4z"/>
			<path class="st3" d="M215.1,72.7c-1.5,0-2.4-1-2.4-2.7c0-1.5,0.9-2.7,2.4-2.7c1,0,2,0.6,2.1,1.7h-0.7c-0.2-0.7-0.7-1.1-1.5-1.1
				c-1.2,0-1.7,1-1.7,2.1c0,1.3,0.7,2.1,1.7,2.1c0.9,0,1.4-0.5,1.5-1.5h0.7C217.2,72,216.4,72.7,215.1,72.7z"/>
			<path class="st3" d="M218.7,68.2h-0.6v-0.8h0.6V68.2z M218.7,72.6h-0.6v-3.7h0.6V72.6z"/>
			<path class="st3" d="M221.3,69.4h-0.7v2.2c0,0.3,0,0.6,0.4,0.6c0.1,0,0.2,0,0.3,0v0.5c-0.2,0-0.3,0-0.5,0c-0.9,0-0.9-0.5-0.9-1.3
				v-2h-0.6v-0.5h0.6v-1.1h0.6v1.1h0.7V69.4z"/>
			<path class="st3" d="M223.5,73.1c-0.2,0.5-0.4,1-1.1,1c-0.2,0-0.3,0-0.5-0.1v-0.6c0.2,0.1,0.3,0.1,0.4,0.1c0.2,0,0.4-0.1,0.4-0.3
				l0.3-0.7l-1.5-3.7h0.7l1.1,3l1.1-3h0.6L223.5,73.1z"/>
			<path class="st3" d="M226.1,70.7c0,1.2,0.3,2.3,1,3.3h-0.5c-0.7-1.1-1.1-2-1.1-3.3c0-1.2,0.4-2.3,1.1-3.3h0.5
				C226.5,68.3,226.1,69.5,226.1,70.7z"/>
			<path class="st3" d="M230.8,72.6c-0.1,0.1-0.3,0.1-0.4,0.1c-0.3,0-0.5-0.2-0.5-0.6c-0.4,0.4-0.8,0.6-1.4,0.6
				c-0.7,0-1.2-0.4-1.2-1.1c0-0.7,0.4-1.1,1.3-1.2c0.9-0.1,1.2-0.1,1.2-0.6c0-0.4-0.3-0.6-0.8-0.6c-0.6,0-0.9,0.2-0.9,0.8h-0.6
				c0-0.8,0.6-1.3,1.6-1.3c0.5,0,0.9,0.1,1.2,0.4c0.3,0.3,0.3,0.6,0.3,1c0,0.6,0,1.1,0,1.7c0,0.3,0.1,0.4,0.3,0.4c0.1,0,0.1,0,0.2,0
				V72.6z M229,70.9c-0.4,0.1-1.1,0.1-1.1,0.7c0,0.4,0.3,0.6,0.7,0.6c0.6,0,1.1-0.4,1.1-0.9v-0.7C229.6,70.8,229.3,70.8,229,70.9z"
				/>
			<path class="st3" d="M233.3,69.4c-0.1,0-0.1,0-0.2,0c-1,0-1.2,0.8-1.2,1.6v1.6h-0.6v-3.7h0.6v0.8c0.3-0.6,0.7-0.9,1.4-0.9V69.4z"
				/>
			<path class="st3" d="M236.8,72.2c0,0.6-0.1,0.9-0.2,1.2c-0.3,0.4-0.8,0.7-1.5,0.7c-0.8,0-1.5-0.3-1.6-1.1h0.6
				c0.1,0.4,0.4,0.6,1,0.6c0.8,0,1.1-0.4,1.1-1.2l0-0.5c-0.2,0.5-0.6,0.7-1.2,0.7c-1,0-1.6-0.7-1.6-1.9c0-1,0.6-2,1.7-2
				c0.5,0,0.9,0.2,1.2,0.6v-0.5h0.6V72.2z M234,70.7c0,0.8,0.4,1.4,1.1,1.4c0.7,0,1.1-0.6,1.1-1.5c0-0.8-0.4-1.4-1.1-1.4
				C234.4,69.3,234,69.8,234,70.7z"/>
			<path class="st3" d="M237.7,74h-0.5c0.6-1,1-2.1,1-3.3c0-1.2-0.3-2.4-1-3.3h0.5c0.8,1,1.1,2.2,1.1,3.3
				C238.8,72,238.4,72.9,237.7,74z"/>
		</g>
		<g class="st2">
			<path class="st3" d="M205.2,79.5c0-0.5-0.4-0.7-0.9-0.7c-0.5,0-0.8,0.2-0.8,0.5c0,0.4,0.5,0.5,1,0.6c0.6,0.1,1.5,0.3,1.5,1.1
				c0,0.7-0.6,1.2-1.6,1.2c-1,0-1.6-0.5-1.6-1.3h0.6c0,0.6,0.4,0.8,1,0.8c0.6,0,0.9-0.2,0.9-0.6c0-0.4-0.4-0.5-0.9-0.6
				c-0.6-0.2-1.5-0.2-1.5-1.1c0-0.7,0.6-1.1,1.4-1.1c0.8,0,1.5,0.4,1.5,1.2H205.2z"/>
			<path class="st3" d="M208.2,82.2c-1.1,0-1.8-0.7-1.8-1.9c0-1.2,0.7-2,1.7-2c1.2,0,1.7,1,1.7,2.1v0.1h-2.8l0,0
				c0,0.8,0.4,1.3,1.2,1.3c0.5,0,0.8-0.2,1-0.8h0.6C209.7,81.8,209.1,82.2,208.2,82.2z M208.2,78.8c-0.6,0-1,0.4-1.1,1.1h2.2
				C209.2,79.2,208.8,78.8,208.2,78.8z"/>
			<path class="st3" d="M212.2,78.9h-0.7v2.2c0,0.3,0,0.6,0.4,0.6c0.1,0,0.2,0,0.3,0v0.5c-0.2,0-0.3,0-0.5,0c-0.9,0-0.9-0.5-0.9-1.3
				v-2h-0.6v-0.5h0.6v-1.1h0.6v1.1h0.7V78.9z"/>
			<path class="st3" d="M216.6,77.5l-3.2,4h3.3v0.6h-4.1v-0.6l3.2-4h-3V77h3.8V77.5z"/>
			<path class="st3" d="M217.9,77.7h-0.6V77h0.6V77.7z M217.9,82.1h-0.6v-3.7h0.6V82.1z"/>
			<path class="st3" d="M219.5,78.9c0.3-0.5,0.7-0.6,1.3-0.6c1,0,1.7,0.8,1.7,2c0,1.2-0.7,2-1.7,2c-0.6,0-0.9-0.2-1.3-0.6v2h-0.6
				v-5.2h0.6V78.9z M219.5,80.2c0,0.9,0.4,1.5,1.2,1.5c0.7,0,1.1-0.6,1.1-1.5c0-0.9-0.4-1.5-1.2-1.5
				C219.9,78.8,219.5,79.3,219.5,80.2z"/>
			<path class="st3" d="M223.7,80.2c0,1.2,0.3,2.3,1,3.3h-0.5c-0.7-1.1-1.1-2-1.1-3.3c0-1.2,0.4-2.3,1.1-3.3h0.5
				C224,77.8,223.7,79,223.7,80.2z"/>
			<path class="st3" d="M228.4,82.1c-0.1,0.1-0.3,0.1-0.4,0.1c-0.3,0-0.5-0.2-0.5-0.6c-0.4,0.4-0.8,0.6-1.4,0.6
				c-0.7,0-1.2-0.4-1.2-1.1c0-0.7,0.4-1.1,1.3-1.2c0.9-0.1,1.2-0.1,1.2-0.6c0-0.4-0.3-0.6-0.8-0.6c-0.6,0-0.9,0.2-0.9,0.8H225
				c0-0.8,0.6-1.3,1.6-1.3c0.5,0,0.9,0.1,1.2,0.4c0.3,0.3,0.3,0.6,0.3,1c0,0.6,0,1.1,0,1.7c0,0.3,0.1,0.4,0.3,0.4c0.1,0,0.1,0,0.2,0
				V82.1z M226.6,80.4c-0.4,0.1-1.1,0.1-1.1,0.7c0,0.4,0.3,0.6,0.7,0.6c0.6,0,1.1-0.4,1.1-0.9v-0.7
				C227.2,80.4,226.8,80.4,226.6,80.4z"/>
			<path class="st3" d="M230.9,78.9c-0.1,0-0.1,0-0.2,0c-1,0-1.2,0.8-1.2,1.6v1.6h-0.6v-3.7h0.6v0.8c0.3-0.6,0.7-0.9,1.4-0.9V78.9z"
				/>
			<path class="st3" d="M234.4,81.7c0,0.6-0.1,0.9-0.2,1.2c-0.3,0.4-0.8,0.7-1.5,0.7c-0.8,0-1.5-0.3-1.6-1.1h0.6
				c0.1,0.4,0.4,0.6,1,0.6c0.8,0,1.1-0.4,1.1-1.2l0-0.5c-0.2,0.5-0.6,0.7-1.2,0.7c-1,0-1.6-0.7-1.6-1.9c0-1,0.6-2,1.7-2
				c0.5,0,0.9,0.2,1.2,0.6v-0.5h0.6V81.7z M231.6,80.3c0,0.8,0.4,1.4,1.1,1.4c0.7,0,1.1-0.6,1.1-1.5c0-0.8-0.4-1.4-1.1-1.4
				C232,78.8,231.6,79.4,231.6,80.3z"/>
			<path class="st3" d="M235.3,83.5h-0.5c0.6-1,1-2.1,1-3.3c0-1.2-0.3-2.4-1-3.3h0.5c0.8,1,1.1,2.2,1.1,3.3
				C236.4,81.5,236,82.4,235.3,83.5z"/>
		</g>
		<polyline class="st1" points="198.7,23.2 270.4,23.2 270.4,18.9 198.7,18.9 198.7,23.2 		"/>
		<path class="st1" d="M198.7,0.9h71.7l0,0H198.7 M198.7,18.9h71.7v-18h-71.7V18.9"/>
		<g class="st2">
			<path class="st3" d="M224.7,12.2h-1.2l-0.4-1.2h-1.9l-0.4,1.2h-1.2l2-5.2h1.2L224.7,12.2z M222.1,8.3l-0.7,1.9h1.4L222.1,8.3z"/>
			<path class="st3" d="M227.7,12.2v-0.5c-0.2,0.4-0.6,0.6-1.1,0.6c-1,0-1.7-0.8-1.7-2c0-1.2,0.6-2,1.6-2c0.4,0,0.9,0.2,1.1,0.6V7.1
				h1v5.2H227.7z M226.8,9.2c-0.6,0-0.9,0.4-0.9,1.1c0,0.7,0.3,1.2,0.9,1.2c0.6,0,0.9-0.4,0.9-1.2C227.7,9.6,227.3,9.2,226.8,9.2z"
				/>
			<path class="st3" d="M232.1,12.2v-0.5c-0.2,0.4-0.6,0.6-1.1,0.6c-1,0-1.7-0.8-1.7-2c0-1.2,0.6-2,1.6-2c0.4,0,0.9,0.2,1.1,0.6V7.1
				h1v5.2H232.1z M231.2,9.2c-0.6,0-0.9,0.4-0.9,1.1c0,0.7,0.3,1.2,0.9,1.2c0.6,0,0.9-0.4,0.9-1.2C232.1,9.6,231.8,9.2,231.2,9.2z"
				/>
			<path class="st3" d="M236.3,9.4c-0.2,0-0.3,0-0.4,0c-0.7,0-1,0.5-1,1.2v1.7h-1V8.5h1v0.7c0.2-0.5,0.7-0.8,1.2-0.8
				c0.1,0,0.1,0,0.2,0V9.4z"/>
			<path class="st3" d="M238.3,12.3c-1.2,0-1.9-0.8-1.9-2c0-1.2,0.8-2,1.9-2c1.1,0,1.8,0.8,1.8,2.1v0.1h-2.7c0,0.6,0.3,1,0.9,1
				c0.4,0,0.6-0.2,0.8-0.5h1C239.8,11.9,239.2,12.3,238.3,12.3z M238.3,9.1c-0.5,0-0.8,0.3-0.8,0.8h1.6C239,9.5,238.8,9.1,238.3,9.1
				z"/>
			<path class="st3" d="M242.9,9.6c-0.1-0.4-0.3-0.5-0.7-0.5c-0.4,0-0.6,0.1-0.6,0.4c0,0.3,0.3,0.4,0.9,0.5c0.7,0.1,1.5,0.3,1.5,1.2
				c0,0.8-0.6,1.3-1.7,1.3c-0.9,0-1.7-0.4-1.8-1.3h1c0,0.4,0.3,0.6,0.8,0.6c0.4,0,0.7-0.2,0.7-0.5c0-0.3-0.3-0.4-0.8-0.5
				c-0.7-0.2-1.5-0.3-1.5-1.1c0-0.7,0.6-1.1,1.6-1.1c0.9,0,1.6,0.3,1.6,1.2H242.9z"/>
			<path class="st3" d="M246.8,9.6c-0.1-0.4-0.3-0.5-0.7-0.5c-0.4,0-0.6,0.1-0.6,0.4c0,0.3,0.3,0.4,0.9,0.5c0.7,0.1,1.5,0.3,1.5,1.2
				c0,0.8-0.6,1.3-1.7,1.3c-0.9,0-1.7-0.4-1.8-1.3h1c0,0.4,0.3,0.6,0.8,0.6c0.4,0,0.7-0.2,0.7-0.5c0-0.3-0.3-0.4-0.8-0.5
				c-0.7-0.2-1.5-0.3-1.5-1.1c0-0.7,0.6-1.1,1.6-1.1c0.9,0,1.6,0.3,1.6,1.2H246.8z"/>
		</g>
		<line class="st4" x1="99.9" y1="45.8" x2="198.7" y2="45.8"/>
		<polyline class="st5" points="190.2,48.6 198.7,45.8 190.2,42.9 		"/>
	</g>
</g>
</svg>
