<?xml version="1.0" encoding="utf-8"?>
<!-- Generator: Adobe Illustrator 21.0.0, SVG Export Plug-In . SVG Version: 6.00 Build 0)  -->
<svg version="1.1" id="Layer_1" xmlns="http://www.w3.org/2000/svg" xmlns:xlink="http://www.w3.org/1999/xlink" x="0px" y="0px"
	 viewBox="0 0 274 172" style="enable-background:new 0 0 274 172;" xml:space="preserve">
<style type="text/css">
	.st0{fill:#FFFFFF;}
	.st1{fill:none;stroke:#231F20;stroke-width:0.5;stroke-linejoin:round;}
	.st2{fill:none;stroke:#231F20;stroke-width:0.5;stroke-linecap:round;stroke-linejoin:round;}
	.st3{enable-background:new    ;}
	.st4{fill:#231F20;}
</style>
<title>img2</title>
<g id="Layer_2">
	<g id="Layer_1-2">
		<rect class="st0" width="274" height="172"/>
		<path class="st1" d="M58.4,0.5h71.6l0,0H58.4 M58.4,36.5h71.6v-36H58.4V36.5"/>
		<line class="st2" x1="65" y1="22.6" x2="123.5" y2="22.6"/>
		<g class="st3">
			<path class="st4" d="M68.7,20.9C68.6,21,68.4,21,68.3,21c-0.3,0-0.5-0.2-0.5-0.6C67.4,20.9,67,21,66.4,21c-0.7,0-1.2-0.4-1.2-1.1
				c0-0.7,0.4-1.1,1.3-1.2c0.9-0.1,1.2-0.1,1.2-0.6c0-0.4-0.3-0.6-0.8-0.6c-0.6,0-0.9,0.2-0.9,0.8h-0.6c0-0.8,0.6-1.3,1.6-1.3
				c0.5,0,0.9,0.1,1.2,0.4c0.3,0.3,0.3,0.6,0.3,1c0,0.6,0,1.1,0,1.7c0,0.3,0.1,0.4,0.3,0.4c0.1,0,0.1,0,0.2,0V20.9z M66.9,19.2
				c-0.4,0.1-1.1,0.1-1.1,0.7c0,0.4,0.3,0.6,0.7,0.6c0.6,0,1.1-0.4,1.1-0.9V19C67.5,19.2,67.2,19.2,66.9,19.2z"/>
			<path class="st4" d="M69.9,17.8c0.3-0.5,0.7-0.7,1.3-0.7c0.9,0,1.2,0.5,1.2,1.4v2.5h-0.6v-2.2c0-0.6,0-1.1-0.8-1.1
				c-0.8,0-1.1,0.6-1.1,1.3v2h-0.6v-3.7h0.6V17.8z"/>
			<path class="st4" d="M78.7,20.9C78.5,21,78.4,21,78.2,21c-0.3,0-0.5-0.2-0.5-0.6c-0.4,0.4-0.8,0.6-1.4,0.6
				c-0.7,0-1.2-0.4-1.2-1.1c0-0.7,0.4-1.1,1.3-1.2c0.9-0.1,1.2-0.1,1.2-0.6c0-0.4-0.3-0.6-0.8-0.6c-0.6,0-0.9,0.2-0.9,0.8h-0.6
				c0-0.8,0.6-1.3,1.6-1.3c0.5,0,0.9,0.1,1.2,0.4c0.3,0.3,0.3,0.6,0.3,1c0,0.6,0,1.1,0,1.7c0,0.3,0.1,0.4,0.3,0.4c0.1,0,0.1,0,0.2,0
				V20.9z M76.8,19.2c-0.4,0.1-1.1,0.1-1.1,0.7c0,0.4,0.3,0.6,0.7,0.6c0.6,0,1.1-0.4,1.1-0.9V19C77.4,19.2,77.1,19.2,76.8,19.2z"/>
			<path class="st4" d="M82.6,20.9H82v-0.6c-0.2,0.4-0.7,0.7-1.2,0.7c-1.1,0-1.7-0.8-1.7-2c0-1.1,0.6-2,1.7-2c0.5,0,0.9,0.2,1.2,0.6
				v-1.9h0.6V20.9z M79.7,19c0,0.9,0.4,1.5,1.2,1.5c0.7,0,1.1-0.6,1.1-1.5c0-0.7-0.3-1.4-1.2-1.4C80.1,17.6,79.7,18.2,79.7,19z"/>
			<path class="st4" d="M86.9,20.9h-0.6v-0.6c-0.2,0.4-0.7,0.7-1.2,0.7c-1.1,0-1.7-0.8-1.7-2c0-1.1,0.6-2,1.7-2
				c0.5,0,0.9,0.2,1.2,0.6v-1.9h0.6V20.9z M84,19c0,0.9,0.4,1.5,1.2,1.5c0.7,0,1.1-0.6,1.1-1.5c0-0.7-0.3-1.4-1.2-1.4
				C84.4,17.6,84,18.2,84,19z"/>
			<path class="st4" d="M89.8,17.8c-0.1,0-0.1,0-0.2,0c-1,0-1.2,0.8-1.2,1.6v1.6h-0.6v-3.7h0.6V18c0.3-0.6,0.7-0.9,1.4-0.9V17.8z"/>
			<path class="st4" d="M91.7,21.1c-1.1,0-1.8-0.7-1.8-1.9c0-1.2,0.7-2,1.7-2c1.2,0,1.7,1,1.7,2.1v0.1h-2.8l0,0
				c0,0.8,0.4,1.3,1.2,1.3c0.5,0,0.8-0.2,1-0.8h0.6C93.1,20.6,92.6,21.1,91.7,21.1z M91.6,17.6c-0.6,0-1,0.4-1.1,1.1h2.2
				C92.7,18,92.3,17.6,91.6,17.6z"/>
			<path class="st4" d="M96.2,18.3c0-0.5-0.4-0.7-0.9-0.7c-0.5,0-0.8,0.2-0.8,0.5c0,0.4,0.5,0.5,1,0.6c0.6,0.1,1.4,0.3,1.4,1.1
				c0,0.7-0.6,1.2-1.6,1.2c-1,0-1.6-0.5-1.6-1.3h0.6c0,0.6,0.4,0.8,1,0.8c0.6,0,0.9-0.2,0.9-0.6c0-0.4-0.4-0.5-0.9-0.6
				c-0.6-0.2-1.5-0.2-1.5-1.1c0-0.7,0.6-1.1,1.4-1.1c0.8,0,1.5,0.4,1.5,1.2H96.2z"/>
			<path class="st4" d="M99.8,18.3c0-0.5-0.4-0.7-0.9-0.7c-0.5,0-0.8,0.2-0.8,0.5c0,0.4,0.5,0.5,1,0.6c0.6,0.1,1.4,0.3,1.4,1.1
				c0,0.7-0.6,1.2-1.6,1.2c-1,0-1.6-0.5-1.6-1.3H98c0,0.6,0.4,0.8,1,0.8c0.6,0,0.9-0.2,0.9-0.6c0-0.4-0.4-0.5-0.9-0.6
				c-0.6-0.2-1.5-0.2-1.5-1.1c0-0.7,0.6-1.1,1.4-1.1c0.8,0,1.5,0.4,1.5,1.2H99.8z"/>
			<path class="st4" d="M105,16.3c-0.1,0-0.2,0-0.3,0c-0.4,0-0.5,0.1-0.5,0.5v0.4h0.7v0.5h-0.7v3.2h-0.6v-3.2h-0.6v-0.5h0.6v-0.5
				c0-0.7,0.4-1,1-1c0.2,0,0.2,0,0.4,0V16.3z"/>
			<path class="st4" d="M108.7,20.9c-0.1,0.1-0.3,0.1-0.4,0.1c-0.3,0-0.5-0.2-0.5-0.6c-0.4,0.4-0.8,0.6-1.4,0.6
				c-0.7,0-1.2-0.4-1.2-1.1c0-0.7,0.4-1.1,1.3-1.2c0.9-0.1,1.2-0.1,1.2-0.6c0-0.4-0.3-0.6-0.8-0.6c-0.6,0-0.9,0.2-0.9,0.8h-0.6
				c0-0.8,0.6-1.3,1.6-1.3c0.5,0,0.9,0.1,1.2,0.4c0.3,0.3,0.3,0.6,0.3,1c0,0.6,0,1.1,0,1.7c0,0.3,0.1,0.4,0.3,0.4c0.1,0,0.1,0,0.2,0
				V20.9z M106.9,19.2c-0.4,0.1-1.1,0.1-1.1,0.7c0,0.4,0.3,0.6,0.7,0.6c0.6,0,1.1-0.4,1.1-0.9V19C107.5,19.2,107.2,19.2,106.9,19.2z
				"/>
			<path class="st4" d="M110.9,21c-1.2,0-1.8-0.8-1.8-1.9c0-1.2,0.7-2,1.8-2c0.9,0,1.5,0.5,1.6,1.3h-0.6c-0.1-0.5-0.4-0.8-0.9-0.8
				c-0.7,0-1.2,0.6-1.2,1.5c0,0.9,0.4,1.5,1.1,1.5c0.6,0,0.9-0.3,1-1h0.6C112.4,20.5,111.8,21,110.9,21z"/>
			<path class="st4" d="M116.5,20.9c-0.1,0.1-0.3,0.1-0.4,0.1c-0.3,0-0.5-0.2-0.5-0.6c-0.4,0.4-0.8,0.6-1.4,0.6
				c-0.7,0-1.2-0.4-1.2-1.1c0-0.7,0.4-1.1,1.3-1.2c0.9-0.1,1.2-0.1,1.2-0.6c0-0.4-0.3-0.6-0.8-0.6c-0.6,0-0.9,0.2-0.9,0.8h-0.6
				c0-0.8,0.6-1.3,1.6-1.3c0.5,0,0.9,0.1,1.2,0.4c0.3,0.3,0.3,0.6,0.3,1c0,0.6,0,1.1,0,1.7c0,0.3,0.1,0.4,0.3,0.4c0.1,0,0.1,0,0.2,0
				V20.9z M114.7,19.2c-0.4,0.1-1.1,0.1-1.1,0.7c0,0.4,0.3,0.6,0.7,0.6c0.6,0,1.1-0.4,1.1-0.9V19C115.3,19.2,115,19.2,114.7,19.2z"
				/>
			<path class="st4" d="M120.5,20.9h-0.6v-0.6c-0.2,0.4-0.7,0.7-1.2,0.7c-1.1,0-1.7-0.8-1.7-2c0-1.1,0.6-2,1.7-2
				c0.5,0,0.9,0.2,1.2,0.6v-1.9h0.6V20.9z M117.6,19c0,0.9,0.4,1.5,1.2,1.5c0.7,0,1.1-0.6,1.1-1.5c0-0.7-0.3-1.4-1.2-1.4
				C118,17.6,117.6,18.2,117.6,19z"/>
			<path class="st4" d="M123,21.1c-1.1,0-1.8-0.7-1.8-1.9c0-1.2,0.7-2,1.7-2c1.2,0,1.7,1,1.7,2.1v0.1h-2.8l0,0
				c0,0.8,0.4,1.3,1.2,1.3c0.5,0,0.8-0.2,1-0.8h0.6C124.4,20.6,123.9,21.1,123,21.1z M122.9,17.6c-0.6,0-1,0.4-1.1,1.1h2.2
				C123.9,18,123.5,17.6,122.9,17.6z"/>
		</g>
		<path class="st2" d="M202.1,0.5h71.6l0,0H202.1 M202.1,36.5h71.6v-36h-71.6V36.5"/>
		<line class="st2" x1="222.2" y1="22.6" x2="256.5" y2="22.6"/>
		<g class="st3">
			<path class="st4" d="M225,20.9c-0.1,0.1-0.3,0.1-0.4,0.1c-0.3,0-0.5-0.2-0.5-0.6c-0.4,0.4-0.8,0.6-1.4,0.6
				c-0.7,0-1.2-0.4-1.2-1.1c0-0.7,0.4-1.1,1.3-1.2c0.9-0.1,1.2-0.1,1.2-0.6c0-0.4-0.3-0.6-0.8-0.6c-0.6,0-0.9,0.2-0.9,0.8h-0.6
				c0-0.8,0.6-1.3,1.6-1.3c0.5,0,0.9,0.1,1.2,0.4c0.3,0.3,0.3,0.6,0.3,1c0,0.6,0,1.1,0,1.7c0,0.3,0.1,0.4,0.3,0.4c0.1,0,0.1,0,0.2,0
				V20.9z M223.1,19.2c-0.4,0.1-1.1,0.1-1.1,0.7c0,0.4,0.3,0.6,0.7,0.6c0.6,0,1.1-0.4,1.1-0.9V19C223.7,19.2,223.4,19.2,223.1,19.2z
				"/>
			<path class="st4" d="M226.1,17.8c0.3-0.5,0.7-0.7,1.3-0.7c0.9,0,1.2,0.5,1.2,1.4v2.5H228v-2.2c0-0.6,0-1.1-0.8-1.1
				c-0.8,0-1.1,0.6-1.1,1.3v2h-0.6v-3.7h0.6V17.8z"/>
			<path class="st4" d="M234.9,20.9c-0.1,0.1-0.3,0.1-0.4,0.1c-0.3,0-0.5-0.2-0.5-0.6c-0.4,0.4-0.8,0.6-1.4,0.6
				c-0.7,0-1.2-0.4-1.2-1.1c0-0.7,0.4-1.1,1.3-1.2c0.9-0.1,1.2-0.1,1.2-0.6c0-0.4-0.3-0.6-0.8-0.6c-0.6,0-0.9,0.2-0.9,0.8h-0.6
				c0-0.8,0.6-1.3,1.6-1.3c0.5,0,0.9,0.1,1.2,0.4c0.3,0.3,0.3,0.6,0.3,1c0,0.6,0,1.1,0,1.7c0,0.3,0.1,0.4,0.3,0.4c0.1,0,0.1,0,0.2,0
				V20.9z M233.1,19.2c-0.4,0.1-1.1,0.1-1.1,0.7c0,0.4,0.3,0.6,0.7,0.6c0.6,0,1.1-0.4,1.1-0.9V19C233.7,19.2,233.4,19.2,233.1,19.2z
				"/>
			<path class="st4" d="M238.8,20.9h-0.6v-0.6c-0.2,0.4-0.7,0.7-1.2,0.7c-1.1,0-1.7-0.8-1.7-2c0-1.1,0.6-2,1.7-2
				c0.5,0,1,0.2,1.2,0.6v-1.9h0.6V20.9z M235.9,19c0,0.9,0.4,1.5,1.2,1.5c0.7,0,1.1-0.6,1.1-1.5c0-0.7-0.3-1.4-1.2-1.4
				C236.4,17.6,235.9,18.2,235.9,19z"/>
			<path class="st4" d="M243.1,20.9h-0.6v-0.6c-0.2,0.4-0.7,0.7-1.2,0.7c-1.1,0-1.7-0.8-1.7-2c0-1.1,0.6-2,1.7-2
				c0.5,0,1,0.2,1.2,0.6v-1.9h0.6V20.9z M240.2,19c0,0.9,0.4,1.5,1.2,1.5c0.7,0,1.1-0.6,1.1-1.5c0-0.7-0.3-1.4-1.2-1.4
				C240.7,17.6,240.2,18.2,240.2,19z"/>
			<path class="st4" d="M246,17.8c-0.1,0-0.1,0-0.2,0c-1,0-1.2,0.8-1.2,1.6v1.6h-0.6v-3.7h0.6V18c0.3-0.6,0.7-0.9,1.4-0.9V17.8z"/>
			<path class="st4" d="M247.9,21.1c-1.1,0-1.8-0.7-1.8-1.9c0-1.2,0.7-2,1.7-2c1.2,0,1.7,1,1.7,2.1v0.1h-2.8l0,0
				c0,0.8,0.4,1.3,1.2,1.3c0.5,0,0.8-0.2,1-0.8h0.6C249.4,20.6,248.8,21.1,247.9,21.1z M247.9,17.6c-0.6,0-1,0.4-1.1,1.1h2.2
				C248.9,18,248.5,17.6,247.9,17.6z"/>
			<path class="st4" d="M252.4,18.3c0-0.5-0.4-0.7-0.9-0.7c-0.5,0-0.8,0.2-0.8,0.5c0,0.4,0.5,0.5,1,0.6c0.6,0.1,1.4,0.3,1.4,1.1
				c0,0.7-0.6,1.2-1.6,1.2c-1,0-1.6-0.5-1.6-1.3h0.6c0,0.6,0.4,0.8,1,0.8c0.6,0,0.9-0.2,0.9-0.6c0-0.4-0.4-0.5-0.9-0.6
				c-0.6-0.2-1.5-0.2-1.5-1.1c0-0.7,0.6-1.1,1.4-1.1c0.8,0,1.5,0.4,1.5,1.2H252.4z"/>
			<path class="st4" d="M256,18.3c0-0.5-0.4-0.7-0.9-0.7c-0.5,0-0.8,0.2-0.8,0.5c0,0.4,0.5,0.5,1,0.6c0.6,0.1,1.4,0.3,1.4,1.1
				c0,0.7-0.6,1.2-1.6,1.2c-1,0-1.6-0.5-1.6-1.3h0.6c0,0.6,0.4,0.8,1,0.8c0.6,0,0.9-0.2,0.9-0.6c0-0.4-0.4-0.5-0.9-0.6
				c-0.6-0.2-1.5-0.2-1.5-1.1c0-0.7,0.6-1.1,1.4-1.1c0.8,0,1.5,0.4,1.5,1.2H256z"/>
		</g>
		<path class="st2" d="M82.1,57.3l8.1-2.8L82.1,52 M0.5,54.5h89.7 M90.2,54.5h7.4v89.6h-7.4V54.5z M238.1,162.1v9.2 M238.1,144.1
			v9.2 M238.1,126.1v9.2 M238.1,108.1v9.2 M238.1,90.5v8.8 M238.1,72.5v9.2 M238.1,54.5v9.2 M238.1,36.5v9.2 M94.1,162.1v9.2
			 M94.1,144.1v9.2 M94.1,36.5v9.2"/>
		<g class="st3">
			<path class="st4" d="M25.8,47.7c0,0.6-0.1,0.9-0.2,1.2c-0.3,0.4-0.8,0.7-1.5,0.7c-0.8,0-1.5-0.3-1.6-1.1h0.6
				c0.1,0.4,0.4,0.6,1,0.6c0.8,0,1.1-0.4,1.1-1.2l0-0.5c-0.2,0.5-0.6,0.7-1.2,0.7c-1,0-1.6-0.7-1.6-1.9c0-1,0.6-2,1.7-2
				c0.5,0,0.9,0.2,1.2,0.6v-0.5h0.6V47.7z M23,46.3c0,0.8,0.4,1.4,1.1,1.4c0.7,0,1.1-0.6,1.1-1.5c0-0.8-0.4-1.4-1.1-1.4
				C23.4,44.8,23,45.4,23,46.3z"/>
			<path class="st4" d="M28.3,48.2c-1.1,0-1.8-0.7-1.8-1.9c0-1.2,0.7-2,1.7-2c1.2,0,1.7,1,1.7,2.1v0.1h-2.8l0,0
				c0,0.8,0.4,1.3,1.2,1.3c0.5,0,0.8-0.2,1-0.8h0.6C29.7,47.8,29.1,48.2,28.3,48.2z M28.2,44.8c-0.6,0-1,0.4-1.1,1.1h2.2
				C29.2,45.2,28.8,44.8,28.2,44.8z"/>
			<path class="st4" d="M32.2,44.9h-0.7v2.2c0,0.3,0,0.6,0.4,0.6c0.1,0,0.2,0,0.3,0v0.5c-0.2,0-0.3,0-0.5,0c-0.9,0-0.9-0.5-0.9-1.3
				v-2h-0.6v-0.5h0.6v-1.1h0.6v1.1h0.7V44.9z"/>
			<path class="st4" d="M37.2,48.1h-0.8l-0.6-1.6h-2.2l-0.6,1.6h-0.7l2-5.2h0.8L37.2,48.1z M34.7,43.6L33.8,46h1.8L34.7,43.6z"/>
			<path class="st4" d="M40.9,48.1h-0.6v-0.6c-0.2,0.4-0.7,0.7-1.2,0.7c-1.1,0-1.7-0.8-1.7-2c0-1.1,0.6-2,1.7-2
				c0.5,0,0.9,0.2,1.2,0.6V43h0.6V48.1z M38,46.2c0,0.9,0.4,1.5,1.2,1.5c0.7,0,1.1-0.6,1.1-1.5c0-0.7-0.3-1.4-1.2-1.4
				C38.5,44.8,38,45.4,38,46.2z"/>
			<path class="st4" d="M45.2,48.1h-0.6v-0.6c-0.2,0.4-0.7,0.7-1.2,0.7c-1.1,0-1.7-0.8-1.7-2c0-1.1,0.6-2,1.7-2
				c0.5,0,0.9,0.2,1.2,0.6V43h0.6V48.1z M42.3,46.2c0,0.9,0.4,1.5,1.2,1.5c0.7,0,1.1-0.6,1.1-1.5c0-0.7-0.3-1.4-1.2-1.4
				C42.8,44.8,42.3,45.4,42.3,46.2z"/>
			<path class="st4" d="M48.1,44.9c-0.1,0-0.1,0-0.2,0c-1,0-1.2,0.8-1.2,1.6v1.6h-0.6v-3.7h0.6v0.8c0.3-0.6,0.7-0.9,1.4-0.9V44.9z"
				/>
			<path class="st4" d="M50,48.2c-1.1,0-1.8-0.7-1.8-1.9c0-1.2,0.7-2,1.7-2c1.2,0,1.7,1,1.7,2.1v0.1h-2.8l0,0c0,0.8,0.4,1.3,1.2,1.3
				c0.5,0,0.8-0.2,1-0.8h0.6C51.5,47.8,50.9,48.2,50,48.2z M50,44.8c-0.6,0-1,0.4-1.1,1.1H51C51,45.2,50.6,44.8,50,44.8z"/>
			<path class="st4" d="M54.5,45.5c0-0.5-0.4-0.7-0.9-0.7c-0.5,0-0.8,0.2-0.8,0.5c0,0.4,0.5,0.5,1,0.6c0.6,0.1,1.4,0.3,1.4,1.1
				c0,0.7-0.6,1.2-1.6,1.2c-1,0-1.6-0.5-1.6-1.3h0.6c0,0.6,0.4,0.8,1,0.8c0.6,0,0.9-0.2,0.9-0.6c0-0.4-0.4-0.5-0.9-0.6
				c-0.6-0.2-1.5-0.2-1.5-1.1c0-0.7,0.6-1.1,1.4-1.1c0.8,0,1.5,0.4,1.5,1.2H54.5z"/>
			<path class="st4" d="M58.1,45.5c0-0.5-0.4-0.7-0.9-0.7c-0.5,0-0.8,0.2-0.8,0.5c0,0.4,0.5,0.5,1,0.6c0.6,0.1,1.4,0.3,1.4,1.1
				c0,0.7-0.6,1.2-1.6,1.2c-1,0-1.6-0.5-1.6-1.3h0.6c0,0.6,0.4,0.8,1,0.8c0.6,0,0.9-0.2,0.9-0.6c0-0.4-0.4-0.5-0.9-0.6
				c-0.6-0.2-1.5-0.2-1.5-1.1c0-0.7,0.6-1.1,1.4-1.1c0.8,0,1.5,0.4,1.5,1.2H58.1z"/>
			<path class="st4" d="M61.4,43c1.7,0,2.6,0.8,2.6,2.5c0,1.7-0.7,2.6-2.4,2.6h-1.8V43H61.4z M60.4,47.5h1c1.3,0,1.8-0.6,1.8-2
				c0-1.4-0.5-2-1.9-2h-1V47.5z"/>
			<path class="st4" d="M68,48.1c-0.1,0.1-0.3,0.1-0.4,0.1c-0.3,0-0.5-0.2-0.5-0.6c-0.4,0.4-0.8,0.6-1.4,0.6c-0.7,0-1.2-0.4-1.2-1.1
				c0-0.7,0.4-1.1,1.3-1.2c0.9-0.1,1.2-0.1,1.2-0.6c0-0.4-0.3-0.6-0.8-0.6c-0.6,0-0.9,0.2-0.9,0.8h-0.6c0-0.8,0.6-1.3,1.6-1.3
				c0.5,0,0.9,0.1,1.2,0.4c0.3,0.3,0.3,0.6,0.3,1c0,0.6,0,1.1,0,1.7c0,0.3,0.1,0.4,0.3,0.4c0.1,0,0.1,0,0.2,0V48.1z M66.2,46.4
				c-0.4,0.1-1.1,0.1-1.1,0.7c0,0.4,0.3,0.6,0.7,0.6c0.6,0,1.1-0.4,1.1-0.9v-0.7C66.8,46.4,66.5,46.4,66.2,46.4z"/>
			<path class="st4" d="M70.2,44.9h-0.7v2.2c0,0.3,0,0.6,0.4,0.6c0.1,0,0.2,0,0.3,0v0.5c-0.2,0-0.3,0-0.5,0c-0.9,0-0.9-0.5-0.9-1.3
				v-2h-0.6v-0.5h0.6v-1.1h0.6v1.1h0.7V44.9z"/>
			<path class="st4" d="M74.2,48.1c-0.1,0.1-0.3,0.1-0.4,0.1c-0.3,0-0.5-0.2-0.5-0.6c-0.4,0.4-0.8,0.6-1.4,0.6
				c-0.7,0-1.2-0.4-1.2-1.1c0-0.7,0.4-1.1,1.3-1.2c0.9-0.1,1.2-0.1,1.2-0.6c0-0.4-0.3-0.6-0.8-0.6c-0.6,0-0.9,0.2-0.9,0.8h-0.6
				c0-0.8,0.6-1.3,1.6-1.3c0.5,0,0.9,0.1,1.2,0.4c0.3,0.3,0.3,0.6,0.3,1c0,0.6,0,1.1,0,1.7c0,0.3,0.1,0.4,0.3,0.4c0.1,0,0.1,0,0.2,0
				V48.1z M72.4,46.4c-0.4,0.1-1.1,0.1-1.1,0.7c0,0.4,0.3,0.6,0.7,0.6c0.6,0,1.1-0.4,1.1-0.9v-0.7C73,46.4,72.6,46.4,72.4,46.4z"/>
		</g>
		<path class="st2" d="M229.6,66.5l8.5-2.8l-8.5-2.8 M97.6,63.7h140.5"/>
		<g class="st3">
			<path class="st4" d="M160.9,56.5c0,0.6-0.1,0.9-0.2,1.2c-0.3,0.4-0.8,0.7-1.5,0.7c-0.8,0-1.5-0.3-1.6-1.1h0.6
				c0.1,0.4,0.4,0.6,1,0.6c0.8,0,1.1-0.4,1.1-1.2l0-0.5c-0.2,0.5-0.6,0.7-1.2,0.7c-1,0-1.6-0.7-1.6-1.9c0-1,0.6-2,1.7-2
				c0.5,0,0.9,0.2,1.2,0.6v-0.5h0.6V56.5z M158.1,55.1c0,0.8,0.4,1.4,1.1,1.4c0.7,0,1.1-0.6,1.1-1.5c0-0.8-0.4-1.4-1.1-1.4
				C158.5,53.6,158.1,54.2,158.1,55.1z"/>
			<path class="st4" d="M163.4,57.1c-1.1,0-1.8-0.7-1.8-1.9c0-1.2,0.7-2,1.7-2c1.2,0,1.7,1,1.7,2.1v0.1h-2.8l0,0
				c0,0.8,0.4,1.3,1.2,1.3c0.5,0,0.8-0.2,1-0.8h0.6C164.9,56.6,164.3,57.1,163.4,57.1z M163.4,53.6c-0.6,0-1,0.4-1.1,1.1h2.2
				C164.4,54,164,53.6,163.4,53.6z"/>
			<path class="st4" d="M167.3,53.7h-0.7v2.2c0,0.3,0,0.6,0.4,0.6c0.1,0,0.2,0,0.3,0v0.5c-0.2,0-0.3,0-0.5,0c-0.9,0-0.9-0.5-0.9-1.3
				v-2h-0.6v-0.5h0.6v-1.1h0.6v1.1h0.7V53.7z"/>
			<path class="st4" d="M170.3,57.1c-1.5,0-2.4-1-2.4-2.7c0-1.5,0.9-2.7,2.4-2.7c1,0,2,0.6,2.1,1.7h-0.7c-0.2-0.7-0.7-1.1-1.5-1.1
				c-1.2,0-1.7,1-1.7,2.1c0,1.3,0.7,2.1,1.7,2.1c0.9,0,1.4-0.5,1.5-1.5h0.7C172.4,56.3,171.6,57.1,170.3,57.1z"/>
			<path class="st4" d="M173.9,52.5h-0.6v-0.8h0.6V52.5z M173.9,56.9h-0.6v-3.7h0.6V56.9z"/>
			<path class="st4" d="M176.5,53.7h-0.7v2.2c0,0.3,0,0.6,0.4,0.6c0.1,0,0.2,0,0.3,0v0.5c-0.2,0-0.3,0-0.5,0c-0.9,0-0.9-0.5-0.9-1.3
				v-2h-0.6v-0.5h0.6v-1.1h0.6v1.1h0.7V53.7z"/>
			<path class="st4" d="M178.7,57.4c-0.2,0.5-0.4,1-1.1,1c-0.2,0-0.3,0-0.5-0.1v-0.6c0.2,0.1,0.3,0.1,0.4,0.1c0.2,0,0.4-0.1,0.4-0.3
				l0.3-0.7l-1.5-3.7h0.7l1.1,3l1.1-3h0.6L178.7,57.4z"/>
		</g>
		<path class="st2" d="M229.6,92.9l8.5-2.5l-8.5-2.5 M97.6,90.5h140.5"/>
		<g class="st3">
			<path class="st4" d="M159.2,83.7c0,0.6-0.1,0.9-0.2,1.2c-0.3,0.4-0.8,0.7-1.5,0.7c-0.8,0-1.5-0.3-1.6-1.1h0.6
				c0.1,0.4,0.4,0.6,1,0.6c0.8,0,1.1-0.4,1.1-1.2l0-0.5c-0.2,0.5-0.6,0.7-1.2,0.7c-1,0-1.6-0.7-1.6-1.9c0-1,0.6-2,1.7-2
				c0.5,0,0.9,0.2,1.2,0.6v-0.5h0.6V83.7z M156.4,82.3c0,0.8,0.4,1.4,1.1,1.4c0.7,0,1.1-0.6,1.1-1.5c0-0.8-0.4-1.4-1.1-1.4
				C156.8,80.8,156.4,81.4,156.4,82.3z"/>
			<path class="st4" d="M161.7,84.2c-1.1,0-1.8-0.7-1.8-1.9c0-1.2,0.7-2,1.7-2c1.2,0,1.7,1,1.7,2.1v0.1h-2.8l0,0
				c0,0.8,0.4,1.3,1.2,1.3c0.5,0,0.8-0.2,1-0.8h0.6C163.1,83.8,162.5,84.2,161.7,84.2z M161.6,80.8c-0.6,0-1,0.4-1.1,1.1h2.2
				C162.6,81.2,162.2,80.8,161.6,80.8z"/>
			<path class="st4" d="M165.6,80.9h-0.7v2.2c0,0.3,0,0.6,0.4,0.6c0.1,0,0.2,0,0.3,0v0.5c-0.2,0-0.3,0-0.5,0c-0.9,0-0.9-0.5-0.9-1.3
				v-2h-0.6v-0.5h0.6v-1.1h0.6v1.1h0.7V80.9z"/>
			<path class="st4" d="M169.4,80.5c-0.1-0.7-0.5-1.1-1.3-1.1c-0.7,0-1.2,0.3-1.2,0.9c0,0.6,0.6,0.7,1.4,0.9
				c0.8,0.2,1.9,0.4,1.9,1.5c0,1.1-1,1.6-2,1.6c-1.2,0-2.1-0.6-2.1-1.8h0.7c0,0.9,0.7,1.3,1.5,1.3c0.6,0,1.3-0.2,1.3-0.9
				c0-0.7-0.7-0.8-1.5-1c-0.8-0.2-1.8-0.3-1.8-1.4c0-1.1,0.9-1.5,1.9-1.5c1.1,0,1.8,0.5,1.9,1.6H169.4z"/>
			<path class="st4" d="M172.6,80.9h-0.7v2.2c0,0.3,0,0.6,0.4,0.6c0.1,0,0.2,0,0.3,0v0.5c-0.2,0-0.3,0-0.5,0c-0.9,0-0.9-0.5-0.9-1.3
				v-2h-0.6v-0.5h0.6v-1.1h0.6v1.1h0.7V80.9z"/>
			<path class="st4" d="M176.6,84.1c-0.1,0.1-0.3,0.1-0.4,0.1c-0.3,0-0.5-0.2-0.5-0.6c-0.4,0.4-0.8,0.6-1.4,0.6
				c-0.7,0-1.2-0.4-1.2-1.1c0-0.7,0.4-1.1,1.3-1.2c0.9-0.1,1.2-0.1,1.2-0.6c0-0.4-0.3-0.6-0.8-0.6c-0.6,0-0.9,0.2-0.9,0.8h-0.6
				c0-0.8,0.6-1.3,1.6-1.3c0.5,0,0.9,0.1,1.2,0.4c0.3,0.3,0.3,0.6,0.3,1c0,0.6,0,1.1,0,1.7c0,0.3,0.1,0.4,0.3,0.4c0.1,0,0.1,0,0.2,0
				V84.1z M174.7,82.4c-0.5,0.1-1.1,0.1-1.1,0.7c0,0.4,0.3,0.6,0.7,0.6c0.6,0,1.1-0.4,1.1-0.9v-0.7C175.3,82.4,175,82.4,174.7,82.4z
				"/>
			<path class="st4" d="M178.7,80.9H178v2.2c0,0.3,0,0.6,0.4,0.6c0.1,0,0.2,0,0.3,0v0.5c-0.2,0-0.3,0-0.5,0c-0.9,0-0.9-0.5-0.9-1.3
				v-2h-0.6v-0.5h0.6v-1.1h0.6v1.1h0.7V80.9z"/>
			<path class="st4" d="M181,84.2c-1.1,0-1.8-0.7-1.8-1.9c0-1.2,0.7-2,1.7-2c1.2,0,1.7,1,1.7,2.1v0.1h-2.8l0,0
				c0,0.8,0.4,1.3,1.2,1.3c0.5,0,0.8-0.2,1-0.8h0.6C182.4,83.8,181.9,84.2,181,84.2z M181,80.8c-0.6,0-1,0.4-1.1,1.1h2.2
				C182,81.2,181.6,80.8,181,80.8z"/>
		</g>
		<path class="st2" d="M229.6,120.1l8.5-2.8l-8.5-2.8 M97.6,117.3h140.5"/>
		<g class="st3">
			<path class="st4" d="M162,110.2c0,0.6-0.1,0.9-0.2,1.2c-0.3,0.4-0.8,0.7-1.5,0.7c-0.8,0-1.5-0.3-1.6-1.1h0.6
				c0.1,0.4,0.4,0.6,1,0.6c0.8,0,1.1-0.4,1.1-1.2l0-0.5c-0.2,0.5-0.6,0.7-1.2,0.7c-1,0-1.6-0.7-1.6-1.9c0-1,0.6-2,1.7-2
				c0.5,0,0.9,0.2,1.2,0.6v-0.5h0.6V110.2z M159.2,108.7c0,0.8,0.4,1.4,1.1,1.4c0.7,0,1.1-0.6,1.1-1.5c0-0.8-0.4-1.4-1.1-1.4
				C159.6,107.3,159.2,107.8,159.2,108.7z"/>
			<path class="st4" d="M164.5,110.7c-1.1,0-1.8-0.7-1.8-1.9c0-1.2,0.7-2,1.7-2c1.2,0,1.7,1,1.7,2.1v0.1h-2.8l0,0
				c0,0.8,0.4,1.3,1.2,1.3c0.5,0,0.8-0.2,1-0.8h0.6C165.9,110.3,165.4,110.7,164.5,110.7z M164.4,107.2c-0.6,0-1,0.4-1.1,1.1h2.2
				C165.5,107.7,165.1,107.2,164.4,107.2z"/>
			<path class="st4" d="M168.4,107.4h-0.7v2.2c0,0.3,0,0.6,0.4,0.6c0.1,0,0.2,0,0.3,0v0.5c-0.2,0-0.3,0-0.5,0
				c-0.9,0-0.9-0.5-0.9-1.3v-2h-0.6v-0.5h0.6v-1.1h0.6v1.1h0.7V107.4z"/>
			<path class="st4" d="M172.8,106l-3.2,4h3.3v0.6h-4.1V110l3.2-4h-3v-0.6h3.8V106z"/>
			<path class="st4" d="M174.2,106.2h-0.6v-0.8h0.6V106.2z M174.2,110.6h-0.6v-3.7h0.6V110.6z"/>
			<path class="st4" d="M175.7,107.4c0.3-0.5,0.7-0.6,1.3-0.6c1,0,1.7,0.8,1.7,2c0,1.2-0.7,2-1.7,2c-0.6,0-0.9-0.2-1.3-0.6v2h-0.6
				v-5.2h0.6V107.4z M175.7,108.7c0,0.9,0.4,1.5,1.2,1.5c0.7,0,1.1-0.6,1.1-1.5c0-0.9-0.4-1.5-1.2-1.5
				C176.2,107.2,175.7,107.8,175.7,108.7z"/>
		</g>
	</g>
</g>
</svg>
