<?xml version="1.0" encoding="utf-8"?>
<!-- Generator: Adobe Illustrator 21.0.0, SVG Export Plug-In . SVG Version: 6.00 Build 0)  -->
<svg version="1.1" id="Layer_1" xmlns="http://www.w3.org/2000/svg" xmlns:xlink="http://www.w3.org/1999/xlink" x="0px" y="0px"
	 viewBox="0 0 252 256" style="enable-background:new 0 0 252 256;" xml:space="preserve">
<style type="text/css">
	.st0{fill:#FFFFFF;}
	.st1{fill:none;stroke:#231F20;stroke-width:0.5;stroke-linejoin:round;}
	.st2{enable-background:new    ;}
	.st3{fill:#231F20;}
	.st4{fill:none;stroke:#231F20;stroke-width:0.5;stroke-linecap:round;stroke-linejoin:round;stroke-dasharray:4,2;}
	.st5{fill:none;stroke:#231F20;stroke-width:0.5;stroke-linecap:round;stroke-linejoin:round;}
</style>
<title>img3</title>
<g id="Layer_2">
	<g id="Layer_1-2">
		<rect class="st0" width="252" height="256"/>
		<path class="st1" d="M0.3,112.6h26.1V95.7H0.3V112.6 M0.3,147.2h69.2v-34.6H0.3V147.2"/>
		<g class="st2">
			<path class="st3" d="M11,106.6c-0.1-0.1-0.1-0.2-0.1-0.4c-0.3,0.3-0.8,0.5-1.2,0.5c-0.8,0-1.3-0.4-1.3-1.1c0-1,0.9-1.1,1.6-1.2
				c0.7-0.1,0.9-0.1,0.9-0.4c0-0.3-0.2-0.5-0.7-0.5c-0.5,0-0.7,0.1-0.7,0.6h-1c0.1-0.8,0.7-1.3,1.7-1.3c0.8,0,1.6,0.2,1.6,1.2v1.6
				c0,0.3,0,0.7,0.1,1H11z M10.2,105c-0.4,0.1-0.8,0.1-0.8,0.6c0,0.3,0.2,0.5,0.6,0.5c0.5,0,0.9-0.3,0.9-0.8v-0.4
				C10.7,104.9,10.5,104.9,10.2,105z"/>
			<path class="st3" d="M13.7,103.3c0.3-0.4,0.7-0.6,1.2-0.6c1,0,1.7,0.8,1.7,2c0,1.2-0.6,1.9-1.6,1.9c-0.5,0-0.9-0.2-1.2-0.6v1.8
				h-1v-5.1h1V103.3z M13.7,104.7c0,0.7,0.3,1.2,0.9,1.2c0.6,0,0.9-0.4,0.9-1.1c0-0.7-0.3-1.2-0.9-1.2
				C14.1,103.6,13.7,104,13.7,104.7z"/>
			<path class="st3" d="M18.2,102.3h-1v-0.9h1V102.3z M18.2,106.6h-1v-3.7h1V106.6z"/>
		</g>
		<path class="st1" d="M104.1,9.2h25.8V0.3h-25.8V9.2 M104.1,43.8h69.2V9.2h-69.2V43.8"/>
		<g class="st2">
			<path class="st3" d="M130.8,28.7c-1.2,0-1.9-0.8-1.9-1.9c0-1.2,0.8-2,1.9-2c1,0,1.7,0.5,1.8,1.4h-1c-0.1-0.4-0.3-0.6-0.7-0.6
				c-0.6,0-0.9,0.4-0.9,1.2c0,0.7,0.3,1.2,0.9,1.2c0.4,0,0.7-0.3,0.8-0.8h1C132.4,28.1,131.8,28.7,130.8,28.7z"/>
		</g>
		<g class="st2">
			<path class="st3" d="M134.1,28.6h-1v-5.2h1V28.6z"/>
			<path class="st3" d="M135.9,24.3h-1v-0.9h1V24.3z M135.9,28.6h-1v-3.7h1V28.6z"/>
			<path class="st3" d="M138.5,28.7c-1.2,0-1.9-0.8-1.9-2c0-1.2,0.8-2,1.9-2c1.1,0,1.8,0.8,1.8,2.1V27h-2.7c0,0.6,0.3,1,0.9,1
				c0.4,0,0.6-0.2,0.8-0.5h1C140,28.2,139.4,28.7,138.5,28.7z M138.5,25.5c-0.5,0-0.8,0.3-0.8,0.8h1.6
				C139.2,25.9,139,25.5,138.5,25.5z"/>
			<path class="st3" d="M143.4,28.6v-2.2c0-0.5-0.1-0.8-0.6-0.8c-0.6,0-0.8,0.4-0.8,1v2h-1v-3.7h1v0.5c0.3-0.4,0.7-0.6,1.2-0.6
				c0.8,0,1.3,0.5,1.3,1.3v2.5H143.4z"/>
			<path class="st3" d="M147.3,25.5h-0.8v1.8c0,0.4,0,0.5,0.4,0.5c0.1,0,0.2,0,0.3,0v0.8c-0.3,0-0.4,0-0.6,0c-0.9,0-1.2-0.2-1.2-1.1
				v-1.9h-0.6v-0.7h0.6v-1.1h1v1.1h0.8V25.5z"/>
		</g>
		<path class="st1" d="M121.4,112.6h25.8V95.7h-25.8V112.6 M121.4,147.2h69.2v-34.6h-69.2V147.2"/>
		<g class="st2">
			<path class="st3" d="M131.6,106.6v-0.5c-0.2,0.4-0.6,0.6-1.1,0.6c-1,0-1.7-0.8-1.7-2c0-1.2,0.6-2,1.6-2c0.4,0,0.9,0.2,1.1,0.6
				v-1.9h1v5.2H131.6z M130.7,103.6c-0.6,0-0.9,0.4-0.9,1.1c0,0.7,0.3,1.2,0.9,1.2c0.6,0,0.9-0.4,0.9-1.2
				C131.6,104,131.2,103.6,130.7,103.6z"/>
			<path class="st3" d="M135.4,103.5h-0.8v1.8c0,0.4,0,0.5,0.4,0.5c0.1,0,0.2,0,0.3,0v0.8c-0.3,0-0.4,0-0.6,0
				c-0.9,0-1.2-0.2-1.2-1.1v-1.9H133v-0.7h0.6v-1.1h1v1.1h0.8V103.5z"/>
			<path class="st3" d="M139.7,104.7c0,1.2-0.8,2-1.9,2s-1.9-0.8-1.9-2c0-1.2,0.8-2,2-2C138.9,102.7,139.7,103.5,139.7,104.7z
				 M136.8,104.7c0,0.8,0.3,1.2,0.9,1.2c0.6,0,0.9-0.5,0.9-1.2c0-0.7-0.3-1.2-0.9-1.2C137.2,103.5,136.8,104,136.8,104.7z"/>
		</g>
		<path class="st1" d="M0.3,216h43.4v-16.9H0.3V216 M0.3,250.6h69.2V216H0.3V250.6"/>
		<g class="st2">
			<path class="st3" d="M12.8,207.1c-0.2,0-0.3,0-0.4,0c-0.7,0-1,0.5-1,1.2v1.7h-1v-3.7h1v0.7c0.2-0.5,0.7-0.8,1.2-0.8
				c0.1,0,0.1,0,0.2,0V207.1z"/>
			<path class="st3" d="M14.8,210.1c-1.2,0-1.9-0.8-1.9-2c0-1.2,0.8-2,1.9-2c1.1,0,1.8,0.8,1.8,2.1v0.1H14c0,0.6,0.3,1,0.9,1
				c0.4,0,0.6-0.2,0.8-0.5h1C16.4,209.7,15.7,210.1,14.8,210.1z M14.8,206.9c-0.5,0-0.8,0.3-0.8,0.8h1.6
				C15.6,207.3,15.3,206.9,14.8,206.9z"/>
			<path class="st3" d="M22,210v-2.2c0-0.4-0.1-0.8-0.6-0.8c-0.5,0-0.7,0.4-0.7,0.9v2.1h-1v-2.3c0-0.4-0.1-0.7-0.6-0.7
				c-0.6,0-0.7,0.5-0.7,1v2h-1v-3.7h1v0.5c0.3-0.4,0.7-0.6,1.2-0.6c0.5,0,0.9,0.2,1.1,0.6c0.3-0.4,0.7-0.6,1.2-0.6
				c0.8,0,1.3,0.5,1.3,1.3v2.5H22z"/>
			<path class="st3" d="M27.6,208.1c0,1.2-0.8,2-1.9,2s-1.9-0.8-1.9-2c0-1.2,0.8-2,1.9-2C26.8,206.2,27.6,206.9,27.6,208.1z
				 M24.7,208.1c0,0.8,0.3,1.2,0.9,1.2c0.6,0,0.9-0.5,0.9-1.2c0-0.7-0.3-1.2-0.9-1.2C25.1,206.9,24.7,207.4,24.7,208.1z"/>
			<path class="st3" d="M30.3,207h-0.8v1.8c0,0.4,0,0.5,0.4,0.5c0.1,0,0.2,0,0.3,0v0.8c-0.3,0-0.4,0-0.6,0c-0.9,0-1.2-0.2-1.2-1.1
				V207h-0.6v-0.7h0.6v-1.1h1v1.1h0.8V207z"/>
			<path class="st3" d="M32.6,210.1c-1.2,0-1.9-0.8-1.9-2c0-1.2,0.8-2,1.9-2c1.1,0,1.8,0.8,1.8,2.1v0.1h-2.7c0,0.6,0.3,1,0.9,1
				c0.4,0,0.6-0.2,0.8-0.5h1C34.1,209.7,33.4,210.1,32.6,210.1z M32.5,206.9c-0.5,0-0.8,0.3-0.8,0.8h1.6
				C33.3,207.3,33,206.9,32.5,206.9z"/>
		</g>
		<path class="st1" d="M190.6,203.3h38.5v-16.6h-38.5V203.3 M190.6,255.2h60.4v-51.9h-60.4V255.2"/>
		<g class="st2">
			<path class="st3" d="M199.8,196.9v-0.5c-0.2,0.4-0.6,0.6-1.1,0.6c-1,0-1.7-0.8-1.7-2c0-1.2,0.6-2,1.6-2c0.4,0,0.9,0.2,1.1,0.6
				v-1.9h1v5.2H199.8z M198.9,193.9c-0.6,0-0.9,0.4-0.9,1.1c0,0.7,0.3,1.2,0.9,1.2c0.6,0,0.9-0.4,0.9-1.2
				C199.8,194.3,199.4,193.9,198.9,193.9z"/>
			<path class="st3" d="M205.3,195.1c0,1.2-0.8,2-1.9,2s-1.9-0.8-1.9-2c0-1.2,0.8-2,1.9-2C204.5,193.1,205.3,193.9,205.3,195.1z
				 M202.5,195.1c0,0.8,0.3,1.2,0.9,1.2c0.6,0,0.9-0.5,0.9-1.2c0-0.7-0.3-1.2-0.9-1.2C202.8,193.9,202.5,194.3,202.5,195.1z"/>
			<path class="st3" d="M210.7,196.9v-2.2c0-0.4-0.1-0.8-0.6-0.8c-0.5,0-0.7,0.4-0.7,0.9v2.1h-1v-2.3c0-0.4-0.1-0.7-0.6-0.7
				c-0.6,0-0.7,0.5-0.7,1v2h-1v-3.7h1v0.5c0.3-0.4,0.7-0.6,1.2-0.6c0.5,0,0.9,0.2,1.1,0.6c0.3-0.4,0.7-0.6,1.2-0.6
				c0.8,0,1.3,0.5,1.3,1.3v2.5H210.7z"/>
			<path class="st3" d="M215,196.9c-0.1-0.1-0.1-0.2-0.1-0.4c-0.3,0.3-0.8,0.5-1.2,0.5c-0.8,0-1.3-0.4-1.3-1.1c0-1,0.9-1.1,1.6-1.2
				c0.7-0.1,0.9-0.1,0.9-0.4c0-0.3-0.2-0.5-0.7-0.5c-0.5,0-0.7,0.1-0.7,0.6h-1c0.1-0.8,0.7-1.3,1.7-1.3c0.8,0,1.6,0.2,1.6,1.2v1.6
				c0,0.3,0,0.7,0.1,1H215z M214.2,195.3c-0.4,0.1-0.8,0.1-0.8,0.6c0,0.3,0.2,0.5,0.6,0.5c0.5,0,0.9-0.3,0.9-0.8v-0.4
				C214.6,195.3,214.4,195.3,214.2,195.3z"/>
			<path class="st3" d="M217.7,192.6h-1v-0.9h1V192.6z M217.7,196.9h-1v-3.7h1V196.9z"/>
			<path class="st3" d="M221,196.9v-2.2c0-0.5-0.1-0.8-0.6-0.8c-0.6,0-0.8,0.4-0.8,1v2h-1v-3.7h1v0.5c0.3-0.4,0.7-0.6,1.2-0.6
				c0.8,0,1.3,0.5,1.3,1.3v2.5H221z"/>
		</g>
		<g class="st2">
			<path class="st3" d="M18.9,127.8h-0.8l-0.6-1.6h-2.2l-0.6,1.6h-0.7l2-5.2h0.8L18.9,127.8z M16.5,123.3l-0.9,2.4h1.8L16.5,123.3z"
				/>
			<path class="st3" d="M19.9,127.8h-0.6v-5.2h0.6V127.8z"/>
		</g>
		<g class="st2">
			<path class="st3" d="M21.5,124.5c0.3-0.4,0.7-0.6,1.2-0.6c1,0,1.7,0.8,1.7,2c0,1.2-0.7,2-1.7,2c-0.5,0-1-0.2-1.2-0.7v0.5h-0.6
				v-5.2h0.6V124.5z M21.5,125.9c0,0.9,0.4,1.4,1.2,1.4c0.7,0,1.1-0.6,1.1-1.5c0-0.9-0.4-1.4-1.1-1.4
				C21.8,124.5,21.5,125.2,21.5,125.9z"/>
		</g>
		<g class="st2">
			<path class="st3" d="M28.2,127.8h-0.6v-0.6c-0.3,0.5-0.7,0.7-1.3,0.7c-0.8,0-1.2-0.4-1.2-1.3V124h0.6v2.4c0,0.5,0.2,0.9,0.8,0.9
				c0.8,0,1.1-0.6,1.1-1.3v-2h0.6V127.8z"/>
			<path class="st3" d="M29.7,124.6c0.3-0.4,0.7-0.6,1.2-0.6c0.5,0,0.8,0.2,1,0.6c0.3-0.4,0.7-0.7,1.2-0.7c0.8,0,1.2,0.5,1.2,1.2
				v2.6h-0.6v-2.4c0-0.5-0.1-0.9-0.7-0.9c-0.7,0-1,0.5-1,1.2v2.1h-0.6v-2.4c0-0.5-0.1-0.9-0.7-0.9c-0.8,0-1,0.6-1,1.3v2h-0.6V124
				h0.6V124.6z"/>
			<path class="st3" d="M39.5,127.8h-0.7v-2.4h-2.7v2.4h-0.7v-5.2h0.7v2.2h2.7v-2.2h0.7V127.8z"/>
			<path class="st3" d="M43.9,125.9c0,1.3-0.7,2-1.8,2c-1.1,0-1.8-0.7-1.8-2s0.7-2,1.8-2C43.3,123.9,43.9,124.6,43.9,125.9z
				 M40.9,125.9c0,0.9,0.4,1.5,1.2,1.5c0.7,0,1.2-0.6,1.2-1.5c0-0.9-0.4-1.5-1.2-1.5S40.9,125,40.9,125.9z"/>
			<path class="st3" d="M45.2,124.6c0.3-0.4,0.7-0.6,1.2-0.6c0.5,0,0.8,0.2,1,0.6c0.3-0.4,0.7-0.7,1.2-0.7c0.8,0,1.2,0.5,1.2,1.2
				v2.6h-0.6v-2.4c0-0.5-0.1-0.9-0.7-0.9c-0.7,0-1,0.5-1,1.2v2.1H47v-2.4c0-0.5-0.1-0.9-0.7-0.9c-0.8,0-1,0.6-1,1.3v2h-0.6V124h0.6
				V124.6z"/>
			<path class="st3" d="M52.4,127.9c-1.1,0-1.8-0.7-1.8-1.9c0-1.2,0.7-2,1.7-2c1.2,0,1.7,1,1.7,2.1v0.1h-2.8l0,0
				c0,0.8,0.4,1.3,1.2,1.3c0.5,0,0.8-0.2,1-0.8H54C53.9,127.5,53.3,127.9,52.4,127.9z M52.4,124.4c-0.6,0-1,0.4-1.1,1.1h2.2
				C53.4,124.9,53,124.4,52.4,124.4z"/>
		</g>
		<g class="st2">
			<path class="st3" d="M18.9,136.9h-0.8l-0.6-1.6h-2.2l-0.6,1.6h-0.7l2-5.2h0.8L18.9,136.9z M16.5,132.4l-0.9,2.4h1.8L16.5,132.4z"
				/>
			<path class="st3" d="M19.9,136.9h-0.6v-5.2h0.6V136.9z"/>
		</g>
		<g class="st2">
			<path class="st3" d="M21.5,133.7c0.3-0.4,0.7-0.6,1.2-0.6c1,0,1.7,0.8,1.7,2c0,1.2-0.7,2-1.7,2c-0.5,0-1-0.2-1.2-0.7v0.5h-0.6
				v-5.2h0.6V133.7z M21.5,135.1c0,0.9,0.4,1.4,1.2,1.4c0.7,0,1.1-0.6,1.1-1.5c0-0.9-0.4-1.4-1.1-1.4
				C21.8,133.6,21.5,134.4,21.5,135.1z"/>
		</g>
		<g class="st2">
			<path class="st3" d="M28.2,136.9h-0.6v-0.6c-0.3,0.5-0.7,0.7-1.3,0.7c-0.8,0-1.2-0.4-1.2-1.3v-2.6h0.6v2.4c0,0.5,0.2,0.9,0.8,0.9
				c0.8,0,1.1-0.6,1.1-1.3v-2h0.6V136.9z"/>
			<path class="st3" d="M29.7,133.7c0.3-0.4,0.7-0.6,1.2-0.6c0.5,0,0.8,0.2,1,0.6c0.3-0.4,0.7-0.7,1.2-0.7c0.8,0,1.2,0.5,1.2,1.2
				v2.6h-0.6v-2.4c0-0.5-0.1-0.9-0.7-0.9c-0.7,0-1,0.5-1,1.2v2.1h-0.6v-2.4c0-0.5-0.1-0.9-0.7-0.9c-0.8,0-1,0.6-1,1.3v2h-0.6v-3.7
				h0.6V133.7z"/>
			<path class="st3" d="M38.4,133.3c-0.1-0.7-0.5-1.1-1.3-1.1c-0.7,0-1.2,0.3-1.2,0.9c0,0.6,0.6,0.7,1.4,0.9
				c0.8,0.2,1.9,0.4,1.9,1.5c0,1.1-1,1.6-2,1.6c-1.2,0-2.1-0.6-2.1-1.8h0.7c0,0.9,0.7,1.3,1.5,1.3c0.6,0,1.3-0.2,1.3-0.9
				c0-0.7-0.7-0.8-1.5-1c-0.8-0.2-1.8-0.3-1.8-1.4c0-1.1,0.9-1.5,1.9-1.5c1.1,0,1.8,0.5,1.9,1.6H38.4z"/>
			<path class="st3" d="M41.5,137.1c-1.1,0-1.8-0.7-1.8-1.9c0-1.2,0.7-2,1.7-2c1.2,0,1.7,1,1.7,2.1v0.1h-2.8l0,0
				c0,0.8,0.4,1.3,1.2,1.3c0.5,0,0.8-0.2,1-0.8h0.6C43,136.6,42.4,137.1,41.5,137.1z M41.5,133.6c-0.6,0-1,0.4-1.1,1.1h2.2
				C42.5,134,42.1,133.6,41.5,133.6z"/>
		</g>
		<g class="st2">
			<path class="st3" d="M45.8,133.8c-0.1,0-0.1,0-0.2,0c-1,0-1.2,0.8-1.2,1.6v1.6h-0.6v-3.7h0.6v0.8c0.3-0.6,0.7-0.9,1.4-0.9V133.8z
				"/>
		</g>
		<g class="st2">
			<path class="st3" d="M46.8,133.2l1.1,3.1l1-3.1h0.6l-1.4,3.7h-0.7l-1.4-3.7H46.8z"/>
			<path class="st3" d="M50.8,132.5h-0.6v-0.8h0.6V132.5z M50.8,136.9h-0.6v-3.7h0.6V136.9z"/>
			<path class="st3" d="M53.3,137c-1.2,0-1.8-0.8-1.8-1.9c0-1.2,0.7-2,1.8-2c0.9,0,1.5,0.5,1.6,1.3h-0.6c-0.1-0.5-0.4-0.8-0.9-0.8
				c-0.7,0-1.2,0.6-1.2,1.5c0,0.9,0.4,1.5,1.1,1.5c0.6,0,0.9-0.3,1-1h0.6C54.8,136.5,54.2,137,53.3,137z"/>
			<path class="st3" d="M57.2,137.1c-1.1,0-1.8-0.7-1.8-1.9c0-1.2,0.7-2,1.7-2c1.2,0,1.7,1,1.7,2.1v0.1H56l0,0
				c0,0.8,0.4,1.3,1.2,1.3c0.5,0,0.8-0.2,1-0.8h0.6C58.6,136.6,58.1,137.1,57.2,137.1z M57.2,133.6c-0.6,0-1,0.4-1.1,1.1h2.2
				C58.2,134,57.8,133.6,57.2,133.6z"/>
		</g>
		<g class="st2">
			<path class="st3" d="M144.5,122.8h-0.8l-0.6-1.6H141l-0.6,1.6h-0.7l2-5.2h0.8L144.5,122.8z M142.1,118.3l-0.9,2.4h1.8
				L142.1,118.3z"/>
		</g>
		<g class="st2">
			<path class="st3" d="M146.9,119.6c-0.1,0-0.1,0-0.2,0c-1,0-1.2,0.8-1.2,1.6v1.6h-0.6v-3.7h0.6v0.8c0.3-0.6,0.7-0.9,1.4-0.9V119.6
				z"/>
		</g>
		<g class="st2">
			<path class="st3" d="M149.2,119.6h-0.7v2.2c0,0.3,0,0.6,0.4,0.6c0.1,0,0.2,0,0.3,0v0.5c-0.2,0-0.3,0-0.5,0
				c-0.9,0-0.9-0.5-0.9-1.3v-2h-0.6v-0.5h0.6V118h0.6v1.1h0.7V119.6z"/>
			<path class="st3" d="M150.6,118.4h-0.6v-0.8h0.6V118.4z M150.6,122.8h-0.6v-3.7h0.6V122.8z"/>
			<path class="st3" d="M153.7,120.2c0-0.5-0.4-0.7-0.9-0.7c-0.5,0-0.8,0.2-0.8,0.5c0,0.4,0.5,0.5,1,0.6c0.6,0.1,1.5,0.3,1.5,1.1
				c0,0.7-0.6,1.2-1.6,1.2c-1,0-1.6-0.5-1.6-1.3h0.6c0,0.6,0.4,0.8,1,0.8c0.6,0,0.9-0.2,0.9-0.6c0-0.4-0.4-0.5-0.9-0.6
				c-0.6-0.2-1.5-0.2-1.5-1.1c0-0.7,0.6-1.1,1.4-1.1c0.8,0,1.5,0.4,1.5,1.2H153.7z"/>
			<path class="st3" d="M156.7,119.6H156v2.2c0,0.3,0,0.6,0.4,0.6c0.1,0,0.2,0,0.3,0v0.5c-0.2,0-0.3,0-0.5,0c-0.9,0-0.9-0.5-0.9-1.3
				v-2h-0.6v-0.5h0.6V118h0.6v1.1h0.7V119.6z"/>
			<path class="st3" d="M159.2,117.7c1.7,0,2.6,0.8,2.6,2.5c0,1.7-0.7,2.6-2.4,2.6h-1.8v-5.2H159.2z M158.2,122.2h1
				c1.3,0,1.8-0.6,1.8-2c0-1.4-0.5-2-1.9-2h-1V122.2z"/>
		</g>
		<g class="st2">
			<path class="st3" d="M166.2,118.3h-1.7v4.6h-0.7v-4.6h-1.7v-0.6h4.1V118.3z"/>
		</g>
		<g class="st2">
			<path class="st3" d="M171.2,120.2c0,1.5-0.8,2.7-2.5,2.7c-1.7,0-2.5-1.3-2.5-2.8c0-1.6,1-2.6,2.5-2.6
				C170.3,117.5,171.2,118.7,171.2,120.2z M166.9,120.2c0,1.3,0.7,2.1,1.8,2.1c1.1,0,1.8-0.8,1.8-2.1c0-1.3-0.7-2.1-1.8-2.1
				C167.5,118.1,166.9,119.1,166.9,120.2z"/>
		</g>
		<g class="st2">
			<path class="st3" d="M144.5,132.3h-0.8l-0.6-1.6H141l-0.6,1.6h-0.7l2-5.2h0.8L144.5,132.3z M142.1,127.8l-0.9,2.4h1.8
				L142.1,127.8z"/>
			<path class="st3" d="M145.6,132.3H145v-5.2h0.6V132.3z"/>
		</g>
		<g class="st2">
			<path class="st3" d="M147.2,129.1c0.3-0.4,0.7-0.6,1.2-0.6c1,0,1.7,0.8,1.7,2c0,1.2-0.7,2-1.7,2c-0.5,0-1-0.2-1.2-0.7v0.5h-0.6
				v-5.2h0.6V129.1z M147.1,130.5c0,0.9,0.4,1.4,1.2,1.4c0.7,0,1.1-0.6,1.1-1.5c0-0.9-0.5-1.4-1.1-1.4
				C147.4,129,147.1,129.8,147.1,130.5z"/>
		</g>
		<g class="st2">
			<path class="st3" d="M153.8,132.3h-0.6v-0.6c-0.3,0.5-0.7,0.7-1.3,0.7c-0.8,0-1.2-0.4-1.2-1.3v-2.6h0.6v2.4
				c0,0.5,0.2,0.9,0.8,0.9c0.8,0,1.1-0.6,1.1-1.3v-2h0.6V132.3z"/>
			<path class="st3" d="M155.3,129.2c0.3-0.4,0.7-0.6,1.2-0.6c0.5,0,0.8,0.2,1,0.6c0.3-0.4,0.7-0.7,1.2-0.7c0.8,0,1.2,0.5,1.2,1.2
				v2.6h-0.6V130c0-0.5-0.1-0.9-0.7-0.9c-0.7,0-1,0.5-1,1.2v2.1h-0.6V130c0-0.5-0.1-0.9-0.7-0.9c-0.8,0-1,0.6-1,1.3v2h-0.6v-3.7h0.6
				V129.2z"/>
			<path class="st3" d="M162.7,127.2c1.7,0,2.6,0.8,2.6,2.5c0,1.7-0.7,2.6-2.4,2.6H161v-5.2H162.7z M161.7,131.8h1
				c1.3,0,1.8-0.6,1.8-2c0-1.4-0.5-2-1.9-2h-1V131.8z"/>
		</g>
		<g class="st2">
			<path class="st3" d="M169.7,127.8H168v4.6h-0.7v-4.6h-1.7v-0.6h4.1V127.8z"/>
		</g>
		<g class="st2">
			<path class="st3" d="M174.7,129.7c0,1.5-0.8,2.7-2.5,2.7c-1.7,0-2.5-1.3-2.5-2.8c0-1.6,1-2.6,2.5-2.6
				C173.8,127.1,174.7,128.2,174.7,129.7z M170.4,129.8c0,1.3,0.7,2.1,1.8,2.1c1.1,0,1.8-0.8,1.8-2.1c0-1.3-0.7-2.1-1.8-2.1
				C171,127.7,170.4,128.7,170.4,129.8z"/>
		</g>
		<g class="st2">
			<path class="st3" d="M143.9,137h-1.7v4.6h-0.7V137h-1.7v-0.6h4.1V137z"/>
		</g>
		<g class="st2">
			<path class="st3" d="M145.5,138.3c-0.1,0-0.1,0-0.2,0c-1,0-1.2,0.8-1.2,1.6v1.6h-0.6v-3.7h0.6v0.8c0.3-0.6,0.7-0.9,1.4-0.9V138.3
				z"/>
		</g>
		<g class="st2">
			<path class="st3" d="M149.2,141.5c-0.1,0.1-0.3,0.1-0.4,0.1c-0.3,0-0.5-0.2-0.5-0.6c-0.4,0.4-0.8,0.6-1.4,0.6
				c-0.7,0-1.2-0.4-1.2-1.1c0-0.7,0.4-1.1,1.3-1.2c0.9-0.1,1.2-0.1,1.2-0.6c0-0.4-0.3-0.6-0.8-0.6c-0.6,0-0.9,0.2-0.9,0.8h-0.6
				c0-0.8,0.6-1.3,1.6-1.3c0.5,0,0.9,0.1,1.2,0.4c0.3,0.3,0.3,0.6,0.3,1c0,0.6,0,1.1,0,1.7c0,0.3,0.1,0.4,0.3,0.4c0.1,0,0.1,0,0.2,0
				V141.5z M147.4,139.8c-0.4,0.1-1.1,0.1-1.1,0.7c0,0.4,0.3,0.6,0.7,0.6c0.6,0,1.1-0.4,1.1-0.9v-0.7
				C148,139.8,147.6,139.8,147.4,139.8z"/>
		</g>
		<g class="st2">
			<path class="st3" d="M151.4,141.6c-1.2,0-1.8-0.8-1.8-1.9c0-1.2,0.7-2,1.8-2c0.9,0,1.5,0.5,1.6,1.3h-0.6
				c-0.1-0.5-0.4-0.8-0.9-0.8c-0.7,0-1.2,0.6-1.2,1.5c0,0.9,0.4,1.5,1.1,1.5c0.6,0,0.9-0.3,1-1h0.6
				C152.9,141.1,152.3,141.6,151.4,141.6z"/>
		</g>
		<g class="st2">
			<path class="st3" d="M155.2,139.1l1.6,2.4H156l-1.3-2l-0.6,0.5v1.4h-0.6v-5.2h0.6v3.1l1.7-1.6h0.8L155.2,139.1z"/>
			<path class="st3" d="M159.1,136.4c1.7,0,2.6,0.8,2.6,2.5c0,1.7-0.7,2.6-2.4,2.6h-1.8v-5.2H159.1z M158.1,140.9h1
				c1.3,0,1.8-0.6,1.8-2c0-1.4-0.5-2-1.9-2h-1V140.9z"/>
		</g>
		<g class="st2">
			<path class="st3" d="M166.1,137h-1.7v4.6h-0.7V137h-1.7v-0.6h4.1V137z"/>
		</g>
		<g class="st2">
			<path class="st3" d="M171,138.9c0,1.5-0.8,2.7-2.5,2.7c-1.7,0-2.5-1.3-2.5-2.8c0-1.6,1-2.6,2.5-2.6
				C170.1,136.2,171,137.4,171,138.9z M166.8,138.9c0,1.3,0.7,2.1,1.8,2.1c1.1,0,1.8-0.8,1.8-2.1c0-1.3-0.7-2.1-1.8-2.1
				C167.3,136.8,166.8,137.8,166.8,138.9z"/>
		</g>
		<g class="st2">
			<path class="st3" d="M11.5,226.6h-0.8l-0.6-1.6H8l-0.6,1.6H6.7l2-5.2h0.8L11.5,226.6z M9.1,222.1l-0.9,2.4h1.8L9.1,222.1z"/>
			<path class="st3" d="M12.5,226.6h-0.6v-5.2h0.6V226.6z"/>
			<path class="st3" d="M14.1,223.4c0.3-0.4,0.7-0.6,1.2-0.6c1,0,1.7,0.8,1.7,2c0,1.2-0.7,2-1.7,2c-0.5,0-1-0.2-1.2-0.7v0.5h-0.6
				v-5.2h0.6V223.4z M14.1,224.7c0,0.9,0.4,1.4,1.2,1.4c0.7,0,1.1-0.6,1.1-1.5c0-0.9-0.4-1.4-1.1-1.4
				C14.4,223.3,14.1,224,14.1,224.7z"/>
			<path class="st3" d="M20.9,226.6h-0.6V226c-0.3,0.5-0.7,0.7-1.3,0.7c-0.8,0-1.2-0.4-1.2-1.3v-2.6h0.6v2.4c0,0.5,0.2,0.9,0.8,0.9
				c0.8,0,1.1-0.6,1.1-1.3v-2h0.6V226.6z"/>
			<path class="st3" d="M22.4,223.4c0.3-0.4,0.7-0.6,1.2-0.6c0.5,0,0.8,0.2,1,0.6c0.3-0.4,0.7-0.7,1.2-0.7c0.8,0,1.2,0.5,1.2,1.2
				v2.6h-0.6v-2.4c0-0.5-0.1-0.9-0.7-0.9c-0.7,0-1,0.5-1,1.2v2.1h-0.6v-2.4c0-0.5-0.1-0.9-0.7-0.9c-0.8,0-1,0.6-1,1.3v2h-0.6v-3.7
				h0.6V223.4z"/>
			<path class="st3" d="M31.1,222.9c-0.1-0.7-0.5-1.1-1.3-1.1c-0.7,0-1.2,0.3-1.2,0.9c0,0.6,0.6,0.7,1.4,0.9
				c0.8,0.2,1.9,0.4,1.9,1.5c0,1.1-1,1.6-2,1.6c-1.2,0-2.1-0.6-2.1-1.8h0.7c0,0.9,0.7,1.3,1.5,1.3c0.6,0,1.3-0.2,1.3-0.9
				c0-0.7-0.7-0.8-1.5-1c-0.8-0.2-1.8-0.3-1.8-1.4c0-1.1,0.9-1.5,1.9-1.5c1.1,0,1.8,0.5,1.9,1.6H31.1z"/>
			<path class="st3" d="M34.3,226.7c-1.1,0-1.8-0.7-1.8-1.9c0-1.2,0.7-2,1.7-2c1.2,0,1.7,1,1.7,2.1v0.1h-2.8l0,0
				c0,0.8,0.4,1.3,1.2,1.3c0.5,0,0.8-0.2,1-0.8h0.6C35.7,226.3,35.1,226.7,34.3,226.7z M34.2,223.2c-0.6,0-1,0.4-1.1,1.1h2.2
				C35.2,223.7,34.8,223.2,34.2,223.2z"/>
			<path class="st3" d="M38.5,223.4c-0.1,0-0.1,0-0.2,0c-1,0-1.2,0.8-1.2,1.6v1.6h-0.6v-3.7h0.6v0.8c0.3-0.6,0.7-0.9,1.4-0.9V223.4z
				"/>
			<path class="st3" d="M39.3,222.8l1.1,3.1l1-3.1h0.6l-1.4,3.7H40l-1.4-3.7H39.3z"/>
			<path class="st3" d="M43.3,222.2h-0.6v-0.8h0.6V222.2z M43.3,226.6h-0.6v-3.7h0.6V226.6z"/>
			<path class="st3" d="M45.8,226.7c-1.2,0-1.8-0.8-1.8-1.9c0-1.2,0.7-2,1.8-2c0.9,0,1.5,0.5,1.6,1.3h-0.6c-0.1-0.5-0.4-0.8-0.9-0.8
				c-0.7,0-1.2,0.6-1.2,1.5c0,0.9,0.4,1.5,1.1,1.5c0.6,0,0.9-0.3,1-1h0.6C47.3,226.1,46.8,226.7,45.8,226.7z"/>
			<path class="st3" d="M49.7,226.7c-1.1,0-1.8-0.7-1.8-1.9c0-1.2,0.7-2,1.7-2c1.2,0,1.7,1,1.7,2.1v0.1h-2.8l0,0
				c0,0.8,0.4,1.3,1.2,1.3c0.5,0,0.8-0.2,1-0.8h0.6C51.1,226.3,50.6,226.7,49.7,226.7z M49.7,223.2c-0.6,0-1,0.4-1.1,1.1h2.2
				C50.7,223.7,50.3,223.2,49.7,223.2z"/>
			<path class="st3" d="M54.3,221.4c0.9,0,1.6,0.3,1.6,1.3c0,0.5-0.3,0.9-0.8,1.1c0.6,0.1,1,0.6,1,1.3c0,1.2-1,1.5-2,1.5h-2.1v-5.2
				H54.3z M52.8,223.6H54c0.6,0,1.3,0,1.3-0.8c0-0.8-0.6-0.8-1.2-0.8h-1.3V223.6z M52.8,226h1.4c0.7,0,1.4,0,1.4-1
				c0-0.9-0.8-0.9-1.5-0.9h-1.2V226z"/>
			<path class="st3" d="M58.6,226.7c-1.1,0-1.8-0.7-1.8-1.9c0-1.2,0.7-2,1.7-2c1.2,0,1.7,1,1.7,2.1v0.1h-2.8l0,0
				c0,0.8,0.4,1.3,1.2,1.3c0.5,0,0.8-0.2,1-0.8h0.6C60,226.3,59.4,226.7,58.6,226.7z M58.5,223.2c-0.6,0-1,0.4-1.1,1.1h2.2
				C59.5,223.7,59.1,223.2,58.5,223.2z"/>
			<path class="st3" d="M64.2,226.6c-0.1,0.1-0.3,0.1-0.4,0.1c-0.3,0-0.5-0.2-0.5-0.6c-0.4,0.4-0.8,0.6-1.4,0.6
				c-0.7,0-1.2-0.4-1.2-1.1c0-0.7,0.4-1.1,1.3-1.2c0.9-0.1,1.2-0.1,1.2-0.6c0-0.4-0.3-0.6-0.8-0.6c-0.6,0-0.9,0.2-0.9,0.8h-0.6
				c0-0.8,0.6-1.3,1.6-1.3c0.5,0,0.9,0.1,1.2,0.4c0.3,0.3,0.3,0.6,0.3,1c0,0.6,0,1.1,0,1.7c0,0.3,0.1,0.4,0.3,0.4c0.1,0,0.1,0,0.2,0
				V226.6z M62.4,224.9c-0.4,0.1-1.1,0.1-1.1,0.7c0,0.4,0.3,0.6,0.7,0.6c0.6,0,1.1-0.4,1.1-0.9v-0.7C63,224.8,62.6,224.8,62.4,224.9
				z"/>
			<path class="st3" d="M65.4,223.4c0.3-0.5,0.7-0.7,1.3-0.7c0.9,0,1.2,0.5,1.2,1.4v2.5h-0.6v-2.2c0-0.6,0-1.1-0.8-1.1
				c-0.8,0-1.1,0.6-1.1,1.3v2h-0.6v-3.7h0.6V223.4z"/>
		</g>
		<g class="st2">
			<path class="st3" d="M11.5,235.8h-0.8l-0.6-1.6H8l-0.6,1.6H6.7l2-5.2h0.8L11.5,235.8z M9.1,231.3l-0.9,2.4h1.8L9.1,231.3z"/>
			<path class="st3" d="M12.5,235.8h-0.6v-5.2h0.6V235.8z"/>
			<path class="st3" d="M14.1,232.5c0.3-0.4,0.7-0.6,1.2-0.6c1,0,1.7,0.8,1.7,2c0,1.2-0.7,2-1.7,2c-0.5,0-1-0.2-1.2-0.7v0.5h-0.6
				v-5.2h0.6V232.5z M14.1,233.9c0,0.9,0.4,1.4,1.2,1.4c0.7,0,1.1-0.6,1.1-1.5c0-0.9-0.4-1.4-1.1-1.4
				C14.4,232.4,14.1,233.2,14.1,233.9z"/>
			<path class="st3" d="M20.9,235.8h-0.6v-0.6c-0.3,0.5-0.7,0.7-1.3,0.7c-0.8,0-1.2-0.4-1.2-1.3V232h0.6v2.4c0,0.5,0.2,0.9,0.8,0.9
				c0.8,0,1.1-0.6,1.1-1.3v-2h0.6V235.8z"/>
			<path class="st3" d="M22.4,232.6c0.3-0.4,0.7-0.6,1.2-0.6c0.5,0,0.8,0.2,1,0.6c0.3-0.4,0.7-0.7,1.2-0.7c0.8,0,1.2,0.5,1.2,1.2
				v2.6h-0.6v-2.4c0-0.5-0.1-0.9-0.7-0.9c-0.7,0-1,0.5-1,1.2v2.1h-0.6v-2.4c0-0.5-0.1-0.9-0.7-0.9c-0.8,0-1,0.6-1,1.3v2h-0.6V232
				h0.6V232.6z"/>
			<path class="st3" d="M32.3,235.8h-0.8l-0.6-1.6h-2.2l-0.6,1.6h-0.7l2-5.2h0.8L32.3,235.8z M29.9,231.3l-0.9,2.4h1.8L29.9,231.3z"
				/>
			<path class="st3" d="M34.9,233.1c0-0.5-0.4-0.7-0.9-0.7c-0.5,0-0.8,0.2-0.8,0.5c0,0.4,0.5,0.5,1,0.6c0.6,0.1,1.4,0.3,1.4,1.1
				c0,0.7-0.6,1.2-1.6,1.2c-1,0-1.6-0.5-1.6-1.3h0.6c0,0.6,0.4,0.8,1,0.8c0.6,0,0.9-0.2,0.9-0.6c0-0.4-0.4-0.5-0.9-0.6
				c-0.6-0.2-1.5-0.2-1.5-1.1c0-0.7,0.6-1.1,1.4-1.1c0.8,0,1.5,0.4,1.5,1.2H34.9z"/>
			<path class="st3" d="M38.5,233.1c0-0.5-0.4-0.7-0.9-0.7c-0.5,0-0.8,0.2-0.8,0.5c0,0.4,0.5,0.5,1,0.6c0.6,0.1,1.4,0.3,1.4,1.1
				c0,0.7-0.6,1.2-1.6,1.2c-1,0-1.6-0.5-1.6-1.3h0.6c0,0.6,0.4,0.8,1,0.8c0.6,0,0.9-0.2,0.9-0.6c0-0.4-0.4-0.5-0.9-0.6
				c-0.6-0.2-1.5-0.2-1.5-1.1c0-0.7,0.6-1.1,1.4-1.1c0.8,0,1.5,0.4,1.5,1.2H38.5z"/>
			<path class="st3" d="M41.5,235.9c-1.1,0-1.8-0.7-1.8-1.9c0-1.2,0.7-2,1.7-2c1.2,0,1.7,1,1.7,2.1v0.1h-2.8l0,0
				c0,0.8,0.4,1.3,1.2,1.3c0.5,0,0.8-0.2,1-0.8h0.6C43,235.4,42.4,235.9,41.5,235.9z M41.5,232.4c-0.6,0-1,0.4-1.1,1.1h2.2
				C42.5,232.8,42.1,232.4,41.5,232.4z"/>
			<path class="st3" d="M44.4,232.6c0.3-0.4,0.7-0.6,1.2-0.6c0.5,0,0.8,0.2,1,0.6c0.3-0.4,0.7-0.7,1.2-0.7c0.8,0,1.2,0.5,1.2,1.2
				v2.6h-0.6v-2.4c0-0.5-0.1-0.9-0.7-0.9c-0.7,0-1,0.5-1,1.2v2.1h-0.6v-2.4c0-0.5-0.1-0.9-0.7-0.9c-0.8,0-1,0.6-1,1.3v2h-0.6V232
				h0.6V232.6z"/>
			<path class="st3" d="M50.6,232.5c0.3-0.4,0.7-0.6,1.2-0.6c1,0,1.7,0.8,1.7,2c0,1.2-0.7,2-1.7,2c-0.5,0-1-0.2-1.2-0.7v0.5H50v-5.2
				h0.6V232.5z M50.6,233.9c0,0.9,0.4,1.4,1.2,1.4c0.7,0,1.1-0.6,1.1-1.5c0-0.9-0.4-1.4-1.1-1.4C50.9,232.4,50.6,233.2,50.6,233.9z"
				/>
			<path class="st3" d="M55,235.8h-0.6v-5.2H55V235.8z"/>
			<path class="st3" d="M57.5,235.9c-1.1,0-1.8-0.7-1.8-1.9c0-1.2,0.7-2,1.7-2c1.2,0,1.7,1,1.7,2.1v0.1h-2.8l0,0
				c0,0.8,0.4,1.3,1.2,1.3c0.5,0,0.8-0.2,1-0.8h0.6C58.9,235.4,58.4,235.9,57.5,235.9z M57.5,232.4c-0.6,0-1,0.4-1.1,1.1h2.2
				C58.5,232.8,58.1,232.4,57.5,232.4z"/>
			<path class="st3" d="M61.8,232.6c-0.1,0-0.1,0-0.2,0c-1,0-1.2,0.8-1.2,1.6v1.6h-0.6V232h0.6v0.8c0.3-0.6,0.7-0.9,1.4-0.9V232.6z"
				/>
		</g>
		<g class="st2">
			<path class="st3" d="M11.5,244.9h-0.8l-0.6-1.6H8l-0.6,1.6H6.7l2-5.2h0.8L11.5,244.9z M9.1,240.4l-0.9,2.4h1.8L9.1,240.4z"/>
			<path class="st3" d="M13.8,241.8c-0.1,0-0.1,0-0.2,0c-1,0-1.2,0.8-1.2,1.6v1.6h-0.6v-3.7h0.6v0.8c0.3-0.6,0.7-0.9,1.4-0.9V241.8z
				"/>
			<path class="st3" d="M15.9,241.7h-0.7v2.2c0,0.3,0,0.6,0.4,0.6c0.1,0,0.2,0,0.3,0v0.5c-0.2,0-0.3,0-0.5,0c-0.9,0-0.9-0.5-0.9-1.3
				v-2h-0.6v-0.5h0.6v-1.1h0.6v1.1h0.7V241.7z"/>
			<path class="st3" d="M17.2,240.5h-0.6v-0.8h0.6V240.5z M17.2,244.9h-0.6v-3.7h0.6V244.9z"/>
			<path class="st3" d="M20.3,242.3c0-0.5-0.4-0.7-0.9-0.7c-0.5,0-0.8,0.2-0.8,0.5c0,0.4,0.5,0.5,1,0.6c0.6,0.1,1.4,0.3,1.4,1.1
				c0,0.7-0.6,1.2-1.6,1.2c-1,0-1.6-0.5-1.6-1.3h0.6c0,0.6,0.4,0.8,1,0.8c0.6,0,0.9-0.2,0.9-0.6c0-0.4-0.4-0.5-0.9-0.6
				c-0.6-0.2-1.5-0.2-1.5-1.1c0-0.7,0.6-1.1,1.4-1.1c0.8,0,1.5,0.4,1.5,1.2H20.3z"/>
			<path class="st3" d="M23.4,241.7h-0.7v2.2c0,0.3,0,0.6,0.4,0.6c0.1,0,0.2,0,0.3,0v0.5c-0.2,0-0.3,0-0.5,0c-0.9,0-0.9-0.5-0.9-1.3
				v-2h-0.6v-0.5H22v-1.1h0.6v1.1h0.7V241.7z"/>
			<path class="st3" d="M28.4,244.9h-0.8l-0.6-1.6h-2.2l-0.6,1.6h-0.7l2-5.2h0.8L28.4,244.9z M26,240.4l-0.9,2.4h1.8L26,240.4z"/>
			<path class="st3" d="M30.9,242.3c0-0.5-0.4-0.7-0.9-0.7c-0.5,0-0.8,0.2-0.8,0.5c0,0.4,0.5,0.5,1,0.6c0.6,0.1,1.4,0.3,1.4,1.1
				c0,0.7-0.6,1.2-1.6,1.2c-1,0-1.6-0.5-1.6-1.3h0.6c0,0.6,0.4,0.8,1,0.8c0.6,0,0.9-0.2,0.9-0.6c0-0.4-0.4-0.5-0.9-0.6
				c-0.6-0.2-1.5-0.2-1.5-1.1c0-0.7,0.6-1.1,1.4-1.1c0.8,0,1.5,0.4,1.5,1.2H30.9z"/>
			<path class="st3" d="M34.6,242.3c0-0.5-0.4-0.7-0.9-0.7c-0.5,0-0.8,0.2-0.8,0.5c0,0.4,0.5,0.5,1,0.6c0.6,0.1,1.4,0.3,1.4,1.1
				c0,0.7-0.6,1.2-1.6,1.2c-1,0-1.6-0.5-1.6-1.3h0.6c0,0.6,0.4,0.8,1,0.8c0.6,0,0.9-0.2,0.9-0.6c0-0.4-0.4-0.5-0.9-0.6
				c-0.6-0.2-1.5-0.2-1.5-1.1c0-0.7,0.6-1.1,1.4-1.1c0.8,0,1.5,0.4,1.5,1.2H34.6z"/>
			<path class="st3" d="M37.6,245.1c-1.1,0-1.8-0.7-1.8-1.9c0-1.2,0.7-2,1.7-2c1.2,0,1.7,1,1.7,2.1v0.1h-2.8l0,0
				c0,0.8,0.4,1.3,1.2,1.3c0.5,0,0.8-0.2,1-0.8h0.6C39,244.6,38.5,245.1,37.6,245.1z M37.6,241.6c-0.6,0-1,0.4-1.1,1.1h2.2
				C38.6,242,38.2,241.6,37.6,241.6z"/>
			<path class="st3" d="M40.5,241.7c0.3-0.4,0.7-0.6,1.2-0.6c0.5,0,0.8,0.2,1,0.6c0.3-0.4,0.7-0.7,1.2-0.7c0.8,0,1.2,0.5,1.2,1.2
				v2.6h-0.6v-2.4c0-0.5-0.1-0.9-0.7-0.9c-0.7,0-1,0.5-1,1.2v2.1h-0.6v-2.4c0-0.5-0.1-0.9-0.7-0.9c-0.8,0-1,0.6-1,1.3v2h-0.6v-3.7
				h0.6V241.7z"/>
			<path class="st3" d="M46.7,241.7c0.3-0.4,0.7-0.6,1.2-0.6c1,0,1.7,0.8,1.7,2c0,1.2-0.7,2-1.7,2c-0.5,0-1-0.2-1.2-0.7v0.5h-0.6
				v-5.2h0.6V241.7z M46.7,243.1c0,0.9,0.4,1.4,1.2,1.4c0.7,0,1.1-0.6,1.1-1.5c0-0.9-0.4-1.4-1.1-1.4
				C47,241.6,46.7,242.4,46.7,243.1z"/>
			<path class="st3" d="M51.1,244.9h-0.6v-5.2h0.6V244.9z"/>
			<path class="st3" d="M53.6,245.1c-1.1,0-1.8-0.7-1.8-1.9c0-1.2,0.7-2,1.7-2c1.2,0,1.7,1,1.7,2.1v0.1h-2.8l0,0
				c0,0.8,0.4,1.3,1.2,1.3c0.5,0,0.8-0.2,1-0.8h0.6C55,244.6,54.5,245.1,53.6,245.1z M53.6,241.6c-0.6,0-1,0.4-1.1,1.1h2.2
				C54.6,242,54.2,241.6,53.6,241.6z"/>
			<path class="st3" d="M57.9,241.8c-0.1,0-0.1,0-0.2,0c-1,0-1.2,0.8-1.2,1.6v1.6h-0.6v-3.7h0.6v0.8c0.3-0.6,0.7-0.9,1.4-0.9V241.8z
				"/>
		</g>
		<g class="st2">
			<path class="st3" d="M212.6,212.8h-0.8l-0.6-1.6h-2.2l-0.6,1.6h-0.7l2-5.2h0.8L212.6,212.8z M210.2,208.3l-0.9,2.4h1.8
				L210.2,208.3z"/>
			<path class="st3" d="M213.4,212.8h-0.6v-5.2h0.6V212.8z"/>
			<path class="st3" d="M214.7,209.6c0.3-0.4,0.7-0.6,1.2-0.6c1,0,1.7,0.8,1.7,2c0,1.2-0.7,2-1.7,2c-0.5,0-1-0.2-1.2-0.7v0.5h-0.6
				v-5.2h0.6V209.6z M214.7,211c0,0.9,0.5,1.4,1.2,1.4c0.7,0,1.1-0.6,1.1-1.5c0-0.9-0.4-1.4-1.1-1.4
				C215,209.5,214.7,210.2,214.7,211z"/>
			<path class="st3" d="M221.2,212.8h-0.6v-0.6c-0.3,0.5-0.7,0.7-1.3,0.7c-0.8,0-1.2-0.4-1.2-1.3v-2.6h0.6v2.4
				c0,0.5,0.2,0.9,0.8,0.9c0.8,0,1.1-0.6,1.1-1.3v-2h0.6V212.8z"/>
			<path class="st3" d="M222.4,209.6c0.3-0.4,0.7-0.6,1.2-0.6c0.5,0,0.8,0.2,1,0.6c0.3-0.4,0.7-0.7,1.2-0.7c0.8,0,1.2,0.5,1.2,1.2
				v2.6h-0.6v-2.4c0-0.5-0.1-0.9-0.7-0.9c-0.7,0-1,0.5-1,1.2v2.1h-0.6v-2.4c0-0.5-0.1-0.9-0.7-0.9c-0.8,0-1,0.6-1,1.3v2h-0.6v-3.7
				h0.6V209.6z"/>
		</g>
		<g class="st2">
			<path class="st3" d="M212.6,222.3h-0.8l-0.6-1.6h-2.2l-0.6,1.6h-0.7l2-5.2h0.8L212.6,222.3z M210.2,217.8l-0.9,2.4h1.8
				L210.2,217.8z"/>
			<path class="st3" d="M214.7,219.2c-0.1,0-0.1,0-0.2,0c-1,0-1.2,0.8-1.2,1.6v1.6h-0.6v-3.7h0.6v0.8c0.3-0.6,0.7-0.9,1.4-0.9V219.2
				z"/>
			<path class="st3" d="M216.5,219.1h-0.7v2.2c0,0.3,0,0.6,0.4,0.6c0.1,0,0.2,0,0.3,0v0.5c-0.2,0-0.3,0-0.5,0
				c-0.9,0-0.9-0.5-0.9-1.3v-2h-0.6v-0.5h0.6v-1.1h0.6v1.1h0.7V219.1z"/>
			<path class="st3" d="M217.5,217.9h-0.6v-0.8h0.6V217.9z M217.5,222.3h-0.6v-3.7h0.6V222.3z"/>
			<path class="st3" d="M220.3,219.7c0-0.5-0.4-0.7-0.9-0.7c-0.5,0-0.8,0.2-0.8,0.5c0,0.4,0.5,0.5,1,0.6c0.6,0.1,1.4,0.3,1.4,1.1
				c0,0.7-0.6,1.2-1.6,1.2c-1,0-1.6-0.5-1.6-1.3h0.6c0,0.6,0.4,0.8,1,0.8c0.6,0,0.9-0.2,0.9-0.6c0-0.4-0.4-0.5-0.9-0.6
				c-0.6-0.2-1.5-0.2-1.5-1.1c0-0.7,0.6-1.1,1.4-1.1c0.8,0,1.5,0.4,1.5,1.2H220.3z"/>
			<path class="st3" d="M223.1,219.1h-0.7v2.2c0,0.3,0,0.6,0.4,0.6c0.1,0,0.2,0,0.3,0v0.5c-0.2,0-0.3,0-0.5,0
				c-0.9,0-0.9-0.5-0.9-1.3v-2h-0.6v-0.5h0.6v-1.1h0.6v1.1h0.7V219.1z"/>
		</g>
		<g class="st2">
			<path class="st3" d="M212,227h-1.7v4.6h-0.7V227h-1.7v-0.6h4.1V227z"/>
			<path class="st3" d="M213.5,228.3c-0.1,0-0.1,0-0.2,0c-1,0-1.2,0.8-1.2,1.6v1.6h-0.6v-3.7h0.6v0.8c0.3-0.6,0.7-0.9,1.4-0.9V228.3
				z"/>
			<path class="st3" d="M217,231.5c-0.1,0.1-0.3,0.1-0.4,0.1c-0.3,0-0.5-0.2-0.5-0.6c-0.4,0.4-0.8,0.6-1.4,0.6
				c-0.7,0-1.2-0.4-1.2-1.1c0-0.7,0.4-1.1,1.3-1.2c0.9-0.1,1.2-0.1,1.2-0.6c0-0.4-0.3-0.6-0.8-0.6c-0.6,0-0.9,0.2-0.9,0.8h-0.6
				c0-0.8,0.6-1.3,1.6-1.3c0.5,0,0.9,0.1,1.2,0.4c0.3,0.3,0.3,0.6,0.3,1c0,0.6,0,1.1,0,1.7c0,0.3,0.1,0.4,0.3,0.4c0.1,0,0.1,0,0.2,0
				V231.5z M215.2,229.8c-0.5,0.1-1.1,0.1-1.1,0.7c0,0.4,0.3,0.6,0.7,0.6c0.6,0,1.1-0.4,1.1-0.9v-0.7
				C215.8,229.8,215.4,229.8,215.2,229.8z"/>
			<path class="st3" d="M218.9,231.6c-1.2,0-1.8-0.8-1.8-1.9c0-1.2,0.7-2,1.8-2c0.9,0,1.5,0.5,1.6,1.3h-0.6
				c-0.1-0.5-0.4-0.8-0.9-0.8c-0.7,0-1.2,0.6-1.2,1.5c0,0.9,0.4,1.5,1.1,1.5c0.6,0,0.9-0.3,1-1h0.6
				C220.4,231.1,219.8,231.6,218.9,231.6z"/>
			<path class="st3" d="M222.5,229.1l1.6,2.4h-0.8l-1.3-2l-0.6,0.5v1.4h-0.6v-5.2h0.6v3.1l1.7-1.6h0.8L222.5,229.1z"/>
		</g>
		<g class="st2">
			<path class="st3" d="M210.6,235.5c1,0,1.7,0.4,1.7,1.5c0,1.2-0.8,1.6-1.8,1.6h-1.4v2.1h-0.7v-5.2H210.6z M209.2,238h1.3
				c0.7,0,1.2-0.2,1.2-0.9c0-0.8-0.6-0.9-1.3-0.9h-1.2V238z"/>
			<path class="st3" d="M213.4,240.7h-0.6v-5.2h0.6V240.7z"/>
			<path class="st3" d="M217.4,240.7c-0.1,0.1-0.3,0.1-0.4,0.1c-0.3,0-0.5-0.2-0.5-0.6c-0.4,0.4-0.8,0.6-1.4,0.6
				c-0.7,0-1.2-0.4-1.2-1.1c0-0.7,0.4-1.1,1.3-1.2c0.9-0.1,1.2-0.1,1.2-0.6c0-0.4-0.3-0.6-0.8-0.6c-0.6,0-0.9,0.2-0.9,0.8H214
				c0-0.8,0.6-1.3,1.6-1.3c0.5,0,0.9,0.1,1.2,0.4c0.3,0.3,0.3,0.6,0.3,1c0,0.6,0,1.1,0,1.7c0,0.3,0.1,0.4,0.3,0.4c0.1,0,0.1,0,0.2,0
				V240.7z M215.6,239c-0.4,0.1-1.1,0.1-1.1,0.7c0,0.4,0.3,0.6,0.7,0.6c0.6,0,1.1-0.4,1.1-0.9v-0.7C216.2,238.9,215.8,239,215.6,239
				z"/>
			<path class="st3" d="M219.2,241.2c-0.2,0.5-0.4,1-1.1,1c-0.2,0-0.3,0-0.5-0.1v-0.6c0.2,0.1,0.3,0.1,0.4,0.1
				c0.2,0,0.4-0.1,0.4-0.3l0.3-0.7l-1.5-3.7h0.7l1.1,3l1.1-3h0.6L219.2,241.2z"/>
			<path class="st3" d="M222.6,240.8c-1.1,0-1.8-0.7-1.8-1.9c0-1.2,0.7-2,1.7-2c1.2,0,1.7,1,1.7,2.1v0.1h-2.8l0,0
				c0,0.8,0.4,1.3,1.2,1.3c0.5,0,0.8-0.2,1-0.8h0.6C224,240.4,223.5,240.8,222.6,240.8z M222.5,237.4c-0.6,0-1,0.4-1.1,1.1h2.2
				C223.6,237.8,223.2,237.4,222.5,237.4z"/>
			<path class="st3" d="M226.6,237.5c-0.1,0-0.1,0-0.2,0c-1,0-1.2,0.8-1.2,1.6v1.6h-0.6V237h0.6v0.8c0.3-0.6,0.7-0.9,1.4-0.9V237.5z
				"/>
		</g>
		<g class="st2">
			<path class="st3" d="M210.7,244.7c1,0,1.7,0.3,1.7,1.4c0,0.6-0.4,1.1-0.9,1.3c0.7,0.2,0.8,0.6,0.8,1.3c0,0.4,0,0.9,0.3,1.2h-0.8
				c-0.2-0.3-0.2-0.8-0.2-1.1c0-0.9-0.3-1.1-1.2-1.1h-1.4v2.2h-0.7v-5.2H210.7z M209.1,247.1h1.3c0.7,0,1.4-0.1,1.4-0.9
				c0-0.8-0.6-0.9-1.2-0.9h-1.5V247.1z"/>
			<path class="st3" d="M214.6,250c-1.1,0-1.8-0.7-1.8-1.9c0-1.2,0.7-2,1.7-2c1.2,0,1.7,1,1.7,2.1v0.1h-2.8l0,0
				c0,0.8,0.4,1.3,1.2,1.3c0.5,0,0.8-0.2,1-0.8h0.6C216,249.6,215.5,250,214.6,250z M214.5,246.5c-0.6,0-1,0.4-1.1,1.1h2.2
				C215.6,247,215.2,246.5,214.5,246.5z"/>
			<path class="st3" d="M219.9,249.5c0,0.6-0.1,0.9-0.2,1.2c-0.3,0.4-0.8,0.7-1.5,0.7c-0.8,0-1.5-0.3-1.6-1.1h0.6
				c0.1,0.4,0.4,0.6,1,0.6c0.8,0,1.1-0.4,1.1-1.2l0-0.5c-0.2,0.5-0.6,0.7-1.2,0.7c-1,0-1.6-0.7-1.6-1.9c0-1,0.6-2,1.7-2
				c0.5,0,0.9,0.2,1.2,0.6v-0.5h0.6V249.5z M217.1,248c0,0.8,0.4,1.4,1.1,1.4c0.7,0,1.1-0.6,1.1-1.5c0-0.8-0.4-1.4-1.1-1.4
				C217.5,246.6,217.1,247.1,217.1,248z"/>
			<path class="st3" d="M221.1,245.5h-0.6v-0.8h0.6V245.5z M221.1,249.9h-0.6v-3.7h0.6V249.9z"/>
			<path class="st3" d="M224,247.2c0-0.5-0.4-0.7-0.9-0.7c-0.5,0-0.8,0.2-0.8,0.5c0,0.4,0.5,0.5,1,0.6c0.6,0.1,1.4,0.3,1.4,1.1
				c0,0.7-0.6,1.2-1.6,1.2c-1,0-1.6-0.5-1.6-1.3h0.6c0,0.6,0.4,0.8,1,0.8c0.6,0,0.9-0.2,0.9-0.6c0-0.4-0.4-0.5-0.9-0.6
				c-0.6-0.2-1.5-0.2-1.5-1.1c0-0.7,0.6-1.1,1.4-1.1c0.8,0,1.5,0.4,1.5,1.2H224z"/>
			<path class="st3" d="M226.8,246.6H226v2.2c0,0.3,0,0.6,0.4,0.6c0.1,0,0.2,0,0.3,0v0.5c-0.2,0-0.3,0-0.5,0c-0.9,0-0.9-0.5-0.9-1.3
				v-2h-0.6v-0.5h0.6V245h0.6v1.1h0.7V246.6z"/>
			<path class="st3" d="M229.1,246.7c-0.1,0-0.1,0-0.2,0c-1,0-1.2,0.8-1.2,1.6v1.6h-0.6v-3.7h0.6v0.8c0.3-0.6,0.7-0.9,1.4-0.9V246.7
				z"/>
			<path class="st3" d="M230.8,250.4c-0.2,0.5-0.4,1-1.1,1c-0.2,0-0.3,0-0.5-0.1v-0.6c0.2,0.1,0.3,0.1,0.4,0.1
				c0.2,0,0.4-0.1,0.4-0.3l0.3-0.7l-1.5-3.7h0.7l1.1,3l1.1-3h0.6L230.8,250.4z"/>
		</g>
		<polyline class="st4" points="104.1,26.5 34.9,26.5 34.9,112.6 		"/>
		<polyline class="st5" points="32.5,104.5 34.9,112.6 37.8,104.5 		"/>
		<line class="st4" x1="156" y1="43.8" x2="156" y2="112.6"/>
		<polyline class="st5" points="153.2,104.5 156,112.6 158.5,104.5 		"/>
		<line class="st4" x1="69.5" y1="129.9" x2="121.4" y2="129.9"/>
		<polyline class="st5" points="113.3,132.7 121.4,129.9 113.3,127.4 		"/>
		<line class="st4" x1="52.6" y1="216" x2="52.6" y2="147.2"/>
		<polyline class="st5" points="55.1,155.3 52.6,147.2 49.8,155.3 		"/>
		<line class="st4" x1="69.5" y1="242.1" x2="190.6" y2="242.1"/>
		<polyline class="st5" points="182.5,244.6 190.6,242.1 182.5,239.3 		"/>
		<polyline class="st4" points="69.5,224.8 156,224.8 156,147.2 		"/>
		<polyline class="st5" points="158.5,155.3 156,147.2 153.2,155.3 		"/>
	</g>
</g>
</svg>
