<?xml version="1.0" encoding="utf-8"?>
<!-- Generator: Adobe Illustrator 21.0.0, SVG Export Plug-In . SVG Version: 6.00 Build 0)  -->
<svg version="1.1" id="Layer_1" xmlns="http://www.w3.org/2000/svg" xmlns:xlink="http://www.w3.org/1999/xlink" x="0px" y="0px"
	 viewBox="0 0 316 155" style="enable-background:new 0 0 316 155;" xml:space="preserve">
<style type="text/css">
	.st0{fill:#FFFFFF;}
	.st1{fill:none;stroke:#231F20;stroke-width:0.5;stroke-linejoin:round;}
	.st2{enable-background:new    ;}
	.st3{fill:#231F20;}
	.st4{fill:none;stroke:#231F20;stroke-width:0.5;stroke-linecap:round;stroke-linejoin:round;stroke-dasharray:4,2;}
	.st5{fill:none;stroke:#231F20;stroke-width:0.5;stroke-linecap:round;stroke-linejoin:round;}
</style>
<title>img6</title>
<g id="Layer_2">
	<g id="Layer_1-2">
		<rect class="st0" width="316" height="155"/>
		<path class="st1" d="M0.6,1.2h72l0,0H0.6 M0.6,37.2h72v-36h-72V37.2"/>
		<g class="st2">
			<path class="st3" d="M14.9,16.5H17c1.6,0,2.5,0.9,2.5,2.6c0,1.7-0.9,2.6-2.5,2.6h-2.1V16.5z M16.8,20.7c1,0,1.5-0.6,1.5-1.6
				c0-1-0.5-1.6-1.5-1.6H16v3.3H16.8z"/>
			<path class="st3" d="M23.9,19.8c0,1.2-0.8,2-1.9,2S20,21,20,19.8c0-1.2,0.8-2,1.9-2C23.1,17.8,23.9,18.6,23.9,19.8z M21.1,19.8
				c0,0.8,0.3,1.2,0.9,1.2c0.6,0,0.9-0.5,0.9-1.2c0-0.7-0.3-1.2-0.9-1.2C21.4,18.6,21.1,19,21.1,19.8z"/>
			<path class="st3" d="M29.3,21.6v-2.2c0-0.4-0.1-0.8-0.6-0.8c-0.5,0-0.7,0.4-0.7,0.9v2.1h-1v-2.3c0-0.4-0.1-0.7-0.6-0.7
				c-0.6,0-0.7,0.5-0.7,1v2h-1v-3.7h1v0.5c0.3-0.4,0.7-0.6,1.2-0.6c0.5,0,0.9,0.2,1.1,0.6c0.3-0.4,0.7-0.6,1.2-0.6
				c0.8,0,1.3,0.5,1.3,1.3v2.5H29.3z"/>
			<path class="st3" d="M33.6,21.6c-0.1-0.1-0.1-0.2-0.1-0.4c-0.3,0.3-0.8,0.5-1.2,0.5c-0.8,0-1.3-0.4-1.3-1.1c0-1,0.9-1.1,1.6-1.2
				c0.7-0.1,0.9-0.1,0.9-0.4c0-0.3-0.2-0.5-0.7-0.5c-0.5,0-0.7,0.1-0.7,0.6h-1c0.1-0.8,0.7-1.3,1.7-1.3c0.8,0,1.6,0.2,1.6,1.2v1.6
				c0,0.3,0,0.7,0.1,1H33.6z M32.8,20c-0.4,0.1-0.8,0.1-0.8,0.6c0,0.3,0.2,0.5,0.6,0.5c0.5,0,0.9-0.3,0.9-0.8v-0.4
				C33.3,20,33,20,32.8,20z"/>
			<path class="st3" d="M36.4,17.4h-1v-0.9h1V17.4z M36.4,21.6h-1v-3.7h1V21.6z"/>
			<path class="st3" d="M39.7,21.6v-2.2c0-0.5-0.1-0.8-0.6-0.8c-0.6,0-0.8,0.4-0.8,1v2h-1v-3.7h1v0.5c0.3-0.4,0.7-0.6,1.2-0.6
				c0.8,0,1.3,0.5,1.3,1.3v2.5H39.7z"/>
			<path class="st3" d="M48.5,19.1c0,1.6-1,2.7-2.5,2.7c-1.5,0-2.6-1.1-2.6-2.7c0-1.6,1-2.7,2.6-2.7C47.4,16.4,48.5,17.5,48.5,19.1z
				 M44.5,19.1c0,1.1,0.5,1.8,1.4,1.8c0.9,0,1.4-0.7,1.4-1.8c0-1.1-0.5-1.8-1.4-1.8C45.1,17.3,44.5,18,44.5,19.1z"/>
			<path class="st3" d="M50.2,18.4c0.3-0.4,0.7-0.5,1.2-0.5c1,0,1.6,0.9,1.6,1.9c0,1.2-0.7,2-1.7,2c-0.5,0-0.9-0.2-1.2-0.6l0,0.5h-1
				v-5.2h1V18.4z M50.1,19.8c0,0.7,0.3,1.2,0.9,1.2c0.5,0,0.9-0.5,0.9-1.2c0-0.7-0.3-1.1-0.9-1.1C50.5,18.6,50.1,19.1,50.1,19.8z"/>
			<path class="st3" d="M54.7,21.7c0,1-0.3,1.3-1.2,1.3c-0.1,0-0.2,0-0.4,0v-0.8c0.1,0,0.1,0,0.2,0c0.4,0,0.4-0.2,0.4-0.5v-3.7h1
				V21.7z M54.7,17.4h-1v-0.9h1V17.4z"/>
			<path class="st3" d="M57.3,21.8c-1.2,0-1.9-0.8-1.9-2c0-1.2,0.8-2,1.9-2c1.1,0,1.8,0.8,1.8,2.1V20h-2.7c0,0.6,0.3,1,0.9,1
				c0.4,0,0.6-0.2,0.8-0.5h1C58.9,21.3,58.2,21.8,57.3,21.8z M57.3,18.5c-0.5,0-0.8,0.3-0.8,0.8h1.6C58.1,18.9,57.8,18.5,57.3,18.5z
				"/>
			<path class="st3" d="M61.5,21.7c-1.2,0-1.9-0.8-1.9-1.9c0-1.2,0.8-2,1.9-2c1,0,1.7,0.5,1.8,1.4h-1c-0.1-0.4-0.3-0.6-0.7-0.6
				c-0.6,0-0.9,0.4-0.9,1.2c0,0.7,0.3,1.2,0.9,1.2c0.4,0,0.7-0.3,0.8-0.8h1C63.2,21.2,62.5,21.7,61.5,21.7z"/>
			<path class="st3" d="M66,18.6h-0.8v1.8c0,0.4,0,0.5,0.4,0.5c0.1,0,0.2,0,0.3,0v0.8c-0.3,0-0.4,0-0.6,0c-0.9,0-1.2-0.2-1.2-1.1
				v-1.9h-0.6v-0.7h0.6v-1.1h1v1.1H66V18.6z"/>
		</g>
		<polyline class="st1" points="235.7,64.3 314.9,64.3 314.9,32.9 235.7,32.9 235.7,64.3 		"/>
		<g class="st2">
			<path class="st3" d="M242.2,41.2c0-0.5-0.4-0.7-0.9-0.7c-0.5,0-0.8,0.2-0.8,0.5c0,0.4,0.5,0.5,1,0.6c0.6,0.1,1.4,0.3,1.4,1.1
				c0,0.7-0.6,1.2-1.6,1.2c-1,0-1.6-0.5-1.6-1.3h0.6c0,0.6,0.4,0.8,1,0.8c0.6,0,0.9-0.2,0.9-0.6c0-0.4-0.4-0.5-0.9-0.6
				c-0.6-0.2-1.5-0.2-1.5-1.1c0-0.7,0.6-1.1,1.4-1.1c0.8,0,1.5,0.4,1.5,1.2H242.2z"/>
			<path class="st3" d="M245.2,44c-1.1,0-1.8-0.7-1.8-1.9c0-1.2,0.7-2,1.7-2c1.2,0,1.7,1,1.7,2.1v0.1h-2.8l0,0
				c0,0.8,0.4,1.3,1.2,1.3c0.5,0,0.8-0.2,1-0.8h0.6C246.7,43.6,246.1,44,245.2,44z M245.2,40.5c-0.6,0-1,0.4-1.1,1.1h2.2
				C246.2,41,245.8,40.5,245.2,40.5z"/>
		</g>
		<g class="st2">
			<path class="st3" d="M249.5,40.7c-0.1,0-0.1,0-0.2,0c-1,0-1.2,0.8-1.2,1.6v1.6h-0.6v-3.7h0.6v0.8c0.3-0.6,0.7-0.9,1.4-0.9V40.7z"
				/>
		</g>
		<g class="st2">
			<path class="st3" d="M250.7,39.5h-0.6v-0.8h0.6V39.5z M250.7,43.9h-0.6v-3.7h0.6V43.9z"/>
			<path class="st3" d="M255,43.9c-0.1,0.1-0.3,0.1-0.4,0.1c-0.3,0-0.5-0.2-0.5-0.6c-0.4,0.4-0.8,0.6-1.4,0.6
				c-0.7,0-1.2-0.4-1.2-1.1c0-0.7,0.4-1.1,1.3-1.2c0.9-0.1,1.2-0.1,1.2-0.6c0-0.4-0.3-0.6-0.8-0.6c-0.6,0-0.9,0.2-0.9,0.8h-0.6
				c0-0.8,0.6-1.3,1.6-1.3c0.5,0,0.9,0.1,1.2,0.4c0.3,0.3,0.3,0.6,0.3,1c0,0.6,0,1.1,0,1.7c0,0.3,0.1,0.4,0.3,0.4c0.1,0,0.1,0,0.2,0
				V43.9z M253.2,42.2c-0.4,0.1-1.1,0.1-1.1,0.7c0,0.4,0.3,0.6,0.7,0.6c0.6,0,1.1-0.4,1.1-0.9v-0.7
				C253.8,42.1,253.5,42.1,253.2,42.2z"/>
			<path class="st3" d="M256.2,43.9h-0.6v-5.2h0.6V43.9z"/>
			<path class="st3" d="M257.8,39.5h-0.6v-0.8h0.6V39.5z M257.8,43.9h-0.6v-3.7h0.6V43.9z"/>
		</g>
		<g class="st2">
			<path class="st3" d="M261.6,40.5l-2.3,2.8h2.4v0.5h-3.2v-0.5l2.2-2.8h-2.1v-0.5h2.9V40.5z"/>
		</g>
		<g class="st2">
			<path class="st3" d="M263.7,44c-1.1,0-1.8-0.7-1.8-1.9c0-1.2,0.7-2,1.7-2c1.2,0,1.7,1,1.7,2.1v0.1h-2.8l0,0
				c0,0.8,0.4,1.3,1.2,1.3c0.5,0,0.8-0.2,1-0.8h0.6C265.2,43.6,264.6,44,263.7,44z M263.7,40.5c-0.6,0-1,0.4-1.1,1.1h2.2
				C264.7,41,264.3,40.5,263.7,40.5z"/>
		</g>
		<g class="st2">
			<path class="st3" d="M243.4,53.8h-0.6v-0.6c-0.2,0.4-0.7,0.7-1.2,0.7c-1.1,0-1.7-0.8-1.7-2c0-1.1,0.6-2,1.7-2
				c0.5,0,0.9,0.2,1.2,0.6v-1.9h0.6V53.8z M240.5,51.9c0,0.9,0.4,1.5,1.2,1.5c0.7,0,1.1-0.6,1.1-1.5c0-0.7-0.3-1.4-1.2-1.4
				C240.9,50.5,240.5,51,240.5,51.9z"/>
			<path class="st3" d="M245.9,53.9c-1.1,0-1.8-0.7-1.8-1.9c0-1.2,0.7-2,1.7-2c1.2,0,1.7,1,1.7,2.1v0.1h-2.8l0,0
				c0,0.8,0.4,1.3,1.2,1.3c0.5,0,0.8-0.2,1-0.8h0.6C247.4,53.5,246.8,53.9,245.9,53.9z M245.9,50.4c-0.6,0-1,0.4-1.1,1.1h2.2
				C246.9,50.9,246.5,50.4,245.9,50.4z"/>
			<path class="st3" d="M250.4,51.1c0-0.5-0.4-0.7-0.9-0.7c-0.5,0-0.8,0.2-0.8,0.5c0,0.4,0.5,0.5,1,0.6c0.6,0.1,1.4,0.3,1.4,1.1
				c0,0.7-0.6,1.2-1.6,1.2c-1,0-1.6-0.5-1.6-1.3h0.6c0,0.6,0.4,0.8,1,0.8c0.6,0,0.9-0.2,0.9-0.6c0-0.4-0.4-0.5-0.9-0.6
				c-0.6-0.2-1.5-0.2-1.5-1.1c0-0.7,0.6-1.1,1.4-1.1c0.8,0,1.5,0.4,1.5,1.2H250.4z"/>
			<path class="st3" d="M253.4,53.9c-1.1,0-1.8-0.7-1.8-1.9c0-1.2,0.7-2,1.7-2c1.2,0,1.7,1,1.7,2.1v0.1h-2.8l0,0
				c0,0.8,0.4,1.3,1.2,1.3c0.5,0,0.8-0.2,1-0.8h0.6C254.9,53.5,254.3,53.9,253.4,53.9z M253.4,50.4c-0.6,0-1,0.4-1.1,1.1h2.2
				C254.4,50.9,254,50.4,253.4,50.4z"/>
		</g>
		<g class="st2">
			<path class="st3" d="M257.7,50.6c-0.1,0-0.1,0-0.2,0c-1,0-1.2,0.8-1.2,1.6v1.6h-0.6V50h0.6v0.8c0.3-0.6,0.7-0.9,1.4-0.9V50.6z"/>
		</g>
		<g class="st2">
			<path class="st3" d="M258.9,49.4h-0.6v-0.8h0.6V49.4z M258.9,53.8h-0.6V50h0.6V53.8z"/>
			<path class="st3" d="M263.2,53.8c-0.1,0.1-0.3,0.1-0.4,0.1c-0.3,0-0.5-0.2-0.5-0.6c-0.4,0.4-0.8,0.6-1.4,0.6
				c-0.7,0-1.2-0.4-1.2-1.1c0-0.7,0.4-1.1,1.3-1.2c0.9-0.1,1.2-0.1,1.2-0.6c0-0.4-0.3-0.6-0.8-0.6c-0.6,0-0.9,0.2-0.9,0.8h-0.6
				c0-0.8,0.6-1.3,1.6-1.3c0.5,0,0.9,0.1,1.2,0.4c0.3,0.3,0.3,0.6,0.3,1c0,0.6,0,1.1,0,1.7c0,0.3,0.1,0.4,0.3,0.4c0.1,0,0.1,0,0.2,0
				V53.8z M261.4,52.1c-0.4,0.1-1.1,0.1-1.1,0.7c0,0.4,0.3,0.6,0.7,0.6c0.6,0,1.1-0.4,1.1-0.9v-0.7C262,52,261.7,52,261.4,52.1z"/>
			<path class="st3" d="M264.4,53.8h-0.6v-5.2h0.6V53.8z"/>
			<path class="st3" d="M266,49.4h-0.6v-0.8h0.6V49.4z M266,53.8h-0.6V50h0.6V53.8z"/>
		</g>
		<g class="st2">
			<path class="st3" d="M269.8,50.4l-2.3,2.8h2.4v0.5h-3.2v-0.5l2.2-2.8h-2.1V50h2.9V50.4z"/>
		</g>
		<g class="st2">
			<path class="st3" d="M271.9,53.9c-1.1,0-1.8-0.7-1.8-1.9c0-1.2,0.7-2,1.7-2c1.2,0,1.7,1,1.7,2.1v0.1h-2.8l0,0
				c0,0.8,0.4,1.3,1.2,1.3c0.5,0,0.8-0.2,1-0.8h0.6C273.4,53.5,272.8,53.9,271.9,53.9z M271.9,50.4c-0.6,0-1,0.4-1.1,1.1h2.2
				C272.9,50.9,272.5,50.4,271.9,50.4z"/>
		</g>
		<polyline class="st1" points="235.7,32.9 314.9,32.9 314.9,28.4 235.7,28.4 235.7,32.9 		"/>
		<path class="st1" d="M235.7,1.2h79.2l0,0H235.7 M235.7,28.4h79.2V1.2h-79.2V28.4"/>
		<g class="st2">
			<path class="st3" d="M240.8,11.9h2.1c1.6,0,2.5,0.9,2.5,2.6c0,1.7-0.9,2.6-2.5,2.6h-2.1V11.9z M242.7,16.1c1,0,1.5-0.6,1.5-1.6
				c0-1-0.5-1.6-1.5-1.6h-0.8v3.3H242.7z"/>
			<path class="st3" d="M248.5,17.1c-0.1-0.1-0.1-0.2-0.1-0.4c-0.3,0.3-0.8,0.5-1.2,0.5c-0.8,0-1.3-0.4-1.3-1.1c0-1,0.9-1.1,1.6-1.2
				c0.7-0.1,0.9-0.1,0.9-0.4c0-0.3-0.2-0.5-0.7-0.5c-0.5,0-0.7,0.1-0.7,0.6h-1c0.1-0.8,0.7-1.3,1.7-1.3c0.8,0,1.6,0.2,1.6,1.2V16
				c0,0.3,0,0.7,0.1,1H248.5z M247.7,15.4c-0.4,0.1-0.8,0.1-0.8,0.6c0,0.3,0.2,0.5,0.6,0.5c0.5,0,0.9-0.3,0.9-0.8v-0.4
				C248.2,15.4,247.9,15.4,247.7,15.4z"/>
			<path class="st3" d="M252.3,14h-0.8v1.8c0,0.4,0,0.5,0.4,0.5c0.1,0,0.2,0,0.3,0v0.8c-0.3,0-0.4,0-0.6,0c-0.9,0-1.2-0.2-1.2-1.1
				V14h-0.6v-0.7h0.6v-1.1h1v1.1h0.8V14z"/>
			<path class="st3" d="M255.2,17.1c-0.1-0.1-0.1-0.2-0.1-0.4c-0.3,0.3-0.8,0.5-1.2,0.5c-0.8,0-1.3-0.4-1.3-1.1c0-1,0.9-1.1,1.6-1.2
				c0.7-0.1,0.9-0.1,0.9-0.4c0-0.3-0.2-0.5-0.7-0.5c-0.5,0-0.7,0.1-0.7,0.6h-1c0.1-0.8,0.7-1.3,1.7-1.3c0.8,0,1.6,0.2,1.6,1.2V16
				c0,0.3,0,0.7,0.1,1H255.2z M254.4,15.4c-0.4,0.1-0.8,0.1-0.8,0.6c0,0.3,0.2,0.5,0.6,0.5c0.5,0,0.9-0.3,0.9-0.8v-0.4
				C254.9,15.4,254.6,15.4,254.4,15.4z"/>
		</g>
		<g class="st2">
			<path class="st3" d="M262.2,12.9h-1.6v4.2h-1.1v-4.2h-1.6v-1h4.2V12.9z"/>
		</g>
		<g class="st2">
			<path class="st3" d="M264.5,14.2c-0.2,0-0.3,0-0.4,0c-0.7,0-1,0.5-1,1.2v1.7h-1v-3.7h1V14c0.2-0.5,0.7-0.8,1.2-0.8
				c0.1,0,0.1,0,0.2,0V14.2z"/>
			<path class="st3" d="M267.3,17.1c-0.1-0.1-0.1-0.2-0.1-0.4c-0.3,0.3-0.8,0.5-1.2,0.5c-0.8,0-1.3-0.4-1.3-1.1c0-1,0.9-1.1,1.6-1.2
				c0.7-0.1,0.9-0.1,0.9-0.4c0-0.3-0.2-0.5-0.7-0.5c-0.5,0-0.7,0.1-0.7,0.6h-1c0.1-0.8,0.7-1.3,1.7-1.3c0.8,0,1.6,0.2,1.6,1.2V16
				c0,0.3,0,0.7,0.1,1H267.3z M266.5,15.4c-0.4,0.1-0.8,0.1-0.8,0.6c0,0.3,0.2,0.5,0.6,0.5c0.5,0,0.9-0.3,0.9-0.8v-0.4
				C267,15.4,266.8,15.4,266.5,15.4z"/>
			<path class="st3" d="M271.5,17.1v-2.2c0-0.5-0.1-0.8-0.6-0.8c-0.6,0-0.8,0.4-0.8,1v2h-1v-3.7h1v0.5c0.3-0.4,0.7-0.6,1.2-0.6
				c0.8,0,1.3,0.5,1.3,1.3v2.5H271.5z"/>
			<path class="st3" d="M275.5,14.4c-0.1-0.4-0.3-0.5-0.7-0.5c-0.4,0-0.6,0.1-0.6,0.4c0,0.3,0.3,0.4,0.9,0.5
				c0.7,0.1,1.5,0.3,1.5,1.2c0,0.8-0.6,1.3-1.7,1.3c-0.9,0-1.7-0.4-1.8-1.3h1c0,0.4,0.3,0.6,0.8,0.6c0.4,0,0.7-0.2,0.7-0.5
				c0-0.3-0.3-0.4-0.8-0.5c-0.7-0.2-1.5-0.3-1.5-1.1c0-0.7,0.6-1.1,1.6-1.1c0.9,0,1.6,0.3,1.6,1.2H275.5z"/>
		</g>
		<g class="st2">
			<path class="st3" d="M279.3,12.7c-0.2,0-0.2,0-0.3,0c-0.4,0-0.5,0.1-0.5,0.4v0.3h0.7V14h-0.7v3h-1v-3h-0.6v-0.7h0.6v-0.2
				c0-0.9,0.3-1.2,1.3-1.2c0.2,0,0.4,0,0.5,0V12.7z"/>
		</g>
		<g class="st2">
			<path class="st3" d="M281.4,17.2c-1.2,0-1.9-0.8-1.9-2c0-1.2,0.8-2,1.9-2c1.1,0,1.8,0.8,1.8,2.1v0.1h-2.7c0,0.6,0.3,1,0.9,1
				c0.4,0,0.6-0.2,0.8-0.5h1C282.9,16.7,282.2,17.2,281.4,17.2z M281.3,14c-0.5,0-0.8,0.3-0.8,0.8h1.6C282.1,14.3,281.8,14,281.3,14
				z"/>
			<path class="st3" d="M286.2,14.2c-0.2,0-0.3,0-0.4,0c-0.7,0-1,0.5-1,1.2v1.7h-1v-3.7h1V14c0.2-0.5,0.7-0.8,1.2-0.8
				c0.1,0,0.1,0,0.2,0V14.2z"/>
			<path class="st3" d="M293.6,14.5c0,1.6-1,2.7-2.5,2.7c-1.5,0-2.6-1.1-2.6-2.7c0-1.6,1-2.7,2.6-2.7
				C292.5,11.8,293.6,12.9,293.6,14.5z M289.6,14.5c0,1.1,0.5,1.8,1.4,1.8c0.9,0,1.4-0.7,1.4-1.8c0-1.1-0.5-1.8-1.4-1.8
				C290.2,12.7,289.6,13.4,289.6,14.5z"/>
			<path class="st3" d="M295.2,13.8c0.3-0.4,0.7-0.5,1.2-0.5c1,0,1.6,0.9,1.6,1.9c0,1.2-0.7,2-1.7,2c-0.5,0-0.9-0.2-1.2-0.6l0,0.5
				h-1v-5.2h1V13.8z M295.2,15.2c0,0.7,0.3,1.2,0.9,1.2c0.5,0,0.9-0.5,0.9-1.2c0-0.7-0.3-1.1-0.9-1.1
				C295.6,14,295.2,14.5,295.2,15.2z"/>
			<path class="st3" d="M299.8,17.1c0,1-0.3,1.3-1.2,1.3c-0.1,0-0.2,0-0.4,0v-0.8c0.1,0,0.1,0,0.2,0c0.4,0,0.4-0.2,0.4-0.5v-3.7h1
				V17.1z M299.8,12.8h-1v-0.9h1V12.8z"/>
			<path class="st3" d="M302.4,17.2c-1.2,0-1.9-0.8-1.9-2c0-1.2,0.8-2,1.9-2c1.1,0,1.8,0.8,1.8,2.1v0.1h-2.7c0,0.6,0.3,1,0.9,1
				c0.4,0,0.6-0.2,0.8-0.5h1C304,16.7,303.3,17.2,302.4,17.2z M302.4,14c-0.5,0-0.8,0.3-0.8,0.8h1.6C303.2,14.3,302.9,14,302.4,14z"
				/>
			<path class="st3" d="M306.6,17.2c-1.2,0-1.9-0.8-1.9-1.9c0-1.2,0.8-2,1.9-2c1,0,1.7,0.5,1.8,1.4h-1c-0.1-0.4-0.3-0.6-0.7-0.6
				c-0.6,0-0.9,0.4-0.9,1.2c0,0.7,0.3,1.2,0.9,1.2c0.4,0,0.7-0.3,0.8-0.8h1C308.3,16.6,307.6,17.2,306.6,17.2z"/>
			<path class="st3" d="M311.1,14h-0.8v1.8c0,0.4,0,0.5,0.4,0.5c0.1,0,0.2,0,0.3,0v0.8c-0.3,0-0.4,0-0.6,0c-0.9,0-1.2-0.2-1.2-1.1
				V14h-0.6v-0.7h0.6v-1.1h1v1.1h0.8V14z"/>
		</g>
		<polyline class="st1" points="73.9,154 231.3,154 231.3,113.4 73.9,113.4 73.9,154 		"/>
		<g class="st2">
			<path class="st3" d="M79.8,124.8c-1.2,0-1.8-0.8-1.8-1.9c0-1.2,0.7-2,1.8-2c0.9,0,1.5,0.5,1.6,1.3h-0.6c-0.1-0.5-0.4-0.8-0.9-0.8
				c-0.7,0-1.2,0.6-1.2,1.5c0,0.9,0.4,1.5,1.1,1.5c0.6,0,0.9-0.3,1-1h0.6C81.3,124.2,80.7,124.8,79.8,124.8z"/>
			<path class="st3" d="M84.1,121.5c-0.1,0-0.1,0-0.2,0c-1,0-1.2,0.8-1.2,1.6v1.6h-0.6V121h0.6v0.8c0.3-0.6,0.7-0.9,1.4-0.9V121.5z"
				/>
			<path class="st3" d="M86,124.8c-1.1,0-1.8-0.7-1.8-1.9c0-1.2,0.7-2,1.7-2c1.2,0,1.7,1,1.7,2.1v0.1h-2.8l0,0
				c0,0.8,0.4,1.3,1.2,1.3c0.5,0,0.8-0.2,1-0.8h0.6C87.4,124.4,86.9,124.8,86,124.8z M85.9,121.4c-0.6,0-1,0.4-1.1,1.1H87
				C87,121.8,86.6,121.4,85.9,121.4z"/>
			<path class="st3" d="M91.6,124.7c-0.1,0.1-0.3,0.1-0.4,0.1c-0.3,0-0.5-0.2-0.5-0.6c-0.4,0.4-0.8,0.6-1.4,0.6
				c-0.7,0-1.2-0.4-1.2-1.1c0-0.7,0.4-1.1,1.3-1.2c0.9-0.1,1.2-0.1,1.2-0.6c0-0.4-0.3-0.6-0.8-0.6c-0.6,0-0.9,0.2-0.9,0.8h-0.6
				c0-0.8,0.6-1.3,1.6-1.3c0.5,0,0.9,0.1,1.2,0.4c0.3,0.3,0.3,0.6,0.3,1c0,0.6,0,1.1,0,1.7c0,0.3,0.1,0.4,0.3,0.4c0.1,0,0.1,0,0.2,0
				V124.7z M89.8,123c-0.4,0.1-1.1,0.1-1.1,0.7c0,0.4,0.3,0.6,0.7,0.6c0.6,0,1.1-0.4,1.1-0.9v-0.7C90.4,122.9,90.1,123,89.8,123z"/>
			<path class="st3" d="M93.8,121.5h-0.7v2.2c0,0.3,0,0.6,0.4,0.6c0.1,0,0.2,0,0.3,0v0.5c-0.2,0-0.3,0-0.5,0c-0.9,0-0.9-0.5-0.9-1.3
				v-2h-0.6V121h0.6v-1.1h0.6v1.1h0.7V121.5z"/>
			<path class="st3" d="M96,124.8c-1.1,0-1.8-0.7-1.8-1.9c0-1.2,0.7-2,1.7-2c1.2,0,1.7,1,1.7,2.1v0.1h-2.8l0,0
				c0,0.8,0.4,1.3,1.2,1.3c0.5,0,0.8-0.2,1-0.8h0.6C97.5,124.4,96.9,124.8,96,124.8z M96,121.4c-0.6,0-1,0.4-1.1,1.1h2.2
				C97,121.8,96.6,121.4,96,121.4z"/>
			<path class="st3" d="M100.2,119.5c1.7,0,2.6,0.8,2.6,2.5c0,1.7-0.7,2.6-2.4,2.6h-1.8v-5.2H100.2z M99.2,124.1h1
				c1.3,0,1.8-0.6,1.8-2c0-1.4-0.5-2-1.9-2h-1V124.1z"/>
			<path class="st3" d="M106.8,124.7c-0.1,0.1-0.3,0.1-0.4,0.1c-0.3,0-0.5-0.2-0.5-0.6c-0.4,0.4-0.8,0.6-1.4,0.6
				c-0.7,0-1.2-0.4-1.2-1.1c0-0.7,0.4-1.1,1.3-1.2c0.9-0.1,1.2-0.1,1.2-0.6c0-0.4-0.3-0.6-0.8-0.6c-0.6,0-0.9,0.2-0.9,0.8h-0.6
				c0-0.8,0.6-1.3,1.6-1.3c0.5,0,0.9,0.1,1.2,0.4c0.3,0.3,0.3,0.6,0.3,1c0,0.6,0,1.1,0,1.7c0,0.3,0.1,0.4,0.3,0.4c0.1,0,0.1,0,0.2,0
				V124.7z M105,123c-0.4,0.1-1.1,0.1-1.1,0.7c0,0.4,0.3,0.6,0.7,0.6c0.6,0,1.1-0.4,1.1-0.9v-0.7C105.6,122.9,105.2,123,105,123z"/>
			<path class="st3" d="M109,121.5h-0.7v2.2c0,0.3,0,0.6,0.4,0.6c0.1,0,0.2,0,0.3,0v0.5c-0.2,0-0.3,0-0.5,0c-0.9,0-0.9-0.5-0.9-1.3
				v-2H107V121h0.6v-1.1h0.6v1.1h0.7V121.5z"/>
			<path class="st3" d="M113,124.7c-0.1,0.1-0.3,0.1-0.4,0.1c-0.3,0-0.5-0.2-0.5-0.6c-0.4,0.4-0.8,0.6-1.4,0.6
				c-0.7,0-1.2-0.4-1.2-1.1c0-0.7,0.4-1.1,1.3-1.2c0.9-0.1,1.2-0.1,1.2-0.6c0-0.4-0.3-0.6-0.8-0.6c-0.6,0-0.9,0.2-0.9,0.8h-0.6
				c0-0.8,0.6-1.3,1.6-1.3c0.5,0,0.9,0.1,1.2,0.4c0.3,0.3,0.3,0.6,0.3,1c0,0.6,0,1.1,0,1.7c0,0.3,0.1,0.4,0.3,0.4c0.1,0,0.1,0,0.2,0
				V124.7z M111.1,123c-0.4,0.1-1.1,0.1-1.1,0.7c0,0.4,0.3,0.6,0.7,0.6c0.6,0,1.1-0.4,1.1-0.9v-0.7C111.7,122.9,111.4,123,111.1,123
				z"/>
		</g>
		<g class="st2">
			<path class="st3" d="M117.4,120.1h-1.7v4.6h-0.7v-4.6h-1.7v-0.6h4.1V120.1z"/>
		</g>
		<g class="st2">
			<path class="st3" d="M118.9,121.5c-0.1,0-0.1,0-0.2,0c-1,0-1.2,0.8-1.2,1.6v1.6H117V121h0.6v0.8c0.3-0.6,0.7-0.9,1.4-0.9V121.5z"
				/>
		</g>
		<g class="st2">
			<path class="st3" d="M122.6,124.7c-0.1,0.1-0.3,0.1-0.4,0.1c-0.3,0-0.5-0.2-0.5-0.6c-0.4,0.4-0.8,0.6-1.4,0.6
				c-0.7,0-1.2-0.4-1.2-1.1c0-0.7,0.4-1.1,1.3-1.2c0.9-0.1,1.2-0.1,1.2-0.6c0-0.4-0.3-0.6-0.8-0.6c-0.6,0-0.9,0.2-0.9,0.8h-0.6
				c0-0.8,0.6-1.3,1.6-1.3c0.5,0,0.9,0.1,1.2,0.4c0.3,0.3,0.3,0.6,0.3,1c0,0.6,0,1.1,0,1.7c0,0.3,0.1,0.4,0.3,0.4c0.1,0,0.1,0,0.2,0
				V124.7z M120.8,123c-0.4,0.1-1.1,0.1-1.1,0.7c0,0.4,0.3,0.6,0.7,0.6c0.6,0,1.1-0.4,1.1-0.9v-0.7C121.4,122.9,121.1,123,120.8,123
				z"/>
			<path class="st3" d="M123.8,121.5c0.3-0.5,0.7-0.7,1.3-0.7c0.9,0,1.2,0.5,1.2,1.4v2.5h-0.6v-2.2c0-0.6,0-1.1-0.8-1.1
				c-0.8,0-1.1,0.6-1.1,1.3v2h-0.6V121h0.6V121.5z"/>
			<path class="st3" d="M129.4,122.1c0-0.5-0.4-0.7-0.9-0.7c-0.5,0-0.8,0.2-0.8,0.5c0,0.4,0.5,0.5,1,0.6c0.6,0.1,1.4,0.3,1.4,1.1
				c0,0.7-0.6,1.2-1.6,1.2c-1,0-1.6-0.5-1.6-1.3h0.6c0,0.6,0.4,0.8,1,0.8c0.6,0,0.9-0.2,0.9-0.6c0-0.4-0.4-0.5-0.9-0.6
				c-0.6-0.2-1.5-0.2-1.5-1.1c0-0.7,0.6-1.1,1.4-1.1c0.8,0,1.5,0.4,1.5,1.2H129.4z"/>
		</g>
		<g class="st2">
			<path class="st3" d="M132.6,120.1c-0.1,0-0.2,0-0.3,0c-0.4,0-0.5,0.1-0.5,0.5v0.4h0.7v0.5h-0.7v3.2h-0.6v-3.2h-0.6V121h0.6v-0.5
				c0-0.7,0.4-1,1-1c0.2,0,0.2,0,0.4,0V120.1z"/>
		</g>
		<g class="st2">
			<path class="st3" d="M134.4,124.8c-1.1,0-1.8-0.7-1.8-1.9c0-1.2,0.7-2,1.7-2c1.2,0,1.7,1,1.7,2.1v0.1h-2.8l0,0
				c0,0.8,0.4,1.3,1.2,1.3c0.5,0,0.8-0.2,1-0.8h0.6C135.8,124.4,135.2,124.8,134.4,124.8z M134.3,121.4c-0.6,0-1,0.4-1.1,1.1h2.2
				C135.3,121.8,134.9,121.4,134.3,121.4z"/>
			<path class="st3" d="M138.6,121.5c-0.1,0-0.1,0-0.2,0c-1,0-1.2,0.8-1.2,1.6v1.6h-0.6V121h0.6v0.8c0.3-0.6,0.7-0.9,1.4-0.9V121.5z
				"/>
			<path class="st3" d="M143.9,122.1c0,1.5-0.8,2.7-2.5,2.7c-1.7,0-2.5-1.3-2.5-2.8c0-1.6,1-2.6,2.5-2.6
				C143,119.4,143.9,120.5,143.9,122.1z M139.6,122.1c0,1.3,0.7,2.1,1.8,2.1c1.1,0,1.8-0.8,1.8-2.1c0-1.3-0.7-2.1-1.8-2.1
				C140.2,120,139.6,121,139.6,122.1z"/>
			<path class="st3" d="M145.2,121.5c0.3-0.4,0.7-0.6,1.2-0.6c1,0,1.7,0.8,1.7,2c0,1.2-0.7,2-1.7,2c-0.5,0-1-0.2-1.2-0.7v0.5h-0.6
				v-5.2h0.6V121.5z M145.2,122.9c0,0.9,0.4,1.4,1.2,1.4c0.7,0,1.1-0.6,1.1-1.5c0-0.9-0.4-1.4-1.1-1.4
				C145.5,121.4,145.2,122.1,145.2,122.9z"/>
			<path class="st3" d="M149.6,125.1c0,0.7-0.2,1.1-1,1.1c-0.1,0-0.2,0-0.3,0v-0.5c0.1,0,0.1,0,0.2,0c0.4,0,0.4-0.2,0.4-0.6V121h0.6
				V125.1z M149.6,120.3H149v-0.8h0.6V120.3z"/>
			<path class="st3" d="M152.1,124.8c-1.1,0-1.8-0.7-1.8-1.9c0-1.2,0.7-2,1.7-2c1.2,0,1.7,1,1.7,2.1v0.1h-2.8l0,0
				c0,0.8,0.4,1.3,1.2,1.3c0.5,0,0.8-0.2,1-0.8h0.6C153.5,124.4,153,124.8,152.1,124.8z M152,121.4c-0.6,0-1,0.4-1.1,1.1h2.2
				C153.1,121.8,152.7,121.4,152,121.4z"/>
			<path class="st3" d="M156,124.8c-1.2,0-1.8-0.8-1.8-1.9c0-1.2,0.7-2,1.8-2c0.9,0,1.5,0.5,1.6,1.3H157c-0.1-0.5-0.4-0.8-0.9-0.8
				c-0.7,0-1.2,0.6-1.2,1.5c0,0.9,0.4,1.5,1.1,1.5c0.6,0,0.9-0.3,1-1h0.6C157.5,124.2,156.9,124.8,156,124.8z"/>
			<path class="st3" d="M159.9,121.5h-0.7v2.2c0,0.3,0,0.6,0.4,0.6c0.1,0,0.2,0,0.3,0v0.5c-0.2,0-0.3,0-0.5,0
				c-0.9,0-0.9-0.5-0.9-1.3v-2h-0.6V121h0.6v-1.1h0.6v1.1h0.7V121.5z"/>
			<path class="st3" d="M163.1,122.8c0,1.2,0.3,2.3,1,3.3h-0.5c-0.7-1.1-1.1-2-1.1-3.3c0-1.2,0.4-2.3,1.1-3.3h0.5
				C163.5,120.4,163.1,121.6,163.1,122.8z"/>
			<path class="st3" d="M166.3,119.5c1.7,0,2.6,0.8,2.6,2.5c0,1.7-0.7,2.6-2.4,2.6h-1.8v-5.2H166.3z M165.3,124.1h1
				c1.3,0,1.8-0.6,1.8-2c0-1.4-0.5-2-1.9-2h-1V124.1z"/>
			<path class="st3" d="M173,122.8c0,1.3-0.7,2-1.8,2c-1.1,0-1.8-0.7-1.8-2s0.7-2,1.8-2S173,121.6,173,122.8z M170,122.8
				c0,0.9,0.4,1.5,1.2,1.5c0.7,0,1.2-0.6,1.2-1.5c0-0.9-0.5-1.5-1.2-1.5S170,121.9,170,122.8z"/>
			<path class="st3" d="M174.3,121.5c0.3-0.4,0.7-0.6,1.2-0.6c0.5,0,0.8,0.2,1,0.6c0.3-0.4,0.7-0.7,1.2-0.7c0.8,0,1.2,0.5,1.2,1.2
				v2.6h-0.6v-2.4c0-0.5-0.1-0.9-0.7-0.9c-0.7,0-1,0.5-1,1.2v2.1h-0.6v-2.4c0-0.5-0.1-0.9-0.7-0.9c-0.8,0-1,0.6-1,1.3v2h-0.6V121
				h0.6V121.5z"/>
			<path class="st3" d="M183.2,124.7c-0.1,0.1-0.3,0.1-0.4,0.1c-0.3,0-0.5-0.2-0.5-0.6c-0.4,0.4-0.8,0.6-1.4,0.6
				c-0.7,0-1.2-0.4-1.2-1.1c0-0.7,0.4-1.1,1.3-1.2c0.9-0.1,1.2-0.1,1.2-0.6c0-0.4-0.3-0.6-0.8-0.6c-0.6,0-0.9,0.2-0.9,0.8h-0.6
				c0-0.8,0.6-1.3,1.6-1.3c0.5,0,0.9,0.1,1.2,0.4c0.3,0.3,0.3,0.6,0.3,1c0,0.6,0,1.1,0,1.7c0,0.3,0.1,0.4,0.3,0.4c0.1,0,0.1,0,0.2,0
				V124.7z M181.4,123c-0.4,0.1-1.1,0.1-1.1,0.7c0,0.4,0.3,0.6,0.7,0.6c0.6,0,1.1-0.4,1.1-0.9v-0.7C182,122.9,181.7,123,181.4,123z"
				/>
			<path class="st3" d="M184.5,120.3h-0.6v-0.8h0.6V120.3z M184.5,124.7h-0.6V121h0.6V124.7z"/>
			<path class="st3" d="M186,121.5c0.3-0.5,0.7-0.7,1.3-0.7c0.9,0,1.2,0.5,1.2,1.4v2.5h-0.6v-2.2c0-0.6,0-1.1-0.8-1.1
				c-0.8,0-1.1,0.6-1.1,1.3v2h-0.6V121h0.6V121.5z"/>
			<path class="st3" d="M194.2,122.1c0,1.5-0.8,2.7-2.5,2.7c-1.7,0-2.5-1.3-2.5-2.8c0-1.6,1-2.6,2.5-2.6
				C193.4,119.4,194.2,120.5,194.2,122.1z M190,122.1c0,1.3,0.7,2.1,1.8,2.1c1.1,0,1.8-0.8,1.8-2.1c0-1.3-0.7-2.1-1.8-2.1
				C190.5,120,190,121,190,122.1z"/>
			<path class="st3" d="M195.6,121.5c0.3-0.4,0.7-0.6,1.2-0.6c1,0,1.7,0.8,1.7,2c0,1.2-0.7,2-1.7,2c-0.5,0-1-0.2-1.2-0.7v0.5H195
				v-5.2h0.6V121.5z M195.6,122.9c0,0.9,0.5,1.4,1.2,1.4c0.7,0,1.1-0.6,1.1-1.5c0-0.9-0.4-1.4-1.1-1.4
				C195.9,121.4,195.6,122.1,195.6,122.9z"/>
			<path class="st3" d="M199.9,125.1c0,0.7-0.2,1.1-1,1.1c-0.1,0-0.2,0-0.3,0v-0.5c0.1,0,0.1,0,0.2,0c0.4,0,0.4-0.2,0.4-0.6V121h0.6
				V125.1z M199.9,120.3h-0.6v-0.8h0.6V120.3z"/>
			<path class="st3" d="M202.4,124.8c-1.1,0-1.8-0.7-1.8-1.9c0-1.2,0.7-2,1.7-2c1.2,0,1.7,1,1.7,2.1v0.1h-2.8l0,0
				c0,0.8,0.4,1.3,1.2,1.3c0.5,0,0.8-0.2,1-0.8h0.6C203.9,124.4,203.3,124.8,202.4,124.8z M202.4,121.4c-0.6,0-1,0.4-1.1,1.1h2.2
				C203.4,121.8,203,121.4,202.4,121.4z"/>
			<path class="st3" d="M206.4,124.8c-1.2,0-1.8-0.8-1.8-1.9c0-1.2,0.7-2,1.8-2c0.9,0,1.5,0.5,1.6,1.3h-0.6
				c-0.1-0.5-0.4-0.8-0.9-0.8c-0.7,0-1.2,0.6-1.2,1.5c0,0.9,0.4,1.5,1.1,1.5c0.6,0,0.9-0.3,1-1h0.6
				C207.9,124.2,207.3,124.8,206.4,124.8z"/>
			<path class="st3" d="M210.3,121.5h-0.7v2.2c0,0.3,0,0.6,0.4,0.6c0.1,0,0.2,0,0.3,0v0.5c-0.2,0-0.3,0-0.5,0
				c-0.9,0-0.9-0.5-0.9-1.3v-2h-0.6V121h0.6v-1.1h0.6v1.1h0.7V121.5z"/>
			<path class="st3" d="M210.9,126.1h-0.5c0.6-1,1-2.1,1-3.3c0-1.2-0.3-2.4-1-3.3h0.5c0.8,1,1.1,2.2,1.1,3.3
				C212,124.1,211.6,125,210.9,126.1z"/>
		</g>
		<g class="st2">
			<path class="st3" d="M81.3,134.2h-0.6v-0.6c-0.3,0.5-0.7,0.7-1.3,0.7c-0.8,0-1.2-0.4-1.2-1.3v-2.6h0.6v2.4c0,0.5,0.2,0.9,0.8,0.9
				c0.8,0,1.1-0.6,1.1-1.3v-2h0.6V134.2z"/>
			<path class="st3" d="M82.8,131c0.3-0.5,0.7-0.6,1.3-0.6c1,0,1.7,0.8,1.7,2c0,1.2-0.7,2-1.7,2c-0.6,0-0.9-0.2-1.3-0.6v2h-0.6v-5.2
				h0.6V131z M82.9,132.4c0,0.9,0.4,1.5,1.2,1.5c0.7,0,1.1-0.6,1.1-1.5c0-0.9-0.4-1.5-1.2-1.5C83.3,130.9,82.9,131.5,82.9,132.4z"/>
			<path class="st3" d="M89.9,134.2h-0.6v-0.6c-0.2,0.4-0.7,0.7-1.2,0.7c-1.1,0-1.7-0.8-1.7-2c0-1.1,0.6-2,1.7-2
				c0.5,0,0.9,0.2,1.2,0.6v-1.9h0.6V134.2z M87,132.3c0,0.9,0.4,1.5,1.2,1.5c0.7,0,1.1-0.6,1.1-1.5c0-0.7-0.3-1.4-1.2-1.4
				C87.5,130.9,87,131.5,87,132.3z"/>
			<path class="st3" d="M94.2,134.2c-0.1,0.1-0.3,0.1-0.4,0.1c-0.3,0-0.5-0.2-0.5-0.6c-0.4,0.4-0.8,0.6-1.4,0.6
				c-0.7,0-1.2-0.4-1.2-1.1c0-0.7,0.4-1.1,1.3-1.2c0.9-0.1,1.2-0.1,1.2-0.6c0-0.4-0.3-0.6-0.8-0.6c-0.6,0-0.9,0.2-0.9,0.8h-0.6
				c0-0.8,0.6-1.3,1.6-1.3c0.5,0,0.9,0.1,1.2,0.4c0.3,0.3,0.3,0.6,0.3,1c0,0.6,0,1.1,0,1.7c0,0.3,0.1,0.4,0.3,0.4c0.1,0,0.1,0,0.2,0
				V134.2z M92.4,132.5c-0.4,0.1-1.1,0.1-1.1,0.7c0,0.4,0.3,0.6,0.7,0.6c0.6,0,1.1-0.4,1.1-0.9v-0.7C93,132.5,92.6,132.5,92.4,132.5
				z"/>
			<path class="st3" d="M96.4,131h-0.7v2.2c0,0.3,0,0.6,0.4,0.6c0.1,0,0.2,0,0.3,0v0.5c-0.2,0-0.3,0-0.5,0c-0.9,0-0.9-0.5-0.9-1.3
				v-2h-0.6v-0.5H95v-1.1h0.6v1.1h0.7V131z"/>
			<path class="st3" d="M98.6,134.4c-1.1,0-1.8-0.7-1.8-1.9c0-1.2,0.7-2,1.7-2c1.2,0,1.7,1,1.7,2.1v0.1h-2.8l0,0
				c0,0.8,0.4,1.3,1.2,1.3c0.5,0,0.8-0.2,1-0.8h0.6C100,133.9,99.5,134.4,98.6,134.4z M98.6,130.9c-0.6,0-1,0.4-1.1,1.1h2.2
				C99.6,131.3,99.2,130.9,98.6,130.9z"/>
			<path class="st3" d="M102.7,129.1c1.7,0,2.6,0.8,2.6,2.5c0,1.7-0.7,2.6-2.4,2.6H101v-5.2H102.7z M101.7,133.7h1
				c1.3,0,1.8-0.6,1.8-2c0-1.4-0.5-2-1.9-2h-1V133.7z"/>
			<path class="st3" d="M109.5,132.3c0,1.3-0.7,2-1.8,2c-1.1,0-1.8-0.7-1.8-2s0.7-2,1.8-2C108.8,130.4,109.5,131.1,109.5,132.3z
				 M106.5,132.4c0,0.9,0.4,1.5,1.2,1.5c0.7,0,1.2-0.6,1.2-1.5c0-0.9-0.4-1.5-1.2-1.5S106.5,131.5,106.5,132.4z"/>
			<path class="st3" d="M110.8,131c0.3-0.4,0.7-0.6,1.2-0.6c0.5,0,0.8,0.2,1,0.6c0.3-0.4,0.7-0.7,1.2-0.7c0.8,0,1.2,0.5,1.2,1.2v2.6
				h-0.6v-2.4c0-0.5-0.1-0.9-0.7-0.9c-0.7,0-1,0.5-1,1.2v2.1h-0.6v-2.4c0-0.5-0.1-0.9-0.7-0.9c-0.8,0-1,0.6-1,1.3v2h-0.6v-3.7h0.6
				V131z"/>
			<path class="st3" d="M119.7,134.2c-0.1,0.1-0.3,0.1-0.4,0.1c-0.3,0-0.5-0.2-0.5-0.6c-0.4,0.4-0.8,0.6-1.4,0.6
				c-0.7,0-1.2-0.4-1.2-1.1c0-0.7,0.4-1.1,1.3-1.2c0.9-0.1,1.2-0.1,1.2-0.6c0-0.4-0.3-0.6-0.8-0.6c-0.6,0-0.9,0.2-0.9,0.8h-0.6
				c0-0.8,0.6-1.3,1.6-1.3c0.5,0,0.9,0.1,1.2,0.4c0.3,0.3,0.3,0.6,0.3,1c0,0.6,0,1.1,0,1.7c0,0.3,0.1,0.4,0.3,0.4c0.1,0,0.1,0,0.2,0
				V134.2z M117.9,132.5c-0.4,0.1-1.1,0.1-1.1,0.7c0,0.4,0.3,0.6,0.7,0.6c0.6,0,1.1-0.4,1.1-0.9v-0.7
				C118.5,132.5,118.2,132.5,117.9,132.5z"/>
			<path class="st3" d="M120.9,129.8h-0.6v-0.8h0.6V129.8z M120.9,134.2h-0.6v-3.7h0.6V134.2z"/>
			<path class="st3" d="M122.5,131.1c0.3-0.5,0.7-0.7,1.3-0.7c0.9,0,1.2,0.5,1.2,1.4v2.5h-0.6V132c0-0.6,0-1.1-0.8-1.1
				c-0.8,0-1.1,0.6-1.1,1.3v2h-0.6v-3.7h0.6V131.1z"/>
			<path class="st3" d="M130.7,131.6c0,1.5-0.8,2.7-2.5,2.7c-1.7,0-2.5-1.3-2.5-2.8c0-1.6,1-2.6,2.5-2.6
				C129.8,129,130.7,130.1,130.7,131.6z M126.4,131.7c0,1.3,0.7,2.1,1.8,2.1c1.1,0,1.8-0.8,1.8-2.1c0-1.3-0.7-2.1-1.8-2.1
				C127,129.6,126.4,130.6,126.4,131.7z"/>
			<path class="st3" d="M132,131c0.3-0.4,0.7-0.6,1.2-0.6c1,0,1.7,0.8,1.7,2c0,1.2-0.7,2-1.7,2c-0.5,0-1-0.2-1.2-0.7v0.5h-0.6v-5.2
				h0.6V131z M132,132.4c0,0.9,0.4,1.4,1.2,1.4c0.7,0,1.1-0.6,1.1-1.5c0-0.9-0.4-1.4-1.1-1.4C132.3,130.9,132,131.7,132,132.4z"/>
			<path class="st3" d="M136.4,134.7c0,0.7-0.2,1.1-1,1.1c-0.1,0-0.2,0-0.3,0v-0.5c0.1,0,0.1,0,0.2,0c0.4,0,0.4-0.2,0.4-0.6v-4.1
				h0.6V134.7z M136.4,129.8h-0.6v-0.8h0.6V129.8z"/>
			<path class="st3" d="M138.9,134.4c-1.1,0-1.8-0.7-1.8-1.9c0-1.2,0.7-2,1.7-2c1.2,0,1.7,1,1.7,2.1v0.1h-2.8l0,0
				c0,0.8,0.4,1.3,1.2,1.3c0.5,0,0.8-0.2,1-0.8h0.6C140.3,133.9,139.8,134.4,138.9,134.4z M138.9,130.9c-0.6,0-1,0.4-1.1,1.1h2.2
				C139.9,131.3,139.5,130.9,138.9,130.9z"/>
			<path class="st3" d="M142.8,134.3c-1.2,0-1.8-0.8-1.8-1.9c0-1.2,0.7-2,1.8-2c0.9,0,1.5,0.5,1.6,1.3h-0.6
				c-0.1-0.5-0.4-0.8-0.9-0.8c-0.7,0-1.2,0.6-1.2,1.5c0,0.9,0.4,1.5,1.1,1.5c0.6,0,0.9-0.3,1-1h0.6
				C144.3,133.8,143.7,134.3,142.8,134.3z"/>
			<path class="st3" d="M146.7,131H146v2.2c0,0.3,0,0.6,0.4,0.6c0.1,0,0.2,0,0.3,0v0.5c-0.2,0-0.3,0-0.5,0c-0.9,0-0.9-0.5-0.9-1.3
				v-2h-0.6v-0.5h0.6v-1.1h0.6v1.1h0.7V131z"/>
			<path class="st3" d="M149.9,132.3c0,1.2,0.3,2.3,1,3.3h-0.5c-0.7-1.1-1.1-2-1.1-3.3c0-1.2,0.4-2.3,1.1-3.3h0.5
				C150.3,130,149.9,131.1,149.9,132.3z"/>
			<path class="st3" d="M153.1,129.1c1.7,0,2.6,0.8,2.6,2.5c0,1.7-0.7,2.6-2.4,2.6h-1.8v-5.2H153.1z M152.1,133.7h1
				c1.3,0,1.8-0.6,1.8-2c0-1.4-0.5-2-1.9-2h-1V133.7z"/>
			<path class="st3" d="M159.7,134.2c-0.1,0.1-0.3,0.1-0.4,0.1c-0.3,0-0.5-0.2-0.5-0.6c-0.4,0.4-0.8,0.6-1.4,0.6
				c-0.7,0-1.2-0.4-1.2-1.1c0-0.7,0.4-1.1,1.3-1.2c0.9-0.1,1.2-0.1,1.2-0.6c0-0.4-0.3-0.6-0.8-0.6c-0.6,0-0.9,0.2-0.9,0.8h-0.6
				c0-0.8,0.6-1.3,1.6-1.3c0.5,0,0.9,0.1,1.2,0.4c0.3,0.3,0.3,0.6,0.3,1c0,0.6,0,1.1,0,1.7c0,0.3,0.1,0.4,0.3,0.4c0.1,0,0.1,0,0.2,0
				V134.2z M157.9,132.5c-0.4,0.1-1.1,0.1-1.1,0.7c0,0.4,0.3,0.6,0.7,0.6c0.6,0,1.1-0.4,1.1-0.9v-0.7
				C158.5,132.5,158.2,132.5,157.9,132.5z"/>
			<path class="st3" d="M161.9,131h-0.7v2.2c0,0.3,0,0.6,0.4,0.6c0.1,0,0.2,0,0.3,0v0.5c-0.2,0-0.3,0-0.5,0c-0.9,0-0.9-0.5-0.9-1.3
				v-2h-0.6v-0.5h0.6v-1.1h0.6v1.1h0.7V131z"/>
			<path class="st3" d="M165.9,134.2c-0.1,0.1-0.3,0.1-0.4,0.1c-0.3,0-0.5-0.2-0.5-0.6c-0.4,0.4-0.8,0.6-1.4,0.6
				c-0.7,0-1.2-0.4-1.2-1.1c0-0.7,0.4-1.1,1.3-1.2c0.9-0.1,1.2-0.1,1.2-0.6c0-0.4-0.3-0.6-0.8-0.6c-0.6,0-0.9,0.2-0.9,0.8h-0.6
				c0-0.8,0.6-1.3,1.6-1.3c0.5,0,0.9,0.1,1.2,0.4c0.3,0.3,0.3,0.6,0.3,1c0,0.6,0,1.1,0,1.7c0,0.3,0.1,0.4,0.3,0.4c0.1,0,0.1,0,0.2,0
				V134.2z M164.1,132.5c-0.4,0.1-1.1,0.1-1.1,0.7c0,0.4,0.3,0.6,0.7,0.6c0.6,0,1.1-0.4,1.1-0.9v-0.7
				C164.7,132.5,164.3,132.5,164.1,132.5z"/>
		</g>
		<g class="st2">
			<path class="st3" d="M170.2,129.7h-1.7v4.6h-0.7v-4.6H166v-0.6h4.1V129.7z"/>
		</g>
		<g class="st2">
			<path class="st3" d="M171.7,131.1c-0.1,0-0.1,0-0.2,0c-1,0-1.2,0.8-1.2,1.6v1.6h-0.6v-3.7h0.6v0.8c0.3-0.6,0.7-0.9,1.4-0.9V131.1
				z"/>
		</g>
		<g class="st2">
			<path class="st3" d="M175.4,134.2c-0.1,0.1-0.3,0.1-0.4,0.1c-0.3,0-0.5-0.2-0.5-0.6c-0.4,0.4-0.8,0.6-1.4,0.6
				c-0.7,0-1.2-0.4-1.2-1.1c0-0.7,0.4-1.1,1.3-1.2c0.9-0.1,1.2-0.1,1.2-0.6c0-0.4-0.3-0.6-0.8-0.6c-0.6,0-0.9,0.2-0.9,0.8h-0.6
				c0-0.8,0.6-1.3,1.6-1.3c0.5,0,0.9,0.1,1.2,0.4c0.3,0.3,0.3,0.6,0.3,1c0,0.6,0,1.1,0,1.7c0,0.3,0.1,0.4,0.3,0.4c0.1,0,0.1,0,0.2,0
				V134.2z M173.6,132.5c-0.4,0.1-1.1,0.1-1.1,0.7c0,0.4,0.3,0.6,0.7,0.6c0.6,0,1.1-0.4,1.1-0.9v-0.7
				C174.2,132.5,173.9,132.5,173.6,132.5z"/>
			<path class="st3" d="M176.6,131.1c0.3-0.5,0.7-0.7,1.3-0.7c0.9,0,1.2,0.5,1.2,1.4v2.5h-0.6V132c0-0.6,0-1.1-0.8-1.1
				c-0.8,0-1.1,0.6-1.1,1.3v2H176v-3.7h0.6V131.1z"/>
			<path class="st3" d="M182.2,131.6c0-0.5-0.4-0.7-0.9-0.7c-0.5,0-0.8,0.2-0.8,0.5c0,0.4,0.5,0.5,1,0.6c0.6,0.1,1.5,0.3,1.5,1.1
				c0,0.7-0.6,1.2-1.6,1.2c-1,0-1.6-0.5-1.6-1.3h0.6c0,0.6,0.4,0.8,1,0.8c0.6,0,0.9-0.2,0.9-0.6c0-0.4-0.4-0.5-0.9-0.6
				c-0.6-0.2-1.5-0.2-1.5-1.1c0-0.7,0.6-1.1,1.4-1.1c0.8,0,1.5,0.4,1.5,1.2H182.2z"/>
		</g>
		<g class="st2">
			<path class="st3" d="M185.4,129.6c-0.1,0-0.2,0-0.3,0c-0.4,0-0.5,0.1-0.5,0.5v0.4h0.7v0.5h-0.7v3.2h-0.6V131h-0.6v-0.5h0.6V130
				c0-0.7,0.4-1,1-1c0.2,0,0.2,0,0.4,0V129.6z"/>
		</g>
		<g class="st2">
			<path class="st3" d="M187.2,134.4c-1.1,0-1.8-0.7-1.8-1.9c0-1.2,0.7-2,1.7-2c1.2,0,1.7,1,1.7,2.1v0.1H186l0,0
				c0,0.8,0.4,1.3,1.2,1.3c0.5,0,0.8-0.2,1-0.8h0.6C188.6,133.9,188,134.4,187.2,134.4z M187.1,130.9c-0.6,0-1,0.4-1.1,1.1h2.2
				C188.1,131.3,187.7,130.9,187.1,130.9z"/>
			<path class="st3" d="M191.4,131.1c-0.1,0-0.1,0-0.2,0c-1,0-1.2,0.8-1.2,1.6v1.6h-0.6v-3.7h0.6v0.8c0.3-0.6,0.7-0.9,1.4-0.9V131.1
				z"/>
			<path class="st3" d="M196.7,131.6c0,1.5-0.8,2.7-2.5,2.7c-1.7,0-2.5-1.3-2.5-2.8c0-1.6,1-2.6,2.5-2.6
				C195.8,129,196.7,130.1,196.7,131.6z M192.4,131.7c0,1.3,0.7,2.1,1.8,2.1c1.1,0,1.8-0.8,1.8-2.1c0-1.3-0.7-2.1-1.8-2.1
				C193,129.6,192.4,130.6,192.4,131.7z"/>
			<path class="st3" d="M198,131c0.3-0.4,0.7-0.6,1.2-0.6c1,0,1.7,0.8,1.7,2c0,1.2-0.7,2-1.7,2c-0.5,0-1-0.2-1.2-0.7v0.5h-0.6v-5.2
				h0.6V131z M198,132.4c0,0.9,0.5,1.4,1.2,1.4c0.7,0,1.1-0.6,1.1-1.5c0-0.9-0.4-1.4-1.1-1.4C198.3,130.9,198,131.7,198,132.4z"/>
			<path class="st3" d="M202.4,134.7c0,0.7-0.2,1.1-1,1.1c-0.1,0-0.2,0-0.3,0v-0.5c0.1,0,0.1,0,0.2,0c0.4,0,0.4-0.2,0.4-0.6v-4.1
				h0.6V134.7z M202.4,129.8h-0.6v-0.8h0.6V129.8z"/>
			<path class="st3" d="M204.9,134.4c-1.1,0-1.8-0.7-1.8-1.9c0-1.2,0.7-2,1.7-2c1.2,0,1.7,1,1.7,2.1v0.1h-2.8l0,0
				c0,0.8,0.4,1.3,1.2,1.3c0.5,0,0.8-0.2,1-0.8h0.6C206.3,133.9,205.8,134.4,204.9,134.4z M204.8,130.9c-0.6,0-1,0.4-1.1,1.1h2.2
				C205.9,131.3,205.5,130.9,204.8,130.9z"/>
			<path class="st3" d="M208.8,134.3c-1.2,0-1.8-0.8-1.8-1.9c0-1.2,0.7-2,1.8-2c0.9,0,1.5,0.5,1.6,1.3h-0.6
				c-0.1-0.5-0.4-0.8-0.9-0.8c-0.7,0-1.2,0.6-1.2,1.5c0,0.9,0.4,1.5,1.1,1.5c0.6,0,0.9-0.3,1-1h0.6
				C210.3,133.8,209.7,134.3,208.8,134.3z"/>
			<path class="st3" d="M212.7,131H212v2.2c0,0.3,0,0.6,0.4,0.6c0.1,0,0.2,0,0.3,0v0.5c-0.2,0-0.3,0-0.5,0c-0.9,0-0.9-0.5-0.9-1.3
				v-2h-0.6v-0.5h0.6v-1.1h0.6v1.1h0.7V131z"/>
			<path class="st3" d="M213.3,135.6h-0.5c0.6-1,1-2.1,1-3.3c0-1.2-0.3-2.4-1-3.3h0.5c0.8,1,1.1,2.2,1.1,3.3
				C214.4,133.6,214,134.5,213.3,135.6z"/>
		</g>
		<g class="st2">
			<path class="st3" d="M79.8,143.9c-1.2,0-1.8-0.8-1.8-1.9c0-1.2,0.7-2,1.8-2c0.9,0,1.5,0.5,1.6,1.3h-0.6c-0.1-0.5-0.4-0.8-0.9-0.8
				c-0.7,0-1.2,0.6-1.2,1.5c0,0.9,0.4,1.5,1.1,1.5c0.6,0,0.9-0.3,1-1h0.6C81.3,143.3,80.7,143.9,79.8,143.9z"/>
			<path class="st3" d="M84.1,140.6c-0.1,0-0.1,0-0.2,0c-1,0-1.2,0.8-1.2,1.6v1.6h-0.6V140h0.6v0.8c0.3-0.6,0.7-0.9,1.4-0.9V140.6z"
				/>
			<path class="st3" d="M86,143.9c-1.1,0-1.8-0.7-1.8-1.9c0-1.2,0.7-2,1.7-2c1.2,0,1.7,1,1.7,2.1v0.1h-2.8l0,0
				c0,0.8,0.4,1.3,1.2,1.3c0.5,0,0.8-0.2,1-0.8h0.6C87.4,143.4,86.9,143.9,86,143.9z M85.9,140.4c-0.6,0-1,0.4-1.1,1.1H87
				C87,140.8,86.6,140.4,85.9,140.4z"/>
			<path class="st3" d="M91.6,143.7c-0.1,0.1-0.3,0.1-0.4,0.1c-0.3,0-0.5-0.2-0.5-0.6c-0.4,0.4-0.8,0.6-1.4,0.6
				c-0.7,0-1.2-0.4-1.2-1.1c0-0.7,0.4-1.1,1.3-1.2c0.9-0.1,1.2-0.1,1.2-0.6c0-0.4-0.3-0.6-0.8-0.6c-0.6,0-0.9,0.2-0.9,0.8h-0.6
				c0-0.8,0.6-1.3,1.6-1.3c0.5,0,0.9,0.1,1.2,0.4c0.3,0.3,0.3,0.6,0.3,1c0,0.6,0,1.1,0,1.7c0,0.3,0.1,0.4,0.3,0.4c0.1,0,0.1,0,0.2,0
				V143.7z M89.8,142c-0.4,0.1-1.1,0.1-1.1,0.7c0,0.4,0.3,0.6,0.7,0.6c0.6,0,1.1-0.4,1.1-0.9v-0.7C90.4,142,90.1,142,89.8,142z"/>
			<path class="st3" d="M93.8,140.5h-0.7v2.2c0,0.3,0,0.6,0.4,0.6c0.1,0,0.2,0,0.3,0v0.5c-0.2,0-0.3,0-0.5,0c-0.9,0-0.9-0.5-0.9-1.3
				v-2h-0.6V140h0.6v-1.1h0.6v1.1h0.7V140.5z"/>
			<path class="st3" d="M96,143.9c-1.1,0-1.8-0.7-1.8-1.9c0-1.2,0.7-2,1.7-2c1.2,0,1.7,1,1.7,2.1v0.1h-2.8l0,0
				c0,0.8,0.4,1.3,1.2,1.3c0.5,0,0.8-0.2,1-0.8h0.6C97.5,143.4,96.9,143.9,96,143.9z M96,140.4c-0.6,0-1,0.4-1.1,1.1h2.2
				C97,140.8,96.6,140.4,96,140.4z"/>
			<path class="st3" d="M100.2,138.6c1.7,0,2.6,0.8,2.6,2.5c0,1.7-0.7,2.6-2.4,2.6h-1.8v-5.2H100.2z M99.2,143.2h1
				c1.3,0,1.8-0.6,1.8-2c0-1.4-0.5-2-1.9-2h-1V143.2z"/>
			<path class="st3" d="M106.9,141.9c0,1.3-0.7,2-1.8,2c-1.1,0-1.8-0.7-1.8-2s0.7-2,1.8-2C106.2,139.9,106.9,140.6,106.9,141.9z
				 M103.9,141.9c0,0.9,0.4,1.5,1.2,1.5c0.7,0,1.2-0.6,1.2-1.5c0-0.9-0.4-1.5-1.2-1.5S103.9,141,103.9,141.9z"/>
			<path class="st3" d="M108.2,140.6c0.3-0.4,0.7-0.6,1.2-0.6c0.5,0,0.8,0.2,1,0.6c0.3-0.4,0.7-0.7,1.2-0.7c0.8,0,1.2,0.5,1.2,1.2
				v2.6h-0.6v-2.4c0-0.5-0.1-0.9-0.7-0.9c-0.7,0-1,0.5-1,1.2v2.1H110v-2.4c0-0.5-0.1-0.9-0.7-0.9c-0.8,0-1,0.6-1,1.3v2h-0.6V140h0.6
				V140.6z"/>
			<path class="st3" d="M117.1,143.7c-0.1,0.1-0.3,0.1-0.4,0.1c-0.3,0-0.5-0.2-0.5-0.6c-0.4,0.4-0.8,0.6-1.4,0.6
				c-0.7,0-1.2-0.4-1.2-1.1c0-0.7,0.4-1.1,1.3-1.2c0.9-0.1,1.2-0.1,1.2-0.6c0-0.4-0.3-0.6-0.8-0.6c-0.6,0-0.9,0.2-0.9,0.8h-0.6
				c0-0.8,0.6-1.3,1.6-1.3c0.5,0,0.9,0.1,1.2,0.4c0.3,0.3,0.3,0.6,0.3,1c0,0.6,0,1.1,0,1.7c0,0.3,0.1,0.4,0.3,0.4c0.1,0,0.1,0,0.2,0
				V143.7z M115.3,142c-0.4,0.1-1.1,0.1-1.1,0.7c0,0.4,0.3,0.6,0.7,0.6c0.6,0,1.1-0.4,1.1-0.9v-0.7C115.9,142,115.6,142,115.3,142z"
				/>
			<path class="st3" d="M118.4,139.4h-0.6v-0.8h0.6V139.4z M118.4,143.8h-0.6V140h0.6V143.8z"/>
			<path class="st3" d="M119.9,140.6c0.3-0.5,0.7-0.7,1.3-0.7c0.9,0,1.2,0.5,1.2,1.4v2.5h-0.6v-2.2c0-0.6,0-1.1-0.8-1.1
				c-0.8,0-1.1,0.6-1.1,1.3v2h-0.6V140h0.6V140.6z"/>
			<path class="st3" d="M128.1,141.1c0,1.5-0.8,2.7-2.5,2.7c-1.7,0-2.5-1.3-2.5-2.8c0-1.6,1-2.6,2.5-2.6
				C127.2,138.5,128.1,139.6,128.1,141.1z M123.9,141.2c0,1.3,0.7,2.1,1.8,2.1c1.1,0,1.8-0.8,1.8-2.1c0-1.3-0.7-2.1-1.8-2.1
				C124.4,139.1,123.9,140.1,123.9,141.2z"/>
			<path class="st3" d="M129.5,140.5c0.3-0.4,0.7-0.6,1.2-0.6c1,0,1.7,0.8,1.7,2c0,1.2-0.7,2-1.7,2c-0.5,0-1-0.2-1.2-0.7v0.5h-0.6
				v-5.2h0.6V140.5z M129.5,141.9c0,0.9,0.4,1.4,1.2,1.4c0.7,0,1.1-0.6,1.1-1.5c0-0.9-0.4-1.4-1.1-1.4
				C129.8,140.4,129.5,141.2,129.5,141.9z"/>
			<path class="st3" d="M133.8,144.2c0,0.7-0.2,1.1-1,1.1c-0.1,0-0.2,0-0.3,0v-0.5c0.1,0,0.1,0,0.2,0c0.4,0,0.4-0.2,0.4-0.6V140h0.6
				V144.2z M133.8,139.4h-0.6v-0.8h0.6V139.4z"/>
			<path class="st3" d="M136.3,143.9c-1.1,0-1.8-0.7-1.8-1.9c0-1.2,0.7-2,1.7-2c1.2,0,1.7,1,1.7,2.1v0.1h-2.8l0,0
				c0,0.8,0.4,1.3,1.2,1.3c0.5,0,0.8-0.2,1-0.8h0.6C137.8,143.4,137.2,143.9,136.3,143.9z M136.3,140.4c-0.6,0-1,0.4-1.1,1.1h2.2
				C137.3,140.8,136.9,140.4,136.3,140.4z"/>
			<path class="st3" d="M140.3,143.9c-1.2,0-1.8-0.8-1.8-1.9c0-1.2,0.7-2,1.8-2c0.9,0,1.5,0.5,1.6,1.3h-0.6
				c-0.1-0.5-0.4-0.8-0.9-0.8c-0.7,0-1.2,0.6-1.2,1.5c0,0.9,0.4,1.5,1.1,1.5c0.6,0,0.9-0.3,1-1h0.6
				C141.8,143.3,141.2,143.9,140.3,143.9z"/>
			<path class="st3" d="M144.2,140.5h-0.7v2.2c0,0.3,0,0.6,0.4,0.6c0.1,0,0.2,0,0.3,0v0.5c-0.2,0-0.3,0-0.5,0
				c-0.9,0-0.9-0.5-0.9-1.3v-2h-0.6V140h0.6v-1.1h0.6v1.1h0.7V140.5z"/>
			<path class="st3" d="M147.4,141.8c0,1.2,0.3,2.3,1,3.3h-0.5c-0.7-1.1-1.1-2-1.1-3.3c0-1.2,0.4-2.3,1.1-3.3h0.5
				C147.7,139.5,147.4,140.6,147.4,141.8z"/>
			<path class="st3" d="M150.5,138.6c1.7,0,2.6,0.8,2.6,2.5c0,1.7-0.7,2.6-2.4,2.6h-1.8v-5.2H150.5z M149.5,143.2h1
				c1.3,0,1.8-0.6,1.8-2c0-1.4-0.5-2-1.9-2h-1V143.2z"/>
			<path class="st3" d="M157.2,143.7c-0.1,0.1-0.3,0.1-0.4,0.1c-0.3,0-0.5-0.2-0.5-0.6c-0.4,0.4-0.8,0.6-1.4,0.6
				c-0.7,0-1.2-0.4-1.2-1.1c0-0.7,0.4-1.1,1.3-1.2c0.9-0.1,1.2-0.1,1.2-0.6c0-0.4-0.3-0.6-0.8-0.6c-0.6,0-0.9,0.2-0.9,0.8h-0.6
				c0-0.8,0.6-1.3,1.6-1.3c0.5,0,0.9,0.1,1.2,0.4c0.3,0.3,0.3,0.6,0.3,1c0,0.6,0,1.1,0,1.7c0,0.3,0.1,0.4,0.3,0.4c0.1,0,0.1,0,0.2,0
				V143.7z M155.3,142c-0.4,0.1-1.1,0.1-1.1,0.7c0,0.4,0.3,0.6,0.7,0.6c0.6,0,1.1-0.4,1.1-0.9v-0.7C155.9,142,155.6,142,155.3,142z"
				/>
			<path class="st3" d="M159.3,140.5h-0.7v2.2c0,0.3,0,0.6,0.4,0.6c0.1,0,0.2,0,0.3,0v0.5c-0.2,0-0.3,0-0.5,0
				c-0.9,0-0.9-0.5-0.9-1.3v-2h-0.6V140h0.6v-1.1h0.6v1.1h0.7V140.5z"/>
			<path class="st3" d="M163.3,143.7c-0.1,0.1-0.3,0.1-0.4,0.1c-0.3,0-0.5-0.2-0.5-0.6c-0.4,0.4-0.8,0.6-1.4,0.6
				c-0.7,0-1.2-0.4-1.2-1.1c0-0.7,0.4-1.1,1.3-1.2c0.9-0.1,1.2-0.1,1.2-0.6c0-0.4-0.3-0.6-0.8-0.6c-0.6,0-0.9,0.2-0.9,0.8H160
				c0-0.8,0.6-1.3,1.6-1.3c0.5,0,0.9,0.1,1.2,0.4c0.3,0.3,0.3,0.6,0.3,1c0,0.6,0,1.1,0,1.7c0,0.3,0.1,0.4,0.3,0.4c0.1,0,0.1,0,0.2,0
				V143.7z M161.5,142c-0.5,0.1-1.1,0.1-1.1,0.7c0,0.4,0.3,0.6,0.7,0.6c0.6,0,1.1-0.4,1.1-0.9v-0.7C162.1,142,161.8,142,161.5,142z"
				/>
		</g>
		<g class="st2">
			<path class="st3" d="M167.7,139.2H166v4.6h-0.7v-4.6h-1.7v-0.6h4.1V139.2z"/>
		</g>
		<g class="st2">
			<path class="st3" d="M169.3,140.6c-0.1,0-0.1,0-0.2,0c-1,0-1.2,0.8-1.2,1.6v1.6h-0.6V140h0.6v0.8c0.3-0.6,0.7-0.9,1.4-0.9V140.6z
				"/>
		</g>
		<g class="st2">
			<path class="st3" d="M173,143.7c-0.1,0.1-0.3,0.1-0.4,0.1c-0.3,0-0.5-0.2-0.5-0.6c-0.4,0.4-0.8,0.6-1.4,0.6
				c-0.7,0-1.2-0.4-1.2-1.1c0-0.7,0.4-1.1,1.3-1.2c0.9-0.1,1.2-0.1,1.2-0.6c0-0.4-0.3-0.6-0.8-0.6c-0.6,0-0.9,0.2-0.9,0.8h-0.6
				c0-0.8,0.6-1.3,1.6-1.3c0.5,0,0.9,0.1,1.2,0.4c0.3,0.3,0.3,0.6,0.3,1c0,0.6,0,1.1,0,1.7c0,0.3,0.1,0.4,0.3,0.4c0.1,0,0.1,0,0.2,0
				V143.7z M171.2,142c-0.4,0.1-1.1,0.1-1.1,0.7c0,0.4,0.3,0.6,0.7,0.6c0.6,0,1.1-0.4,1.1-0.9v-0.7C171.8,142,171.5,142,171.2,142z"
				/>
			<path class="st3" d="M174.2,140.6c0.3-0.5,0.7-0.7,1.3-0.7c0.9,0,1.2,0.5,1.2,1.4v2.5h-0.6v-2.2c0-0.6,0-1.1-0.8-1.1
				c-0.8,0-1.1,0.6-1.1,1.3v2h-0.6V140h0.6V140.6z"/>
			<path class="st3" d="M179.8,141.1c0-0.5-0.4-0.7-0.9-0.7c-0.5,0-0.8,0.2-0.8,0.5c0,0.4,0.5,0.5,1,0.6c0.6,0.1,1.4,0.3,1.4,1.1
				c0,0.7-0.6,1.2-1.6,1.2c-1,0-1.6-0.5-1.6-1.3h0.6c0,0.6,0.4,0.8,1,0.8c0.6,0,0.9-0.2,0.9-0.6c0-0.4-0.4-0.5-0.9-0.6
				c-0.6-0.2-1.5-0.2-1.5-1.1c0-0.7,0.6-1.1,1.4-1.1c0.8,0,1.5,0.4,1.5,1.2H179.8z"/>
		</g>
		<g class="st2">
			<path class="st3" d="M182.9,139.1c-0.1,0-0.2,0-0.3,0c-0.4,0-0.5,0.1-0.5,0.5v0.4h0.7v0.5h-0.7v3.2h-0.6v-3.2h-0.6V140h0.6v-0.5
				c0-0.7,0.4-1,1-1c0.2,0,0.2,0,0.4,0V139.1z"/>
		</g>
		<g class="st2">
			<path class="st3" d="M184.7,143.9c-1.1,0-1.8-0.7-1.8-1.9c0-1.2,0.7-2,1.7-2c1.2,0,1.7,1,1.7,2.1v0.1h-2.8l0,0
				c0,0.8,0.4,1.3,1.2,1.3c0.5,0,0.8-0.2,1-0.8h0.6C186.2,143.4,185.6,143.9,184.7,143.9z M184.7,140.4c-0.6,0-1,0.4-1.1,1.1h2.2
				C185.7,140.8,185.3,140.4,184.7,140.4z"/>
			<path class="st3" d="M189,140.6c-0.1,0-0.1,0-0.2,0c-1,0-1.2,0.8-1.2,1.6v1.6H187V140h0.6v0.8c0.3-0.6,0.7-0.9,1.4-0.9V140.6z"/>
			<path class="st3" d="M194.2,141.1c0,1.5-0.8,2.7-2.5,2.7c-1.7,0-2.5-1.3-2.5-2.8c0-1.6,1-2.6,2.5-2.6
				C193.4,138.5,194.2,139.6,194.2,141.1z M190,141.2c0,1.3,0.7,2.1,1.8,2.1c1.1,0,1.8-0.8,1.8-2.1c0-1.3-0.7-2.1-1.8-2.1
				C190.5,139.1,190,140.1,190,141.2z"/>
			<path class="st3" d="M195.6,140.5c0.3-0.4,0.7-0.6,1.2-0.6c1,0,1.7,0.8,1.7,2c0,1.2-0.7,2-1.7,2c-0.5,0-1-0.2-1.2-0.7v0.5H195
				v-5.2h0.6V140.5z M195.6,141.9c0,0.9,0.4,1.4,1.2,1.4c0.7,0,1.1-0.6,1.1-1.5c0-0.9-0.5-1.4-1.1-1.4
				C195.9,140.4,195.6,141.2,195.6,141.9z"/>
			<path class="st3" d="M199.9,144.2c0,0.7-0.2,1.1-1,1.1c-0.1,0-0.2,0-0.3,0v-0.5c0.1,0,0.1,0,0.2,0c0.4,0,0.4-0.2,0.4-0.6V140h0.6
				V144.2z M199.9,139.4h-0.6v-0.8h0.6V139.4z"/>
			<path class="st3" d="M202.5,143.9c-1.1,0-1.8-0.7-1.8-1.9c0-1.2,0.7-2,1.7-2c1.2,0,1.7,1,1.7,2.1v0.1h-2.8l0,0
				c0,0.8,0.4,1.3,1.2,1.3c0.5,0,0.8-0.2,1-0.8h0.6C203.9,143.4,203.3,143.9,202.5,143.9z M202.4,140.4c-0.6,0-1,0.4-1.1,1.1h2.2
				C203.4,140.8,203,140.4,202.4,140.4z"/>
			<path class="st3" d="M206.4,143.9c-1.2,0-1.8-0.8-1.8-1.9c0-1.2,0.7-2,1.8-2c0.9,0,1.5,0.5,1.6,1.3h-0.6
				c-0.1-0.5-0.4-0.8-0.9-0.8c-0.7,0-1.2,0.6-1.2,1.5c0,0.9,0.4,1.5,1.1,1.5c0.6,0,0.9-0.3,1-1h0.6
				C207.9,143.3,207.3,143.9,206.4,143.9z"/>
			<path class="st3" d="M210.3,140.5h-0.7v2.2c0,0.3,0,0.6,0.4,0.6c0.1,0,0.2,0,0.3,0v0.5c-0.2,0-0.3,0-0.5,0
				c-0.9,0-0.9-0.5-0.9-1.3v-2h-0.6V140h0.6v-1.1h0.6v1.1h0.7V140.5z"/>
			<path class="st3" d="M210.9,145.1h-0.5c0.6-1,1-2.1,1-3.3c0-1.2-0.3-2.4-1-3.3h0.5c0.8,1,1.1,2.2,1.1,3.3
				C212,143.1,211.6,144,210.9,145.1z"/>
		</g>
		<polyline class="st1" points="73.9,113.4 231.3,113.4 231.3,108.8 73.9,108.8 73.9,113.4 		"/>
		<path class="st1" d="M73.9,90.8h157.4l0,0H73.9 M73.9,108.8h157.4v-18H73.9V108.8"/>
		<g class="st2">
			<path class="st3" d="M141.4,102.5h-1.2l-0.4-1.2h-1.9l-0.4,1.2h-1.2l2-5.2h1.2L141.4,102.5z M138.8,98.6l-0.7,1.9h1.4L138.8,98.6
				z"/>
			<path class="st3" d="M143.9,99.8c-0.1-0.4-0.3-0.5-0.7-0.5c-0.4,0-0.6,0.1-0.6,0.4c0,0.3,0.3,0.4,0.9,0.5
				c0.7,0.1,1.5,0.3,1.5,1.2c0,0.8-0.6,1.3-1.7,1.3c-0.9,0-1.7-0.4-1.8-1.3h1c0,0.4,0.3,0.6,0.8,0.6c0.4,0,0.7-0.2,0.7-0.5
				c0-0.3-0.3-0.4-0.8-0.5c-0.7-0.2-1.5-0.3-1.5-1.1c0-0.7,0.6-1.1,1.6-1.1c0.9,0,1.6,0.3,1.6,1.2H143.9z"/>
			<path class="st3" d="M147.8,99.8c-0.1-0.4-0.3-0.5-0.7-0.5c-0.4,0-0.6,0.1-0.6,0.4c0,0.3,0.3,0.4,0.9,0.5
				c0.7,0.1,1.5,0.3,1.5,1.2c0,0.8-0.6,1.3-1.7,1.3c-0.9,0-1.7-0.4-1.8-1.3h1c0,0.4,0.3,0.6,0.8,0.6c0.4,0,0.7-0.2,0.7-0.5
				c0-0.3-0.3-0.4-0.8-0.5c-0.7-0.2-1.5-0.3-1.5-1.1c0-0.7,0.6-1.1,1.6-1.1c0.9,0,1.6,0.3,1.6,1.2H147.8z"/>
			<path class="st3" d="M151.3,102.6c-1.2,0-1.9-0.8-1.9-2c0-1.2,0.8-2,1.9-2c1.1,0,1.8,0.8,1.8,2.1v0.1h-2.7c0,0.6,0.3,1,0.9,1
				c0.4,0,0.6-0.2,0.8-0.5h1C152.8,102.1,152.1,102.6,151.3,102.6z M151.2,99.4c-0.5,0-0.8,0.3-0.8,0.8h1.6
				C152,99.8,151.7,99.4,151.2,99.4z"/>
			<path class="st3" d="M158.4,102.5v-2.2c0-0.4-0.1-0.8-0.6-0.8c-0.5,0-0.7,0.4-0.7,0.9v2.1h-1v-2.3c0-0.4-0.1-0.7-0.6-0.7
				c-0.6,0-0.7,0.5-0.7,1v2h-1v-3.7h1v0.5c0.3-0.4,0.7-0.6,1.2-0.6c0.5,0,0.9,0.2,1.1,0.6c0.3-0.4,0.7-0.6,1.2-0.6
				c0.8,0,1.3,0.5,1.3,1.3v2.5H158.4z"/>
		</g>
		<g class="st2">
			<path class="st3" d="M161.2,99.2c0.3-0.4,0.7-0.5,1.2-0.5c1,0,1.6,0.9,1.6,1.9c0,1.2-0.7,2-1.7,2c-0.5,0-0.9-0.2-1.2-0.6l0,0.5
				h-1v-5.2h1V99.2z M161.2,100.6c0,0.7,0.3,1.2,0.9,1.2c0.5,0,0.9-0.5,0.9-1.2c0-0.7-0.3-1.1-0.9-1.1
				C161.5,99.4,161.2,99.9,161.2,100.6z"/>
		</g>
		<g class="st2">
			<path class="st3" d="M165.6,102.5h-1v-5.2h1V102.5z"/>
			<path class="st3" d="M168.2,102.6c-1.2,0-1.9-0.8-1.9-2c0-1.2,0.8-2,1.9-2c1.1,0,1.8,0.8,1.8,2.1v0.1h-2.7c0,0.6,0.3,1,0.9,1
				c0.4,0,0.6-0.2,0.8-0.5h1C169.7,102.1,169.1,102.6,168.2,102.6z M168.2,99.4c-0.5,0-0.8,0.3-0.8,0.8h1.6
				C168.9,99.8,168.7,99.4,168.2,99.4z"/>
			<path class="st3" d="M173,99.6c-0.2,0-0.3,0-0.4,0c-0.7,0-1,0.5-1,1.2v1.7h-1v-3.7h1v0.7c0.2-0.5,0.7-0.8,1.2-0.8
				c0.1,0,0.1,0,0.2,0V99.6z"/>
		</g>
		<polyline class="st4" points="73.7,122.6 36.6,122.6 36.6,37.2 		"/>
		<polyline class="st5" points="39.5,45.7 36.6,37.2 34.2,45.7 		"/>
		<polyline class="st4" points="231.5,122.6 274.7,122.6 274.7,64.3 		"/>
		<polyline class="st5" points="277.2,72.5 274.7,64.3 271.9,72.5 		"/>
	</g>
</g>
</svg>
