<?xml version="1.0" encoding="utf-8"?>
<!-- Generator: Adobe Illustrator 21.0.0, SVG Export Plug-In . SVG Version: 6.00 Build 0)  -->
<svg version="1.1" id="Layer_1" xmlns="http://www.w3.org/2000/svg" xmlns:xlink="http://www.w3.org/1999/xlink" x="0px" y="0px"
	 viewBox="0 0 223 145" style="enable-background:new 0 0 223 145;" xml:space="preserve">
<style type="text/css">
	.st0{fill:#FFFFFF;}
	.st1{fill:none;stroke:#231F20;stroke-width:0.5;stroke-linejoin:round;}
	.st2{enable-background:new    ;}
	.st3{fill:#231F20;}
	.st4{fill:none;stroke:#231F20;stroke-width:0.5;stroke-linecap:round;stroke-linejoin:round;}
</style>
<title>img7</title>
<g id="Layer_2">
	<g id="Layer_1-2">
		<rect class="st0" width="223" height="145"/>
		<polyline class="st1" points="1.1,37 73.4,37 73.4,19 1.1,19 1.1,37 		"/>
		<g class="st2">
			<path class="st3" d="M7,27.1H6.3v2.2c0,0.3,0,0.6,0.4,0.6c0.1,0,0.2,0,0.3,0v0.5c-0.2,0-0.3,0-0.5,0c-0.9,0-0.9-0.5-0.9-1.3v-2H5
				v-0.5h0.6v-1.1h0.6v1.1H7V27.1z"/>
			<path class="st3" d="M8.3,25.9H7.7v-0.8h0.6V25.9z M8.3,30.3H7.7v-3.7h0.6V30.3z"/>
			<path class="st3" d="M10.9,27.1h-0.7v2.2c0,0.3,0,0.6,0.4,0.6c0.1,0,0.2,0,0.3,0v0.5c-0.2,0-0.3,0-0.5,0c-0.9,0-0.9-0.5-0.9-1.3
				v-2H8.9v-0.5h0.6v-1.1h0.6v1.1h0.7V27.1z"/>
			<path class="st3" d="M12.2,30.3h-0.6v-5.2h0.6V30.3z"/>
			<path class="st3" d="M14.8,30.4c-1.1,0-1.8-0.7-1.8-1.9c0-1.2,0.7-2,1.7-2c1.2,0,1.7,1,1.7,2.1v0.1h-2.8l0,0
				c0,0.8,0.4,1.3,1.2,1.3c0.5,0,0.8-0.2,1-0.8h0.6C16.2,30,15.6,30.4,14.8,30.4z M14.7,26.9c-0.6,0-1,0.4-1.1,1.1h2.2
				C15.7,27.4,15.3,26.9,14.7,26.9z"/>
		</g>
		<g class="st2">
			<path class="st3" d="M18,27.4h-0.8v-0.8H18V27.4z M18,30.3h-0.8v-0.8H18V30.3z"/>
		</g>
		<g class="st2">
			<path class="st3" d="M23.9,26.6c-0.1-0.7-0.5-1.1-1.3-1.1c-0.7,0-1.2,0.3-1.2,0.9c0,0.6,0.6,0.7,1.4,0.9c0.8,0.2,1.9,0.4,1.9,1.5
				c0,1.1-1,1.6-2,1.6c-1.2,0-2.1-0.6-2.1-1.8h0.7c0,0.9,0.7,1.3,1.5,1.3c0.6,0,1.3-0.2,1.3-0.9c0-0.7-0.7-0.8-1.5-1
				c-0.8-0.2-1.8-0.3-1.8-1.4c0-1.1,0.9-1.5,1.9-1.5c1.1,0,1.8,0.5,1.9,1.6H23.9z"/>
			<path class="st3" d="M27.1,27.1h-0.7v2.2c0,0.3,0,0.6,0.4,0.6c0.1,0,0.2,0,0.3,0v0.5c-0.2,0-0.3,0-0.5,0c-0.9,0-0.9-0.5-0.9-1.3
				v-2h-0.6v-0.5h0.6v-1.1h0.6v1.1h0.7V27.1z"/>
		</g>
		<g class="st2">
			<path class="st3" d="M29.7,27.1c-0.1,0-0.1,0-0.2,0c-1,0-1.2,0.8-1.2,1.6v1.6h-0.6v-3.7h0.6v0.8c0.3-0.6,0.7-0.9,1.4-0.9V27.1z"
				/>
		</g>
		<g class="st2">
			<path class="st3" d="M30.9,25.9h-0.6v-0.8h0.6V25.9z M30.9,30.3h-0.6v-3.7h0.6V30.3z"/>
			<path class="st3" d="M32.5,27.1c0.3-0.5,0.7-0.7,1.3-0.7c0.9,0,1.2,0.5,1.2,1.4v2.5h-0.6v-2.2c0-0.6,0-1.1-0.8-1.1
				c-0.8,0-1.1,0.6-1.1,1.3v2h-0.6v-3.7h0.6V27.1z"/>
			<path class="st3" d="M39.1,29.9c0,0.6-0.1,0.9-0.2,1.2c-0.3,0.4-0.8,0.7-1.5,0.7c-0.8,0-1.5-0.3-1.6-1.1h0.6
				c0.1,0.4,0.4,0.6,1,0.6c0.8,0,1.1-0.4,1.1-1.2l0-0.5c-0.2,0.5-0.6,0.7-1.2,0.7c-1,0-1.6-0.7-1.6-1.9c0-1,0.6-2,1.7-2
				c0.5,0,0.9,0.2,1.2,0.6v-0.5h0.6V29.9z M36.4,28.4c0,0.8,0.4,1.4,1.1,1.4c0.7,0,1.1-0.6,1.1-1.5c0-0.8-0.4-1.4-1.1-1.4
				C36.8,27,36.4,27.5,36.4,28.4z"/>
		</g>
		<path class="st1" d="M1.1,1h72.4l0,0H1.1 M1.1,19h72.4V1H1.1V19"/>
		<g class="st2">
			<path class="st3" d="M32.2,12.3H31l-0.4-1.2h-1.9l-0.4,1.2h-1.2l2-5.2h1.2L32.2,12.3z M29.7,8.4L29,10.3h1.4L29.7,8.4z"/>
			<path class="st3" d="M33.6,12.3h-1V7.1h1V12.3z"/>
		</g>
		<g class="st2">
			<path class="st3" d="M35.4,9c0.3-0.4,0.7-0.5,1.2-0.5c1,0,1.6,0.9,1.6,1.9c0,1.2-0.7,2-1.7,2c-0.5,0-0.9-0.2-1.2-0.6l0,0.5h-1
				V7.1h1V9z M35.4,10.4c0,0.7,0.3,1.2,0.9,1.2c0.5,0,0.9-0.5,0.9-1.2c0-0.7-0.3-1.1-0.9-1.1C35.7,9.3,35.4,9.7,35.4,10.4z"/>
		</g>
		<g class="st2">
			<path class="st3" d="M42.2,12.3h-1v-0.5c-0.3,0.4-0.7,0.6-1.2,0.6c-0.8,0-1.3-0.4-1.3-1.3V8.5h1v2.1c0,0.5,0,0.8,0.6,0.8
				c0.6,0,0.8-0.5,0.8-1.1V8.5h1V12.3z"/>
			<path class="st3" d="M47.7,12.3v-2.2c0-0.4-0.1-0.8-0.6-0.8c-0.5,0-0.7,0.4-0.7,0.9v2.1h-1V10c0-0.4-0.1-0.7-0.6-0.7
				c-0.6,0-0.7,0.5-0.7,1v2h-1V8.5h1v0.5c0.3-0.4,0.7-0.6,1.2-0.6c0.5,0,0.9,0.2,1.1,0.6c0.3-0.4,0.7-0.6,1.2-0.6
				c0.8,0,1.3,0.5,1.3,1.3v2.5H47.7z"/>
		</g>
		<polyline class="st1" points="145.1,37 217.1,37 217.1,19 145.1,19 145.1,37 		"/>
		<g class="st2">
			<path class="st3" d="M150,27.1c0.3-0.5,0.7-0.7,1.3-0.7c0.9,0,1.2,0.5,1.2,1.4v2.5h-0.6v-2.2c0-0.6,0-1.1-0.8-1.1
				c-0.8,0-1.1,0.6-1.1,1.3v2h-0.6v-3.7h0.6V27.1z"/>
			<path class="st3" d="M156.7,30.3c-0.1,0.1-0.3,0.1-0.4,0.1c-0.3,0-0.5-0.2-0.5-0.6c-0.4,0.4-0.8,0.6-1.4,0.6
				c-0.7,0-1.2-0.4-1.2-1.1c0-0.7,0.4-1.1,1.3-1.2c0.9-0.1,1.2-0.1,1.2-0.6c0-0.4-0.3-0.6-0.8-0.6c-0.6,0-0.9,0.2-0.9,0.8h-0.6
				c0-0.8,0.6-1.3,1.6-1.3c0.5,0,0.9,0.1,1.2,0.4c0.3,0.3,0.3,0.6,0.3,1c0,0.6,0,1.1,0,1.7c0,0.3,0.1,0.4,0.3,0.4c0.1,0,0.1,0,0.2,0
				V30.3z M154.9,28.6c-0.4,0.1-1.1,0.1-1.1,0.7c0,0.4,0.3,0.6,0.7,0.6c0.6,0,1.1-0.4,1.1-0.9v-0.7
				C155.5,28.5,155.2,28.5,154.9,28.6z"/>
			<path class="st3" d="M157.9,27.1c0.3-0.4,0.7-0.6,1.2-0.6c0.5,0,0.8,0.2,1,0.6c0.3-0.4,0.7-0.7,1.2-0.7c0.8,0,1.2,0.5,1.2,1.2
				v2.6H162v-2.4c0-0.5-0.1-0.9-0.7-0.9c-0.7,0-1,0.5-1,1.2v2.1h-0.6v-2.4c0-0.5-0.1-0.9-0.7-0.9c-0.8,0-1,0.6-1,1.3v2h-0.6v-3.7
				h0.6V27.1z"/>
			<path class="st3" d="M165.1,30.4c-1.1,0-1.8-0.7-1.8-1.9c0-1.2,0.7-2,1.7-2c1.2,0,1.7,1,1.7,2.1v0.1h-2.8l0,0
				c0,0.8,0.4,1.3,1.2,1.3c0.5,0,0.8-0.2,1-0.8h0.6C166.5,30,166,30.4,165.1,30.4z M165,26.9c-0.6,0-1,0.4-1.1,1.1h2.2
				C166.1,27.4,165.7,26.9,165,26.9z"/>
		</g>
		<g class="st2">
			<path class="st3" d="M168.3,27.4h-0.8v-0.8h0.8V27.4z M168.3,30.3h-0.8v-0.8h0.8V30.3z"/>
		</g>
		<g class="st2">
			<path class="st3" d="M174.2,26.6c-0.1-0.7-0.5-1.1-1.3-1.1c-0.7,0-1.2,0.3-1.2,0.9c0,0.6,0.6,0.7,1.4,0.9
				c0.8,0.2,1.9,0.4,1.9,1.5c0,1.1-1,1.6-2,1.6c-1.2,0-2.1-0.6-2.1-1.8h0.7c0,0.9,0.7,1.3,1.5,1.3c0.6,0,1.3-0.2,1.3-0.9
				c0-0.7-0.7-0.8-1.5-1c-0.8-0.2-1.8-0.3-1.8-1.4c0-1.1,0.9-1.5,1.9-1.5c1.1,0,1.8,0.5,1.9,1.6H174.2z"/>
			<path class="st3" d="M177.4,27.1h-0.7v2.2c0,0.3,0,0.6,0.4,0.6c0.1,0,0.2,0,0.3,0v0.5c-0.2,0-0.3,0-0.5,0c-0.9,0-0.9-0.5-0.9-1.3
				v-2h-0.6v-0.5h0.6v-1.1h0.6v1.1h0.7V27.1z"/>
		</g>
		<g class="st2">
			<path class="st3" d="M180,27.1c-0.1,0-0.1,0-0.2,0c-1,0-1.2,0.8-1.2,1.6v1.6H178v-3.7h0.6v0.8c0.3-0.6,0.7-0.9,1.4-0.9V27.1z"/>
		</g>
		<g class="st2">
			<path class="st3" d="M181.2,25.9h-0.6v-0.8h0.6V25.9z M181.2,30.3h-0.6v-3.7h0.6V30.3z"/>
			<path class="st3" d="M182.8,27.1c0.3-0.5,0.7-0.7,1.3-0.7c0.9,0,1.2,0.5,1.2,1.4v2.5h-0.6v-2.2c0-0.6,0-1.1-0.8-1.1
				c-0.8,0-1.1,0.6-1.1,1.3v2h-0.6v-3.7h0.6V27.1z"/>
			<path class="st3" d="M189.5,29.9c0,0.6-0.1,0.9-0.2,1.2c-0.3,0.4-0.8,0.7-1.5,0.7c-0.8,0-1.5-0.3-1.6-1.1h0.6
				c0.1,0.4,0.4,0.6,1,0.6c0.8,0,1.1-0.4,1.1-1.2l0-0.5c-0.2,0.5-0.6,0.7-1.2,0.7c-1,0-1.6-0.7-1.6-1.9c0-1,0.6-2,1.7-2
				c0.5,0,0.9,0.2,1.2,0.6v-0.5h0.6V29.9z M186.7,28.4c0,0.8,0.4,1.4,1.1,1.4c0.7,0,1.1-0.6,1.1-1.5c0-0.8-0.4-1.4-1.1-1.4
				C187.1,27,186.7,27.5,186.7,28.4z"/>
		</g>
		<path class="st1" d="M145.1,1h72l0,0H145.1 M145.1,19h72V1h-72V19"/>
		<g class="st2">
			<path class="st3" d="M177.6,12.3h-1.2l-0.4-1.2h-1.9l-0.4,1.2h-1.2l2-5.2h1.2L177.6,12.3z M175.1,8.4l-0.7,1.9h1.4L175.1,8.4z"/>
		</g>
		<g class="st2">
			<path class="st3" d="M180.4,9.4c-0.2,0-0.3,0-0.4,0c-0.7,0-1,0.5-1,1.2v1.7h-1V8.5h1v0.7c0.2-0.5,0.7-0.8,1.2-0.8
				c0.1,0,0.1,0,0.2,0V9.4z"/>
		</g>
		<g class="st2">
			<path class="st3" d="M183,9.2h-0.8V11c0,0.4,0,0.5,0.4,0.5c0.1,0,0.2,0,0.3,0v0.8c-0.3,0-0.4,0-0.6,0c-0.9,0-1.2-0.2-1.2-1.1V9.2
				h-0.6V8.5h0.6V7.4h1v1.1h0.8V9.2z"/>
			<path class="st3" d="M184.5,8h-1V7.1h1V8z M184.5,12.3h-1V8.5h1V12.3z"/>
			<path class="st3" d="M187.5,9.6c-0.1-0.4-0.3-0.5-0.7-0.5c-0.4,0-0.6,0.1-0.6,0.4c0,0.3,0.3,0.4,0.9,0.5c0.7,0.1,1.5,0.3,1.5,1.2
				c0,0.8-0.6,1.3-1.7,1.3c-0.9,0-1.7-0.4-1.8-1.3h1c0,0.4,0.3,0.6,0.8,0.6c0.4,0,0.7-0.2,0.7-0.5c0-0.3-0.3-0.4-0.8-0.5
				c-0.7-0.2-1.5-0.3-1.5-1.1c0-0.7,0.6-1.1,1.6-1.1c0.9,0,1.6,0.3,1.6,1.2H187.5z"/>
			<path class="st3" d="M191.3,9.2h-0.8V11c0,0.4,0,0.5,0.4,0.5c0.1,0,0.2,0,0.3,0v0.8c-0.3,0-0.4,0-0.6,0c-0.9,0-1.2-0.2-1.2-1.1
				V9.2h-0.6V8.5h0.6V7.4h1v1.1h0.8V9.2z"/>
		</g>
		<path class="st4" d="M136.6,21.8l8.5-2.8l-8.5-2.8 M73.4,19h71.6"/>
		<g class="st2">
			<path class="st3" d="M136.7,12.3H136V8.6h-1.3V8.1c0.8,0,1.3-0.2,1.5-1h0.5V12.3z"/>
		</g>
		<polyline class="st4" points="1.1,144.6 73.4,144.6 73.4,126.7 1.1,126.7 1.1,144.6 		"/>
		<g class="st2">
			<path class="st3" d="M7,134.7H6.3v2.2c0,0.3,0,0.6,0.4,0.6c0.1,0,0.2,0,0.3,0v0.5c-0.2,0-0.3,0-0.5,0c-0.9,0-0.9-0.5-0.9-1.3v-2
				H5v-0.5h0.6v-1.1h0.6v1.1H7V134.7z"/>
			<path class="st3" d="M8.3,133.5H7.7v-0.8h0.6V133.5z M8.3,137.9H7.7v-3.7h0.6V137.9z"/>
			<path class="st3" d="M10.9,134.7h-0.7v2.2c0,0.3,0,0.6,0.4,0.6c0.1,0,0.2,0,0.3,0v0.5c-0.2,0-0.3,0-0.5,0c-0.9,0-0.9-0.5-0.9-1.3
				v-2H8.9v-0.5h0.6v-1.1h0.6v1.1h0.7V134.7z"/>
			<path class="st3" d="M12.2,137.9h-0.6v-5.2h0.6V137.9z"/>
			<path class="st3" d="M14.8,138.1c-1.1,0-1.8-0.7-1.8-1.9c0-1.2,0.7-2,1.7-2c1.2,0,1.7,1,1.7,2.1v0.1h-2.8l0,0
				c0,0.8,0.4,1.3,1.2,1.3c0.5,0,0.8-0.2,1-0.8h0.6C16.2,137.6,15.6,138.1,14.8,138.1z M14.7,134.6c-0.6,0-1,0.4-1.1,1.1h2.2
				C15.7,135,15.3,134.6,14.7,134.6z"/>
		</g>
		<g class="st2">
			<path class="st3" d="M18,135h-0.8v-0.8H18V135z M18,137.9h-0.8v-0.8H18V137.9z"/>
		</g>
		<g class="st2">
			<path class="st3" d="M23.9,134.3c-0.1-0.7-0.5-1.1-1.3-1.1c-0.7,0-1.2,0.3-1.2,0.9c0,0.6,0.6,0.7,1.4,0.9
				c0.8,0.2,1.9,0.4,1.9,1.5c0,1.1-1,1.6-2,1.6c-1.2,0-2.1-0.6-2.1-1.8h0.7c0,0.9,0.7,1.3,1.5,1.3c0.6,0,1.3-0.2,1.3-0.9
				c0-0.7-0.7-0.8-1.5-1c-0.8-0.2-1.8-0.3-1.8-1.4c0-1.1,0.9-1.5,1.9-1.5c1.1,0,1.8,0.5,1.9,1.6H23.9z"/>
			<path class="st3" d="M27.1,134.7h-0.7v2.2c0,0.3,0,0.6,0.4,0.6c0.1,0,0.2,0,0.3,0v0.5c-0.2,0-0.3,0-0.5,0c-0.9,0-0.9-0.5-0.9-1.3
				v-2h-0.6v-0.5h0.6v-1.1h0.6v1.1h0.7V134.7z"/>
		</g>
		<g class="st2">
			<path class="st3" d="M29.7,134.8c-0.1,0-0.1,0-0.2,0c-1,0-1.2,0.8-1.2,1.6v1.6h-0.6v-3.7h0.6v0.8c0.3-0.6,0.7-0.9,1.4-0.9V134.8z
				"/>
		</g>
		<g class="st2">
			<path class="st3" d="M30.9,133.5h-0.6v-0.8h0.6V133.5z M30.9,137.9h-0.6v-3.7h0.6V137.9z"/>
			<path class="st3" d="M32.5,134.8c0.3-0.5,0.7-0.7,1.3-0.7c0.9,0,1.2,0.5,1.2,1.4v2.5h-0.6v-2.2c0-0.6,0-1.1-0.8-1.1
				c-0.8,0-1.1,0.6-1.1,1.3v2h-0.6v-3.7h0.6V134.8z"/>
			<path class="st3" d="M39.1,137.5c0,0.6-0.1,0.9-0.2,1.2c-0.3,0.4-0.8,0.7-1.5,0.7c-0.8,0-1.5-0.3-1.6-1.1h0.6
				c0.1,0.4,0.4,0.6,1,0.6c0.8,0,1.1-0.4,1.1-1.2l0-0.5c-0.2,0.5-0.6,0.7-1.2,0.7c-1,0-1.6-0.7-1.6-1.9c0-1,0.6-2,1.7-2
				c0.5,0,0.9,0.2,1.2,0.6v-0.5h0.6V137.5z M36.4,136.1c0,0.8,0.4,1.4,1.1,1.4c0.7,0,1.1-0.6,1.1-1.5c0-0.8-0.4-1.4-1.1-1.4
				C36.8,134.6,36.4,135.2,36.4,136.1z"/>
		</g>
		<path class="st4" d="M1.1,108.7h72.4l0,0H1.1 M1.1,126.7h72.4v-18H1.1V126.7"/>
		<g class="st2">
			<path class="st3" d="M32.9,116.1h-1.6v4.2h-1.1v-4.2h-1.6v-1h4.2V116.1z"/>
		</g>
		<g class="st2">
			<path class="st3" d="M35.3,117.4c-0.2,0-0.3,0-0.4,0c-0.7,0-1,0.5-1,1.2v1.7h-1v-3.7h1v0.7c0.2-0.5,0.7-0.8,1.2-0.8
				c0.1,0,0.1,0,0.2,0V117.4z"/>
			<path class="st3" d="M38.1,120.3c-0.1-0.1-0.1-0.2-0.1-0.4c-0.3,0.3-0.8,0.5-1.2,0.5c-0.8,0-1.3-0.4-1.3-1.1c0-1,0.9-1.1,1.6-1.2
				c0.7-0.1,0.9-0.1,0.9-0.4c0-0.3-0.2-0.5-0.7-0.5c-0.5,0-0.7,0.1-0.7,0.6h-1c0.1-0.8,0.7-1.3,1.7-1.3c0.8,0,1.6,0.2,1.6,1.2v1.6
				c0,0.3,0,0.7,0.1,1H38.1z M37.3,118.7c-0.4,0.1-0.8,0.1-0.8,0.6c0,0.3,0.2,0.5,0.6,0.5c0.5,0,0.9-0.3,0.9-0.8v-0.4
				C37.8,118.6,37.6,118.6,37.3,118.7z"/>
		</g>
		<g class="st2">
			<path class="st3" d="M41.6,120.4c-1.2,0-1.9-0.8-1.9-1.9c0-1.2,0.8-2,1.9-2c1,0,1.7,0.5,1.8,1.4h-1c-0.1-0.4-0.3-0.6-0.7-0.6
				c-0.6,0-0.9,0.4-0.9,1.2c0,0.7,0.3,1.2,0.9,1.2c0.4,0,0.7-0.3,0.8-0.8h1C43.3,119.8,42.6,120.4,41.6,120.4z"/>
		</g>
		<g class="st2">
			<path class="st3" d="M46.1,117.9l1.6,2.4h-1.2l-1-1.7l-0.4,0.4v1.3h-1v-5.2h1v2.8l1.3-1.3h1.2L46.1,117.9z"/>
		</g>
		<path class="st4" d="M34.6,100.5l2.5,8.1l2.8-8.1 M37.1,37v71.7"/>
		<g class="st2">
			<path class="st3" d="M24.5,54.3h-1v-5.8h-2v-0.7c1.2,0,2-0.3,2.3-1.5h0.8V54.3z"/>
		</g>
		<path class="st4" d="M183.9,45.5l-2.8-8.5l-2.8,8.5 M73.4,126.7h107.6V37"/>
		<g class="st2">
			<path class="st3" d="M188.1,54.3c0.3-0.5,0.7-0.6,1.3-0.6c1,0,1.7,0.8,1.7,2c0,1.2-0.7,2-1.7,2c-0.6,0-0.9-0.2-1.3-0.6v2h-0.6
				v-5.2h0.6V54.3z M188.1,55.6c0,0.9,0.4,1.5,1.2,1.5c0.7,0,1.1-0.6,1.1-1.5c0-0.9-0.4-1.5-1.2-1.5
				C188.6,54.1,188.1,54.7,188.1,55.6z"/>
			<path class="st3" d="M193.4,57.6c-1.1,0-1.8-0.7-1.8-1.9c0-1.2,0.7-2,1.7-2c1.2,0,1.7,1,1.7,2.1v0.1h-2.8l0,0
				c0,0.8,0.4,1.3,1.2,1.3c0.5,0,0.8-0.2,1-0.8h0.6C194.8,57.2,194.3,57.6,193.4,57.6z M193.4,54.1c-0.6,0-1,0.4-1.1,1.1h2.2
				C194.4,54.6,194,54.1,193.4,54.1z"/>
			<path class="st3" d="M197.7,54.3c-0.1,0-0.1,0-0.2,0c-1,0-1.2,0.8-1.2,1.6v1.6h-0.6v-3.7h0.6v0.8c0.3-0.6,0.7-0.9,1.4-0.9V54.3z"
				/>
		</g>
		<g class="st2">
			<path class="st3" d="M199.8,52.8c-0.1,0-0.2,0-0.3,0c-0.4,0-0.5,0.1-0.5,0.5v0.4h0.7v0.5H199v3.2h-0.6v-3.2h-0.6v-0.5h0.6v-0.5
				c0-0.7,0.4-1,1-1c0.2,0,0.2,0,0.4,0V52.8z"/>
		</g>
		<g class="st2">
			<path class="st3" d="M203.5,55.6c0,1.3-0.7,2-1.8,2c-1.1,0-1.8-0.7-1.8-2s0.7-2,1.8-2C202.8,53.6,203.5,54.3,203.5,55.6z
				 M200.5,55.6c0,0.9,0.4,1.5,1.2,1.5c0.7,0,1.2-0.6,1.2-1.5c0-0.9-0.4-1.5-1.2-1.5S200.5,54.7,200.5,55.6z"/>
		</g>
		<g class="st2">
			<path class="st3" d="M206.2,54.3c-0.1,0-0.1,0-0.2,0c-1,0-1.2,0.8-1.2,1.6v1.6h-0.6v-3.7h0.6v0.8c0.3-0.6,0.7-0.9,1.4-0.9V54.3z"
				/>
		</g>
		<g class="st2">
			<path class="st3" d="M207.4,54.3c0.3-0.4,0.7-0.6,1.2-0.6c0.5,0,0.8,0.2,1,0.6c0.3-0.4,0.7-0.7,1.2-0.7c0.8,0,1.2,0.5,1.2,1.2
				v2.6h-0.6v-2.4c0-0.5-0.1-0.9-0.7-0.9c-0.7,0-1,0.5-1,1.2v2.1h-0.6v-2.4c0-0.5-0.1-0.9-0.7-0.9c-0.8,0-1,0.6-1,1.3v2h-0.6v-3.7
				h0.6V54.3z"/>
			<path class="st3" d="M214.6,57.6c-1.1,0-1.8-0.7-1.8-1.9c0-1.2,0.7-2,1.7-2c1.2,0,1.7,1,1.7,2.1v0.1h-2.8l0,0
				c0,0.8,0.4,1.3,1.2,1.3c0.5,0,0.8-0.2,1-0.8h0.6C216,57.2,215.4,57.6,214.6,57.6z M214.5,54.1c-0.6,0-1,0.4-1.1,1.1h2.2
				C215.5,54.6,215.1,54.1,214.5,54.1z"/>
			<path class="st3" d="M218.8,54.3c-0.1,0-0.1,0-0.2,0c-1,0-1.2,0.8-1.2,1.6v1.6h-0.6v-3.7h0.6v0.8c0.3-0.6,0.7-0.9,1.4-0.9V54.3z"
				/>
			<path class="st3" d="M221.5,54.8c0-0.5-0.4-0.7-0.9-0.7c-0.5,0-0.8,0.2-0.8,0.5c0,0.4,0.5,0.5,1,0.6c0.6,0.1,1.4,0.3,1.4,1.1
				c0,0.7-0.6,1.2-1.6,1.2c-1,0-1.6-0.5-1.6-1.3h0.6c0,0.6,0.4,0.8,1,0.8c0.6,0,0.9-0.2,0.9-0.6c0-0.4-0.4-0.5-0.9-0.6
				c-0.6-0.2-1.5-0.2-1.5-1.1c0-0.7,0.6-1.1,1.4-1.1c0.8,0,1.5,0.4,1.5,1.2H221.5z"/>
		</g>
		<g class="st2">
			<path class="st3" d="M81.4,24.8c0-0.4-0.1-0.8-0.2-1.1c-0.2-0.5-0.3-0.9-0.3-1.1c0-0.3,0.1-0.5,0.2-0.7c0.1-0.1,0.3-0.2,0.5-0.2
				c0.2,0,0.3,0.1,0.4,0.2c0.1,0.2,0.2,0.4,0.2,0.6c0,0.2-0.1,0.6-0.2,1c-0.1,0.4-0.2,0.9-0.3,1.2c0.3-0.2,0.6-0.4,0.8-0.7
				c0.4-0.4,0.7-0.7,0.8-0.8c0.2-0.1,0.4-0.2,0.6-0.2c0.2,0,0.3,0.1,0.5,0.2c0.1,0.1,0.2,0.3,0.2,0.4c0,0.2-0.1,0.4-0.3,0.5
				s-0.6,0.3-1.4,0.5c-0.4,0.1-0.8,0.2-1.1,0.3c0.3,0.2,0.6,0.3,1.1,0.3c0.7,0.1,1.1,0.3,1.3,0.5c0.2,0.2,0.3,0.4,0.3,0.6
				c0,0.2-0.1,0.3-0.2,0.4c-0.1,0.1-0.3,0.2-0.4,0.2s-0.4-0.1-0.6-0.2c-0.2-0.1-0.5-0.4-0.8-0.8c-0.2-0.3-0.5-0.5-0.8-0.8
				c0,0.3,0.1,0.7,0.2,1c0.2,0.7,0.3,1.1,0.3,1.3c0,0.2-0.1,0.4-0.2,0.6s-0.3,0.2-0.4,0.2c-0.2,0-0.4-0.1-0.6-0.2
				c-0.1-0.1-0.2-0.3-0.2-0.6c0-0.3,0.1-0.6,0.2-1c0.1-0.4,0.2-0.6,0.2-0.8c0-0.1,0.1-0.4,0.1-0.6c-0.3,0.2-0.6,0.5-0.9,0.7
				c-0.4,0.5-0.7,0.7-0.9,0.9c-0.1,0.1-0.3,0.1-0.4,0.1c-0.2,0-0.3-0.1-0.5-0.2s-0.2-0.3-0.2-0.4c0-0.1,0.1-0.3,0.2-0.4
				c0.1-0.2,0.3-0.3,0.5-0.4c0.1-0.1,0.5-0.2,1-0.3c0.3-0.1,0.7-0.2,1-0.3c-0.3-0.1-0.7-0.3-1.1-0.3c-0.7-0.1-1.1-0.3-1.3-0.4
				c-0.2-0.2-0.4-0.4-0.4-0.7c0-0.1,0.1-0.3,0.2-0.4c0.1-0.1,0.3-0.2,0.4-0.2c0.2,0,0.4,0.1,0.6,0.2c0.2,0.1,0.5,0.4,0.8,0.7
				S81.1,24.6,81.4,24.8z"/>
		</g>
		<g class="st2">
			<path class="st3" d="M27.8,96.5c0-0.4-0.1-0.8-0.2-1.1c-0.2-0.5-0.3-0.9-0.3-1.1c0-0.3,0.1-0.5,0.2-0.7c0.1-0.1,0.3-0.2,0.5-0.2
				c0.2,0,0.3,0.1,0.4,0.2c0.1,0.2,0.2,0.4,0.2,0.6c0,0.2-0.1,0.6-0.2,1c-0.1,0.4-0.2,0.9-0.3,1.2c0.3-0.2,0.6-0.4,0.8-0.7
				c0.4-0.4,0.7-0.7,0.8-0.8c0.2-0.1,0.4-0.2,0.6-0.2c0.2,0,0.3,0.1,0.5,0.2c0.1,0.1,0.2,0.3,0.2,0.4c0,0.2-0.1,0.4-0.3,0.5
				s-0.6,0.3-1.4,0.5c-0.4,0.1-0.8,0.2-1.1,0.3c0.3,0.2,0.6,0.3,1.1,0.3c0.7,0.1,1.1,0.3,1.3,0.5c0.2,0.2,0.3,0.4,0.3,0.6
				c0,0.2-0.1,0.3-0.2,0.4c-0.1,0.1-0.3,0.2-0.4,0.2s-0.4-0.1-0.6-0.2c-0.2-0.1-0.5-0.4-0.8-0.8c-0.2-0.3-0.5-0.5-0.8-0.8
				c0,0.3,0.1,0.7,0.2,1c0.2,0.7,0.3,1.1,0.3,1.3c0,0.2-0.1,0.4-0.2,0.6s-0.3,0.2-0.4,0.2c-0.2,0-0.4-0.1-0.6-0.2
				c-0.1-0.1-0.2-0.3-0.2-0.6c0-0.3,0.1-0.6,0.2-1c0.1-0.4,0.2-0.6,0.2-0.8c0-0.1,0.1-0.4,0.1-0.6c-0.3,0.2-0.6,0.5-0.9,0.7
				c-0.4,0.5-0.7,0.7-0.9,0.9c-0.1,0.1-0.3,0.1-0.4,0.1c-0.2,0-0.3-0.1-0.5-0.2s-0.2-0.3-0.2-0.4c0-0.1,0.1-0.3,0.2-0.4
				c0.1-0.2,0.3-0.3,0.5-0.4c0.1-0.1,0.5-0.2,1-0.3c0.3-0.1,0.7-0.2,1-0.3c-0.3-0.1-0.7-0.3-1.1-0.3c-0.7-0.1-1.1-0.3-1.3-0.4
				c-0.2-0.2-0.4-0.4-0.4-0.7c0-0.1,0.1-0.3,0.2-0.4c0.1-0.1,0.3-0.2,0.4-0.2c0.2,0,0.4,0.1,0.6,0.2c0.2,0.1,0.5,0.4,0.8,0.7
				S27.4,96.3,27.8,96.5z"/>
		</g>
		<g class="st2">
			<path class="st3" d="M86,114.5c0-0.4-0.1-0.8-0.2-1.1c-0.2-0.5-0.3-0.9-0.3-1.1c0-0.3,0.1-0.5,0.2-0.7c0.1-0.1,0.3-0.2,0.5-0.2
				c0.2,0,0.3,0.1,0.4,0.2c0.1,0.2,0.2,0.4,0.2,0.6c0,0.2-0.1,0.6-0.2,1c-0.1,0.4-0.2,0.9-0.3,1.2c0.3-0.2,0.6-0.4,0.8-0.7
				c0.4-0.4,0.7-0.7,0.8-0.8c0.2-0.1,0.4-0.2,0.6-0.2c0.2,0,0.3,0.1,0.5,0.2c0.1,0.1,0.2,0.3,0.2,0.4c0,0.2-0.1,0.4-0.3,0.5
				s-0.6,0.3-1.4,0.5c-0.4,0.1-0.8,0.2-1.1,0.3c0.3,0.2,0.6,0.3,1.1,0.3c0.7,0.1,1.1,0.3,1.3,0.5c0.2,0.2,0.3,0.4,0.3,0.6
				c0,0.2-0.1,0.3-0.2,0.4c-0.1,0.1-0.3,0.2-0.4,0.2s-0.4-0.1-0.6-0.2c-0.2-0.1-0.5-0.4-0.8-0.8c-0.2-0.3-0.5-0.5-0.8-0.8
				c0,0.3,0.1,0.7,0.2,1c0.2,0.7,0.3,1.1,0.3,1.3c0,0.2-0.1,0.4-0.2,0.6s-0.3,0.2-0.4,0.2c-0.2,0-0.4-0.1-0.6-0.2
				c-0.1-0.1-0.2-0.3-0.2-0.6c0-0.3,0.1-0.6,0.2-1c0.1-0.4,0.2-0.6,0.2-0.8c0-0.1,0.1-0.4,0.1-0.6c-0.3,0.2-0.6,0.5-0.9,0.7
				c-0.4,0.5-0.7,0.7-0.9,0.9c-0.1,0.1-0.3,0.1-0.4,0.1c-0.2,0-0.3-0.1-0.5-0.2s-0.2-0.3-0.2-0.4c0-0.1,0.1-0.3,0.2-0.4
				c0.1-0.2,0.3-0.3,0.5-0.4c0.1-0.1,0.5-0.2,1-0.3c0.3-0.1,0.7-0.2,1-0.3c-0.3-0.1-0.7-0.3-1.1-0.3c-0.7-0.1-1.1-0.3-1.3-0.4
				c-0.2-0.2-0.4-0.4-0.4-0.7c0-0.1,0.1-0.3,0.2-0.4c0.1-0.1,0.3-0.2,0.4-0.2c0.2,0,0.4,0.1,0.6,0.2c0.2,0.1,0.5,0.4,0.8,0.7
				S85.7,114.3,86,114.5z"/>
		</g>
		<g class="st2">
			<path class="st3" d="M171.4,42.8c0-0.4-0.1-0.8-0.2-1.1c-0.2-0.5-0.3-0.9-0.3-1.1c0-0.3,0.1-0.5,0.2-0.7c0.1-0.1,0.3-0.2,0.5-0.2
				c0.2,0,0.3,0.1,0.4,0.2c0.1,0.2,0.2,0.4,0.2,0.6c0,0.2-0.1,0.6-0.2,1c-0.1,0.4-0.2,0.9-0.3,1.2c0.3-0.2,0.6-0.4,0.8-0.7
				c0.4-0.4,0.7-0.7,0.8-0.8c0.2-0.1,0.4-0.2,0.6-0.2c0.2,0,0.3,0.1,0.5,0.2c0.1,0.1,0.2,0.3,0.2,0.4c0,0.2-0.1,0.4-0.3,0.5
				s-0.6,0.3-1.4,0.5c-0.4,0.1-0.8,0.2-1.1,0.3c0.3,0.2,0.6,0.3,1.1,0.3c0.7,0.1,1.1,0.3,1.3,0.5c0.2,0.2,0.3,0.4,0.3,0.6
				c0,0.2-0.1,0.3-0.2,0.4c-0.1,0.1-0.3,0.2-0.4,0.2s-0.4-0.1-0.6-0.2c-0.2-0.1-0.5-0.4-0.8-0.8c-0.2-0.3-0.5-0.5-0.8-0.8
				c0,0.3,0.1,0.7,0.2,1c0.2,0.7,0.3,1.1,0.3,1.3c0,0.2-0.1,0.4-0.2,0.6s-0.3,0.2-0.4,0.2c-0.2,0-0.4-0.1-0.6-0.2
				c-0.1-0.1-0.2-0.3-0.2-0.6c0-0.3,0.1-0.6,0.2-1c0.1-0.4,0.2-0.6,0.2-0.8c0-0.1,0.1-0.4,0.1-0.6c-0.3,0.2-0.6,0.5-0.9,0.7
				c-0.4,0.5-0.7,0.7-0.9,0.9c-0.1,0.1-0.3,0.1-0.4,0.1c-0.2,0-0.3-0.1-0.5-0.2s-0.2-0.3-0.2-0.4c0-0.1,0.1-0.3,0.2-0.4
				c0.1-0.2,0.3-0.3,0.5-0.4c0.1-0.1,0.5-0.2,1-0.3c0.3-0.1,0.7-0.2,1-0.3c-0.3-0.1-0.7-0.3-1.1-0.3c-0.7-0.1-1.1-0.3-1.3-0.4
				c-0.2-0.2-0.4-0.4-0.4-0.7c0-0.1,0.1-0.3,0.2-0.4c0.1-0.1,0.3-0.2,0.4-0.2c0.2,0,0.4,0.1,0.6,0.2c0.2,0.1,0.5,0.4,0.8,0.7
				C170.8,42.3,171.1,42.6,171.4,42.8z"/>
		</g>
	</g>
</g>
</svg>
