<svg width="219" height="61" viewBox="0 0 219 61" fill="none" xmlns="http://www.w3.org/2000/svg">
<g clip-path="url(#clip0)">
<path d="M68.625 49C62.3528 49 57.25 43.8973 57.25 37.625V36.375C57.25 30.1027 62.3528 25 68.625 25C74.8973 25 80 30.1027 80 36.375V37.625C80 43.8973 74.8973 49 68.625 49ZM68.625 29C64.5583 29 61.25 32.3085 61.25 36.375V37.625C61.25 41.6917 64.5583 45 68.625 45C72.6918 45 76 41.6917 76 37.625V36.375C76 32.3085 72.6918 29 68.625 29Z" fill="#4A88EB"/>
<path d="M78 49C76.8955 49 76 48.1045 76 47V37C76 35.8955 76.8955 35 78 35C79.1045 35 80 35.8955 80 37V47C80 48.1045 79.1045 49 78 49Z" fill="#4A88EB"/>
<path d="M85.5 49C84.3955 49 83.5 48.1045 83.5 47V35.75C83.5 29.8225 88.3225 25 94.25 25C100.177 25 105 29.8225 105 35.75V44.5C105 45.6045 104.104 46.5 103 46.5C101.896 46.5 101 45.6045 101 44.5V35.75C101 32.028 97.972 29 94.25 29C90.528 29 87.5 32.028 87.5 35.75V47C87.5 48.1045 86.6045 49 85.5 49Z" fill="#4A88EB"/>
<path d="M104.25 49C103.064 49 102.337 48.5182 101.936 48.1143C100.98 47.151 100.99 45.8558 100.998 44.8148L101 44.5C101 43.3955 101.896 42.5 103 42.5C104.105 42.5 105 43.3955 105 44.5C105 44.6172 104.999 44.7328 104.998 44.846C104.998 44.9408 104.997 45.0465 104.997 45.151C105.725 45.4513 106.241 46.1662 106.241 47C106.241 48.1042 105.355 49 104.25 49Z" fill="#4A88EB"/>
<path d="M85.5 39C84.3955 39 83.5 38.1045 83.5 37V27C83.5 25.8955 84.3955 25 85.5 25C86.6045 25 87.5 25.8955 87.5 27V37C87.5 38.1045 86.6045 39 85.5 39Z" fill="#4A88EB"/>
<path d="M129.25 49C128.146 49 127.25 48.1045 127.25 47C127.25 43.278 124.222 40.25 120.5 40.25C116.778 40.25 113.75 43.278 113.75 47C113.75 48.1045 112.855 49 111.75 49C110.645 49 109.75 48.1045 109.75 47C109.75 41.0725 114.573 36.25 120.5 36.25C126.427 36.25 131.25 41.0725 131.25 47C131.25 48.1045 130.354 49 129.25 49Z" fill="#4A88EB"/>
<path d="M111.617 48.9958C110.554 48.9268 109.75 47.9967 109.75 46.9315V15.75C112.238 17.3053 113.75 20.0325 113.75 22.967V47C113.75 48.1485 112.782 49.0713 111.617 48.9958Z" fill="#4A88EB"/>
<path d="M111.75 45.2678C111.238 45.2678 110.726 45.0725 110.336 44.682C109.555 43.9008 109.555 42.6348 110.336 41.8535L124.478 27.7115C125.259 26.9305 126.525 26.9305 127.306 27.7115C128.087 28.4925 128.087 29.7588 127.306 30.5398L113.164 44.682C112.774 45.0725 112.262 45.2678 111.75 45.2678Z" fill="#4A88EB"/>
<path d="M39.03 49H13.717C10.7825 49 8.05525 47.4883 6.5 45H39.0638C44.939 45 49.849 40.192 49.7482 34.3175C49.6507 28.6118 44.9788 24 39.25 24H30.0685C29.0033 24 28.0732 23.196 28.0042 22.133C27.929 20.9682 28.8512 20 30 20H39.25C47.3203 20 53.8717 26.627 53.7482 34.725C53.627 42.6812 46.987 49 39.03 49Z" fill="#4A88EB"/>
<path d="M22.5 40.75C21.3955 40.75 20.5 39.8545 20.5 38.75V12C20.5 5.38325 25.8833 0 32.5 0C39.1167 0 44.5 5.38325 44.5 12C44.5 18.6167 39.1167 24 32.5 24H29.9967C28.8935 23.9982 27.9982 23.1035 27.9982 22C27.9982 20.8955 28.892 20 29.9967 20H32.5C36.9113 20 40.5 16.4113 40.5 12C40.5 7.58875 36.9113 4 32.5 4C28.0887 4 24.5 7.58875 24.5 12V38.75C24.5 39.8545 23.6045 40.75 22.5 40.75Z" fill="#4A88EB"/>
<path d="M150.017 56.5H0C1.55525 54.0118 4.2825 52.5 7.217 52.5H150.033C157.853 52.5 164.379 46.2905 164.498 38.4715C164.62 30.513 158.181 24 150.25 24H145.205C138.668 24 133.177 18.8573 133.004 12.3233C132.826 5.58926 138.228 0.0492563 144.911 0.000256329C145.994 -0.00774367 146.942 0.813256 146.997 1.89501C147.056 3.04726 146.139 4.00001 145 4.00001C140.635 4.00001 137.075 7.51401 137.001 11.8615C136.925 16.337 140.683 20 145.159 20H150.25C160.373 20 168.597 28.2848 168.499 38.43C168.401 48.477 160.064 56.5 150.017 56.5Z" fill="white"/>
<path d="M137.964 21.1065C137.452 21.1065 136.94 20.9112 136.55 20.5207C131.871 15.842 131.871 8.229 136.55 3.55025C141.229 -1.12875 148.842 -1.12875 153.521 3.55025C154.302 4.33125 154.302 5.5975 153.521 6.3785C152.74 7.1595 151.474 7.1595 150.692 6.3785C147.573 3.259 142.498 3.2595 139.379 6.3785C136.259 9.49775 136.259 14.573 139.379 17.6922C140.16 18.4732 140.16 19.7395 139.379 20.5205C138.988 20.9112 138.476 21.1065 137.964 21.1065Z" fill="white"/>
<path d="M182.75 49C176.823 49 172 44.1775 172 38.25V27C172 25.8955 172.895 25 174 25C175.105 25 176 25.8955 176 27V38.25C176 41.972 179.028 45 182.75 45C186.472 45 189.5 41.972 189.5 38.25V27C189.5 25.8955 190.396 25 191.5 25C192.604 25 193.5 25.8955 193.5 27V38.25C193.5 44.1775 188.677 49 182.75 49Z" fill="white"/>
<path d="M188.937 60.1872C188.425 60.1872 187.914 59.9923 187.523 59.6015C186.742 58.8205 186.742 57.5543 187.523 56.7733C188.798 55.498 189.5 53.803 189.5 52V37C189.5 35.8955 190.395 35 191.5 35C192.604 35 193.5 35.8955 193.5 37V52C193.5 54.871 192.382 57.5707 190.351 59.6012C189.961 59.992 189.449 60.1872 188.937 60.1872Z" fill="white"/>
<path d="M203.75 49C201.546 49 199.474 48.1417 197.916 46.5837C197.135 45.8025 197.135 44.5365 197.916 43.7552C198.697 42.9745 199.963 42.9745 200.745 43.7552C201.547 44.5577 202.615 45 203.75 45C204.854 45 205.75 45.8955 205.75 47C205.75 48.1045 204.854 49 203.75 49Z" fill="white"/>
<path d="M210 49H203.75C202.645 49 201.75 48.1045 201.75 47C201.75 45.8955 202.645 45 203.75 45H210C212.344 45 214.25 43.0935 214.25 40.75C214.25 38.4065 212.344 36.5 210 36.5H206.125C202.954 36.5 200.375 33.9205 200.375 30.75C200.375 27.5795 202.954 25 206.125 25H207.625C208.729 25 209.625 25.8955 209.625 27C209.625 28.1045 208.729 29 207.625 29H206.125C205.16 29 204.375 29.785 204.375 30.75C204.375 31.715 205.16 32.5 206.125 32.5H210C214.549 32.5 218.25 36.201 218.25 40.75C218.25 45.299 214.549 49 210 49Z" fill="white"/>
<path d="M210.277 30.0985C209.765 30.0985 209.252 29.9033 208.862 29.5125C208.532 29.1822 208.092 29.0002 207.625 29.0002C206.52 29.0002 205.625 28.1047 205.625 27.0002C205.625 25.8957 206.52 25.0002 207.625 25.0002C209.161 25.0002 210.605 25.5985 211.691 26.6847C212.472 27.466 212.472 28.7322 211.691 29.513C211.3 29.9033 210.788 30.0985 210.277 30.0985Z" fill="white"/>
<path d="M155.75 37.1543V39.3458C155.75 39.7348 155.435 40.05 155.046 40.05C154.418 40.05 154.104 40.8085 154.548 41.2523C154.823 41.5273 154.823 41.9733 154.548 42.2483L152.998 43.7978C152.723 44.0728 152.277 44.0728 152.002 43.7978C151.558 43.354 150.8 43.6683 150.8 44.2958C150.8 44.6848 150.485 45 150.096 45H147.904C147.515 45 147.2 44.6848 147.2 44.2958C147.2 43.6683 146.441 43.3543 145.997 43.7978C145.722 44.0728 145.276 44.0728 145.001 43.7978L143.452 42.2483C143.177 41.9733 143.177 41.5273 143.452 41.2523C143.895 40.8085 143.581 40.05 142.954 40.05C142.565 40.05 142.25 39.7348 142.25 39.3458V37.1543C142.25 36.7653 142.565 36.45 142.954 36.45C143.581 36.45 143.895 35.6915 143.452 35.2478C143.177 34.9728 143.177 34.5268 143.452 34.2518L145.001 32.7023C145.276 32.4273 145.722 32.4273 145.997 32.7023C146.441 33.146 147.2 32.8318 147.2 32.2043V32.204C147.2 31.815 147.515 31.4998 147.904 31.4998H150.096C150.485 31.4998 150.8 31.815 150.8 32.204V32.2043C150.8 32.8318 151.558 33.1458 152.002 32.7023C152.277 32.4273 152.723 32.4273 152.998 32.7023L154.548 34.2518C154.823 34.5268 154.823 34.9728 154.548 35.2478C154.104 35.6915 154.418 36.45 155.046 36.45C155.435 36.45 155.75 36.7653 155.75 37.1543ZM149 36.25C147.897 36.25 147 37.1473 147 38.25C147 39.3528 147.897 40.25 149 40.25C150.103 40.25 151 39.3528 151 38.25C151 37.1473 150.103 36.25 149 36.25Z" fill="white"/>
</g>
<defs>
<clipPath id="clip0">
<rect width="218.25" height="60.1872" fill="white"/>
</clipPath>
</defs>
</svg>
